<svg width="1777" height="572" fill="none" xmlns="http://www.w3.org/2000/svg"><path d="M722.908 225.105c9.422 0 17.936 1.702 25.541 5.106 7.606 3.29 13.849 7.885 18.731 13.785 4.881 5.9 8.059 12.651 9.535 20.252.341 1.362.511 2.44.511 3.234 0 1.021-.227 1.702-.681 2.042-.341.341-1.022.568-2.044.681l-29.798 1.872c-1.135 0-1.873-.17-2.213-.51-.341-.454-.682-1.362-1.022-2.723-1.022-5.446-2.895-9.701-5.619-12.765-2.725-3.176-6.698-4.765-11.92-4.765-6.697 0-11.862 2.95-15.495 8.85-3.632 5.9-5.448 15.487-5.448 28.762 0 13.728 1.646 23.486 4.938 29.272 3.405 5.786 8.684 8.68 15.835 8.68 6.017 0 11.125-1.532 15.325-4.596 4.314-3.063 7.889-8.169 10.727-15.316.341-1.022 1.306-1.532 2.895-1.532.795 0 1.419.057 1.873.17l21.285 4.255c1.702.567 2.554 1.872 2.554 3.914 0 3.177-1.987 8.112-5.96 14.806-3.86 6.581-9.989 12.594-18.39 18.04-8.286 5.446-18.787 8.169-31.501 8.169-12.033 0-22.59-2.836-31.671-8.509-9.081-5.786-16.119-13.672-21.114-23.656-4.881-10.098-7.322-21.557-7.322-34.378 0-12.707 2.441-23.826 7.322-33.357 4.995-9.53 12.033-16.848 21.114-21.954 9.195-5.219 19.865-7.829 32.012-7.829zM849.475 354.788c-12.374 0-23.215-2.609-32.523-7.828-9.195-5.333-16.29-12.821-21.285-22.465-4.994-9.758-7.492-21.16-7.492-34.208 0-13.048 2.498-24.45 7.492-34.208 5.109-9.87 12.26-17.472 21.455-22.805 9.309-5.446 20.093-8.169 32.353-8.169 12.146 0 22.817 2.723 32.011 8.169 9.195 5.333 16.29 12.935 21.285 22.805 5.108 9.758 7.662 21.16 7.662 34.208 0 12.934-2.497 24.28-7.492 34.038-4.995 9.757-12.089 17.302-21.284 22.635-9.195 5.219-19.923 7.828-32.182 7.828zm0-26.549c4.994 0 8.967-1.191 11.919-3.574 2.951-2.496 5.108-6.467 6.47-11.913 1.363-5.446 2.044-12.764 2.044-21.954 0-14.069-1.59-24.167-4.768-30.294-3.179-6.126-8.4-9.19-15.665-9.19-7.379 0-12.714 3.064-16.006 9.19-3.179 6.127-4.768 16.225-4.768 30.294 0 9.19.681 16.508 2.043 21.954 1.362 5.446 3.519 9.417 6.471 11.913 3.065 2.383 7.151 3.574 12.26 3.574zM924.613 230.721c0-1.248.284-2.212.851-2.893.568-.68 1.362-1.021 2.384-1.021H960.2c2.044 0 3.065 1.191 3.065 3.574v92.412c0 .908.114 1.532.341 1.872.341.34.908.511 1.703.511h51.251c2.61 0 3.92 1.078 3.92 3.233v20.933c0 1.135-.4 2.043-1.19 2.723-.68.681-1.71 1.021-3.07 1.021h-87.01c-1.703 0-2.894-.34-3.576-1.021-.681-.68-1.021-1.758-1.021-3.233V230.721zM1034.03 230.721c0-1.248.28-2.212.85-2.893.57-.68 1.36-1.021 2.38-1.021h32.36c2.04 0 3.06 1.191 3.06 3.574v92.412c0 .908.11 1.532.34 1.872.34.34.91.511 1.7.511h51.26c2.61 0 3.91 1.078 3.91 3.233v20.933c0 1.135-.39 2.043-1.19 2.723-.68.681-1.7 1.021-3.06 1.021h-87.01c-1.71 0-2.9-.34-3.58-1.021-.68-.68-1.02-1.758-1.02-3.233V230.721zM1143.44 230.721c0-2.609 1.08-3.914 3.24-3.914h91.95c2.04 0 3.06 1.191 3.06 3.574l-.17 19.742c0 3.063-1.47 4.595-4.42 4.595h-51.09c-2.61 0-3.91 1.078-3.91 3.234v14.465c0 1.135.28 2.043.85 2.723.57.568 1.3.851 2.21.851h30.65c2.38 0 3.58 1.135 3.58 3.404v21.103c0 1.929-1.02 2.894-3.07 2.894h-31.5c-.79 0-1.47.227-2.04.68-.46.454-.68 1.022-.68 1.702v17.019c0 .908.11 1.532.34 1.872.34.34.91.511 1.7.511h55.34c2.5 0 3.75 1.078 3.75 3.233v20.933c0 1.135-.35 2.043-1.03 2.723-.68.681-1.7 1.021-3.06 1.021h-91.1c-1.7 0-2.89-.34-3.57-1.021-.69-.68-1.03-1.758-1.03-3.233V230.721zM1304.24 225.105c9.42 0 17.94 1.702 25.54 5.106 7.61 3.29 13.85 7.885 18.73 13.785 4.88 5.9 8.06 12.651 9.54 20.252.34 1.362.51 2.44.51 3.234 0 1.021-.23 1.702-.68 2.042-.34.341-1.02.568-2.05.681l-29.79 1.872c-1.14 0-1.88-.17-2.22-.51-.34-.454-.68-1.362-1.02-2.723-1.02-5.446-2.89-9.701-5.62-12.765-2.72-3.176-6.7-4.765-11.92-4.765-6.7 0-11.86 2.95-15.49 8.85-3.64 5.9-5.45 15.487-5.45 28.762 0 13.728 1.64 23.486 4.94 29.272 3.4 5.786 8.68 8.68 15.83 8.68 6.02 0 11.13-1.532 15.33-4.596 4.31-3.063 7.89-8.169 10.72-15.316.34-1.022 1.31-1.532 2.9-1.532.79 0 1.42.057 1.87.17l21.29 4.255c1.7.567 2.55 1.872 2.55 3.914 0 3.177-1.99 8.112-5.96 14.806-3.86 6.581-9.99 12.594-18.39 18.04-8.29 5.446-18.79 8.169-31.5 8.169-12.03 0-22.59-2.836-31.67-8.509-9.08-5.786-16.12-13.672-21.12-23.656-4.88-10.098-7.32-21.557-7.32-34.378 0-12.707 2.44-23.826 7.32-33.357 5-9.53 12.04-16.848 21.12-21.954 9.19-5.219 19.86-7.829 32.01-7.829zM1369 230.721c0-1.134.34-2.042 1.02-2.723.79-.794 1.87-1.191 3.23-1.191h101.83c1.36 0 2.38.397 3.06 1.191.8.681 1.2 1.589 1.2 2.723v20.253c0 2.156-1.25 3.233-3.75 3.233h-30.14c-1.36 0-2.04.568-2.04 1.702v93.433c0 1.248-.29 2.213-.85 2.893-.57.568-1.37.851-2.39.851h-32.35c-2.04 0-3.07-1.134-3.07-3.403V256.59c0-1.588-.62-2.383-1.87-2.383h-29.97c-2.61 0-3.91-1.077-3.91-3.233v-20.253zM1528.56 226.807c2.05 0 3.07 1.191 3.07 3.574v117.77c0 1.815-.46 3.12-1.36 3.914-.91.681-2.33 1.021-4.26 1.021h-28.44c-1.7 0-2.89-.34-3.57-1.021-.68-.68-1.03-1.758-1.03-3.233V230.721c0-1.248.29-2.212.86-2.893.56-.68 1.36-1.021 2.38-1.021h32.35zM1660.88 226.807c1.02 0 1.81.341 2.38 1.021.68.568 1.02 1.362 1.02 2.383 0 .681-.06 1.191-.17 1.532l-39.5 117.089c-.8 2.836-2.9 4.254-6.3 4.254h-27.59c-3.4 0-5.5-1.418-6.3-4.254l-39.5-117.089c-.23-.681-.34-1.192-.34-1.532 0-1.021.34-1.815 1.02-2.383.68-.68 1.53-1.021 2.55-1.021h32.87c2.15 0 3.57 1.191 4.25 3.574l22.82 74.713c.23.794.51 1.191.85 1.191.23 0 .51-.454.85-1.362l21.29-74.542c.22-1.134.74-1.985 1.53-2.553.91-.68 1.87-1.021 2.89-1.021h25.38zM1677.22 230.721c0-2.609 1.08-3.914 3.23-3.914h91.95c2.05 0 3.07 1.191 3.07 3.574l-.17 19.742c0 3.063-1.48 4.595-4.43 4.595h-51.08c-2.61 0-3.92 1.078-3.92 3.234v14.465c0 1.135.28 2.043.85 2.723.57.568 1.31.851 2.22.851h30.65c2.38 0 3.57 1.135 3.57 3.404v21.103c0 1.929-1.02 2.894-3.06 2.894h-31.5c-.8 0-1.48.227-2.05.68-.45.454-.68 1.022-.68 1.702v17.019c0 .908.11 1.532.34 1.872.34.34.91.511 1.7.511h55.34c2.5 0 3.75 1.078 3.75 3.233v20.933c0 1.135-.34 2.043-1.02 2.723-.68.681-1.7 1.021-3.07 1.021h-91.09c-1.71 0-2.9-.34-3.58-1.021-.68-.68-1.02-1.758-1.02-3.233V230.721z" fill="#000"/><path d="M257.664 571.622c-1.955-.279-5.688-.726-8.295-1.062-2.608-.335-6.222-.838-8-1.062-5.451-.839-13.984-1.621-25.479-2.292-13.807-.839-28.383-.503-70.217 1.733-5.867.279-14.814.671-19.851.838-5.036.168-17.598.559-27.909.895-26.96.894-53.922-.503-68.084-3.466-18.31-3.913-24.175-8.665-26.427-21.634-.711-4.025-.83-13.752-.711-58.251.118-35.666-.06-58.586-.593-69.039C.143 376.075.084 369.199.44 287.19c.178-45.337.593-94.419.889-109.01.296-14.59.711-52.325.948-83.854.178-32.814.593-59.2.948-61.772 1.304-9.727 5.392-16.1 13.866-21.355C23.31 7.342 28.88 5.553 40.495 3.71c5.215-.84 56.648-1.342 98.363-1.063 14.814.168 74.187.224 131.842.28 101.741 0 121.888-.224 178.357-2.013C476.433.02 546.176-.317 552.753.354c3.259.336 8.474.895 11.555 1.23 5.215.559 7.288.894 14.221 2.292 10.962 2.18 11.436 2.516 13.925 9.671 3.911 11.125 4.681 23.032 2.667 40.641-1.304 11.349-1.363 12.522-.652 25.324.355 7.38.948 16.324 1.244 19.846.296 3.521.83 9.727 1.185 13.696a2441.25 2441.25 0 001.482 16.211c1.362 14.088 2.607 32.592 2.962 43.884.178 5.702.415 13.864.593 18.168.178 4.305.533 16.268.889 26.554a9095.66 9095.66 0 001.185 32.535c.77 17.833.77 78.208 0 90.339a3863.15 3863.15 0 00-1.185 22.193c-.297 7.1-.711 15.485-.889 18.727-.415 7.491-.415 51.934 0 59.145.118 2.963.533 12.746.889 21.635.355 8.944.889 20.739 1.185 26.218.948 16.156.77 50.536-.237 54.169-3.496 12.634-12.977 19.51-30.872 22.25-4.563.671-30.161.391-44.145-.559-10.31-.671-128.583-.727-142.211-.056-10.607.559-19.91 1.23-29.332 2.236-2.903.279-7.88.783-10.962 1.062-3.081.335-8.177.839-11.258 1.174-6.696.727-14.932 1.509-24.591 2.292-9.066.783-48.056 1.062-52.737.391z" fill="#FF3E2A"/><path fill-rule="evenodd" clip-rule="evenodd" d="M115.81 226.977c-3.292-.113-11.693-.17-25.201-.17H70.516c-1.703 0-2.895.341-3.576 1.021-.68.568-1.021 1.645-1.021 3.234v49.846a242.418 242.418 0 01-5.464-.645c-9.268-1.203-15.724-2.664-19.476-4.198-4.515-1.846-9.672.315-11.519 4.827a8.825 8.825 0 004.83 11.512c5.963 2.438 14.3 4.122 23.89 5.367 2.458.319 5.04.614 7.739.887v49.323c0 1.815.397 3.12 1.192 3.914.794.794 2.043 1.191 3.746 1.191h44.782c14.53 0 26.847-2.666 36.95-7.998 10.103-5.446 17.709-12.935 22.817-22.465 3.453-6.442 5.739-13.558 6.858-21.347l3.224-.05c3.907-.063 7.841-.135 11.796-.213v47.819c0 1.475.34 2.553 1.021 3.233.682.681 1.874 1.021 3.576 1.021h91.098c1.362 0 2.384-.34 3.065-1.021.681-.68 1.021-1.588 1.021-2.723v-20.933c0-2.156-1.248-3.233-3.746-3.233H237.98c-.795 0-1.362-.171-1.703-.511-.227-.34-.341-.964-.341-1.872v-17.019c0-.681.227-1.248.682-1.702.567-.453 1.248-.68 2.043-.68h31.501c2.043 0 3.065-.965 3.065-2.894v-1.63c13.031-.451 25.868-.925 38.295-1.396v51.87c0 1.021.34 1.929 1.021 2.723.795.681 1.76 1.021 2.895 1.021h53.807c18.39 0 32.012-2.779 40.866-8.339 8.968-5.673 13.452-14.352 13.452-26.038 0-7.375-1.93-13.389-5.789-18.04-1.952-2.352-4.585-4.544-7.899-6.577 19.912-.388 38.731-.462 55.87-.379v55.97c0 2.269 1.022 3.403 3.065 3.403h32.352c1.022 0 1.817-.283 2.384-.851.568-.68.852-1.645.852-2.893v-55.196c6.121.102 11.827.208 17.067.306h.035c11.133.207 20.161.375 26.609.375 4.877 0 8.831-3.952 8.831-8.827s-3.954-8.827-8.831-8.827c-6.089 0-14.821-.163-25.689-.365h-.025c-5.478-.102-11.499-.215-17.997-.321v-20.578c0-1.134.681-1.702 2.043-1.702h30.139c2.497 0 3.746-1.078 3.746-3.233v-20.252c0-1.135-.398-2.043-1.192-2.724-.681-.794-1.703-1.191-3.065-1.191H434.244c-1.362 0-2.441.397-3.235 1.191-.681.681-1.022 1.589-1.022 2.724v20.252c0 2.155 1.305 3.233 3.916 3.233h29.969c1.249 0 1.873.795 1.873 2.383v19.471a2365.47 2365.47 0 00-50.921.285c.258-.288.503-.576.736-.865 3.292-4.198 4.938-9.304 4.938-15.317 0-11.006-4.597-19.288-13.792-24.847-9.082-5.673-22.477-8.51-40.185-8.51h-50.742c-1.249 0-2.271.454-3.065 1.362-.795.794-1.192 1.815-1.192 3.063v48.573c-12.432.471-25.267.946-38.295 1.398v-1.808c0-2.269-1.192-3.404-3.576-3.404h-30.65c-.908 0-1.646-.283-2.213-.851-.568-.68-.852-1.588-.852-2.723v-14.466c0-2.155 1.306-3.233 3.917-3.233h51.083c2.951 0 4.427-1.532 4.427-4.595l.17-19.742c0-2.383-1.022-3.574-3.065-3.574h-91.949c-2.157 0-3.235 1.305-3.235 3.915v52.633c-4.051.081-8.08.154-12.082.219l-2.339.037c-1.11-15.832-6.717-28.696-16.822-38.594-11.352-11.232-28.096-17.245-50.231-18.04zm26.565 56.928c-.592-8.769-2.749-15.491-6.473-20.167-4.427-5.56-10.898-8.736-19.411-9.531l-10.217-.68c-.568 0-1.022.17-1.362.51-.227.341-.341.965-.341 1.872v27.406c11.68.375 24.384.558 37.804.59zm-37.804 17.074v22.835c0 1.021.171 1.702.511 2.042.341.341.965.511 1.873.511h1.192c11.238 0 19.752-2.893 25.542-8.68 3.841-3.839 6.432-9.216 7.774-16.13-13.025-.037-25.418-.218-36.892-.578zm264.674-24.817c3.973 0 7.152-1.078 9.536-3.234 2.383-2.156 3.575-4.935 3.575-8.339 0-3.631-1.362-6.581-4.086-8.85-2.725-2.269-6.13-3.404-10.217-3.404h-13.962c-1.476 0-2.498.284-3.065.851-.568.454-.852 1.305-.852 2.553v16.678c0 1.362.227 2.326.681 2.894.454.567 1.192.851 2.214.851h16.176zm-.851 51.396c4.654 0 8.287-1.305 10.897-3.914 2.725-2.61 4.087-5.673 4.087-9.19 0-3.517-1.305-6.411-3.916-8.68-2.611-2.269-6.017-3.403-10.217-3.403h-15.154c-1.476 0-2.498.283-3.065.85-.568.568-.852 1.475-.852 2.723v17.87c0 1.362.227 2.326.681 2.893.454.568 1.192.851 2.214.851h15.325z" fill="#fff"/></svg>