<svg width="604" height="572" fill="none" xmlns="http://www.w3.org/2000/svg"><path d="M257.24 571.622c-1.954-.279-5.685-.726-8.291-1.062-2.605-.335-6.218-.838-7.994-1.062-5.449-.839-13.976-1.621-25.465-2.292-13.798-.839-28.366-.503-70.175 1.733-5.862.279-14.805.671-19.838.838-5.034.168-17.588.559-27.893.895-26.944.894-53.89-.503-68.043-3.466-18.299-3.913-24.161-8.665-26.412-21.634-.71-4.025-.829-13.752-.71-58.251.118-35.666-.06-58.586-.592-69.039C-.128 376.075-.187 369.199.169 287.19c.177-45.337.592-94.419.888-109.01.296-14.59.71-52.325.947-83.854.178-32.814.593-59.2.948-61.772 1.303-9.727 5.389-16.1 13.857-21.355 6.218-3.857 11.785-5.646 23.392-7.49 5.211-.84 56.614-1.342 98.304-1.063 14.805.168 74.143.224 131.763.28 101.68 0 121.815-.224 178.251-2.013 27.359-.894 97.06-1.23 103.634-.559 3.257.336 8.468.895 11.547 1.23 5.212.559 7.284.894 14.213 2.292 10.956 2.18 11.429 2.516 13.917 9.671 3.908 11.125 4.678 23.032 2.665 40.641-1.303 11.349-1.362 12.522-.652 25.324.355 7.38.948 16.324 1.244 19.846.296 3.521.829 9.727 1.184 13.696a2372.2 2372.2 0 001.481 16.211c1.362 14.088 2.605 32.592 2.961 43.884.177 5.702.414 13.864.592 18.168.177 4.305.533 16.268.888 26.554.355 10.286.888 24.932 1.184 32.535.77 17.833.77 78.208 0 90.339-.296 5.143-.829 15.149-1.184 22.193-.296 7.1-.711 15.485-.888 18.727-.415 7.491-.415 51.934 0 59.145.118 2.963.533 12.746.888 21.635.355 8.944.888 20.739 1.184 26.218.948 16.156.77 50.536-.236 54.169-3.494 12.634-12.969 19.51-30.854 22.25-4.56.671-30.142.391-44.118-.559-10.304-.671-128.506-.727-142.127-.056-10.6.559-19.898 1.23-29.313 2.236-2.902.279-7.877.783-10.956 1.062-3.079.335-8.172.839-11.252 1.174-6.691.727-14.923 1.509-24.576 2.292-9.06.783-48.027 1.062-52.705.391z" fill="#FF3E2A"/><path fill-rule="evenodd" clip-rule="evenodd" d="M115.47 226.977c-3.29-.113-11.685-.17-25.186-.17h-20.08c-1.702 0-2.893.341-3.574 1.021-.68.568-1.021 1.645-1.021 3.234v49.846a242.069 242.069 0 01-5.46-.645c-9.263-1.203-15.715-2.664-19.465-4.198A8.827 8.827 0 0034 292.404c5.959 2.438 14.291 4.122 23.874 5.367 2.457.319 5.038.614 7.735.887v49.323c0 1.815.397 3.12 1.191 3.914s2.042 1.191 3.744 1.191H115.3c14.521 0 26.831-2.666 36.928-7.998 10.097-5.446 17.698-12.935 22.803-22.465 3.45-6.442 5.735-13.558 6.853-21.347l3.223-.05c3.904-.064 7.836-.135 11.789-.213v47.819c0 1.475.34 2.553 1.021 3.233.68.681 1.871 1.021 3.573 1.021h91.043c1.362 0 2.383-.34 3.063-1.021.681-.68 1.021-1.588 1.021-2.723v-20.933c0-2.156-1.247-3.233-3.743-3.233h-55.307c-.794 0-1.361-.171-1.702-.511-.227-.34-.34-.964-.34-1.872v-17.019c0-.681.227-1.248.681-1.702.567-.453 1.248-.68 2.042-.68h31.482c2.042 0 3.063-.965 3.063-2.894v-1.63c13.023-.451 25.853-.926 38.272-1.396v51.87c0 1.021.34 1.929 1.021 2.723.794.681 1.759 1.021 2.893 1.021h53.775c18.379 0 31.993-2.779 40.842-8.339 8.962-5.673 13.444-14.352 13.444-26.038 0-7.375-1.929-13.389-5.786-18.04-1.95-2.352-4.582-4.544-7.895-6.577 19.9-.388 38.709-.462 55.837-.379v55.97c0 2.269 1.021 3.403 3.063 3.403h32.333c1.021 0 1.815-.283 2.383-.851.567-.68.851-1.645.851-2.893v-55.196c6.118.102 11.82.208 17.056.305h.005l.031.001c11.126.207 20.149.375 26.593.375a8.827 8.827 0 008.826-8.827 8.827 8.827 0 00-8.826-8.827c-6.086 0-14.812-.163-25.674-.365h-.025c-5.474-.103-11.492-.215-17.986-.321v-20.578c0-1.134.68-1.702 2.042-1.702h30.121c2.495 0 3.743-1.078 3.743-3.233v-20.253c0-1.134-.397-2.042-1.191-2.723-.681-.794-1.702-1.191-3.063-1.191H433.714c-1.361 0-2.439.397-3.233 1.191-.681.681-1.021 1.589-1.021 2.723v20.253c0 2.155 1.304 3.233 3.914 3.233h29.95c1.248 0 1.872.795 1.872 2.383v19.471a2362.73 2362.73 0 00-50.891.285c.258-.288.504-.576.736-.865 3.29-4.198 4.935-9.304 4.935-15.317 0-11.006-4.594-19.288-13.784-24.847-9.076-5.673-22.463-8.51-40.161-8.51h-50.712c-1.248 0-2.269.454-3.063 1.362-.794.794-1.191 1.815-1.191 3.063v48.573c-12.424.471-25.252.946-38.272 1.398v-1.808c0-2.269-1.191-3.404-3.574-3.404h-30.631c-.907 0-1.645-.283-2.212-.851-.567-.68-.851-1.588-.851-2.723v-14.466c0-2.155 1.305-3.233 3.914-3.233h51.052c2.95 0 4.425-1.532 4.425-4.595l.17-19.742c0-2.383-1.021-3.574-3.063-3.574h-91.894c-2.156 0-3.233 1.305-3.233 3.914v52.634c-4.049.081-8.075.154-12.075.219l-2.338.037c-1.109-15.832-6.713-28.696-16.812-38.594-11.345-11.232-28.078-17.245-50.201-18.04zm26.55 56.928c-.592-8.769-2.748-15.491-6.47-20.167-4.424-5.56-10.891-8.736-19.399-9.531l-10.211-.68c-.567 0-1.021.17-1.361.51-.227.341-.341.965-.341 1.872v27.406c11.673.375 24.37.558 37.782.59zm-37.782 17.074v22.835c0 1.021.171 1.702.511 2.042.34.341.964.511 1.872.511h1.191c11.232 0 19.74-2.893 25.526-8.68 3.839-3.839 6.429-9.216 7.77-16.13-13.017-.037-25.403-.218-36.87-.578zm264.516-24.817c3.971 0 7.147-1.078 9.53-3.234 2.382-2.156 3.573-4.935 3.573-8.339 0-3.631-1.361-6.581-4.084-8.85-2.723-2.269-6.126-3.404-10.21-3.404h-13.954c-1.475 0-2.496.284-3.064.851-.567.454-.85 1.305-.85 2.553v16.678c0 1.362.226 2.326.68 2.894.454.567 1.191.851 2.212.851h16.167zm-.851 51.396c4.652 0 8.282-1.305 10.891-3.914 2.723-2.61 4.084-5.673 4.084-9.19 0-3.517-1.304-6.411-3.914-8.68-2.609-2.269-6.012-3.403-10.21-3.403h-15.145c-1.475 0-2.496.283-3.064.85-.567.568-.85 1.475-.85 2.723v17.87c0 1.362.226 2.326.68 2.893.454.567 1.191.851 2.212.851h15.316z" fill="#fff"/></svg>