<svg xmlns="http://www.w3.org/2000/svg" viewBox="0 0 1386 537" version="1.1" width="100%" height="100%" xml:space="preserve" xmlns:xlink="http://www.w3.org/1999/xlink">
<path d="M0+0L1386+0L1386+0L1386+537L1386+537L0+537L0+537L0+0L0+0Z" opacity="1" fill="#ffffff"/>
<path opacity="1" d="M0+165L1386+165L1386+165L1386+537L1386+537L0+537L0+537L0+165L0+165Z" fill="#ffe995"/>
<path opacity="1" d="M0+0L1386+0L1386+0L1386+165L1386+165L0+165L0+165L0+0L0+0Z" fill="#fff4c3"/>
<path fill="#ffe995" opacity="1" d="M0+129.655L0+53L603+124.677L1386+125.5L1386+150.5L976.337+312.627L603+124.677L0+129.655Z"/>
<path d="M0+190.181L0+125L603.435+125L954.188+164.61L1386+150L1386+205.724L1333.5+210L1386+217.5L495.858+305L179.129+268.398L0+275.919L0+240.32L179.129+268.398L1333.5+210L954.188+164.61L542.659+224.114L0+190.181Z" opacity="1" fill="#ffd557"/>
<path d="M0+242.5L0+188.5L962.5+165.5L1335.5+210L177+269.5L0+242.5Z" opacity="1" fill="#ffcc43"/>
<path fill="#ffdf72" d="M0+353L0+276L180+268.5L499.5+304L0+353Z" opacity="1"/>
<path d="M1386+483.5L498.5+303.5L1386+217.5L1386+483.5Z" fill="#ffdf72" opacity="1"/>
<path d="M1334.5+210L1386+217.5L1386+205L1334.5+210Z" opacity="1" fill="#ffdf72"/>
</svg>
