<svg xmlns="http://www.w3.org/2000/svg"><symbol id="caret-down" viewBox="0 0 16 28"><title>caret-down</title><path fill="currentColor" d="M16 11a.99.99 0 01-.297.703l-7 7C8.516 18.89 8.265 19 8 19s-.516-.109-.703-.297l-7-7A.996.996 0 010 11c0-.547.453-1 1-1h14c.547 0 1 .453 1 1z"/></symbol><symbol id="close" viewBox="0 0 22.5 22.27"><defs><style>.e976b01e-b823-4a33-afa4-7e423e5efc07{fill:#303536}</style></defs><title>close</title><g id="bc0933f0-4035-477f-a26f-3729a5f20fc6" data-name="Layer 2"><g id="ac142a7b-f51d-4aa6-8dfb-c0c4fdfa64fb" data-name="Layer 1"><path class="e976b01e-b823-4a33-afa4-7e423e5efc07" d="M.4 2.17l19.44 19.44a1.25 1.25 0 101.77-1.77L2.17.4A1.18 1.18 0 00.4.4a1.18 1.18 0 000 1.77z"/><path class="e976b01e-b823-4a33-afa4-7e423e5efc07" d="M2.66 21.87L22.1 2.43a1.18 1.18 0 000-1.77 1.18 1.18 0 00-1.77 0L.89 20.1a1.18 1.18 0 000 1.77 1.18 1.18 0 001.77 0z"/></g></g></symbol><symbol id="facebook-square" viewBox="0 0 24 28"><title>facebook-square</title><path fill="currentColor" d="M19.5 2q1.859 0 3.18 1.32T24 6.5v15q0 1.859-1.32 3.18T19.5 26h-2.938v-9.297h3.109l.469-3.625h-3.578v-2.312q0-.875.367-1.313t1.43-.438l1.906-.016V5.765q-.984-.141-2.781-.141-2.125 0-3.398 1.25t-1.273 3.531v2.672H9.688v3.625h3.125v9.297H4.5q-1.859 0-3.18-1.32T0 21.499v-15q0-1.859 1.32-3.18t3.18-1.32h15z"/></symbol><symbol id="github-square" viewBox="0 0 60 60"><title>github-square</title><g fill="none" fill-rule="evenodd"><path d="M2.996 0h54.008A2.993 2.993 0 0160 2.996v54.008A2.993 2.993 0 0157.004 60H2.996A2.993 2.993 0 010 57.004V2.996A2.993 2.993 0 012.996 0z" fill="#000"/><path d="M25.425 47.517c0-.45-.016-1.64-.025-3.22-5.135 1.143-6.218-2.538-6.218-2.538-.84-2.187-2.05-2.77-2.05-2.77-1.677-1.174.126-1.15.126-1.15 1.853.134 2.828 1.951 2.828 1.951 1.647 2.893 4.32 2.058 5.373 1.574.168-1.224.645-2.058 1.172-2.531-4.1-.478-8.41-2.102-8.41-9.356 0-2.066.72-3.756 1.901-5.08-.189-.478-.824-2.402.182-5.009 0 0 1.55-.509 5.076 1.94a17.275 17.275 0 014.623-.637c1.567.007 3.146.218 4.622.638 3.523-2.45 5.071-1.94 5.071-1.94 1.008 2.604.374 4.529.184 5.009 1.183 1.323 1.897 3.013 1.897 5.08 0 7.271-4.317 8.871-8.43 9.34.664.584 1.254 1.74 1.254 3.506 0 2.53-.024 4.572-.024 5.193 0 .507.333 1.095 1.27.91 7.33-2.508 12.615-9.599 12.615-17.959 0-10.455-8.267-18.93-18.463-18.93-10.194 0-18.46 8.475-18.46 18.93 0 8.363 5.29 15.458 12.626 17.961.923.173 1.26-.411 1.26-.912z" fill="#FFF"/></g></symbol><symbol id="hamburger" viewBox="0 0 30 20"><title>hamburger</title><g data-name="Layer 2"><path d="M12.5 11.25h16.25A1.18 1.18 0 0030 10a1.18 1.18 0 00-1.25-1.25H12.5A1.18 1.18 0 0011.25 10a1.18 1.18 0 001.25 1.25zM1.25 2.5h27.5A1.18 1.18 0 0030 1.25 1.18 1.18 0 0028.75 0H1.25A1.18 1.18 0 000 1.25 1.18 1.18 0 001.25 2.5zm0 17.5h27.5a1.25 1.25 0 000-2.5H1.25a1.25 1.25 0 000 2.5z" fill="currentColor" data-name="Layer 1"/></g></symbol><symbol id="instagram-square" viewBox="0 0 27 32"><title>instagram-square</title><path fill="currentColor" d="M18.286 16q0-1.893-1.339-3.232t-3.232-1.339-3.232 1.339T9.144 16t1.339 3.232 3.232 1.339 3.232-1.339T18.286 16zm2.464 0q0 2.929-2.054 4.982t-4.982 2.054-4.982-2.054T6.678 16t2.054-4.982 4.982-2.054 4.982 2.054T20.75 16zm1.929-7.321q0 .679-.482 1.161t-1.161.482-1.161-.482-.482-1.161.482-1.161 1.161-.482 1.161.482.482 1.161zM13.714 4.75l-1.366-.009q-1.241-.009-1.884 0t-1.723.054-1.839.179-1.277.33q-.893.357-1.571 1.036T3.018 7.911q-.196.518-.33 1.277t-.179 1.839-.054 1.723 0 1.884T2.464 16t-.009 1.366 0 1.884.054 1.723.179 1.839.33 1.277q.357.893 1.036 1.571t1.571 1.036q.518.196 1.277.33t1.839.179 1.723.054 1.884 0 1.366-.009 1.366.009 1.884 0 1.723-.054 1.839-.179 1.277-.33q.893-.357 1.571-1.036t1.036-1.571q.196-.518.33-1.277t.179-1.839.054-1.723 0-1.884T24.964 16t.009-1.366 0-1.884-.054-1.723-.179-1.839-.33-1.277q-.357-.893-1.036-1.571t-1.571-1.036q-.518-.196-1.277-.33t-1.839-.179-1.723-.054-1.884 0-1.366.009zM27.429 16q0 4.089-.089 5.661-.179 3.714-2.214 5.75t-5.75 2.214q-1.571.089-5.661.089t-5.661-.089q-3.714-.179-5.75-2.214T.09 21.661Q.001 20.09.001 16t.089-5.661q.179-3.714 2.214-5.75t5.75-2.214q1.571-.089 5.661-.089t5.661.089q3.714.179 5.75 2.214t2.214 5.75q.089 1.571.089 5.661z"/></symbol><symbol id="linkedin-square" viewBox="0 0 24 28"><title>linkedin-square</title><path fill="currentColor" d="M3.703 22.094h3.609V11.25H3.703v10.844zM7.547 7.906q-.016-.812-.562-1.344t-1.453-.531-1.477.531-.57 1.344q0 .797.555 1.336t1.445.539h.016q.922 0 1.484-.539t.562-1.336zm9.141 14.188h3.609v-6.219q0-2.406-1.141-3.641T16.14 11q-2.125 0-3.266 1.828h.031V11.25H9.296q.047 1.031 0 10.844h3.609v-6.062q0-.594.109-.875.234-.547.703-.93t1.156-.383q1.813 0 1.813 2.453v5.797zM24 6.5v15q0 1.859-1.32 3.18T19.5 26h-15q-1.859 0-3.18-1.32T0 21.5v-15q0-1.859 1.32-3.18T4.5 2h15q1.859 0 3.18 1.32T24 6.5z"/></symbol><symbol id="pause" viewBox="0 0 24 28"><title>pause</title><path fill="currentColor" d="M24 3v22c0 .547-.453 1-1 1h-8c-.547 0-1-.453-1-1V3c0-.547.453-1 1-1h8c.547 0 1 .453 1 1zM10 3v22c0 .547-.453 1-1 1H1c-.547 0-1-.453-1-1V3c0-.547.453-1 1-1h8c.547 0 1 .453 1 1z"/></symbol><symbol id="play" viewBox="0 0 22 28"><title>play</title><path fill="currentColor" d="M21.625 14.484L.875 26.015c-.484.266-.875.031-.875-.516v-23c0-.547.391-.781.875-.516l20.75 11.531c.484.266.484.703 0 .969z"/></symbol><symbol id="twitter-square" viewBox="0 0 24 28"><title>twitter-square</title><path fill="currentColor" d="M20 9.531q-.875.391-1.891.531 1.062-.625 1.453-1.828-1.016.594-2.094.797Q16.515 8 15.077 8q-1.359 0-2.32.961t-.961 2.32q0 .453.078.75-2.016-.109-3.781-1.016t-3-2.422q-.453.781-.453 1.656 0 1.781 1.422 2.734-.734-.016-1.563-.406v.031q0 1.172.781 2.086t1.922 1.133q-.453.125-.797.125-.203 0-.609-.063.328.984 1.164 1.625t1.898.656q-1.813 1.406-4.078 1.406-.406 0-.781-.047 2.312 1.469 5.031 1.469 1.75 0 3.281-.555t2.625-1.484 1.883-2.141 1.172-2.531.383-2.633q0-.281-.016-.422.984-.703 1.641-1.703zM24 6.5v15q0 1.859-1.32 3.18T19.5 26h-15q-1.859 0-3.18-1.32T0 21.5v-15q0-1.859 1.32-3.18T4.5 2h15q1.859 0 3.18 1.32T24 6.5z"/></symbol><symbol fill-rule="evenodd" clip-rule="evenodd" stroke-linejoin="round" stroke-miterlimit="2" id="youtube-square" viewBox="0 0 512 512"><title>youtube-square</title><path d="M449.446 0C483.971 0 512 28.03 512 62.554v386.892C512 483.97 483.97 512 449.446 512H62.554C28.03 512 0 483.97 0 449.446V62.554C0 28.03 28.029 0 62.554 0h386.892zm-20.967 175.63c-4.139-15.489-16.337-27.687-31.826-31.826C368.575 136.28 256 136.28 256 136.28s-112.575 0-140.653 7.524c-15.486 4.139-27.686 16.337-31.826 31.826C76 203.705 76 262.282 76 262.282s0 58.576 7.521 86.648c4.14 15.489 16.34 27.69 31.826 31.829C143.425 388.28 256 388.28 256 388.28s112.575 0 140.653-7.521c15.489-4.139 27.687-16.34 31.826-31.829C436 320.858 436 262.282 436 262.282s0-58.577-7.521-86.652zM219.998 316.283V208.281l93.53 54.001-93.53 54.001z"/></symbol></svg>