<svg viewBox="0 0 30 20" xmlns="http://www.w3.org/2000/svg" xml:space="preserve" style="fill-rule:evenodd;clip-rule:evenodd;stroke-linejoin:round;stroke-miterlimit:2"><path d="M1.25 2.5h27.5l.072.002A1.185 1.185 0 0 0 30 1.25a1.185 1.185 0 0 0-1.178-1.252L28.75 0H1.25A1.185 1.185 0 0 0-.002 1.178L0 1.25a1.185 1.185 0 0 0 1.178 1.252L1.25 2.5Z" style="fill-rule:nonzero" transform="translate(0 8.732)"/><path d="M1.25 2.5h27.5l.072.002A1.185 1.185 0 0 0 30 1.25a1.185 1.185 0 0 0-1.178-1.252L28.75 0H1.25A1.185 1.185 0 0 0-.002 1.178L0 1.25a1.185 1.185 0 0 0 1.178 1.252L1.25 2.5Zm0 17.5h27.5c.686 0 1.25-.564 1.25-1.25s-.564-1.25-1.25-1.25H1.25c-.686 0-1.25.564-1.25 1.25S.564 20 1.25 20Z" style="fill-rule:nonzero"/></svg>