<?xml version="1.0" standalone="no"?>
<!DOCTYPE svg PUBLIC "-//W3C//DTD SVG 1.1//EN" "http://www.w3.org/Graphics/SVG/1.1/DTD/svg11.dtd" >
<svg xmlns="http://www.w3.org/2000/svg" xmlns:xlink="http://www.w3.org/1999/xlink" version="1.1">
<metadata>
Created by FontForge 20200427 at Mon Oct  3 17:29:37 2016
 By www
(c) 2016 Studio Feed Inc., all rights reserved. Distributed exclusively by Feedtype. More Gothic is a registered trademark of Studio Feed Inc.
</metadata>
<defs>
<font id="MoreGothic-Bold" horiz-adv-x="200" >
  <font-face 
    font-family="More Gothic Bold"
    font-weight="700"
    font-stretch="condensed"
    units-per-em="1000"
    panose-1="2 0 0 0 0 0 0 0 0 0"
    ascent="756"
    descent="-244"
    x-height="718"
    cap-height="718"
    bbox="-180.667 -234 980 1028"
    underline-thickness="70"
    underline-position="-84"
    unicode-range="U+0020-FDFC"
  />
<missing-glyph horiz-adv-x="500" 
d="M55 0v750h390v-750h-390zM250 406l150 312h-300zM85 62l150 313l-150 313v-626zM415 62v626l-150 -313zM100 32h300l-150 312z" />
    <glyph glyph-name="uniFDFC" unicode="&#xfdfc;" horiz-adv-x="829" arabic-form="isolated" 
d="M326 706v-561q0 -119 -46 -172.5t-117 -53.5q-30 0 -58.5 9.5t-49.5 30t-34 54.5t-13 82q0 25 6.5 73t29.5 101q1 4 3 5t5 0l95 -28q4 -1 5 -3.5t0 -6.5q-15 -40 -22 -72t-7 -61q0 -42 13 -61.5t32 -19.5q22 0 32 28.5t10 94.5v561q0 5 3.5 8.5t8.5 3.5h92q5 0 8.5 -3.5
t3.5 -8.5zM488 706v-425q0 -51 7.5 -74t27.5 -23h29q0 28 -9.5 70.5t-19.5 73.5q-1 4 -0.5 6.5t3.5 3.5l83 23q4 1 6.5 0t3.5 -5q18 -46 30 -109.5t12 -156.5q0 -5 -2 -7.5t-6 -2.5h-158q-60 0 -91.5 35t-31.5 117v474q0 5 3.5 8.5t8.5 3.5h92q5 0 8.5 -3.5t3.5 -8.5z
M435 -123l56 57q3 3 5.5 3t6.5 -3q32 -29 55 -46.5t54 -17.5q28 0 47 15.5t31 42t17.5 61.5t5.5 75q0 57 -9.5 115.5t-25.5 114.5q-1 3 0 5t4 3l90 26q4 1 6.5 0t3.5 -5q16 -50 26.5 -114.5t10.5 -130.5q0 -62 -11.5 -119t-34.5 -99.5t-59 -68t-85 -25.5q-57 0 -111 29.5
t-83 67.5q-3 4 -3 7.5t3 6.5zM483 -11l-48 -49q-3 -3 -5 -3t-5 3l-48 49q-3 3 -3 5t3 5l48 48q3 3 5 3t5 -3l48 -48q3 -3 3 -5t-3 -5zM623 -11l-48 -49q-3 -3 -5 -3t-5 3l-48 49q-3 3 -3 5t3 5l48 48q3 3 5 3t5 -3l48 -48q3 -3 3 -5t-3 -5z" />
    <glyph glyph-name=".notdef" horiz-adv-x="500" 
d="M55 0v750h390v-750h-390zM250 406l150 312h-300zM85 62l150 313l-150 313v-626zM415 62v626l-150 -313zM100 32h300l-150 312z" />
    <glyph glyph-name=".null" horiz-adv-x="0" 
 />
    <glyph glyph-name="nonmarkingreturn" horiz-adv-x="333" 
 />
    <glyph glyph-name="space" unicode=" " horiz-adv-x="208" 
 />
    <glyph glyph-name="exclam" unicode="!" horiz-adv-x="209" 
d="M62 224l-24 482q0 6 2.5 9t8.5 3h111q6 0 8.5 -3t2.5 -9l-24 -482q0 -6 -3.5 -9t-9.5 -3h-59q-6 0 -9.5 3t-3.5 9zM104 123q28 0 47 -20t19 -48t-19 -48.5t-47 -20.5t-47 20.5t-19 48.5t19 48t47 20z" />
    <glyph glyph-name="quotedbl" unicode="&#x22;" horiz-adv-x="286" 
d="M122 520q0 -6 -3 -10t-10 -4h-54q-7 0 -10 4t-3 10v184q0 6 3 10t10 4h54q7 0 10 -4t3 -10v-184zM244 520q0 -6 -3 -10t-10 -4h-54q-7 0 -10 4t-3 10v184q0 6 3 10t10 4h54q7 0 10 -4t3 -10v-184z" />
    <glyph glyph-name="numbersign" unicode="#" horiz-adv-x="432" 
d="M228 705l-94 -694q-1 -5 -4 -8t-9 -3h-55q-6 0 -9 3.5t-2 9.5l29 209h-62q-6 0 -9 3t-3 9v46q0 6 3 9t9 3h71l18 135h-60q-6 0 -9 3t-3 9v46q0 6 3 9t9 3h70l28 210q1 5 4 8t9 3h55q6 0 9 -3.5t2 -9.5zM204 13l94 694q1 5 4 8t9 3h55q6 0 9 -3.5t2 -9.5l-29 -209h62
q6 0 9 -3t3 -9v-46q0 -6 -3 -9t-9 -3h-71l-18 -135h60q6 0 9 -3t3 -9v-46q0 -6 -3 -9t-9 -3h-70l-28 -210q-1 -5 -4 -8t-9 -3h-55q-6 0 -9 3.5t-2 9.5z" />
    <glyph glyph-name="dollar" unicode="$" horiz-adv-x="384" 
d="M215 -100h-56q-6 0 -9 3t-3 9v78q-41 9 -67.5 34t-42 57t-21.5 69t-6 69q0 6 3 9t9 3h108q6 0 9 -3t3 -9q0 -13 1.5 -35.5t6.5 -43.5t16 -36.5t30 -15.5q25 0 37 24.5t12 52.5q0 27 -11 49.5t-27.5 41t-34.5 33.5t-32 27q-68 57 -99.5 107.5t-31.5 122.5q0 74 36 123.5
t102 59.5v77q0 6 3 9t9 3h56q6 0 9 -3t3 -9v-79q68 -15 100 -73.5t32 -136.5q0 -6 -3 -9t-9 -3h-110q-6 0 -9 3t-3 9q0 16 -1.5 35.5t-6 36.5t-14 29t-24.5 12q-18 0 -28.5 -19t-10.5 -47q0 -49 21 -78t46 -50q29 -24 59 -48t54 -52.5t39.5 -64t15.5 -82.5q0 -35 -9.5 -68.5
t-28 -60t-46 -45.5t-64.5 -26v-77q0 -6 -3 -9t-9 -3z" />
    <glyph glyph-name="percent" unicode="%" horiz-adv-x="400" 
d="M342 732h31q4 0 4.5 -2.5t-0.5 -5.5l-311 -732q-1 -3 -3 -4.5t-5 -1.5h-33q-4 0 -4.5 2t0.5 5l312 733q1 4 3.5 5t5.5 1zM99 732q47 0 69 -39t22 -121t-22 -121.5t-69 -39.5t-69 39.5t-22 121.5t22 121t69 39zM99 678q-12 0 -17 -23.5t-5 -82.5q0 -60 5 -83.5t17 -23.5
t17 23.5t5 83.5q0 59 -5 82.5t-17 23.5zM299 307q47 0 69 -39t22 -121t-22 -121.5t-69 -39.5t-69 39.5t-22 121.5t22 121t69 39zM299 253q-12 0 -17 -23.5t-5 -82.5q0 -60 5 -83.5t17 -23.5t17 23.5t5 83.5q0 59 -5 82.5t-17 23.5z" />
    <glyph glyph-name="ampersand" unicode="&#x26;" horiz-adv-x="498" 
d="M410 -13q-5 -4 -9 -3t-8 5l-43 59q-28 -31 -63 -46.5t-77 -15.5q-39 0 -74.5 14t-62 40t-42.5 62t-16 79q0 62 27 107t70 86q-25 35 -48.5 80.5t-23.5 94.5q0 82 47 132.5t123 50.5t123 -50.5t47 -132.5q0 -55 -29 -108.5t-74 -90.5l58 -78l18 61q1 6 5 7t10 1h94
q5 0 7.5 -4.5t0.5 -10.5l-56 -161l76 -104q4 -5 3.5 -9t-5.5 -8zM163 562q0 -31 12.5 -59t31.5 -56q25 25 37.5 52t12.5 63q0 22 -11.5 39t-35.5 17q-23 0 -35 -17t-12 -39zM221 94q22 0 38.5 11t27.5 29l-101 138q-17 -19 -27 -43t-10 -52q0 -43 22 -63t50 -20z" />
    <glyph glyph-name="quotesingle" unicode="'" horiz-adv-x="164" 
d="M122 520q0 -6 -3 -10t-10 -4h-54q-7 0 -10 4t-3 10v184q0 6 3 10t10 4h54q7 0 10 -4t3 -10v-184z" />
    <glyph glyph-name="parenleft" unicode="(" horiz-adv-x="300" 
d="M234 821l40 -29q4 -4 5.5 -8t-1.5 -9q-29 -48 -52.5 -101.5t-39.5 -107.5t-24.5 -107t-8.5 -100t8.5 -100t24.5 -107t39.5 -107.5t52.5 -101.5q3 -5 1.5 -9t-5.5 -8l-40 -29q-4 -4 -9 -2.5t-8 5.5q-34 49 -61.5 105t-45.5 114.5t-28 119.5t-10 120t10 120t28 119.5
t45.5 114.5t61.5 105q3 4 8 5.5t9 -2.5z" />
    <glyph glyph-name="parenright" unicode=")" horiz-adv-x="300" 
d="M27 792l40 29q4 4 9 2.5t8 -5.5q34 -49 61.5 -105t45.5 -114.5t28 -119.5t10 -120t-10 -120t-28 -119.5t-45.5 -114.5t-61.5 -105q-3 -4 -8 -5.5t-9 2.5l-40 29q-4 4 -5.5 8t1.5 9q29 48 52.5 101.5t39.5 107.5t24.5 107t8.5 100t-8.5 100t-24.5 107t-39.5 107.5
t-52.5 101.5q-3 5 -1.5 9t5.5 8z" />
    <glyph glyph-name="asterisk" unicode="*" horiz-adv-x="222" 
d="M208 674l9 -27q1 -5 -0.5 -9.5t-7.5 -5.5l-59 -16l38 -49q4 -4 3.5 -8.5t-5.5 -8.5l-24 -16q-4 -3 -8 -2.5t-8 5.5l-34 51l-34 -51q-4 -5 -8.5 -6t-8.5 3l-23 17q-4 3 -5 7.5t3 9.5l38 48l-59 17q-6 1 -8 5t0 10l9 27q1 5 5 7t10 0l57 -22l-2 62q0 6 3 9t9 3h28q6 0 9 -3
t3 -9l-2 -62l57 21q6 2 9.5 0.5t5.5 -7.5z" />
    <glyph glyph-name="plus" unicode="+" horiz-adv-x="400" 
d="M237 331v-109q0 -6 -3 -9t-9 -3h-50q-6 0 -9 3t-3 9v109h-100q-6 0 -9 3t-3 9v46q0 6 3 9t9 3h100v109q0 6 3 9t9 3h50q6 0 9 -3t3 -9v-109h100q6 0 9 -3t3 -9v-46q0 -6 -3 -9t-9 -3h-100z" />
    <glyph glyph-name="comma" unicode="," horiz-adv-x="189" 
d="M21 -113q-6 0 -9 4.5t-2 9.5l46 258q1 6 4.5 7.5t9.5 1.5h90q6 0 8.5 -4t1.5 -10l-72 -257q-1 -6 -4.5 -8t-9.5 -2h-63z" />
    <glyph glyph-name="hyphen" unicode="-" horiz-adv-x="262" 
d="M25 343v46q0 6 3 9t9 3h188q6 0 9 -3t3 -9v-46q0 -6 -3 -9t-9 -3h-188q-6 0 -9 3t-3 9z" />
    <glyph glyph-name="period" unicode="." horiz-adv-x="189" 
d="M161 55q0 -28 -19 -48.5t-47 -20.5t-47 20.5t-19 48.5t19 48t47 20t47 -20t19 -48z" />
    <glyph glyph-name="slash" unicode="/" horiz-adv-x="289" 
d="M1 14l209 694q1 5 4.5 7.5t8.5 2.5h55q6 0 9 -3.5t1 -10.5l-211 -694q-1 -5 -4.5 -7.5t-8.5 -2.5h-53q-6 0 -9 3.5t-1 10.5z" />
    <glyph glyph-name="zero" unicode="0" horiz-adv-x="400" 
d="M200 732q90 0 133.5 -91t43.5 -282t-43.5 -282t-133.5 -91t-133.5 91t-43.5 282t43.5 282t133.5 91zM200 88q22 0 30.5 60.5t8.5 210.5t-8.5 210.5t-30.5 60.5t-30.5 -60.5t-8.5 -210.5t8.5 -210.5t30.5 -60.5z" />
    <glyph glyph-name="one" unicode="1" horiz-adv-x="204" 
d="M37 12v632q0 5 2.5 8.5t6.5 5.5q16 10 28 22t28 33q3 3 7 4t8 1h38q6 0 9 -3t3 -9v-694q0 -6 -3 -9t-9 -3h-106q-6 0 -9 3t-3 9z" />
    <glyph glyph-name="two" unicode="2" horiz-adv-x="399" 
d="M20 12v75q0 4 1 7.5t3 7.5q36 57 74 112.5t69 108.5t50.5 106.5t19.5 106.5q0 41 -7.5 67.5t-32.5 26.5q-19 0 -30.5 -26.5t-12.5 -92.5q0 -7 -3 -10t-9 -3h-106q-5 0 -8 3.5t-3 8.5q1 42 12 82t33 71t55.5 50t79.5 19q41 0 72 -15.5t52 -41.5t32 -61.5t11 -74.5
q0 -51 -19 -107.5t-48 -111.5t-64 -106.5t-67 -94.5h188q6 0 9 -3t3 -9v-95q0 -6 -3 -9t-9 -3h-330q-6 0 -9 3t-3 9z" />
    <glyph glyph-name="three" unicode="3" horiz-adv-x="366" 
d="M179 -14q-44 0 -77.5 17t-55 43t-32.5 58.5t-11 63.5q0 5 3 8.5t9 3.5h102q6 0 8.5 -3t3.5 -9q1 -10 3 -24t6.5 -26.5t12.5 -21t20 -8.5q19 0 32.5 27t13.5 87q0 54 -20.5 82.5t-79.5 29.5q-6 0 -9 3t-3 9v78q0 6 3 9t10 3q57 -1 75.5 33t18.5 90q0 14 -1.5 30t-5.5 29.5
t-11.5 22.5t-20.5 9q-19 0 -28 -21t-9 -58q0 -6 -3.5 -9t-9.5 -3h-101q-6 0 -9 4t-2 10q3 35 15 67.5t32.5 57t51 39.5t70.5 15q41 0 71.5 -15.5t50.5 -41t30 -59.5t10 -70q0 -42 -17 -92t-61 -81q51 -22 71 -72.5t20 -105.5q0 -101 -50 -155t-126 -54z" />
    <glyph glyph-name="four" unicode="4" horiz-adv-x="422" 
d="M18 145v82q0 4 0.5 7.5t1.5 7.5l132 466q1 5 4.5 7.5t8.5 2.5h168q6 0 9 -3t3 -9v-462h56q6 0 9 -3t3 -9v-87q0 -6 -3 -9t-9 -3h-56v-121q0 -6 -3 -9t-9 -3h-95q-6 0 -9 3t-3 9v121h-196q-6 0 -9 3t-3 9zM134 246h93v305h-15z" />
    <glyph glyph-name="five" unicode="5" horiz-adv-x="366" 
d="M19 183h106q6 0 8.5 -3t3.5 -10q4 -47 13 -64.5t24 -17.5q22 0 31.5 32.5t9.5 107.5q0 60 -11 92t-40 32q-16 0 -27.5 -10t-20.5 -29q-2 -5 -6.5 -6.5t-9.5 -0.5l-73 22q-5 1 -7 5t-2 9l23 364q1 6 4 9t9 3h270q6 0 8.5 -3t2.5 -9v-92q0 -6 -3.5 -9t-9.5 -3h-176
l-10 -156q13 7 27.5 11.5t34.5 4.5q66 0 113.5 -53t47.5 -176q0 -66 -14.5 -113t-39 -76.5t-58.5 -43.5t-73 -14q-81 0 -122 53t-45 132q0 5 3 8.5t9 3.5z" />
    <glyph glyph-name="six" unicode="6" horiz-adv-x="397" 
d="M377 245q0 -123 -46 -191t-128 -68q-32 0 -64 13.5t-58 51t-42 105t-16 174.5q0 219 53 310.5t140 91.5q42 0 70.5 -17.5t46 -45.5t26 -62.5t11.5 -68.5q1 -5 -2 -8.5t-9 -3.5h-102q-6 0 -9.5 3t-3.5 9q0 45 -8 68.5t-27 23.5q-27 0 -36.5 -49t-10.5 -166q15 16 35 25
t45 9q61 0 98 -52.5t37 -151.5zM203 347q-19 0 -28 -28t-9 -85q0 -64 6.5 -105t30.5 -41t30.5 41t6.5 105q0 60 -10 86.5t-27 26.5z" />
    <glyph glyph-name="seven" unicode="7" horiz-adv-x="329" 
d="M0 608v98q0 6 3 9t9 3h306q6 0 9 -3t3 -9v-68q0 -4 -1 -9t-2 -9q-47 -139 -80.5 -291t-34.5 -317q0 -6 -3 -9t-9 -3h-131q-6 0 -9 3t-2 9q10 164 49.5 302.5t93.5 281.5h-189q-6 0 -9 3t-3 9z" />
    <glyph glyph-name="eight" unicode="8" horiz-adv-x="411" 
d="M205 -14q-39 0 -74.5 14.5t-62 40.5t-42.5 63t-16 82q0 59 29 103.5t72 84.5q-34 36 -55 81.5t-21 91.5q0 83 47 134t123 51t123 -51t47 -134q0 -46 -21 -91.5t-55 -80.5q43 -41 72 -85.5t29 -103.5q0 -45 -16 -82t-42.5 -63t-62 -40.5t-74.5 -14.5zM205 447
q22 19 34.5 49t12.5 63q0 28 -12 49.5t-35 21.5t-35 -21.5t-12 -49.5q0 -33 12.5 -63t34.5 -49zM205 303q-29 -22 -45 -55.5t-16 -75.5q0 -47 20.5 -68.5t40.5 -21.5t40.5 21.5t20.5 68.5q0 42 -16 75.5t-45 55.5z" />
    <glyph glyph-name="nine" unicode="9" horiz-adv-x="397" 
d="M181 -14q-42 0 -70.5 17.5t-46 45.5t-26 62.5t-11.5 68.5q-1 5 2 8.5t9 3.5h102q6 0 9.5 -3t3.5 -9q0 -45 8 -68.5t27 -23.5q27 0 36.5 49t10.5 166q-15 -16 -35 -25t-45 -9q-61 0 -98 52.5t-37 151.5q0 123 46 191t128 68q32 0 64 -13.5t58 -51t42 -105t16 -174.5
q0 -219 -53 -310.5t-140 -91.5zM194 371q19 0 28 28t9 85q0 64 -6.5 105t-30.5 41t-30.5 -41t-6.5 -105q0 -60 10 -86.5t27 -26.5z" />
    <glyph glyph-name="colon" unicode=":" horiz-adv-x="189" 
d="M161 356q0 -28 -19 -48.5t-47 -20.5t-47 20.5t-19 48.5t19 48t47 20t47 -20t19 -48zM161 55q0 -28 -19 -48.5t-47 -20.5t-47 20.5t-19 48.5t19 48t47 20t47 -20t19 -48z" />
    <glyph glyph-name="semicolon" unicode=";" horiz-adv-x="189" 
d="M171 356q0 -28 -19 -48.5t-47 -20.5t-47 20.5t-19 48.5t19 48t47 20t47 -20t19 -48zM9 -113q-6 0 -9 4.5t-2 9.5l46 258q1 6 4.5 7.5t9.5 1.5h90q6 0 8.5 -4t1.5 -10l-72 -257q-1 -6 -4.5 -8t-9.5 -2h-63z" />
    <glyph glyph-name="less" unicode="&#x3c;" horiz-adv-x="400" 
d="M340 454l-190 -86v-4l190 -86q4 -2 6.5 -5.5t2.5 -8.5v-57q0 -7 -4.5 -9t-9.5 0l-275 123q-4 1 -6.5 5t-2.5 9v62q0 5 2.5 9t6.5 5l275 123q5 2 9.5 0t4.5 -9v-57q0 -5 -2.5 -8.5t-6.5 -5.5z" />
    <glyph glyph-name="equal" unicode="=" horiz-adv-x="400" 
d="M337 403h-274q-6 0 -9 3t-3 9v46q0 6 3 9t9 3h274q6 0 9 -3t3 -9v-46q0 -6 -3 -9t-9 -3zM337 259h-274q-6 0 -9 3t-3 9v46q0 6 3 9t9 3h274q6 0 9 -3t3 -9v-46q0 -6 -3 -9t-9 -3z" />
    <glyph glyph-name="greater" unicode="&#x3e;" horiz-adv-x="400" 
d="M60 454q-4 2 -6.5 5.5t-2.5 8.5v57q0 7 4.5 9t9.5 0l275 -123q4 -1 6.5 -5t2.5 -9v-62q0 -5 -2.5 -9t-6.5 -5l-275 -123q-5 -2 -9.5 0t-4.5 9v57q0 5 2.5 8.5t6.5 5.5l190 86v4z" />
    <glyph glyph-name="question" unicode="?" horiz-adv-x="356" 
d="M141 213v32q0 51 12 92t25.5 77t25.5 71t12 74q0 30 -9 46.5t-29 16.5q-21 0 -33 -19t-15 -62q0 -6 -3 -9t-9 -3h-98q-6 0 -9 3t-3 9q1 40 11.5 75t31 60.5t52 40.5t73.5 15q31 0 61.5 -9t54.5 -29t39 -51t15 -75q0 -50 -17.5 -86t-39 -72t-39 -79.5t-17.5 -108.5v-9
q0 -6 -3 -9t-9 -3h-68q-6 0 -9 3t-3 9zM187 123q28 0 47 -20t19 -48t-19 -48.5t-47 -20.5t-47 20.5t-19 48.5t19 48t47 20z" />
    <glyph glyph-name="at" unicode="@" horiz-adv-x="646" 
d="M351 -14q-80 3 -141.5 32t-103 78t-62.5 116.5t-21 146.5q0 84 23 153t64 117.5t98.5 75.5t126.5 27q54 0 106 -19.5t92.5 -60t65 -103t24.5 -147.5q0 -40 -5.5 -83.5t-20.5 -79.5t-41 -59t-66 -23q-34 0 -62 15t-49 47q-13 -28 -32.5 -45t-46.5 -17q-54 0 -86.5 54
t-32.5 149q0 94 32.5 147.5t85.5 53.5q25 0 43.5 -14t31.5 -37l3 27q1 7 4.5 11t10.5 4h42q7 0 11 -4t4 -11v-243q0 -34 10 -50t31 -16q19 0 31 18.5t18.5 46t8.5 58t2 54.5q0 67 -18.5 116t-48.5 80.5t-69 46.5t-79 15q-56 0 -100.5 -22.5t-75 -62.5t-47 -96.5
t-16.5 -122.5q0 -62 15 -116t45.5 -94.5t79.5 -65.5t116 -29q5 0 8.5 -3.5t3.5 -8.5v-43q0 -6 -3.5 -9.5t-9.5 -3.5zM274 360q0 -63 11.5 -98.5t28.5 -35.5q19 0 31 34t12 100t-12 99t-31 33q-17 0 -28.5 -35t-11.5 -97z" />
    <glyph glyph-name="A" unicode="A" horiz-adv-x="424" 
d="M320 707l100 -694q1 -6 -2 -9.5t-10 -3.5h-118q-6 0 -9 3t-4 8l-23 208h-82l-23 -208q-1 -5 -4 -8t-9 -3h-118q-7 0 -10 3.5t-2 9.5l100 694q1 5 4 8t9 3h188q6 0 9 -3t4 -8zM175 327h76l-32 256h-12z" />
    <glyph glyph-name="B" unicode="B" horiz-adv-x="416" 
d="M210 0h-161q-6 0 -9 3t-3 9v694q0 6 3 9t9 3h147q90 0 140.5 -50t50.5 -139q0 -54 -25 -94.5t-71 -60.5q52 -21 81 -65.5t29 -107.5q0 -94 -50.5 -147.5t-140.5 -53.5zM181 608v-182q40 1 54 20.5t14 70.5q0 49 -13.5 70t-54.5 21zM181 310v-200q49 1 62.5 30t13.5 72
q0 51 -15 74t-61 24z" />
    <glyph glyph-name="C" unicode="C" horiz-adv-x="420" 
d="M388 456h-113q-6 0 -9 3t-3 8q-1 83 -11 116t-32 33q-7 0 -15.5 -7t-15.5 -32.5t-11.5 -77t-4.5 -140.5q0 -87 4.5 -138t11.5 -77.5t15.5 -34t15.5 -7.5q22 0 33 41t13 113q0 6 3 9t9 3h110q6 0 9 -3t3 -9q0 -46 -8.5 -94t-29.5 -87t-57 -64t-91 -25q-107 0 -149 99
t-42 274q0 203 51.5 288t142.5 85q53 0 88.5 -23.5t56.5 -61t29.5 -85t8.5 -94.5q0 -6 -3 -9t-9 -3z" />
    <glyph glyph-name="D" unicode="D" horiz-adv-x="426" 
d="M37 12v694q0 6 3 9t9 3h108q84 0 133 -26t74 -72.5t32 -113t7 -147.5q0 -77 -6 -143t-28.5 -114t-67.5 -75t-123 -27h-129q-6 0 -9 3t-3 9zM181 602v-486q26 0 40.5 7.5t21.5 32.5t8.5 73.5t1.5 130.5q0 81 -1.5 129.5t-8.5 73.5t-21.5 32t-40.5 7z" />
    <glyph glyph-name="E" unicode="E" horiz-adv-x="361" 
d="M37 12v694q0 6 3 9t9 3h284q6 0 9 -3t3 -9v-92q0 -6 -3 -9t-9 -3h-152v-176h109q6 0 9 -3t3 -9v-98q0 -6 -3 -9t-9 -3h-109v-188h159q6 0 9 -3t3 -9v-92q0 -6 -3 -9t-9 -3h-291q-6 0 -9 3t-3 9z" />
    <glyph glyph-name="F" unicode="F" horiz-adv-x="342" 
d="M37 12v694q0 6 3 9t9 3h281q6 0 9 -3t3 -9v-92q0 -6 -3 -9t-9 -3h-149v-184h107q6 0 9 -3t3 -9v-98q0 -6 -3 -9t-9 -3h-107v-284q0 -6 -3 -9t-9 -3h-120q-6 0 -9 3t-3 9z" />
    <glyph glyph-name="G" unicode="G" horiz-adv-x="427" 
d="M263 467q-1 83 -11 116t-32 33q-7 0 -15.5 -6.5t-15.5 -32t-11.5 -77t-4.5 -140.5q0 -87 4.5 -138.5t11.5 -77.5t17 -34t21 -8q29 0 41.5 34.5t12.5 91.5h-41q-6 0 -9 3t-3 9v86q0 6 3 9t9 3h148q6 0 9 -3t3 -9v-314q0 -6 -3 -9t-9 -3h-46q-5 0 -8.5 2.5t-4.5 6.5l-13 41
q-15 -24 -39.5 -44t-70.5 -20q-95 0 -139 99t-44 274q0 203 51.5 288t142.5 85q53 0 88.5 -23.5t56.5 -61t29.5 -85t8.5 -94.5q0 -6 -3 -9t-9 -3h-113q-6 0 -9 3t-3 8z" />
    <glyph glyph-name="H" unicode="H" horiz-adv-x="436" 
d="M37 12v694q0 6 3 9t9 3h120q6 0 9 -3t3 -9v-277h74v277q0 6 3 9t9 3h120q6 0 9 -3t3 -9v-694q0 -6 -3 -9t-9 -3h-120q-6 0 -9 3t-3 9v291h-74v-291q0 -6 -3 -9t-9 -3h-120q-6 0 -9 3t-3 9z" />
    <glyph glyph-name="I" unicode="I" horiz-adv-x="218" 
d="M37 12v694q0 6 3 9t9 3h120q6 0 9 -3t3 -9v-694q0 -6 -3 -9t-9 -3h-120q-6 0 -9 3t-3 9z" />
    <glyph glyph-name="J" unicode="J" horiz-adv-x="274" 
d="M244 706v-563q0 -82 -36.5 -115t-116.5 -33q-19 0 -37.5 1.5t-32.5 2.5q-5 1 -8 4.5t-3 8.5v93q0 6 3 8.5t9 2.5h34q27 0 35.5 15t8.5 44v531q0 6 3 9t9 3h120q6 0 9 -3t3 -9z" />
    <glyph glyph-name="K" unicode="K" horiz-adv-x="428" 
d="M181 12q0 -6 -3 -9t-9 -3h-120q-6 0 -9 3t-3 9v694q0 6 3 9t9 3h120q6 0 9 -3t3 -9v-249h4l86 251q1 5 4.5 7.5t8.5 2.5h122q7 0 9.5 -4t0.5 -10l-109 -288l115 -403q1 -6 -1 -9.5t-9 -3.5h-123q-5 0 -8.5 2.5t-4.5 8.5l-80 333h-15v-332z" />
    <glyph glyph-name="L" unicode="L" horiz-adv-x="342" 
d="M37 12v694q0 6 3 9t9 3h120q6 0 9 -3t3 -9v-590h134q6 0 9 -3t3 -9v-92q0 -6 -3 -9t-9 -3h-266q-6 0 -9 3t-3 9z" />
    <glyph glyph-name="M" unicode="M" horiz-adv-x="572" 
d="M372 718h151q6 0 9 -3t3 -9v-694q0 -6 -3 -9t-9 -3h-106q-6 0 -9 3t-3 9v412h-7l-80 -413q-1 -5 -4 -8t-8 -3h-40q-5 0 -8 3t-4 8l-80 413h-7v-412q0 -6 -3 -9t-9 -3h-106q-6 0 -9 3t-3 9v694q0 6 3 9t9 3h151q5 0 8 -3t4 -8l74 -324l74 324q1 5 4 8t8 3z" />
    <glyph glyph-name="N" unicode="N" horiz-adv-x="466" 
d="M171 12q0 -6 -3 -9t-9 -3h-110q-6 0 -9 3t-3 9v694q0 6 3 9t9 3h124q5 0 8.5 -2.5t4.5 -7.5l105 -326h4v324q0 6 3 9t9 3h110q6 0 9 -3t3 -9v-694q0 -6 -3 -9t-9 -3h-104q-5 0 -8.5 2.5t-4.5 7.5l-124 390h-5v-388z" />
    <glyph glyph-name="O" unicode="O" horiz-adv-x="440" 
d="M220 -14q-44 0 -80.5 19t-62.5 62.5t-40 115t-14 176.5t14 176.5t40 115t62.5 62.5t80.5 19t80.5 -19t62.5 -62.5t40 -115t14 -176.5t-14 -176.5t-40 -115t-62.5 -62.5t-80.5 -19zM179 434v-150q0 -57 3 -92.5t8.5 -55.5t13 -27t16.5 -7t16.5 7t13 27t8.5 55.5t3 92.5
v150q0 57 -3 92.5t-8.5 55.5t-13 27t-16.5 7t-16.5 -7t-13 -27t-8.5 -55.5t-3 -92.5z" />
    <glyph glyph-name="P" unicode="P" horiz-adv-x="410" 
d="M37 12v694q0 6 3 9t9 3h125q118 0 174.5 -53t56.5 -163q0 -106 -48.5 -161.5t-140.5 -55.5h-35v-273q0 -6 -3 -9t-9 -3h-120q-6 0 -9 3t-3 9zM182 602v-207q40 0 59.5 20t19.5 84q0 36 -6 57t-16 31t-24.5 12.5t-32.5 2.5z" />
    <glyph glyph-name="Q" unicode="Q" horiz-adv-x="440" 
d="M411 -105h-28q-35 0 -60 9t-41.5 22.5t-26.5 29.5t-15 31q-5 -1 -10 -1h-10q-44 0 -80.5 19t-62.5 62.5t-40 115t-14 176.5t14 176.5t40 115t62.5 62.5t80.5 19t80.5 -19t62.5 -62.5t40 -115t14 -176.5q0 -125 -20 -203.5t-56 -118.5q7 -14 12.5 -17t21.5 -3h36q6 0 9 -3
t3 -9v-98q0 -6 -3 -9t-9 -3zM179 284q0 -57 3 -92.5t8.5 -55.5t13 -27t16.5 -7t16.5 7t13 27t8.5 55.5t3 92.5v150q0 57 -3 92.5t-8.5 55.5t-13 27t-16.5 7t-16.5 -7t-13 -27t-8.5 -55.5t-3 -92.5v-150z" />
    <glyph glyph-name="R" unicode="R" horiz-adv-x="416" 
d="M181 12q0 -6 -3 -9t-9 -3h-120q-6 0 -9 3t-3 9v694q0 6 3 9t9 3h141q45 0 84 -10t67.5 -33.5t45 -63t16.5 -98.5q0 -45 -15.5 -94t-64.5 -83l85 -323q1 -6 -1.5 -9.5t-9.5 -3.5h-120q-6 0 -9.5 3t-4.5 8l-66 295h-16v-294zM181 608v-192h19q31 0 45 28t14 68
q0 50 -18.5 73t-46.5 23h-13z" />
    <glyph glyph-name="S" unicode="S" horiz-adv-x="384" 
d="M22 231h108q6 0 9 -3t3 -9q1 -51 13 -84t41 -33q22 0 34 17t12 46q0 27 -10.5 49.5t-26 41t-33 33.5t-30.5 27q-63 58 -94.5 108t-31.5 122q0 84 46 135t128 51q46 0 79 -17t54.5 -45.5t32 -68t10.5 -84.5q0 -6 -3 -9t-9 -3h-110q-6 0 -9 3t-3 9q-1 39 -8 69t-36 30
q-19 0 -28.5 -16.5t-9.5 -41.5q0 -36 20 -66t49 -56q30 -27 58.5 -53.5t50 -56t34.5 -65t13 -79.5q0 -41 -11 -77t-33 -62.5t-56.5 -41.5t-80.5 -15q-47 0 -82 18.5t-57.5 50t-33.5 74t-11 90.5q0 6 3 9t9 3z" />
    <glyph glyph-name="T" unicode="T" horiz-adv-x="372" 
d="M114 12v590h-100q-6 0 -9 3t-3 9v92q0 6 3 9t9 3h344q6 0 9 -3t3 -9v-92q0 -6 -3 -9t-9 -3h-100v-590q0 -6 -3 -9t-9 -3h-120q-6 0 -9 3t-3 9z" />
    <glyph glyph-name="U" unicode="U" horiz-adv-x="424" 
d="M262 718h120q6 0 9 -3t3 -9v-525q0 -104 -52.5 -149.5t-129.5 -45.5t-129.5 45.5t-52.5 149.5v525q0 6 3 9t9 3h120q6 0 9 -3t3 -9v-516q0 -37 7 -62.5t31 -25.5t31 25.5t7 62.5v516q0 6 3 9t9 3z" />
    <glyph glyph-name="V" unicode="V" horiz-adv-x="400" 
d="M268 718h116q7 0 10 -3.5t2 -9.5l-111 -694q-1 -5 -4 -8t-9 -3h-142q-6 0 -9 3t-4 8l-111 694q-1 6 2 9.5t10 3.5h116q6 0 9 -3t4 -8l50 -473h9l49 473q1 5 4 8t9 3z" />
    <glyph glyph-name="W" unicode="W" horiz-adv-x="611" 
d="M480 718h116q6 0 9 -3.5t2 -9.5l-101 -694q-1 -5 -4 -8t-9 -3h-109q-6 0 -9 3t-4 8l-63 380l-65 -380q-1 -5 -4 -8t-9 -3h-108q-6 0 -9 3t-4 8l-103 694q-1 6 2 9.5t9 3.5h116q6 0 9 -3t4 -8l39 -417h8l55 417q1 5 4 8t9 3h98q6 0 8.5 -3t3.5 -8l50 -417h8l38 417
q1 5 4 8t9 3z" />
    <glyph glyph-name="X" unicode="X" horiz-adv-x="424" 
d="M151 10q-1 -5 -4.5 -7.5t-8.5 -2.5h-120q-6 0 -9 3.5t-1 10.5l122 360l-124 330q-2 7 0.5 10.5t8.5 3.5h120q5 0 8.5 -2.5t4.5 -7.5l60 -203l60 203q1 5 4.5 7.5t8.5 2.5h121q6 0 9 -3.5t1 -10.5l-123 -330l129 -360q2 -7 -0.5 -10.5t-8.5 -3.5h-121q-5 0 -8.5 2.5
t-4.5 7.5l-62 216z" />
    <glyph glyph-name="Y" unicode="Y" horiz-adv-x="424" 
d="M272 0h-120q-6 0 -9 3t-3 9v278l-134 415q-2 6 1 9.5t9 3.5h116q6 0 9.5 -2.5t4.5 -8.5l66 -276l66 277q1 5 4.5 7.5t8.5 2.5h117q6 0 9 -3.5t1 -9.5l-134 -415v-278q0 -6 -3 -9t-9 -3z" />
    <glyph glyph-name="Z" unicode="Z" horiz-adv-x="345" 
d="M10 12v56q0 4 0.5 7.5t1.5 7.5l161 519h-137q-6 0 -9 3t-3 9v92q0 6 3 9t9 3h287q6 0 9 -3t3 -9v-49q0 -4 -0.5 -7.5t-1.5 -7.5l-166 -526h151q6 0 9 -3t3 -9v-92q0 -6 -3 -9t-9 -3h-296q-6 0 -9 3t-3 9z" />
    <glyph glyph-name="bracketleft" unicode="[" horiz-adv-x="300" 
d="M108 -100q-6 0 -9 3t-3 9v894q0 6 3 9t9 3h160q6 0 9 -3t3 -9v-46q0 -6 -3 -9t-9 -3h-92v-778h92q6 0 9 -3t3 -9v-46q0 -6 -3 -9t-9 -3h-160z" />
    <glyph glyph-name="backslash" unicode="\" horiz-adv-x="289" 
d="M79 708l209 -694q2 -7 -1 -10.5t-9 -3.5h-53q-5 0 -8.5 2.5t-4.5 7.5l-211 694q-2 7 1 10.5t9 3.5h55q5 0 8.5 -2.5t4.5 -7.5z" />
    <glyph glyph-name="bracketright" unicode="]" horiz-adv-x="300" 
d="M204 806v-894q0 -6 -3 -9t-9 -3h-160q-6 0 -9 3t-3 9v46q0 6 3 9t9 3h92v778h-92q-6 0 -9 3t-3 9v46q0 6 3 9t9 3h160q6 0 9 -3t3 -9z" />
    <glyph glyph-name="asciicircum" unicode="^" horiz-adv-x="400" 
d="M113 429q-2 -4 -5.5 -6.5t-8.5 -2.5h-57q-7 0 -9 4.5t0 9.5l123 275q1 4 5 6.5t9 2.5h62q5 0 9 -2.5t5 -6.5l123 -275q2 -5 0 -9.5t-9 -4.5h-57q-5 0 -8.5 2.5t-5.5 6.5l-86 190h-4z" />
    <glyph glyph-name="underscore" unicode="_" horiz-adv-x="550" 
d="M10 -72v46q0 6 3 9t9 3h506q6 0 9 -3t3 -9v-46q0 -6 -3 -9t-9 -3h-506q-6 0 -9 3t-3 9z" />
    <glyph glyph-name="grave" unicode="`" horiz-adv-x="499" 
d="M191 854q-4 6 -2 10.5t9 4.5h60q4 0 8 -2.5t6 -6.5l40 -86q3 -6 0.5 -10t-9.5 -4h-31q-4 0 -7.5 1.5t-6.5 5.5z" />
    <glyph glyph-name="a" unicode="a" horiz-adv-x="424" 
d="M320 707l100 -694q1 -6 -2 -9.5t-10 -3.5h-118q-6 0 -9 3t-4 8l-23 208h-82l-23 -208q-1 -5 -4 -8t-9 -3h-118q-7 0 -10 3.5t-2 9.5l100 694q1 5 4 8t9 3h188q6 0 9 -3t4 -8zM175 327h76l-32 256h-12z" />
    <glyph glyph-name="b" unicode="b" horiz-adv-x="416" 
d="M210 0h-161q-6 0 -9 3t-3 9v694q0 6 3 9t9 3h147q90 0 140.5 -50t50.5 -139q0 -54 -25 -94.5t-71 -60.5q52 -21 81 -65.5t29 -107.5q0 -94 -50.5 -147.5t-140.5 -53.5zM181 608v-182q40 1 54 20.5t14 70.5q0 49 -13.5 70t-54.5 21zM181 310v-200q49 1 62.5 30t13.5 72
q0 51 -15 74t-61 24z" />
    <glyph glyph-name="c" unicode="c" horiz-adv-x="449" 
d="M419 255v-175q0 -33 -23.5 -56.5t-56.5 -23.5h-223q-33 0 -56 23.5t-23 56.5v558q0 33 23 56.5t56 23.5h223q33 0 56.5 -23.5t23.5 -56.5v-169q0 -5 -3 -8.5t-9 -4.5h-110q-6 0 -9.5 3t-3.5 9v91q0 23 -16.5 40t-39.5 17q-24 0 -40.5 -17t-16.5 -40v-400q0 -23 16.5 -40
t40.5 -17q23 0 39.5 17t16.5 40v97q0 6 3.5 9t9.5 3h110q6 -1 9 -3.5t3 -9.5z" />
    <glyph glyph-name="d" unicode="d" horiz-adv-x="426" 
d="M37 12v694q0 6 3 9t9 3h108q84 0 133 -26t74 -72.5t32 -113t7 -147.5q0 -77 -6 -143t-28.5 -114t-67.5 -75t-123 -27h-129q-6 0 -9 3t-3 9zM181 602v-486q26 0 40.5 7.5t21.5 32.5t8.5 73.5t1.5 130.5q0 81 -1.5 129.5t-8.5 73.5t-21.5 32t-40.5 7z" />
    <glyph glyph-name="e" unicode="e" horiz-adv-x="361" 
d="M37 12v694q0 6 3 9t9 3h284q6 0 9 -3t3 -9v-92q0 -6 -3 -9t-9 -3h-152v-176h109q6 0 9 -3t3 -9v-98q0 -6 -3 -9t-9 -3h-109v-188h159q6 0 9 -3t3 -9v-92q0 -6 -3 -9t-9 -3h-291q-6 0 -9 3t-3 9z" />
    <glyph glyph-name="f" unicode="f" horiz-adv-x="342" 
d="M37 12v694q0 6 3 9t9 3h281q6 0 9 -3t3 -9v-92q0 -6 -3 -9t-9 -3h-149v-184h107q6 0 9 -3t3 -9v-98q0 -6 -3 -9t-9 -3h-107v-284q0 -6 -3 -9t-9 -3h-120q-6 0 -9 3t-3 9z" />
    <glyph glyph-name="g" unicode="g" horiz-adv-x="448" 
d="M418 80q0 -33 -23 -56.5t-56 -23.5h-223q-33 0 -56 23.5t-23 56.5v558q0 33 23 56.5t56 23.5h223q33 0 56 -23.5t23 -56.5v-173q0 -6 -2.5 -9.5t-8.5 -3.5h-110q-6 0 -9.5 3t-3.5 9v95q0 23 -16.5 40t-40.5 17q-23 0 -39.5 -17t-16.5 -40v-400q0 -23 16.5 -40t39.5 -17
q24 0 40.5 17t16.5 40v60h-38q-6 0 -9 3t-3 9v98q0 6 3 9t9 3h160q6 0 9 -3t3 -9v-249z" />
    <glyph glyph-name="h" unicode="h" horiz-adv-x="436" 
d="M37 12v694q0 6 3 9t9 3h120q6 0 9 -3t3 -9v-277h74v277q0 6 3 9t9 3h120q6 0 9 -3t3 -9v-694q0 -6 -3 -9t-9 -3h-120q-6 0 -9 3t-3 9v291h-74v-291q0 -6 -3 -9t-9 -3h-120q-6 0 -9 3t-3 9z" />
    <glyph glyph-name="i" unicode="i" horiz-adv-x="218" 
d="M37 12v694q0 6 3 9t9 3h120q6 0 9 -3t3 -9v-694q0 -6 -3 -9t-9 -3h-120q-6 0 -9 3t-3 9z" />
    <glyph glyph-name="j" unicode="j" horiz-adv-x="274" 
d="M244 706v-563q0 -82 -36.5 -115t-116.5 -33q-19 0 -37.5 1.5t-32.5 2.5q-5 1 -8 4.5t-3 8.5v93q0 6 3 8.5t9 2.5h34q27 0 35.5 15t8.5 44v531q0 6 3 9t9 3h120q6 0 9 -3t3 -9z" />
    <glyph glyph-name="k" unicode="k" horiz-adv-x="428" 
d="M181 12q0 -6 -3 -9t-9 -3h-120q-6 0 -9 3t-3 9v694q0 6 3 9t9 3h120q6 0 9 -3t3 -9v-249h4l86 251q1 5 4.5 7.5t8.5 2.5h122q7 0 9.5 -4t0.5 -10l-109 -288l115 -403q1 -6 -1 -9.5t-9 -3.5h-123q-5 0 -8.5 2.5t-4.5 8.5l-80 333h-15v-332z" />
    <glyph glyph-name="l" unicode="l" horiz-adv-x="342" 
d="M37 12v694q0 6 3 9t9 3h120q6 0 9 -3t3 -9v-590h134q6 0 9 -3t3 -9v-92q0 -6 -3 -9t-9 -3h-266q-6 0 -9 3t-3 9z" />
    <glyph glyph-name="m" unicode="m" horiz-adv-x="572" 
d="M372 718h151q6 0 9 -3t3 -9v-694q0 -6 -3 -9t-9 -3h-106q-6 0 -9 3t-3 9v412h-7l-80 -413q-1 -5 -4 -8t-8 -3h-40q-5 0 -8 3t-4 8l-80 413h-7v-412q0 -6 -3 -9t-9 -3h-106q-6 0 -9 3t-3 9v694q0 6 3 9t9 3h151q5 0 8 -3t4 -8l74 -324l74 324q1 5 4 8t8 3z" />
    <glyph glyph-name="n" unicode="n" horiz-adv-x="466" 
d="M171 12q0 -6 -3 -9t-9 -3h-110q-6 0 -9 3t-3 9v694q0 6 3 9t9 3h124q5 0 8.5 -2.5t4.5 -7.5l105 -326h4v324q0 6 3 9t9 3h110q6 0 9 -3t3 -9v-694q0 -6 -3 -9t-9 -3h-104q-5 0 -8.5 2.5t-4.5 7.5l-124 390h-5v-388z" />
    <glyph glyph-name="o" unicode="o" horiz-adv-x="455" 
d="M37 638q0 33 23 56.5t56 23.5h223q33 0 56 -23.5t23 -56.5v-558q0 -33 -23 -56.5t-56 -23.5h-223q-33 0 -56 23.5t-23 56.5v558zM227 107q23 0 40 17t17 39v392q0 22 -17 39t-40 17q-22 0 -39 -17t-17 -39v-392q0 -22 17 -39t39 -17z" />
    <glyph glyph-name="p" unicode="p" horiz-adv-x="410" 
d="M37 12v694q0 6 3 9t9 3h125q118 0 174.5 -53t56.5 -163q0 -106 -48.5 -161.5t-140.5 -55.5h-35v-273q0 -6 -3 -9t-9 -3h-120q-6 0 -9 3t-3 9zM182 602v-207q40 0 59.5 20t19.5 84q0 36 -6 57t-16 31t-24.5 12.5t-32.5 2.5z" />
    <glyph glyph-name="q" unicode="q" horiz-adv-x="462" 
d="M347 0h74q6 0 9 -3t3 -9v-98q0 -6 -3 -9t-9 -3h-55q-42 0 -69.5 14t-44.5 33t-24.5 40t-10.5 35h-101q-33 0 -56 23.5t-23 56.5v558q0 33 23 56.5t56 23.5h223q33 0 56 -23.5t23 -56.5v-553q0 -29 -23 -54.5t-48 -30.5zM171 159q0 -23 16.5 -40t39.5 -17q24 0 40.5 17
t16.5 40v400q0 23 -16.5 40t-40.5 17q-23 0 -39.5 -17t-16.5 -40v-400z" />
    <glyph glyph-name="r" unicode="r" horiz-adv-x="416" 
d="M181 12q0 -6 -3 -9t-9 -3h-120q-6 0 -9 3t-3 9v694q0 6 3 9t9 3h141q45 0 84 -10t67.5 -33.5t45 -63t16.5 -98.5q0 -45 -15.5 -94t-64.5 -83l85 -323q1 -6 -1.5 -9.5t-9.5 -3.5h-120q-6 0 -9.5 3t-4.5 8l-66 295h-16v-294zM181 608v-192h19q31 0 45 28t14 68
q0 50 -18.5 73t-46.5 23h-13z" />
    <glyph glyph-name="s" unicode="s" horiz-adv-x="384" 
d="M22 231h108q6 0 9 -3t3 -9q1 -51 13 -84t41 -33q22 0 34 17t12 46q0 27 -10.5 49.5t-26 41t-33 33.5t-30.5 27q-63 58 -94.5 108t-31.5 122q0 84 46 135t128 51q46 0 79 -17t54.5 -45.5t32 -68t10.5 -84.5q0 -6 -3 -9t-9 -3h-110q-6 0 -9 3t-3 9q-1 39 -8 69t-36 30
q-19 0 -28.5 -16.5t-9.5 -41.5q0 -36 20 -66t49 -56q30 -27 58.5 -53.5t50 -56t34.5 -65t13 -79.5q0 -41 -11 -77t-33 -62.5t-56.5 -41.5t-80.5 -15q-47 0 -82 18.5t-57.5 50t-33.5 74t-11 90.5q0 6 3 9t9 3z" />
    <glyph glyph-name="t" unicode="t" horiz-adv-x="372" 
d="M114 12v590h-100q-6 0 -9 3t-3 9v92q0 6 3 9t9 3h344q6 0 9 -3t3 -9v-92q0 -6 -3 -9t-9 -3h-100v-590q0 -6 -3 -9t-9 -3h-120q-6 0 -9 3t-3 9z" />
    <glyph glyph-name="u" unicode="u" horiz-adv-x="455" 
d="M406 718q6 0 9 -3t3 -9v-626q0 -33 -23 -56.5t-56 -23.5h-223q-33 0 -56 23.5t-23 56.5v625q0 6 2.5 9.5t8.5 3.5h110q6 0 9.5 -3t3.5 -9v-547q0 -23 16.5 -40t40.5 -17q23 0 39.5 17t16.5 40v546q0 6 3 9.5t9 3.5h110z" />
    <glyph glyph-name="v" unicode="v" horiz-adv-x="400" 
d="M268 718h116q7 0 10 -3.5t2 -9.5l-111 -694q-1 -5 -4 -8t-9 -3h-142q-6 0 -9 3t-4 8l-111 694q-1 6 2 9.5t10 3.5h116q6 0 9 -3t4 -8l50 -473h9l49 473q1 5 4 8t9 3z" />
    <glyph glyph-name="w" unicode="w" horiz-adv-x="611" 
d="M480 718h116q6 0 9 -3.5t2 -9.5l-101 -694q-1 -5 -4 -8t-9 -3h-109q-6 0 -9 3t-4 8l-63 380l-65 -380q-1 -5 -4 -8t-9 -3h-108q-6 0 -9 3t-4 8l-103 694q-1 6 2 9.5t9 3.5h116q6 0 9 -3t4 -8l39 -417h8l55 417q1 5 4 8t9 3h98q6 0 8.5 -3t3.5 -8l50 -417h8l38 417
q1 5 4 8t9 3z" />
    <glyph glyph-name="x" unicode="x" horiz-adv-x="424" 
d="M151 10q-1 -5 -4.5 -7.5t-8.5 -2.5h-120q-6 0 -9 3.5t-1 10.5l122 360l-124 330q-2 7 0.5 10.5t8.5 3.5h120q5 0 8.5 -2.5t4.5 -7.5l60 -203l60 203q1 5 4.5 7.5t8.5 2.5h121q6 0 9 -3.5t1 -10.5l-123 -330l129 -360q2 -7 -0.5 -10.5t-8.5 -3.5h-121q-5 0 -8.5 2.5
t-4.5 7.5l-62 216z" />
    <glyph glyph-name="y" unicode="y" horiz-adv-x="424" 
d="M272 0h-120q-6 0 -9 3t-3 9v278l-134 415q-2 6 1 9.5t9 3.5h116q6 0 9.5 -2.5t4.5 -8.5l66 -276l66 277q1 5 4.5 7.5t8.5 2.5h117q6 0 9 -3.5t1 -9.5l-134 -415v-278q0 -6 -3 -9t-9 -3z" />
    <glyph glyph-name="z" unicode="z" horiz-adv-x="345" 
d="M10 12v56q0 4 0.5 7.5t1.5 7.5l161 519h-137q-6 0 -9 3t-3 9v92q0 6 3 9t9 3h287q6 0 9 -3t3 -9v-49q0 -4 -0.5 -7.5t-1.5 -7.5l-166 -526h151q6 0 9 -3t3 -9v-92q0 -6 -3 -9t-9 -3h-296q-6 0 -9 3t-3 9z" />
    <glyph glyph-name="braceleft" unicode="{" horiz-adv-x="300" 
d="M205 689v-191q0 -40 -20 -76t-57 -53v-7q37 -12 57 -50.5t20 -81.5v-191q0 -27 8 -43t38 -16h27q6 0 9 -3t3 -9v-46q0 -6 -3 -9t-9 -3h-28q-59 0 -92 33t-33 92v182q0 35 -18.5 68t-49.5 48q-5 3 -8.5 4.5t-3.5 7.5v38q0 6 3.5 7.5t8.5 4.5q31 15 49.5 48t18.5 68v182
q0 59 33 92t92 33h28q6 0 9 -3t3 -9v-46q0 -6 -3 -9t-9 -3h-27q-30 0 -38 -16t-8 -43z" />
    <glyph glyph-name="bar" unicode="|" 
d="M75 798h50q6 0 9 -3t3 -9v-854q0 -6 -3 -9t-9 -3h-50q-6 0 -9 3t-3 9v854q0 6 3 9t9 3z" />
    <glyph glyph-name="braceright" unicode="}" horiz-adv-x="300" 
d="M95 39v191q0 40 20 76t57 53v7q-37 12 -57 50.5t-20 81.5v191q0 27 -8 43t-38 16h-27q-6 0 -9 3t-3 9v46q0 6 3 9t9 3h28q59 0 92 -33t33 -92v-182q0 -35 18.5 -68t49.5 -48q5 -3 8.5 -4.5t3.5 -7.5v-38q0 -6 -3.5 -7.5t-8.5 -4.5q-31 -15 -49.5 -48t-18.5 -68v-182
q0 -59 -33 -92t-92 -33h-28q-6 0 -9 3t-3 9v46q0 6 3 9t9 3h27q30 0 38 16t8 43z" />
    <glyph glyph-name="asciitilde" unicode="~" horiz-adv-x="400" 
d="M330 431l31 -15q10 -4 12.5 -9t-0.5 -13q-16 -49 -46.5 -69.5t-60.5 -20.5q-20 0 -37 7t-32.5 15t-29.5 15t-27 7t-26 -6.5t-23 -29.5q-4 -8 -9 -10.5t-12 1.5l-31 15q-10 4 -12.5 9t0.5 13q16 49 46.5 69.5t60.5 20.5q20 0 37 -7t32 -15t29 -15t28 -7q13 0 26 6.5
t23 29.5q4 8 9 10.5t12 -1.5z" />
    <glyph glyph-name="exclamdown" unicode="&#xa1;" horiz-adv-x="209" 
d="M105 595q-28 0 -47 20t-19 48t19 48.5t47 20.5t47 -20.5t19 -48.5t-19 -48t-47 -20zM147 494l24 -482q0 -6 -2.5 -9t-8.5 -3h-111q-6 0 -8.5 3t-2.5 9l24 482q0 6 3.5 9t9.5 3h59q6 0 9.5 -3t3.5 -9z" />
    <glyph glyph-name="cent" unicode="&#xa2;" horiz-adv-x="402" 
d="M255 71v-73q0 -6 -3 -9t-9 -3h-56q-6 0 -9 3t-3 9v73q-72 16 -112 91t-40 197q0 119 39 195t113 92v74q0 6 3 9t9 3h56q6 0 9 -3t3 -9v-74q63 -16 98.5 -76t36.5 -147q0 -6 -3 -9t-9 -3h-103q-6 0 -9 3t-3 8q-1 76 -12.5 105t-37.5 29q-15 0 -26.5 -7.5t-18.5 -28.5
t-11 -60t-4 -101q0 -114 15 -156t47 -42q26 0 40 33.5t16 99.5q0 6 3 9t9 3h97q6 0 9 -3t3 -9q-1 -93 -37 -151t-100 -72z" />
    <glyph glyph-name="sterling" unicode="&#xa3;" horiz-adv-x="395" 
d="M367 94v-82q0 -6 -3 -9t-9 -3h-316q-6 0 -9 3t-3 9v45q0 9 2 12.5t7 7.5q37 31 59.5 72t22.5 90q0 23 -5.5 46t-12.5 45h-71q-6 0 -9 3t-3 9v46q0 6 3 9t9 3h43q-15 35 -26.5 73t-11.5 81q0 83 46.5 130.5t118.5 47.5q81 0 126 -59t49 -152q0 -6 -3 -9t-9 -3h-95
q-6 0 -9 3t-3 9q0 15 -2.5 33.5t-8.5 34.5t-16 26.5t-25 10.5q-23 0 -32 -24.5t-9 -58.5q0 -44 10.5 -78t23.5 -65h115q6 0 9 -3t3 -9v-46q0 -6 -3 -9t-9 -3h-89q4 -16 7 -34t3 -37q0 -47 -15.5 -86t-40.5 -67h179q6 0 9 -3t3 -9z" />
    <glyph glyph-name="currency" unicode="&#xa4;" horiz-adv-x="400" 
d="M315 134q-4 -4 -8.5 -4t-8.5 4l-37 37q-13 -7 -28.5 -11.5t-31.5 -4.5q-17 0 -33.5 5t-30.5 13l-36 -36q-4 -4 -8.5 -4t-8.5 4l-35 35q-4 4 -4 8.5t4 8.5l39 39q-7 13 -11 29.5t-4 32.5q0 15 3 29.5t9 27.5l-39 39q-4 4 -4 8.5t4 8.5l41 41q4 4 8.5 4t8.5 -4l36 -36
q13 7 29 11.5t32 4.5q18 0 34.5 -5t30.5 -13l35 35q4 4 8.5 4t8.5 -4l35 -35q4 -4 4 -8t-4 -9l-38 -38q7 -13 11 -29t4 -32t-3.5 -31t-9.5 -28l39 -39q4 -4 4 -8.5t-4 -8.5zM134 290q0 -28 19.5 -48t47.5 -20q26 0 46 20t20 48q0 27 -20 47t-46 20q-28 0 -47.5 -20
t-19.5 -47z" />
    <glyph glyph-name="yen" unicode="&#xa5;" horiz-adv-x="424" 
d="M275 269v-257q0 -6 -3 -9t-9 -3h-100q-6 0 -9 3t-3 9v257h-97q-6 0 -9 3t-3 9v46q0 6 3 9t9 3h97v50l-1 4h-96q-6 0 -9 3t-3 9v46q0 6 3 9t9 3h74l-121 242q-3 5 0.5 9t9.5 4h106q6 0 9 -3t5 -8l76 -191l76 192q2 5 5 7.5t8 2.5h107q6 0 9.5 -4t0.5 -9l-122 -242h75
q6 0 9 -3t3 -9v-46q0 -6 -3 -9t-9 -3h-96l-1 -4v-50h97q6 0 9 -3t3 -9v-46q0 -6 -3 -9t-9 -3h-97z" />
    <glyph glyph-name="brokenbar" unicode="&#xa6;" 
d="M75 798h50q6 0 9 -3t3 -9v-343q0 -6 -3 -9t-9 -3h-50q-6 0 -9 3t-3 9v343q0 6 3 9t9 3zM75 287h50q6 0 9 -3t3 -9v-343q0 -6 -3 -9t-9 -3h-50q-6 0 -9 3t-3 9v343q0 6 3 9t9 3z" />
    <glyph glyph-name="section" unicode="&#xa7;" horiz-adv-x="399" 
d="M204 -14q-78 0 -123.5 49.5t-45.5 126.5q0 5 3 8t9 3h95q6 0 9 -3t3 -8q0 -41 13 -58.5t33 -17.5q16 0 26 9.5t10 28.5q0 34 -32.5 58.5t-70.5 50.5t-70.5 60.5t-32.5 90.5q0 34 15.5 64.5t50.5 49.5q-18 19 -33 47t-15 62q0 54 42.5 89.5t105.5 35.5q75 0 121.5 -49.5
t46.5 -126.5q0 -5 -3 -8t-9 -3h-95q-6 0 -9 3t-3 8q0 49 -12.5 67.5t-31.5 18.5q-18 0 -28 -13t-10 -33q0 -37 32.5 -62t70.5 -50.5t70.5 -59.5t32.5 -90q0 -32 -14.5 -63.5t-50.5 -50.5q20 -18 38.5 -45t18.5 -64q0 -54 -45.5 -89.5t-111.5 -35.5zM171 441
q-18 -10 -26 -22.5t-8 -26.5q0 -28 26 -59t65 -56q18 10 26 22.5t8 26.5q0 28 -26 59t-65 56z" />
    <glyph glyph-name="dieresis" unicode="&#xa8;" horiz-adv-x="500" 
d="M154 790v49q0 6 3 9t9 3h50q6 0 9 -3t3 -9v-49q0 -6 -3 -9t-9 -3h-50q-6 0 -9 3t-3 9zM272 790v49q0 6 3 9t9 3h50q6 0 9 -3t3 -9v-49q0 -6 -3 -9t-9 -3h-50q-6 0 -9 3t-3 9z" />
    <glyph glyph-name="copyright" unicode="&#xa9;" horiz-adv-x="766" 
d="M743 359q0 -84 -30.5 -153t-80.5 -117.5t-115 -75.5t-134 -27t-134 27t-115 75.5t-80.5 117.5t-30.5 153t30.5 153t80.5 117.5t115 75.5t134 27t134 -27t115 -75.5t80.5 -117.5t30.5 -153zM103 359q0 -66 23 -121.5t61.5 -94.5t89.5 -61t106 -22t106 22t89.5 61
t61.5 94.5t23 121.5t-23 121t-61.5 94t-89.5 60.5t-106 21.5t-106 -21.5t-89.5 -60.5t-61.5 -94t-23 -121zM467 403h-49q-3 0 -4.5 1.5t-1.5 3.5q0 35 -8.5 49t-17.5 14q-3 0 -8 -3t-9.5 -14t-8 -33.5t-3.5 -60.5q0 -37 3.5 -59t8 -33.5t9.5 -14.5t8 -3q10 0 19.5 17
t10.5 48q0 3 1.5 4.5t3.5 1.5h47q3 0 4.5 -1.5t1.5 -4.5q0 -20 -5 -40.5t-15.5 -37t-27.5 -27t-41 -10.5q-48 0 -70.5 42.5t-22.5 117.5q0 87 27 124t66 37q22 0 38.5 -10t27.5 -26t16.5 -36t5.5 -41q0 -2 -1.5 -3.5t-4.5 -1.5z" />
    <glyph glyph-name="ordfeminine" unicode="&#xaa;" horiz-adv-x="231" 
d="M163 434l-2 21q-10 -18 -24.5 -29t-33.5 -11q-43 0 -66.5 42t-23.5 117q0 74 23.5 116t65.5 42q19 0 34 -11t25 -30l2 22q1 6 3.5 9t8.5 3h33q6 0 9 -3t3 -9v-279q0 -6 -3 -9t-9 -3h-33q-6 0 -8.5 3t-3.5 9zM114 678q-13 0 -21 -27.5t-8 -76.5t8 -77t21 -28q15 0 25 26.5
t10 78.5q0 51 -10 77.5t-25 26.5z" />
    <glyph glyph-name="guillemotleft" unicode="&#xab;" horiz-adv-x="299" 
d="M81 120l-49 141q-1 4 -1 8t1 8l49 149q1 5 4.5 7.5t8.5 2.5h46q7 0 9.5 -3.5t1.5 -9.5l-37 -154l36 -146q1 -6 -1 -9.5t-9 -3.5h-46q-5 0 -8.5 2.5t-4.5 7.5zM200 120l-49 141q-1 4 -1 8t1 8l49 149q1 5 4.5 7.5t8.5 2.5h46q7 0 9.5 -3.5t1.5 -9.5l-37 -154l36 -146
q1 -6 -1 -9.5t-9 -3.5h-46q-5 0 -8.5 2.5t-4.5 7.5z" />
    <glyph glyph-name="logicalnot" unicode="&#xac;" horiz-adv-x="400" 
d="M51 343v46q0 6 3 9t9 3h274q6 0 9 -3t3 -9v-167q0 -6 -3 -9t-9 -3h-50q-6 0 -9 3t-3 9v109h-212q-6 0 -9 3t-3 9z" />
    <glyph glyph-name="registered" unicode="&#xae;" horiz-adv-x="638" 
d="M319 732q65 0 119.5 -22t93.5 -61.5t61 -95t22 -120.5t-22 -120.5t-61 -95t-93.5 -61.5t-119.5 -22t-119.5 22t-93.5 61.5t-61 95t-22 120.5t22 120.5t61 95t93.5 61.5t119.5 22zM319 200q49 0 90 17.5t70.5 48t46 73.5t16.5 94t-16.5 94t-46 73.5t-70.5 48t-90 17.5
t-90 -17.5t-70.5 -48t-46 -73.5t-16.5 -94t16.5 -94t46 -73.5t70.5 -48t90 -17.5zM296 410v-131q0 -3 -1.5 -4.5t-4.5 -1.5h-54q-1 0 -2.5 1.5t-1.5 4.5v309q0 3 1.5 4.5t2.5 1.5h68q40 0 72.5 -19.5t32.5 -72.5q0 -19 -7 -41.5t-29 -37.5l38 -144q1 -3 -0.5 -4.5t-3.5 -1.5
h-54q-3 0 -4.5 1.5t-2.5 3.5l-30 132h-20zM296 545v-86h18q13 0 21.5 12.5t8.5 30.5q0 22 -10 32.5t-23 10.5h-15z" />
    <glyph glyph-name="macron" unicode="&#xaf;" horiz-adv-x="500" 
d="M143 795v39q0 6 3 9t9 3h190q6 0 9 -3t3 -9v-39q0 -6 -3 -9t-9 -3h-190q-6 0 -9 3t-3 9z" />
    <glyph glyph-name="degree" unicode="&#xb0;" horiz-adv-x="320" 
d="M160 440q-62 0 -106 43.5t-44 102.5t44 102.5t106 43.5t106 -43.5t44 -102.5t-44 -102.5t-106 -43.5zM160 666q-31 0 -53.5 -23t-22.5 -57t22.5 -57t53.5 -23t53.5 23t22.5 57t-22.5 57t-53.5 23z" />
    <glyph glyph-name="plusminus" unicode="&#xb1;" horiz-adv-x="400" 
d="M237 331v-109q0 -6 -3 -9t-9 -3h-50q-6 0 -9 3t-3 9v109h-100q-6 0 -9 3t-3 9v46q0 6 3 9t9 3h100v109q0 6 3 9t9 3h50q6 0 9 -3t3 -9v-109h100q6 0 9 -3t3 -9v-46q0 -6 -3 -9t-9 -3h-100zM337 100h-274q-6 0 -9 3t-3 9v46q0 6 3 9t9 3h274q6 0 9 -3t3 -9v-46q0 -6 -3 -9
t-9 -3z" />
    <glyph glyph-name="twosuperior" unicode="&#xb2;" 
d="M14 466v33v3t1 3q15 26 32.5 50t32 47.5t24 46.5t9.5 47q0 9 -2.5 20.5t-12.5 11.5q-7 0 -11.5 -9t-5.5 -32q0 -3 -1 -4.5t-4 -1.5h-56q-2 0 -3 2t-1 4q1 39 22 67t65 28q40 0 59.5 -24.5t19.5 -58.5q0 -44 -25.5 -94t-55.5 -86h74q2 0 3.5 -1.5t1.5 -3.5v-48
q0 -2 -1.5 -3.5t-3.5 -1.5h-156q-3 0 -4 1.5t-1 3.5z" />
    <glyph glyph-name="threesuperior" unicode="&#xb3;" 
d="M100 461q-43 0 -64.5 29.5t-21.5 58.5q0 3 1.5 4.5t3.5 1.5h54q3 0 4 -1.5t1 -4.5q0 -16 5.5 -25t13.5 -9t13.5 9t5.5 30t-11 32t-42 11q-2 0 -3.5 1.5t-1.5 3.5v44q0 2 1.5 3.5t4.5 1.5q30 0 40 13t10 35q0 15 -4.5 22t-12.5 7q-7 0 -11.5 -9t-4.5 -25q0 -2 -1.5 -3.5
t-3.5 -1.5h-54q-2 0 -3.5 1.5t-0.5 4.5q5 36 24 61.5t58 25.5q40 0 60 -24.5t20 -55.5q0 -18 -8.5 -39.5t-31.5 -34.5q26 -10 36 -31.5t10 -45.5q0 -43 -24.5 -66.5t-61.5 -23.5z" />
    <glyph glyph-name="acute" unicode="&#xb4;" horiz-adv-x="501" 
d="M303 869q7 0 9 -4.5t-2 -10.5l-67 -87q-3 -4 -6.5 -5.5t-7.5 -1.5h-31q-7 0 -9.5 4t0.5 10l40 86q2 4 6 6.5t8 2.5h60z" />
    <glyph glyph-name="paragraph" unicode="&#xb6;" horiz-adv-x="474" 
d="M207 12v350q-97 2 -149.5 50t-52.5 129q0 83 61 130t171 47h188q6 0 9 -3t3 -9v-694q0 -6 -3 -9t-9 -3h-56q-6 0 -9 3t-3 9v622h-70v-622q0 -6 -3 -9t-9 -3h-56q-6 0 -9 3t-3 9z" />
    <glyph glyph-name="periodcentered" unicode="&#xb7;" horiz-adv-x="189" 
d="M161 366q0 -28 -19 -48.5t-47 -20.5t-47 20.5t-19 48.5t19 48t47 20t47 -20t19 -48z" />
    <glyph glyph-name="cedilla" unicode="&#xb8;" horiz-adv-x="501" 
d="M326 -101q0 -33 -23 -56.5t-54 -23.5q-24 0 -44 13t-28 39q-1 5 1 8t8 3h31q4 0 5.5 -1t3.5 -5q3 -5 9 -9t13 -4q14 0 20.5 10.5t6.5 25.5q0 16 -6.5 26t-19.5 10q-7 0 -10.5 -1.5t-6.5 -4.5q-4 -4 -7.5 -4.5t-6.5 1.5l-15 10q-6 4 -7 7t1 7l36 53q3 4 5 6.5t6 2.5h26
q5 0 8 -4t-1 -8l-29 -31q32 7 55 -13.5t23 -56.5z" />
    <glyph glyph-name="onesuperior" unicode="&#xb9;" 
d="M62 466v284q0 2 1.5 3.5l2.5 2.5q7 4 12 9.5t12 14.5q1 1 3 1.5t3 0.5h37q2 0 3.5 -1.5t1.5 -3.5v-311q0 -2 -1.5 -3.5t-3.5 -1.5h-66q-2 0 -3.5 1.5t-1.5 3.5z" />
    <glyph glyph-name="ordmasculine" unicode="&#xba;" horiz-adv-x="226" 
d="M12 574q0 74 26 116t75 42t75 -42t26 -116q0 -75 -26 -117t-75 -42t-75 42t-26 117zM142 574q0 49 -8 76.5t-21 27.5t-21 -27.5t-8 -76.5t8 -77t21 -28t21 28t8 77z" />
    <glyph glyph-name="guillemotright" unicode="&#xbb;" horiz-adv-x="299" 
d="M101 120q-1 -5 -4.5 -7.5t-8.5 -2.5h-46q-7 0 -9 3.5t-1 9.5l36 146l-37 154q-1 6 1.5 9.5t9.5 3.5h46q5 0 8.5 -2.5t4.5 -7.5l49 -149q1 -4 1 -8t-1 -8zM219 120q-1 -5 -4.5 -7.5t-8.5 -2.5h-46q-7 0 -9 3.5t-1 9.5l36 146l-37 154q-1 6 1.5 9.5t9.5 3.5h46
q5 0 8.5 -2.5t4.5 -7.5l49 -149q1 -4 1 -8t-1 -8z" />
    <glyph glyph-name="onequarter" unicode="&#xbc;" horiz-adv-x="400" 
d="M62 416v284q0 2 1.5 3.5l2.5 2.5q7 4 12 9.5t12 14.5q1 1 3 1.5t3 0.5h37q2 0 3.5 -1.5t1.5 -3.5v-311q0 -2 -1.5 -3.5t-3.5 -1.5h-66q-2 0 -3.5 1.5t-1.5 3.5zM343 732h31q4 0 4.5 -2.5t-0.5 -5.5l-311 -732q-1 -3 -3 -4.5t-5 -1.5h-33q-4 0 -4.5 2t0.5 5l312 733
q1 4 3.5 5t5.5 1zM180 50v38v3t1 3l81 209q1 2 2.5 3t3.5 1h68q2 0 3.5 -1.5t1.5 -3.5v-203h29q3 0 4 -1t1 -4v-44q0 -2 -1 -3.5t-4 -1.5h-29v-54q0 -2 -1.5 -3.5t-3.5 -1.5h-46q-3 0 -4 1.5t-1 3.5v54h-99q-3 0 -4.5 1.5t-1.5 3.5zM241 100h44v118z" />
    <glyph glyph-name="onehalf" unicode="&#xbd;" horiz-adv-x="400" 
d="M62 416v284q0 2 1.5 3.5l2.5 2.5q7 4 12 9.5t12 14.5q1 1 3 1.5t3 0.5h37q2 0 3.5 -1.5t1.5 -3.5v-311q0 -2 -1.5 -3.5t-3.5 -1.5h-66q-2 0 -3.5 1.5t-1.5 3.5zM331 732h31q4 0 4.5 -2.5t-0.5 -5.5l-311 -732q-1 -3 -3 -4.5t-5 -1.5h-33q-4 0 -4.5 2t0.5 5l312 733
q1 4 3.5 5t5.5 1zM204 -9v33v3t1 3q15 26 32.5 50t32 47.5t24 46.5t9.5 47q0 9 -2.5 20.5t-12.5 11.5q-7 0 -11.5 -9t-5.5 -32q0 -3 -1 -4.5t-4 -1.5h-56q-2 0 -3 2t-1 4q1 39 22 67t65 28q40 0 59.5 -24.5t19.5 -58.5q0 -44 -25.5 -94t-55.5 -86h74q2 0 3.5 -1.5t1.5 -3.5
v-48q0 -2 -1.5 -3.5t-3.5 -1.5h-156q-3 0 -4 1.5t-1 3.5z" />
    <glyph glyph-name="threequarters" unicode="&#xbe;" horiz-adv-x="400" 
d="M90 411q-43 0 -64.5 29.5t-21.5 58.5q0 3 1.5 4.5t3.5 1.5h54q3 0 4 -1.5t1 -4.5q0 -16 5.5 -25t13.5 -9t13.5 9t5.5 30t-11 32t-42 11q-2 0 -3.5 1.5t-1.5 3.5v44q0 2 1.5 3.5t4.5 1.5q30 0 40 13t10 35q0 15 -4.5 22t-12.5 7q-7 0 -11.5 -9t-4.5 -25q0 -2 -1.5 -3.5
t-3.5 -1.5h-54q-2 0 -3.5 1.5t-0.5 4.5q5 36 24 61.5t58 25.5q40 0 60 -24.5t20 -55.5q0 -18 -8.5 -39.5t-31.5 -34.5q26 -10 36 -31.5t10 -45.5q0 -43 -24.5 -66.5t-61.5 -23.5zM343 732h31q4 0 4.5 -2.5t-0.5 -5.5l-311 -732q-1 -3 -3 -4.5t-5 -1.5h-33q-4 0 -4.5 2t0.5 5
l312 733q1 4 3.5 5t5.5 1zM180 50v38v3t1 3l81 209q1 2 2.5 3t3.5 1h68q2 0 3.5 -1.5t1.5 -3.5v-203h29q3 0 4 -1t1 -4v-44q0 -2 -1 -3.5t-4 -1.5h-29v-54q0 -2 -1.5 -3.5t-3.5 -1.5h-46q-3 0 -4 1.5t-1 3.5v54h-99q-3 0 -4.5 1.5t-1.5 3.5zM241 100h44v118z" />
    <glyph glyph-name="questiondown" unicode="&#xbf;" horiz-adv-x="356" 
d="M170 595q-28 0 -47 20t-19 48t19 48.5t47 20.5t47 -20.5t19 -48.5t-19 -48t-47 -20zM216 505v-32q0 -51 -12 -92t-25.5 -77t-25.5 -71t-12 -74q0 -30 9 -46.5t29 -16.5q21 0 33 19t15 62q0 6 3 9t9 3h98q6 0 9 -3t3 -9q-1 -40 -11.5 -75t-31 -60.5t-52 -40.5t-73.5 -15
q-31 0 -61.5 9t-54.5 29t-39 51t-15 75q0 50 17.5 86t39 72t39 79.5t17.5 108.5v9q0 6 3 9t9 3h68q6 0 9 -3t3 -9z" />
    <glyph glyph-name="Agrave" unicode="&#xc0;" horiz-adv-x="424" 
d="M114 855q-4 6 -2 10.5t9 4.5h60q4 0 8 -2.5t6 -6.5l40 -86q3 -6 0.5 -10t-9.5 -4h-31q-4 0 -7.5 1.5t-6.5 5.5zM320 707l100 -694q1 -6 -2 -9.5t-10 -3.5h-118q-6 0 -9 3t-4 8l-23 208h-82l-23 -208q-1 -5 -4 -8t-9 -3h-118q-7 0 -10 3.5t-2 9.5l100 694q1 5 4 8t9 3h188
q6 0 9 -3t4 -8zM175 327h76l-32 256h-12z" />
    <glyph glyph-name="Aacute" unicode="&#xc1;" horiz-adv-x="424" 
d="M302 870q7 0 9 -4.5t-2 -10.5l-67 -87q-3 -4 -6.5 -5.5t-7.5 -1.5h-31q-7 0 -9.5 4t0.5 10l40 86q2 4 6 6.5t8 2.5h60zM320 707l100 -694q1 -6 -2 -9.5t-10 -3.5h-118q-6 0 -9 3t-4 8l-23 208h-82l-23 -208q-1 -5 -4 -8t-9 -3h-118q-7 0 -10 3.5t-2 9.5l100 694q1 5 4 8
t9 3h188q6 0 9 -3t4 -8zM175 327h76l-32 256h-12z" />
    <glyph glyph-name="Acircumflex" unicode="&#xc2;" horiz-adv-x="424" 
d="M121 776l52 86q3 5 6.5 6.5t7.5 1.5h53q4 0 7.5 -1.5t6.5 -6.5l51 -86q4 -7 1.5 -11t-9.5 -4h-39q-4 0 -8 2.5t-6 6.5l-32 50l-30 -50q-1 -3 -5.5 -6t-8.5 -3h-39q-7 0 -9.5 4t1.5 11zM320 707l100 -694q1 -6 -2 -9.5t-10 -3.5h-118q-6 0 -9 3t-4 8l-23 208h-82l-23 -208
q-1 -5 -4 -8t-9 -3h-118q-7 0 -10 3.5t-2 9.5l100 694q1 5 4 8t9 3h188q6 0 9 -3t4 -8zM175 327h76l-32 256h-12z" />
    <glyph glyph-name="Atilde" unicode="&#xc3;" horiz-adv-x="424" 
d="M296 859l25 -13q4 -2 5.5 -5.5t0.5 -7.5q-10 -32 -31.5 -46t-40.5 -14q-25 0 -43.5 14.5t-37.5 14.5q-9 0 -16 -4.5t-14 -18.5q-3 -4 -6.5 -5.5t-7.5 -0.5l-25 13q-4 2 -5.5 5.5t-0.5 7.5q10 32 31.5 46t40.5 14q25 0 43 -14.5t38 -14.5q9 0 16 4.5t14 18.5q3 4 6.5 5.5
t7.5 0.5zM320 707l100 -694q1 -6 -2 -9.5t-10 -3.5h-118q-6 0 -9 3t-4 8l-23 208h-82l-23 -208q-1 -5 -4 -8t-9 -3h-118q-7 0 -10 3.5t-2 9.5l100 694q1 5 4 8t9 3h188q6 0 9 -3t4 -8zM175 327h76l-32 256h-12z" />
    <glyph glyph-name="Adieresis" unicode="&#xc4;" horiz-adv-x="424" 
d="M117 791v49q0 6 3 9t9 3h50q6 0 9 -3t3 -9v-49q0 -6 -3 -9t-9 -3h-50q-6 0 -9 3t-3 9zM235 791v49q0 6 3 9t9 3h50q6 0 9 -3t3 -9v-49q0 -6 -3 -9t-9 -3h-50q-6 0 -9 3t-3 9zM320 707l100 -694q1 -6 -2 -9.5t-10 -3.5h-118q-6 0 -9 3t-4 8l-23 208h-82l-23 -208
q-1 -5 -4 -8t-9 -3h-118q-7 0 -10 3.5t-2 9.5l100 694q1 5 4 8t9 3h188q6 0 9 -3t4 -8zM175 327h76l-32 256h-12z" />
    <glyph glyph-name="Aring" unicode="&#xc5;" horiz-adv-x="424" 
d="M270 816q0 -25 -16.5 -42.5t-40.5 -17.5t-40.5 17.5t-16.5 42.5q0 24 16.5 41.5t40.5 17.5t40.5 -17.5t16.5 -41.5zM187 816q0 -11 7.5 -19t18.5 -8q10 0 18 8t8 19q0 10 -8 18t-18 8q-11 0 -18.5 -8t-7.5 -18zM320 707l100 -694q1 -6 -2 -9.5t-10 -3.5h-118q-6 0 -9 3
t-4 8l-23 208h-82l-23 -208q-1 -5 -4 -8t-9 -3h-118q-7 0 -10 3.5t-2 9.5l100 694q1 5 4 8t9 3h188q6 0 9 -3t4 -8zM175 327h76l-32 256h-12z" />
    <glyph glyph-name="AE" unicode="&#xc6;" horiz-adv-x="541" 
d="M520 602h-141v-176h97q6 0 9 -3t3 -9v-98q0 -6 -3 -9t-9 -3h-97v-188h141q6 0 9 -3t3 -9v-92q0 -6 -3 -9t-9 -3h-273q-6 0 -9 3t-3 9v193h-81l-35 -194q-1 -5 -4.5 -8t-9.5 -3h-93q-7 0 -9.5 3.5t-1.5 9.5l153 694q1 6 4.5 8.5t9.5 2.5h352q6 0 9 -3t3 -9v-92q0 -6 -3 -9
t-9 -3zM177 313h58v270h-8z" />
    <glyph glyph-name="Ccedilla" unicode="&#xc7;" horiz-adv-x="420" 
d="M296 -101q0 -33 -23 -56.5t-54 -23.5q-24 0 -44 13t-28 39q-1 5 1 8t8 3h31q4 0 5.5 -1t3.5 -5q3 -5 9 -9t13 -4q14 0 20.5 10.5t6.5 25.5q0 16 -6.5 26t-19.5 10q-7 0 -10.5 -1.5t-6.5 -4.5q-4 -4 -7.5 -4.5t-6.5 1.5l-15 10q-6 4 -7 7t1 7l25 37q-95 10 -132 108
t-37 264q0 203 51.5 288t142.5 85q53 0 88.5 -23.5t56.5 -61t29.5 -85t8.5 -94.5q0 -6 -3 -9t-9 -3h-113q-6 0 -9 3t-3 8q-1 83 -11 116t-32 33q-7 0 -15.5 -7t-15.5 -32.5t-11.5 -77t-4.5 -140.5q0 -87 4.5 -138t11.5 -77.5t15.5 -34t15.5 -7.5q22 0 33 41t13 113q0 6 3 9
t9 3h110q6 0 9 -3t3 -9q0 -43 -7.5 -89t-26 -84t-50.5 -64.5t-81 -31.5l-17 -19q4 1 7.5 1.5t7.5 0.5q27 0 45 -19.5t18 -51.5z" />
    <glyph glyph-name="Egrave" unicode="&#xc8;" horiz-adv-x="361" 
d="M96 854q-4 6 -2 10.5t9 4.5h60q4 0 8 -2.5t6 -6.5l40 -86q3 -6 0.5 -10t-9.5 -4h-31q-4 0 -7.5 1.5t-6.5 5.5zM37 12v694q0 6 3 9t9 3h284q6 0 9 -3t3 -9v-92q0 -6 -3 -9t-9 -3h-152v-176h109q6 0 9 -3t3 -9v-98q0 -6 -3 -9t-9 -3h-109v-188h159q6 0 9 -3t3 -9v-92
q0 -6 -3 -9t-9 -3h-291q-6 0 -9 3t-3 9z" />
    <glyph glyph-name="Eacute" unicode="&#xc9;" horiz-adv-x="361" 
d="M284 869q7 0 9 -4.5t-2 -10.5l-67 -87q-3 -4 -6.5 -5.5t-7.5 -1.5h-31q-7 0 -9.5 4t0.5 10l40 86q2 4 6 6.5t8 2.5h60zM37 12v694q0 6 3 9t9 3h284q6 0 9 -3t3 -9v-92q0 -6 -3 -9t-9 -3h-152v-176h109q6 0 9 -3t3 -9v-98q0 -6 -3 -9t-9 -3h-109v-188h159q6 0 9 -3t3 -9
v-92q0 -6 -3 -9t-9 -3h-291q-6 0 -9 3t-3 9z" />
    <glyph glyph-name="Ecircumflex" unicode="&#xca;" horiz-adv-x="361" 
d="M103 775l52 86q3 5 6.5 6.5t7.5 1.5h53q4 0 7.5 -1.5t6.5 -6.5l51 -86q4 -7 1.5 -11t-9.5 -4h-39q-4 0 -8 2.5t-6 6.5l-32 50l-30 -50q-1 -3 -5.5 -6t-8.5 -3h-39q-7 0 -9.5 4t1.5 11zM37 12v694q0 6 3 9t9 3h284q6 0 9 -3t3 -9v-92q0 -6 -3 -9t-9 -3h-152v-176h109
q6 0 9 -3t3 -9v-98q0 -6 -3 -9t-9 -3h-109v-188h159q6 0 9 -3t3 -9v-92q0 -6 -3 -9t-9 -3h-291q-6 0 -9 3t-3 9z" />
    <glyph glyph-name="Edieresis" unicode="&#xcb;" horiz-adv-x="361" 
d="M99 790v49q0 6 3 9t9 3h50q6 0 9 -3t3 -9v-49q0 -6 -3 -9t-9 -3h-50q-6 0 -9 3t-3 9zM217 790v49q0 6 3 9t9 3h50q6 0 9 -3t3 -9v-49q0 -6 -3 -9t-9 -3h-50q-6 0 -9 3t-3 9zM37 12v694q0 6 3 9t9 3h284q6 0 9 -3t3 -9v-92q0 -6 -3 -9t-9 -3h-152v-176h109q6 0 9 -3t3 -9
v-98q0 -6 -3 -9t-9 -3h-109v-188h159q6 0 9 -3t3 -9v-92q0 -6 -3 -9t-9 -3h-291q-6 0 -9 3t-3 9z" />
    <glyph glyph-name="Igrave" unicode="&#xcc;" horiz-adv-x="218" 
d="M11 854q-4 6 -2 10.5t9 4.5h60q4 0 8 -2.5t6 -6.5l40 -86q3 -6 0.5 -10t-9.5 -4h-31q-4 0 -7.5 1.5t-6.5 5.5zM38 12v694q0 6 3 9t9 3h120q6 0 9 -3t3 -9v-694q0 -6 -3 -9t-9 -3h-120q-6 0 -9 3t-3 9z" />
    <glyph glyph-name="Iacute" unicode="&#xcd;" horiz-adv-x="218" 
d="M198 869q7 0 9 -4.5t-2 -10.5l-67 -87q-3 -4 -6.5 -5.5t-7.5 -1.5h-31q-7 0 -9.5 4t0.5 10l40 86q2 4 6 6.5t8 2.5h60zM37 12v694q0 6 3 9t9 3h120q6 0 9 -3t3 -9v-694q0 -6 -3 -9t-9 -3h-120q-6 0 -9 3t-3 9z" />
    <glyph glyph-name="Icircumflex" unicode="&#xce;" horiz-adv-x="218" 
d="M18 775l52 86q3 5 6.5 6.5t7.5 1.5h53q4 0 7.5 -1.5t6.5 -6.5l51 -86q4 -7 1.5 -11t-9.5 -4h-39q-4 0 -8 2.5t-6 6.5l-32 50l-30 -50q-1 -3 -5.5 -6t-8.5 -3h-39q-7 0 -9.5 4t1.5 11zM38 12v694q0 6 3 9t9 3h120q6 0 9 -3t3 -9v-694q0 -6 -3 -9t-9 -3h-120q-6 0 -9 3
t-3 9z" />
    <glyph glyph-name="Idieresis" unicode="&#xcf;" horiz-adv-x="218" 
d="M13 790v49q0 6 3 9t9 3h50q6 0 9 -3t3 -9v-49q0 -6 -3 -9t-9 -3h-50q-6 0 -9 3t-3 9zM131 790v49q0 6 3 9t9 3h50q6 0 9 -3t3 -9v-49q0 -6 -3 -9t-9 -3h-50q-6 0 -9 3t-3 9zM37 12v694q0 6 3 9t9 3h120q6 0 9 -3t3 -9v-694q0 -6 -3 -9t-9 -3h-120q-6 0 -9 3t-3 9z" />
    <glyph glyph-name="Eth" unicode="&#xd0;" horiz-adv-x="426" 
d="M178 0h-129q-6 0 -9 3t-3 9v310h-25q-6 0 -9 3t-3 9v60q0 6 3 9t9 3h25v300q0 6 3 9t9 3h108q84 0 133 -26t74 -72.5t32 -113t7 -147.5q0 -77 -6 -143t-28.5 -114t-67.5 -75t-123 -27zM181 116q26 0 40.5 7.5t21.5 32.5t8.5 73.5t1.5 130.5q0 81 -1.5 129.5t-8.5 73.5
t-21.5 32t-40.5 7v-196h31q6 0 9 -3t3 -9v-60q0 -6 -3 -9t-9 -3h-31v-206z" />
    <glyph glyph-name="Ntilde" unicode="&#xd1;" horiz-adv-x="466" 
d="M316 858l25 -13q4 -2 5.5 -5.5t0.5 -7.5q-10 -32 -31.5 -46t-40.5 -14q-25 0 -43.5 14.5t-37.5 14.5q-9 0 -16 -4.5t-14 -18.5q-3 -4 -6.5 -5.5t-7.5 -0.5l-25 13q-4 2 -5.5 5.5t-0.5 7.5q10 32 31.5 46t40.5 14q25 0 43 -14.5t38 -14.5q9 0 16 4.5t14 18.5q3 4 6.5 5.5
t7.5 0.5zM171 12q0 -6 -3 -9t-9 -3h-110q-6 0 -9 3t-3 9v694q0 6 3 9t9 3h124q5 0 8.5 -2.5t4.5 -7.5l105 -326h4v324q0 6 3 9t9 3h110q6 0 9 -3t3 -9v-694q0 -6 -3 -9t-9 -3h-104q-5 0 -8.5 2.5t-4.5 7.5l-124 390h-5v-388z" />
    <glyph glyph-name="Ograve" unicode="&#xd2;" horiz-adv-x="440" 
d="M121 854q-4 6 -2 10.5t9 4.5h60q4 0 8 -2.5t6 -6.5l40 -86q3 -6 0.5 -10t-9.5 -4h-31q-4 0 -7.5 1.5t-6.5 5.5zM220 -14q-44 0 -80.5 19t-62.5 62.5t-40 115t-14 176.5t14 176.5t40 115t62.5 62.5t80.5 19t80.5 -19t62.5 -62.5t40 -115t14 -176.5t-14 -176.5t-40 -115
t-62.5 -62.5t-80.5 -19zM179 434v-150q0 -57 3 -92.5t8.5 -55.5t13 -27t16.5 -7t16.5 7t13 27t8.5 55.5t3 92.5v150q0 57 -3 92.5t-8.5 55.5t-13 27t-16.5 7t-16.5 -7t-13 -27t-8.5 -55.5t-3 -92.5z" />
    <glyph glyph-name="Oacute" unicode="&#xd3;" horiz-adv-x="440" 
d="M309 869q7 0 9 -4.5t-2 -10.5l-67 -87q-3 -4 -6.5 -5.5t-7.5 -1.5h-31q-7 0 -9.5 4t0.5 10l40 86q2 4 6 6.5t8 2.5h60zM220 -14q-44 0 -80.5 19t-62.5 62.5t-40 115t-14 176.5t14 176.5t40 115t62.5 62.5t80.5 19t80.5 -19t62.5 -62.5t40 -115t14 -176.5t-14 -176.5
t-40 -115t-62.5 -62.5t-80.5 -19zM179 434v-150q0 -57 3 -92.5t8.5 -55.5t13 -27t16.5 -7t16.5 7t13 27t8.5 55.5t3 92.5v150q0 57 -3 92.5t-8.5 55.5t-13 27t-16.5 7t-16.5 -7t-13 -27t-8.5 -55.5t-3 -92.5z" />
    <glyph glyph-name="Ocircumflex" unicode="&#xd4;" horiz-adv-x="440" 
d="M128 775l52 86q3 5 6.5 6.5t7.5 1.5h53q4 0 7.5 -1.5t6.5 -6.5l51 -86q4 -7 1.5 -11t-9.5 -4h-39q-4 0 -8 2.5t-6 6.5l-32 50l-30 -50q-1 -3 -5.5 -6t-8.5 -3h-39q-7 0 -9.5 4t1.5 11zM220 -14q-44 0 -80.5 19t-62.5 62.5t-40 115t-14 176.5t14 176.5t40 115t62.5 62.5
t80.5 19t80.5 -19t62.5 -62.5t40 -115t14 -176.5t-14 -176.5t-40 -115t-62.5 -62.5t-80.5 -19zM179 434v-150q0 -57 3 -92.5t8.5 -55.5t13 -27t16.5 -7t16.5 7t13 27t8.5 55.5t3 92.5v150q0 57 -3 92.5t-8.5 55.5t-13 27t-16.5 7t-16.5 -7t-13 -27t-8.5 -55.5t-3 -92.5z" />
    <glyph glyph-name="Otilde" unicode="&#xd5;" horiz-adv-x="440" 
d="M303 858l25 -13q4 -2 5.5 -5.5t0.5 -7.5q-10 -32 -31.5 -46t-40.5 -14q-25 0 -43.5 14.5t-37.5 14.5q-9 0 -16 -4.5t-14 -18.5q-3 -4 -6.5 -5.5t-7.5 -0.5l-25 13q-4 2 -5.5 5.5t-0.5 7.5q10 32 31.5 46t40.5 14q25 0 43 -14.5t38 -14.5q9 0 16 4.5t14 18.5q3 4 6.5 5.5
t7.5 0.5zM220 -14q-44 0 -80.5 19t-62.5 62.5t-40 115t-14 176.5t14 176.5t40 115t62.5 62.5t80.5 19t80.5 -19t62.5 -62.5t40 -115t14 -176.5t-14 -176.5t-40 -115t-62.5 -62.5t-80.5 -19zM179 434v-150q0 -57 3 -92.5t8.5 -55.5t13 -27t16.5 -7t16.5 7t13 27t8.5 55.5
t3 92.5v150q0 57 -3 92.5t-8.5 55.5t-13 27t-16.5 7t-16.5 -7t-13 -27t-8.5 -55.5t-3 -92.5z" />
    <glyph glyph-name="Odieresis" unicode="&#xd6;" horiz-adv-x="440" 
d="M124 790v49q0 6 3 9t9 3h50q6 0 9 -3t3 -9v-49q0 -6 -3 -9t-9 -3h-50q-6 0 -9 3t-3 9zM242 790v49q0 6 3 9t9 3h50q6 0 9 -3t3 -9v-49q0 -6 -3 -9t-9 -3h-50q-6 0 -9 3t-3 9zM220 -14q-44 0 -80.5 19t-62.5 62.5t-40 115t-14 176.5t14 176.5t40 115t62.5 62.5t80.5 19
t80.5 -19t62.5 -62.5t40 -115t14 -176.5t-14 -176.5t-40 -115t-62.5 -62.5t-80.5 -19zM179 434v-150q0 -57 3 -92.5t8.5 -55.5t13 -27t16.5 -7t16.5 7t13 27t8.5 55.5t3 92.5v150q0 57 -3 92.5t-8.5 55.5t-13 27t-16.5 7t-16.5 -7t-13 -27t-8.5 -55.5t-3 -92.5z" />
    <glyph glyph-name="multiply" unicode="&#xd7;" horiz-adv-x="400" 
d="M201 317l-78 -78q-4 -4 -8.5 -4t-8.5 4l-33 33q-4 4 -4 8.5t4 8.5l82 77l-83 78q-5 4 -4.5 8.5t4.5 8.5l33 33q4 4 8.5 4t8.5 -4l78 -79l78 78q4 4 8.5 4t8.5 -4l32 -33q4 -4 4 -8.5t-4 -8.5l-80 -77l81 -78q5 -4 4.5 -8.5t-4.5 -8.5l-32 -33q-4 -4 -8.5 -4t-8.5 4z" />
    <glyph glyph-name="Oslash" unicode="&#xd8;" horiz-adv-x="440" 
d="M220 -14q-36 0 -67 12t-55 40l-22 -45q-2 -5 -7 -5.5t-9 1.5l-31 15q-5 2 -5.5 7t1.5 10l37 76q-19 44 -29 109t-10 153q0 105 14 176.5t40 115t62.5 62.5t80.5 19q36 0 66.5 -12t55.5 -39l22 46q2 5 7 5.5t9 -1.5l31 -15q5 -2 5.5 -7t-1.5 -10l-37 -77q19 -44 29 -109
t10 -154q0 -105 -14 -176.5t-40 -115t-62.5 -62.5t-80.5 -19zM179 434v-92l80 167q-4 65 -14.5 86t-24.5 21q-9 0 -16.5 -7t-13 -27t-8.5 -55.5t-3 -92.5zM220 102q9 0 16.5 7t13 27t8.5 55.5t3 92.5v94l-80 -167q4 -66 14.5 -87.5t24.5 -21.5z" />
    <glyph glyph-name="Ugrave" unicode="&#xd9;" horiz-adv-x="424" 
d="M113 854q-4 6 -2 10.5t9 4.5h60q4 0 8 -2.5t6 -6.5l40 -86q3 -6 0.5 -10t-9.5 -4h-31q-4 0 -7.5 1.5t-6.5 5.5zM262 718h120q6 0 9 -3t3 -9v-525q0 -104 -52.5 -149.5t-129.5 -45.5t-129.5 45.5t-52.5 149.5v525q0 6 3 9t9 3h120q6 0 9 -3t3 -9v-516q0 -37 7 -62.5
t31 -25.5t31 25.5t7 62.5v516q0 6 3 9t9 3z" />
    <glyph glyph-name="Uacute" unicode="&#xda;" horiz-adv-x="424" 
d="M301 869q7 0 9 -4.5t-2 -10.5l-67 -87q-3 -4 -6.5 -5.5t-7.5 -1.5h-31q-7 0 -9.5 4t0.5 10l40 86q2 4 6 6.5t8 2.5h60zM262 718h120q6 0 9 -3t3 -9v-525q0 -104 -52.5 -149.5t-129.5 -45.5t-129.5 45.5t-52.5 149.5v525q0 6 3 9t9 3h120q6 0 9 -3t3 -9v-516
q0 -37 7 -62.5t31 -25.5t31 25.5t7 62.5v516q0 6 3 9t9 3z" />
    <glyph glyph-name="Ucircumflex" unicode="&#xdb;" horiz-adv-x="424" 
d="M120 775l52 86q3 5 6.5 6.5t7.5 1.5h53q4 0 7.5 -1.5t6.5 -6.5l51 -86q4 -7 1.5 -11t-9.5 -4h-39q-4 0 -8 2.5t-6 6.5l-32 50l-30 -50q-1 -3 -5.5 -6t-8.5 -3h-39q-7 0 -9.5 4t1.5 11zM262 718h120q6 0 9 -3t3 -9v-525q0 -104 -52.5 -149.5t-129.5 -45.5t-129.5 45.5
t-52.5 149.5v525q0 6 3 9t9 3h120q6 0 9 -3t3 -9v-516q0 -37 7 -62.5t31 -25.5t31 25.5t7 62.5v516q0 6 3 9t9 3z" />
    <glyph glyph-name="Udieresis" unicode="&#xdc;" horiz-adv-x="424" 
d="M116 790v49q0 6 3 9t9 3h50q6 0 9 -3t3 -9v-49q0 -6 -3 -9t-9 -3h-50q-6 0 -9 3t-3 9zM234 790v49q0 6 3 9t9 3h50q6 0 9 -3t3 -9v-49q0 -6 -3 -9t-9 -3h-50q-6 0 -9 3t-3 9zM262 718h120q6 0 9 -3t3 -9v-525q0 -104 -52.5 -149.5t-129.5 -45.5t-129.5 45.5t-52.5 149.5
v525q0 6 3 9t9 3h120q6 0 9 -3t3 -9v-516q0 -37 7 -62.5t31 -25.5t31 25.5t7 62.5v516q0 6 3 9t9 3z" />
    <glyph glyph-name="Yacute" unicode="&#xdd;" horiz-adv-x="424" 
d="M301 869q7 0 9 -4.5t-2 -10.5l-67 -87q-3 -4 -6.5 -5.5t-7.5 -1.5h-31q-7 0 -9.5 4t0.5 10l40 86q2 4 6 6.5t8 2.5h60zM272 0h-120q-6 0 -9 3t-3 9v278l-134 415q-2 6 1 9.5t9 3.5h116q6 0 9.5 -2.5t4.5 -8.5l66 -276l66 277q1 5 4.5 7.5t8.5 2.5h117q6 0 9 -3.5t1 -9.5
l-134 -415v-278q0 -6 -3 -9t-9 -3z" />
    <glyph glyph-name="Thorn" unicode="&#xde;" horiz-adv-x="410" 
d="M37 12v694q0 6 3 9t9 3h120q6 0 9 -3t3 -9v-80q109 -1 166.5 -52t57.5 -164q0 -96 -42 -156.5t-137 -60.5h-45v-181q0 -6 -3 -9t-9 -3h-120q-6 0 -9 3t-3 9zM182 510v-207h4q36 0 55.5 20.5t19.5 83.5q0 37 -6 58t-16.5 31t-24 12t-29.5 2h-3z" />
    <glyph glyph-name="germandbls" unicode="&#xdf;" horiz-adv-x="768" 
d="M22 231h108q6 0 9 -3t3 -9q1 -51 13 -84t41 -33q22 0 34 17t12 46q0 27 -10.5 49.5t-26 41t-33 33.5t-30.5 27q-63 58 -94.5 108t-31.5 122q0 84 46 135t128 51q46 0 79 -17t54.5 -45.5t32 -68t10.5 -84.5q0 -6 -3 -9t-9 -3h-110q-6 0 -9 3t-3 9q-1 39 -8 69t-36 30
q-19 0 -28.5 -16.5t-9.5 -41.5q0 -36 20 -66t49 -56q30 -27 58.5 -53.5t50 -56t34.5 -65t13 -79.5q0 -41 -11 -77t-33 -62.5t-56.5 -41.5t-80.5 -15q-47 0 -82 18.5t-57.5 50t-33.5 74t-11 90.5q0 6 3 9t9 3zM406 231h108q6 0 9 -3t3 -9q1 -51 13 -84t41 -33q22 0 34 17
t12 46q0 27 -10.5 49.5t-26 41t-33 33.5t-30.5 27q-63 58 -94.5 108t-31.5 122q0 84 46 135t128 51q46 0 79 -17t54.5 -45.5t32 -68t10.5 -84.5q0 -6 -3 -9t-9 -3h-110q-6 0 -9 3t-3 9q-1 39 -8 69t-36 30q-19 0 -28.5 -16.5t-9.5 -41.5q0 -36 20 -66t49 -56
q30 -27 58.5 -53.5t50 -56t34.5 -65t13 -79.5q0 -41 -11 -77t-33 -62.5t-56.5 -41.5t-80.5 -15q-47 0 -82 18.5t-57.5 50t-33.5 74t-11 90.5q0 6 3 9t9 3z" />
    <glyph glyph-name="agrave" unicode="&#xe0;" horiz-adv-x="424" 
d="M114 855q-4 6 -2 10.5t9 4.5h60q4 0 8 -2.5t6 -6.5l40 -86q3 -6 0.5 -10t-9.5 -4h-31q-4 0 -7.5 1.5t-6.5 5.5zM320 707l100 -694q1 -6 -2 -9.5t-10 -3.5h-118q-6 0 -9 3t-4 8l-23 208h-82l-23 -208q-1 -5 -4 -8t-9 -3h-118q-7 0 -10 3.5t-2 9.5l100 694q1 5 4 8t9 3h188
q6 0 9 -3t4 -8zM175 327h76l-32 256h-12z" />
    <glyph glyph-name="aacute" unicode="&#xe1;" horiz-adv-x="424" 
d="M302 870q7 0 9 -4.5t-2 -10.5l-67 -87q-3 -4 -6.5 -5.5t-7.5 -1.5h-31q-7 0 -9.5 4t0.5 10l40 86q2 4 6 6.5t8 2.5h60zM320 707l100 -694q1 -6 -2 -9.5t-10 -3.5h-118q-6 0 -9 3t-4 8l-23 208h-82l-23 -208q-1 -5 -4 -8t-9 -3h-118q-7 0 -10 3.5t-2 9.5l100 694q1 5 4 8
t9 3h188q6 0 9 -3t4 -8zM175 327h76l-32 256h-12z" />
    <glyph glyph-name="acircumflex" unicode="&#xe2;" horiz-adv-x="424" 
d="M121 776l52 86q3 5 6.5 6.5t7.5 1.5h53q4 0 7.5 -1.5t6.5 -6.5l51 -86q4 -7 1.5 -11t-9.5 -4h-39q-4 0 -8 2.5t-6 6.5l-32 50l-30 -50q-1 -3 -5.5 -6t-8.5 -3h-39q-7 0 -9.5 4t1.5 11zM320 707l100 -694q1 -6 -2 -9.5t-10 -3.5h-118q-6 0 -9 3t-4 8l-23 208h-82l-23 -208
q-1 -5 -4 -8t-9 -3h-118q-7 0 -10 3.5t-2 9.5l100 694q1 5 4 8t9 3h188q6 0 9 -3t4 -8zM175 327h76l-32 256h-12z" />
    <glyph glyph-name="atilde" unicode="&#xe3;" horiz-adv-x="424" 
d="M296 859l25 -13q4 -2 5.5 -5.5t0.5 -7.5q-10 -32 -31.5 -46t-40.5 -14q-25 0 -43.5 14.5t-37.5 14.5q-9 0 -16 -4.5t-14 -18.5q-3 -4 -6.5 -5.5t-7.5 -0.5l-25 13q-4 2 -5.5 5.5t-0.5 7.5q10 32 31.5 46t40.5 14q25 0 43 -14.5t38 -14.5q9 0 16 4.5t14 18.5q3 4 6.5 5.5
t7.5 0.5zM320 707l100 -694q1 -6 -2 -9.5t-10 -3.5h-118q-6 0 -9 3t-4 8l-23 208h-82l-23 -208q-1 -5 -4 -8t-9 -3h-118q-7 0 -10 3.5t-2 9.5l100 694q1 5 4 8t9 3h188q6 0 9 -3t4 -8zM175 327h76l-32 256h-12z" />
    <glyph glyph-name="adieresis" unicode="&#xe4;" horiz-adv-x="424" 
d="M117 791v49q0 6 3 9t9 3h50q6 0 9 -3t3 -9v-49q0 -6 -3 -9t-9 -3h-50q-6 0 -9 3t-3 9zM235 791v49q0 6 3 9t9 3h50q6 0 9 -3t3 -9v-49q0 -6 -3 -9t-9 -3h-50q-6 0 -9 3t-3 9zM320 707l100 -694q1 -6 -2 -9.5t-10 -3.5h-118q-6 0 -9 3t-4 8l-23 208h-82l-23 -208
q-1 -5 -4 -8t-9 -3h-118q-7 0 -10 3.5t-2 9.5l100 694q1 5 4 8t9 3h188q6 0 9 -3t4 -8zM175 327h76l-32 256h-12z" />
    <glyph glyph-name="aring" unicode="&#xe5;" horiz-adv-x="424" 
d="M270 816q0 -25 -16.5 -42.5t-40.5 -17.5t-40.5 17.5t-16.5 42.5q0 24 16.5 41.5t40.5 17.5t40.5 -17.5t16.5 -41.5zM187 816q0 -11 7.5 -19t18.5 -8q10 0 18 8t8 19q0 10 -8 18t-18 8q-11 0 -18.5 -8t-7.5 -18zM320 707l100 -694q1 -6 -2 -9.5t-10 -3.5h-118q-6 0 -9 3
t-4 8l-23 208h-82l-23 -208q-1 -5 -4 -8t-9 -3h-118q-7 0 -10 3.5t-2 9.5l100 694q1 5 4 8t9 3h188q6 0 9 -3t4 -8zM175 327h76l-32 256h-12z" />
    <glyph glyph-name="ae" unicode="&#xe6;" horiz-adv-x="541" 
d="M520 602h-141v-176h97q6 0 9 -3t3 -9v-98q0 -6 -3 -9t-9 -3h-97v-188h141q6 0 9 -3t3 -9v-92q0 -6 -3 -9t-9 -3h-273q-6 0 -9 3t-3 9v193h-81l-35 -194q-1 -5 -4.5 -8t-9.5 -3h-93q-7 0 -9.5 3.5t-1.5 9.5l153 694q1 6 4.5 8.5t9.5 2.5h352q6 0 9 -3t3 -9v-92q0 -6 -3 -9
t-9 -3zM177 313h58v270h-8z" />
    <glyph glyph-name="ccedilla" unicode="&#xe7;" horiz-adv-x="449" 
d="M300 -101q0 -33 -23 -56.5t-54 -23.5q-24 0 -44 13t-28 39q-1 5 1 8t8 3h31q4 0 5.5 -1t3.5 -5q3 -5 9 -9t13 -4q14 0 20.5 10.5t6.5 25.5q0 16 -6.5 26t-19.5 10q-7 0 -10.5 -1.5t-6.5 -4.5q-4 -4 -7.5 -4.5t-6.5 1.5l-15 10q-6 4 -7 7t1 7l34 50h-89q-33 0 -56 23.5
t-23 56.5v558q0 33 23 56.5t56 23.5h223q33 0 56.5 -23.5t23.5 -56.5v-169q0 -5 -3 -8.5t-9 -4.5h-110q-6 0 -9.5 3t-3.5 9v91q0 23 -16.5 40t-39.5 17q-24 0 -40.5 -17t-16.5 -40v-400q0 -23 16.5 -40t40.5 -17q23 0 39.5 17t16.5 40v97q0 6 3.5 9t9.5 3h110q6 -1 9 -3.5
t3 -9.5v-175q0 -33 -23.5 -56.5t-56.5 -23.5h-88l-29 -32q4 1 7.5 1.5t7.5 0.5q27 0 45 -19.5t18 -51.5z" />
    <glyph glyph-name="egrave" unicode="&#xe8;" horiz-adv-x="361" 
d="M96 854q-4 6 -2 10.5t9 4.5h60q4 0 8 -2.5t6 -6.5l40 -86q3 -6 0.5 -10t-9.5 -4h-31q-4 0 -7.5 1.5t-6.5 5.5zM37 12v694q0 6 3 9t9 3h284q6 0 9 -3t3 -9v-92q0 -6 -3 -9t-9 -3h-152v-176h109q6 0 9 -3t3 -9v-98q0 -6 -3 -9t-9 -3h-109v-188h159q6 0 9 -3t3 -9v-92
q0 -6 -3 -9t-9 -3h-291q-6 0 -9 3t-3 9z" />
    <glyph glyph-name="eacute" unicode="&#xe9;" horiz-adv-x="361" 
d="M284 869q7 0 9 -4.5t-2 -10.5l-67 -87q-3 -4 -6.5 -5.5t-7.5 -1.5h-31q-7 0 -9.5 4t0.5 10l40 86q2 4 6 6.5t8 2.5h60zM37 12v694q0 6 3 9t9 3h284q6 0 9 -3t3 -9v-92q0 -6 -3 -9t-9 -3h-152v-176h109q6 0 9 -3t3 -9v-98q0 -6 -3 -9t-9 -3h-109v-188h159q6 0 9 -3t3 -9
v-92q0 -6 -3 -9t-9 -3h-291q-6 0 -9 3t-3 9z" />
    <glyph glyph-name="ecircumflex" unicode="&#xea;" horiz-adv-x="361" 
d="M103 775l52 86q3 5 6.5 6.5t7.5 1.5h53q4 0 7.5 -1.5t6.5 -6.5l51 -86q4 -7 1.5 -11t-9.5 -4h-39q-4 0 -8 2.5t-6 6.5l-32 50l-30 -50q-1 -3 -5.5 -6t-8.5 -3h-39q-7 0 -9.5 4t1.5 11zM37 12v694q0 6 3 9t9 3h284q6 0 9 -3t3 -9v-92q0 -6 -3 -9t-9 -3h-152v-176h109
q6 0 9 -3t3 -9v-98q0 -6 -3 -9t-9 -3h-109v-188h159q6 0 9 -3t3 -9v-92q0 -6 -3 -9t-9 -3h-291q-6 0 -9 3t-3 9z" />
    <glyph glyph-name="edieresis" unicode="&#xeb;" horiz-adv-x="361" 
d="M99 790v49q0 6 3 9t9 3h50q6 0 9 -3t3 -9v-49q0 -6 -3 -9t-9 -3h-50q-6 0 -9 3t-3 9zM217 790v49q0 6 3 9t9 3h50q6 0 9 -3t3 -9v-49q0 -6 -3 -9t-9 -3h-50q-6 0 -9 3t-3 9zM37 12v694q0 6 3 9t9 3h284q6 0 9 -3t3 -9v-92q0 -6 -3 -9t-9 -3h-152v-176h109q6 0 9 -3t3 -9
v-98q0 -6 -3 -9t-9 -3h-109v-188h159q6 0 9 -3t3 -9v-92q0 -6 -3 -9t-9 -3h-291q-6 0 -9 3t-3 9z" />
    <glyph glyph-name="igrave" unicode="&#xec;" horiz-adv-x="218" 
d="M11 854q-4 6 -2 10.5t9 4.5h60q4 0 8 -2.5t6 -6.5l40 -86q3 -6 0.5 -10t-9.5 -4h-31q-4 0 -7.5 1.5t-6.5 5.5zM38 12v694q0 6 3 9t9 3h120q6 0 9 -3t3 -9v-694q0 -6 -3 -9t-9 -3h-120q-6 0 -9 3t-3 9z" />
    <glyph glyph-name="iacute" unicode="&#xed;" horiz-adv-x="218" 
d="M198 869q7 0 9 -4.5t-2 -10.5l-67 -87q-3 -4 -6.5 -5.5t-7.5 -1.5h-31q-7 0 -9.5 4t0.5 10l40 86q2 4 6 6.5t8 2.5h60zM37 12v694q0 6 3 9t9 3h120q6 0 9 -3t3 -9v-694q0 -6 -3 -9t-9 -3h-120q-6 0 -9 3t-3 9z" />
    <glyph glyph-name="icircumflex" unicode="&#xee;" horiz-adv-x="218" 
d="M18 775l52 86q3 5 6.5 6.5t7.5 1.5h53q4 0 7.5 -1.5t6.5 -6.5l51 -86q4 -7 1.5 -11t-9.5 -4h-39q-4 0 -8 2.5t-6 6.5l-32 50l-30 -50q-1 -3 -5.5 -6t-8.5 -3h-39q-7 0 -9.5 4t1.5 11zM38 12v694q0 6 3 9t9 3h120q6 0 9 -3t3 -9v-694q0 -6 -3 -9t-9 -3h-120q-6 0 -9 3
t-3 9z" />
    <glyph glyph-name="idieresis" unicode="&#xef;" horiz-adv-x="218" 
d="M13 790v49q0 6 3 9t9 3h50q6 0 9 -3t3 -9v-49q0 -6 -3 -9t-9 -3h-50q-6 0 -9 3t-3 9zM131 790v49q0 6 3 9t9 3h50q6 0 9 -3t3 -9v-49q0 -6 -3 -9t-9 -3h-50q-6 0 -9 3t-3 9zM37 12v694q0 6 3 9t9 3h120q6 0 9 -3t3 -9v-694q0 -6 -3 -9t-9 -3h-120q-6 0 -9 3t-3 9z" />
    <glyph glyph-name="eth" unicode="&#xf0;" horiz-adv-x="426" 
d="M178 0h-129q-6 0 -9 3t-3 9v310h-25q-6 0 -9 3t-3 9v60q0 6 3 9t9 3h25v300q0 6 3 9t9 3h108q84 0 133 -26t74 -72.5t32 -113t7 -147.5q0 -77 -6 -143t-28.5 -114t-67.5 -75t-123 -27zM181 116q26 0 40.5 7.5t21.5 32.5t8.5 73.5t1.5 130.5q0 81 -1.5 129.5t-8.5 73.5
t-21.5 32t-40.5 7v-196h31q6 0 9 -3t3 -9v-60q0 -6 -3 -9t-9 -3h-31v-206z" />
    <glyph glyph-name="ntilde" unicode="&#xf1;" horiz-adv-x="466" 
d="M316 858l25 -13q4 -2 5.5 -5.5t0.5 -7.5q-10 -32 -31.5 -46t-40.5 -14q-25 0 -43.5 14.5t-37.5 14.5q-9 0 -16 -4.5t-14 -18.5q-3 -4 -6.5 -5.5t-7.5 -0.5l-25 13q-4 2 -5.5 5.5t-0.5 7.5q10 32 31.5 46t40.5 14q25 0 43 -14.5t38 -14.5q9 0 16 4.5t14 18.5q3 4 6.5 5.5
t7.5 0.5zM171 12q0 -6 -3 -9t-9 -3h-110q-6 0 -9 3t-3 9v694q0 6 3 9t9 3h124q5 0 8.5 -2.5t4.5 -7.5l105 -326h4v324q0 6 3 9t9 3h110q6 0 9 -3t3 -9v-694q0 -6 -3 -9t-9 -3h-104q-5 0 -8.5 2.5t-4.5 7.5l-124 390h-5v-388z" />
    <glyph glyph-name="ograve" unicode="&#xf2;" horiz-adv-x="455" 
d="M132 854q-4 6 -2 10.5t9 4.5h60q4 0 8 -2.5t6 -6.5l40 -86q3 -6 0.5 -10t-9.5 -4h-31q-4 0 -7.5 1.5t-6.5 5.5zM37 638q0 33 23 56.5t56 23.5h223q33 0 56 -23.5t23 -56.5v-558q0 -33 -23 -56.5t-56 -23.5h-223q-33 0 -56 23.5t-23 56.5v558zM227 107q23 0 40 17t17 39
v392q0 22 -17 39t-40 17q-22 0 -39 -17t-17 -39v-392q0 -22 17 -39t39 -17z" />
    <glyph glyph-name="oacute" unicode="&#xf3;" horiz-adv-x="455" 
d="M320 869q7 0 9 -4.5t-2 -10.5l-67 -87q-3 -4 -6.5 -5.5t-7.5 -1.5h-31q-7 0 -9.5 4t0.5 10l40 86q2 4 6 6.5t8 2.5h60zM37 638q0 33 23 56.5t56 23.5h223q33 0 56 -23.5t23 -56.5v-558q0 -33 -23 -56.5t-56 -23.5h-223q-33 0 -56 23.5t-23 56.5v558zM227 107q23 0 40 17
t17 39v392q0 22 -17 39t-40 17q-22 0 -39 -17t-17 -39v-392q0 -22 17 -39t39 -17z" />
    <glyph glyph-name="ocircumflex" unicode="&#xf4;" horiz-adv-x="455" 
d="M139 775l52 86q3 5 6.5 6.5t7.5 1.5h53q4 0 7.5 -1.5t6.5 -6.5l51 -86q4 -7 1.5 -11t-9.5 -4h-39q-4 0 -8 2.5t-6 6.5l-32 50l-30 -50q-1 -3 -5.5 -6t-8.5 -3h-39q-7 0 -9.5 4t1.5 11zM37 638q0 33 23 56.5t56 23.5h223q33 0 56 -23.5t23 -56.5v-558q0 -33 -23 -56.5
t-56 -23.5h-223q-33 0 -56 23.5t-23 56.5v558zM227 107q23 0 40 17t17 39v392q0 22 -17 39t-40 17q-22 0 -39 -17t-17 -39v-392q0 -22 17 -39t39 -17z" />
    <glyph glyph-name="otilde" unicode="&#xf5;" horiz-adv-x="455" 
d="M314 858l25 -13q4 -2 5.5 -5.5t0.5 -7.5q-10 -32 -31.5 -46t-40.5 -14q-25 0 -43.5 14.5t-37.5 14.5q-9 0 -16 -4.5t-14 -18.5q-3 -4 -6.5 -5.5t-7.5 -0.5l-25 13q-4 2 -5.5 5.5t-0.5 7.5q10 32 31.5 46t40.5 14q25 0 43 -14.5t38 -14.5q9 0 16 4.5t14 18.5q3 4 6.5 5.5
t7.5 0.5zM37 638q0 33 23 56.5t56 23.5h223q33 0 56 -23.5t23 -56.5v-558q0 -33 -23 -56.5t-56 -23.5h-223q-33 0 -56 23.5t-23 56.5v558zM227 107q23 0 40 17t17 39v392q0 22 -17 39t-40 17q-22 0 -39 -17t-17 -39v-392q0 -22 17 -39t39 -17z" />
    <glyph glyph-name="odieresis" unicode="&#xf6;" horiz-adv-x="455" 
d="M135 790v49q0 6 3 9t9 3h50q6 0 9 -3t3 -9v-49q0 -6 -3 -9t-9 -3h-50q-6 0 -9 3t-3 9zM253 790v49q0 6 3 9t9 3h50q6 0 9 -3t3 -9v-49q0 -6 -3 -9t-9 -3h-50q-6 0 -9 3t-3 9zM37 638q0 33 23 56.5t56 23.5h223q33 0 56 -23.5t23 -56.5v-558q0 -33 -23 -56.5t-56 -23.5
h-223q-33 0 -56 23.5t-23 56.5v558zM227 107q23 0 40 17t17 39v392q0 22 -17 39t-40 17q-22 0 -39 -17t-17 -39v-392q0 -22 17 -39t39 -17z" />
    <glyph glyph-name="divide" unicode="&#xf7;" horiz-adv-x="400" 
d="M200 565q26 0 44 -18t18 -44q0 -25 -18 -43.5t-44 -18.5q-25 0 -43 18.5t-18 43.5q0 26 18 44t43 18zM337 331h-274q-6 0 -9 3t-3 9v46q0 6 3 9t9 3h274q6 0 9 -3t3 -9v-46q0 -6 -3 -9t-9 -3zM200 291q26 0 44 -18t18 -44q0 -25 -18 -43.5t-44 -18.5q-25 0 -43 18.5
t-18 43.5q0 26 18 44t43 18z" />
    <glyph glyph-name="oslash" unicode="&#xf8;" horiz-adv-x="455" 
d="M37 638q0 33 23 56.5t56 23.5h223q33 0 56 -23.5t23 -56.5v-558q0 -33 -23 -56.5t-56 -23.5h-223q-33 0 -56 23.5t-23 56.5v558zM171 555v-245l113 232v13q0 22 -17 39t-40 17q-22 0 -39 -17t-17 -39zM227 107q23 0 40 17t17 39v245l-113 -233v-12q0 -22 17 -39t39 -17z
" />
    <glyph glyph-name="ugrave" unicode="&#xf9;" horiz-adv-x="455" 
d="M129 854q-4 6 -2 10.5t9 4.5h60q4 0 8 -2.5t6 -6.5l40 -86q3 -6 0.5 -10t-9.5 -4h-31q-4 0 -7.5 1.5t-6.5 5.5zM406 718q6 0 9 -3t3 -9v-626q0 -33 -23 -56.5t-56 -23.5h-223q-33 0 -56 23.5t-23 56.5v625q0 6 2.5 9.5t8.5 3.5h110q6 0 9.5 -3t3.5 -9v-547
q0 -23 16.5 -40t40.5 -17q23 0 39.5 17t16.5 40v546q0 6 3 9.5t9 3.5h110z" />
    <glyph glyph-name="uacute" unicode="&#xfa;" horiz-adv-x="455" 
d="M317 869q7 0 9 -4.5t-2 -10.5l-67 -87q-3 -4 -6.5 -5.5t-7.5 -1.5h-31q-7 0 -9.5 4t0.5 10l40 86q2 4 6 6.5t8 2.5h60zM406 718q6 0 9 -3t3 -9v-626q0 -33 -23 -56.5t-56 -23.5h-223q-33 0 -56 23.5t-23 56.5v625q0 6 2.5 9.5t8.5 3.5h110q6 0 9.5 -3t3.5 -9v-547
q0 -23 16.5 -40t40.5 -17q23 0 39.5 17t16.5 40v546q0 6 3 9.5t9 3.5h110z" />
    <glyph glyph-name="ucircumflex" unicode="&#xfb;" horiz-adv-x="455" 
d="M136 775l52 86q3 5 6.5 6.5t7.5 1.5h53q4 0 7.5 -1.5t6.5 -6.5l51 -86q4 -7 1.5 -11t-9.5 -4h-39q-4 0 -8 2.5t-6 6.5l-32 50l-30 -50q-1 -3 -5.5 -6t-8.5 -3h-39q-7 0 -9.5 4t1.5 11zM406 718q6 0 9 -3t3 -9v-626q0 -33 -23 -56.5t-56 -23.5h-223q-33 0 -56 23.5
t-23 56.5v625q0 6 2.5 9.5t8.5 3.5h110q6 0 9.5 -3t3.5 -9v-547q0 -23 16.5 -40t40.5 -17q23 0 39.5 17t16.5 40v546q0 6 3 9.5t9 3.5h110z" />
    <glyph glyph-name="udieresis" unicode="&#xfc;" horiz-adv-x="455" 
d="M132 790v49q0 6 3 9t9 3h50q6 0 9 -3t3 -9v-49q0 -6 -3 -9t-9 -3h-50q-6 0 -9 3t-3 9zM250 790v49q0 6 3 9t9 3h50q6 0 9 -3t3 -9v-49q0 -6 -3 -9t-9 -3h-50q-6 0 -9 3t-3 9zM406 718q6 0 9 -3t3 -9v-626q0 -33 -23 -56.5t-56 -23.5h-223q-33 0 -56 23.5t-23 56.5v625
q0 6 2.5 9.5t8.5 3.5h110q6 0 9.5 -3t3.5 -9v-547q0 -23 16.5 -40t40.5 -17q23 0 39.5 17t16.5 40v546q0 6 3 9.5t9 3.5h110z" />
    <glyph glyph-name="yacute" unicode="&#xfd;" horiz-adv-x="424" 
d="M301 869q7 0 9 -4.5t-2 -10.5l-67 -87q-3 -4 -6.5 -5.5t-7.5 -1.5h-31q-7 0 -9.5 4t0.5 10l40 86q2 4 6 6.5t8 2.5h60zM272 0h-120q-6 0 -9 3t-3 9v278l-134 415q-2 6 1 9.5t9 3.5h116q6 0 9.5 -2.5t4.5 -8.5l66 -276l66 277q1 5 4.5 7.5t8.5 2.5h117q6 0 9 -3.5t1 -9.5
l-134 -415v-278q0 -6 -3 -9t-9 -3z" />
    <glyph glyph-name="thorn" unicode="&#xfe;" horiz-adv-x="410" 
d="M37 12v694q0 6 3 9t9 3h120q6 0 9 -3t3 -9v-113q109 -1 166.5 -52t57.5 -164q0 -96 -44 -156.5t-135 -60.5h-45v-148q0 -6 -3 -9t-9 -3h-120q-6 0 -9 3t-3 9zM182 477v-207h4q36 0 55.5 20.5t19.5 83.5q0 37 -6 58t-16.5 31t-24 12t-29.5 2h-3z" />
    <glyph glyph-name="ydieresis" unicode="&#xff;" horiz-adv-x="424" 
d="M116 790v49q0 6 3 9t9 3h50q6 0 9 -3t3 -9v-49q0 -6 -3 -9t-9 -3h-50q-6 0 -9 3t-3 9zM234 790v49q0 6 3 9t9 3h50q6 0 9 -3t3 -9v-49q0 -6 -3 -9t-9 -3h-50q-6 0 -9 3t-3 9zM272 0h-120q-6 0 -9 3t-3 9v278l-134 415q-2 6 1 9.5t9 3.5h116q6 0 9.5 -2.5t4.5 -8.5
l66 -276l66 277q1 5 4.5 7.5t8.5 2.5h117q6 0 9 -3.5t1 -9.5l-134 -415v-278q0 -6 -3 -9t-9 -3z" />
    <glyph glyph-name="Amacron" unicode="&#x100;" horiz-adv-x="424" 
d="M106 796v39q0 6 3 9t9 3h190q6 0 9 -3t3 -9v-39q0 -6 -3 -9t-9 -3h-190q-6 0 -9 3t-3 9zM320 707l100 -694q1 -6 -2 -9.5t-10 -3.5h-118q-6 0 -9 3t-4 8l-23 208h-82l-23 -208q-1 -5 -4 -8t-9 -3h-118q-7 0 -10 3.5t-2 9.5l100 694q1 5 4 8t9 3h188q6 0 9 -3t4 -8z
M175 327h76l-32 256h-12z" />
    <glyph glyph-name="amacron" unicode="&#x101;" horiz-adv-x="424" 
d="M106 796v39q0 6 3 9t9 3h190q6 0 9 -3t3 -9v-39q0 -6 -3 -9t-9 -3h-190q-6 0 -9 3t-3 9zM320 707l100 -694q1 -6 -2 -9.5t-10 -3.5h-118q-6 0 -9 3t-4 8l-23 208h-82l-23 -208q-1 -5 -4 -8t-9 -3h-118q-7 0 -10 3.5t-2 9.5l100 694q1 5 4 8t9 3h188q6 0 9 -3t4 -8z
M175 327h76l-32 256h-12z" />
    <glyph glyph-name="Abreve" unicode="&#x102;" horiz-adv-x="424" 
d="M273 863h34q6 0 8.5 -3.5t1.5 -9.5q-11 -37 -39.5 -59t-64.5 -22t-64.5 22t-39.5 59q-1 6 1.5 9.5t8.5 3.5h34q5 0 8.5 -2.5t5.5 -7.5q7 -15 18 -23t28 -8t28 8t18 23q2 5 5.5 7.5t8.5 2.5zM320 707l100 -694q1 -6 -2 -9.5t-10 -3.5h-118q-6 0 -9 3t-4 8l-23 208h-82
l-23 -208q-1 -5 -4 -8t-9 -3h-118q-7 0 -10 3.5t-2 9.5l100 694q1 5 4 8t9 3h188q6 0 9 -3t4 -8zM175 327h76l-32 256h-12z" />
    <glyph glyph-name="abreve" unicode="&#x103;" horiz-adv-x="424" 
d="M273 863h34q6 0 8.5 -3.5t1.5 -9.5q-11 -37 -39.5 -59t-64.5 -22t-64.5 22t-39.5 59q-1 6 1.5 9.5t8.5 3.5h34q5 0 8.5 -2.5t5.5 -7.5q7 -15 18 -23t28 -8t28 8t18 23q2 5 5.5 7.5t8.5 2.5zM320 707l100 -694q1 -6 -2 -9.5t-10 -3.5h-118q-6 0 -9 3t-4 8l-23 208h-82
l-23 -208q-1 -5 -4 -8t-9 -3h-118q-7 0 -10 3.5t-2 9.5l100 694q1 5 4 8t9 3h188q6 0 9 -3t4 -8zM175 327h76l-32 256h-12z" />
    <glyph glyph-name="Aogonek" unicode="&#x104;" horiz-adv-x="424" 
d="M355 -181q-29 0 -46.5 17.5t-17.5 45.5q0 27 16.5 58t47.5 60h-65q-6 0 -9 3t-4 8l-23 208h-82l-23 -208q-1 -5 -4 -8t-9 -3h-118q-7 0 -10 3.5t-2 9.5l100 694q1 5 4 8t9 3h188q6 0 9 -3t4 -8l100 -694q1 -5 -1 -9t-7 -9q-24 -23 -44 -58.5t-20 -54.5q0 -7 3 -11t7 -4
q6 0 8.5 5.5t2.5 12.5q0 3 2 4.5t4 1.5h38q3 0 5 -2.5t2 -7.5q0 -25 -18 -43.5t-47 -18.5zM175 327h76l-32 256h-12z" />
    <glyph glyph-name="aogonek" unicode="&#x105;" horiz-adv-x="424" 
d="M355 -181q-29 0 -46.5 17.5t-17.5 45.5q0 27 16.5 58t47.5 60h-65q-6 0 -9 3t-4 8l-23 208h-82l-23 -208q-1 -5 -4 -8t-9 -3h-118q-7 0 -10 3.5t-2 9.5l100 694q1 5 4 8t9 3h188q6 0 9 -3t4 -8l100 -694q1 -5 -1 -9t-7 -9q-24 -23 -44 -58.5t-20 -54.5q0 -7 3 -11t7 -4
q6 0 8.5 5.5t2.5 12.5q0 3 2 4.5t4 1.5h38q3 0 5 -2.5t2 -7.5q0 -25 -18 -43.5t-47 -18.5zM175 327h76l-32 256h-12z" />
    <glyph glyph-name="Cacute" unicode="&#x106;" horiz-adv-x="420" 
d="M307 869q7 0 9 -4.5t-2 -10.5l-67 -87q-3 -4 -6.5 -5.5t-7.5 -1.5h-31q-7 0 -9.5 4t0.5 10l40 86q2 4 6 6.5t8 2.5h60zM388 456h-113q-6 0 -9 3t-3 8q-1 83 -11 116t-32 33q-7 0 -15.5 -7t-15.5 -32.5t-11.5 -77t-4.5 -140.5q0 -87 4.5 -138t11.5 -77.5t15.5 -34
t15.5 -7.5q22 0 33 41t13 113q0 6 3 9t9 3h110q6 0 9 -3t3 -9q0 -46 -8.5 -94t-29.5 -87t-57 -64t-91 -25q-107 0 -149 99t-42 274q0 203 51.5 288t142.5 85q53 0 88.5 -23.5t56.5 -61t29.5 -85t8.5 -94.5q0 -6 -3 -9t-9 -3z" />
    <glyph glyph-name="cacute" unicode="&#x107;" horiz-adv-x="449" 
d="M317 869q7 0 9 -4.5t-2 -10.5l-67 -87q-3 -4 -6.5 -5.5t-7.5 -1.5h-31q-7 0 -9.5 4t0.5 10l40 86q2 4 6 6.5t8 2.5h60zM419 255v-175q0 -33 -23.5 -56.5t-56.5 -23.5h-223q-33 0 -56 23.5t-23 56.5v558q0 33 23 56.5t56 23.5h223q33 0 56.5 -23.5t23.5 -56.5v-169
q0 -5 -3 -8.5t-9 -4.5h-110q-6 0 -9.5 3t-3.5 9v91q0 23 -16.5 40t-39.5 17q-24 0 -40.5 -17t-16.5 -40v-400q0 -23 16.5 -40t40.5 -17q23 0 39.5 17t16.5 40v97q0 6 3.5 9t9.5 3h110q6 -1 9 -3.5t3 -9.5z" />
    <glyph glyph-name="Ccircumflex" unicode="&#x108;" horiz-adv-x="420" 
d="M126 775l52 86q3 5 6.5 6.5t7.5 1.5h53q4 0 7.5 -1.5t6.5 -6.5l51 -86q4 -7 1.5 -11t-9.5 -4h-39q-4 0 -8 2.5t-6 6.5l-32 50l-30 -50q-1 -3 -5.5 -6t-8.5 -3h-39q-7 0 -9.5 4t1.5 11zM388 456h-113q-6 0 -9 3t-3 8q-1 83 -11 116t-32 33q-7 0 -15.5 -7t-15.5 -32.5
t-11.5 -77t-4.5 -140.5q0 -87 4.5 -138t11.5 -77.5t15.5 -34t15.5 -7.5q22 0 33 41t13 113q0 6 3 9t9 3h110q6 0 9 -3t3 -9q0 -46 -8.5 -94t-29.5 -87t-57 -64t-91 -25q-107 0 -149 99t-42 274q0 203 51.5 288t142.5 85q53 0 88.5 -23.5t56.5 -61t29.5 -85t8.5 -94.5
q0 -6 -3 -9t-9 -3z" />
    <glyph glyph-name="ccircumflex" unicode="&#x109;" horiz-adv-x="449" 
d="M136 775l52 86q3 5 6.5 6.5t7.5 1.5h53q4 0 7.5 -1.5t6.5 -6.5l51 -86q4 -7 1.5 -11t-9.5 -4h-39q-4 0 -8 2.5t-6 6.5l-32 50l-30 -50q-1 -3 -5.5 -6t-8.5 -3h-39q-7 0 -9.5 4t1.5 11zM419 255v-175q0 -33 -23.5 -56.5t-56.5 -23.5h-223q-33 0 -56 23.5t-23 56.5v558
q0 33 23 56.5t56 23.5h223q33 0 56.5 -23.5t23.5 -56.5v-169q0 -5 -3 -8.5t-9 -4.5h-110q-6 0 -9.5 3t-3.5 9v91q0 23 -16.5 40t-39.5 17q-24 0 -40.5 -17t-16.5 -40v-400q0 -23 16.5 -40t40.5 -17q23 0 39.5 17t16.5 40v97q0 6 3.5 9t9.5 3h110q6 -1 9 -3.5t3 -9.5z" />
    <glyph glyph-name="Cdotaccent" unicode="&#x10a;" horiz-adv-x="420" 
d="M176 785v59q0 6 3 9t9 3h60q6 0 9 -3t3 -9v-59q0 -6 -3 -9t-9 -3h-60q-6 0 -9 3t-3 9zM388 456h-113q-6 0 -9 3t-3 8q-1 83 -11 116t-32 33q-7 0 -15.5 -7t-15.5 -32.5t-11.5 -77t-4.5 -140.5q0 -87 4.5 -138t11.5 -77.5t15.5 -34t15.5 -7.5q22 0 33 41t13 113q0 6 3 9
t9 3h110q6 0 9 -3t3 -9q0 -46 -8.5 -94t-29.5 -87t-57 -64t-91 -25q-107 0 -149 99t-42 274q0 203 51.5 288t142.5 85q53 0 88.5 -23.5t56.5 -61t29.5 -85t8.5 -94.5q0 -6 -3 -9t-9 -3z" />
    <glyph glyph-name="cdotaccent" unicode="&#x10b;" horiz-adv-x="449" 
d="M186 785v59q0 6 3 9t9 3h60q6 0 9 -3t3 -9v-59q0 -6 -3 -9t-9 -3h-60q-6 0 -9 3t-3 9zM419 255v-175q0 -33 -23.5 -56.5t-56.5 -23.5h-223q-33 0 -56 23.5t-23 56.5v558q0 33 23 56.5t56 23.5h223q33 0 56.5 -23.5t23.5 -56.5v-169q0 -5 -3 -8.5t-9 -4.5h-110
q-6 0 -9.5 3t-3.5 9v91q0 23 -16.5 40t-39.5 17q-24 0 -40.5 -17t-16.5 -40v-400q0 -23 16.5 -40t40.5 -17q23 0 39.5 17t16.5 40v97q0 6 3.5 9t9.5 3h110q6 -1 9 -3.5t3 -9.5z" />
    <glyph glyph-name="Ccaron" unicode="&#x10c;" horiz-adv-x="420" 
d="M178 768l-52 86q-4 7 -1.5 11t9.5 4h39q4 0 8.5 -3t5.5 -6l30 -50l32 50q2 4 6 6.5t8 2.5h39q7 0 9.5 -4t-1.5 -11l-51 -86q-3 -5 -6.5 -6.5t-7.5 -1.5h-53q-4 0 -7.5 1.5t-6.5 6.5zM388 456h-113q-6 0 -9 3t-3 8q-1 83 -11 116t-32 33q-7 0 -15.5 -7t-15.5 -32.5
t-11.5 -77t-4.5 -140.5q0 -87 4.5 -138t11.5 -77.5t15.5 -34t15.5 -7.5q22 0 33 41t13 113q0 6 3 9t9 3h110q6 0 9 -3t3 -9q0 -46 -8.5 -94t-29.5 -87t-57 -64t-91 -25q-107 0 -149 99t-42 274q0 203 51.5 288t142.5 85q53 0 88.5 -23.5t56.5 -61t29.5 -85t8.5 -94.5
q0 -6 -3 -9t-9 -3z" />
    <glyph glyph-name="ccaron" unicode="&#x10d;" horiz-adv-x="449" 
d="M188 768l-52 86q-4 7 -1.5 11t9.5 4h39q4 0 8.5 -3t5.5 -6l30 -50l32 50q2 4 6 6.5t8 2.5h39q7 0 9.5 -4t-1.5 -11l-51 -86q-3 -5 -6.5 -6.5t-7.5 -1.5h-53q-4 0 -7.5 1.5t-6.5 6.5zM419 255v-175q0 -33 -23.5 -56.5t-56.5 -23.5h-223q-33 0 -56 23.5t-23 56.5v558
q0 33 23 56.5t56 23.5h223q33 0 56.5 -23.5t23.5 -56.5v-169q0 -5 -3 -8.5t-9 -4.5h-110q-6 0 -9.5 3t-3.5 9v91q0 23 -16.5 40t-39.5 17q-24 0 -40.5 -17t-16.5 -40v-400q0 -23 16.5 -40t40.5 -17q23 0 39.5 17t16.5 40v97q0 6 3.5 9t9.5 3h110q6 -1 9 -3.5t3 -9.5z" />
    <glyph glyph-name="Dcaron" unicode="&#x10e;" horiz-adv-x="426" 
d="M160 768l-52 86q-4 7 -1.5 11t9.5 4h39q4 0 8.5 -3t5.5 -6l30 -50l32 50q2 4 6 6.5t8 2.5h39q7 0 9.5 -4t-1.5 -11l-51 -86q-3 -5 -6.5 -6.5t-7.5 -1.5h-53q-4 0 -7.5 1.5t-6.5 6.5zM37 12v694q0 6 3 9t9 3h108q84 0 133 -26t74 -72.5t32 -113t7 -147.5q0 -77 -6 -143
t-28.5 -114t-67.5 -75t-123 -27h-129q-6 0 -9 3t-3 9zM181 602v-486q26 0 40.5 7.5t21.5 32.5t8.5 73.5t1.5 130.5q0 81 -1.5 129.5t-8.5 73.5t-21.5 32t-40.5 7z" />
    <glyph glyph-name="dcaron" unicode="&#x10f;" horiz-adv-x="426" 
d="M160 768l-52 86q-4 7 -1.5 11t9.5 4h39q4 0 8.5 -3t5.5 -6l30 -50l32 50q2 4 6 6.5t8 2.5h39q7 0 9.5 -4t-1.5 -11l-51 -86q-3 -5 -6.5 -6.5t-7.5 -1.5h-53q-4 0 -7.5 1.5t-6.5 6.5zM37 12v694q0 6 3 9t9 3h108q84 0 133 -26t74 -72.5t32 -113t7 -147.5q0 -77 -6 -143
t-28.5 -114t-67.5 -75t-123 -27h-129q-6 0 -9 3t-3 9zM181 602v-486q26 0 40.5 7.5t21.5 32.5t8.5 73.5t1.5 130.5q0 81 -1.5 129.5t-8.5 73.5t-21.5 32t-40.5 7z" />
    <glyph glyph-name="Dcroat" unicode="&#x110;" horiz-adv-x="426" 
d="M178 0h-129q-6 0 -9 3t-3 9v310h-25q-6 0 -9 3t-3 9v60q0 6 3 9t9 3h25v300q0 6 3 9t9 3h108q84 0 133 -26t74 -72.5t32 -113t7 -147.5q0 -77 -6 -143t-28.5 -114t-67.5 -75t-123 -27zM181 116q26 0 40.5 7.5t21.5 32.5t8.5 73.5t1.5 130.5q0 81 -1.5 129.5t-8.5 73.5
t-21.5 32t-40.5 7v-196h31q6 0 9 -3t3 -9v-60q0 -6 -3 -9t-9 -3h-31v-206z" />
    <glyph glyph-name="dcroat" unicode="&#x111;" horiz-adv-x="426" 
d="M178 0h-129q-6 0 -9 3t-3 9v310h-25q-6 0 -9 3t-3 9v60q0 6 3 9t9 3h25v300q0 6 3 9t9 3h108q84 0 133 -26t74 -72.5t32 -113t7 -147.5q0 -77 -6 -143t-28.5 -114t-67.5 -75t-123 -27zM181 116q26 0 40.5 7.5t21.5 32.5t8.5 73.5t1.5 130.5q0 81 -1.5 129.5t-8.5 73.5
t-21.5 32t-40.5 7v-196h31q6 0 9 -3t3 -9v-60q0 -6 -3 -9t-9 -3h-31v-206z" />
    <glyph glyph-name="Emacron" unicode="&#x112;" horiz-adv-x="361" 
d="M88 795v39q0 6 3 9t9 3h190q6 0 9 -3t3 -9v-39q0 -6 -3 -9t-9 -3h-190q-6 0 -9 3t-3 9zM37 12v694q0 6 3 9t9 3h284q6 0 9 -3t3 -9v-92q0 -6 -3 -9t-9 -3h-152v-176h109q6 0 9 -3t3 -9v-98q0 -6 -3 -9t-9 -3h-109v-188h159q6 0 9 -3t3 -9v-92q0 -6 -3 -9t-9 -3h-291
q-6 0 -9 3t-3 9z" />
    <glyph glyph-name="emacron" unicode="&#x113;" horiz-adv-x="361" 
d="M88 795v39q0 6 3 9t9 3h190q6 0 9 -3t3 -9v-39q0 -6 -3 -9t-9 -3h-190q-6 0 -9 3t-3 9zM37 12v694q0 6 3 9t9 3h284q6 0 9 -3t3 -9v-92q0 -6 -3 -9t-9 -3h-152v-176h109q6 0 9 -3t3 -9v-98q0 -6 -3 -9t-9 -3h-109v-188h159q6 0 9 -3t3 -9v-92q0 -6 -3 -9t-9 -3h-291
q-6 0 -9 3t-3 9z" />
    <glyph glyph-name="Ebreve" unicode="&#x114;" horiz-adv-x="361" 
d="M255 862h34q6 0 8.5 -3.5t1.5 -9.5q-11 -37 -39.5 -59t-64.5 -22t-64.5 22t-39.5 59q-1 6 1.5 9.5t8.5 3.5h34q5 0 8.5 -2.5t5.5 -7.5q7 -15 18 -23t28 -8t28 8t18 23q2 5 5.5 7.5t8.5 2.5zM37 12v694q0 6 3 9t9 3h284q6 0 9 -3t3 -9v-92q0 -6 -3 -9t-9 -3h-152v-176h109
q6 0 9 -3t3 -9v-98q0 -6 -3 -9t-9 -3h-109v-188h159q6 0 9 -3t3 -9v-92q0 -6 -3 -9t-9 -3h-291q-6 0 -9 3t-3 9z" />
    <glyph glyph-name="ebreve" unicode="&#x115;" horiz-adv-x="361" 
d="M255 862h34q6 0 8.5 -3.5t1.5 -9.5q-11 -37 -39.5 -59t-64.5 -22t-64.5 22t-39.5 59q-1 6 1.5 9.5t8.5 3.5h34q5 0 8.5 -2.5t5.5 -7.5q7 -15 18 -23t28 -8t28 8t18 23q2 5 5.5 7.5t8.5 2.5zM37 12v694q0 6 3 9t9 3h284q6 0 9 -3t3 -9v-92q0 -6 -3 -9t-9 -3h-152v-176h109
q6 0 9 -3t3 -9v-98q0 -6 -3 -9t-9 -3h-109v-188h159q6 0 9 -3t3 -9v-92q0 -6 -3 -9t-9 -3h-291q-6 0 -9 3t-3 9z" />
    <glyph glyph-name="Edotaccent" unicode="&#x116;" horiz-adv-x="361" 
d="M153 785v59q0 6 3 9t9 3h60q6 0 9 -3t3 -9v-59q0 -6 -3 -9t-9 -3h-60q-6 0 -9 3t-3 9zM37 12v694q0 6 3 9t9 3h284q6 0 9 -3t3 -9v-92q0 -6 -3 -9t-9 -3h-152v-176h109q6 0 9 -3t3 -9v-98q0 -6 -3 -9t-9 -3h-109v-188h159q6 0 9 -3t3 -9v-92q0 -6 -3 -9t-9 -3h-291
q-6 0 -9 3t-3 9z" />
    <glyph glyph-name="edotaccent" unicode="&#x117;" horiz-adv-x="361" 
d="M153 785v59q0 6 3 9t9 3h60q6 0 9 -3t3 -9v-59q0 -6 -3 -9t-9 -3h-60q-6 0 -9 3t-3 9zM37 12v694q0 6 3 9t9 3h284q6 0 9 -3t3 -9v-92q0 -6 -3 -9t-9 -3h-152v-176h109q6 0 9 -3t3 -9v-98q0 -6 -3 -9t-9 -3h-109v-188h159q6 0 9 -3t3 -9v-92q0 -6 -3 -9t-9 -3h-291
q-6 0 -9 3t-3 9z" />
    <glyph glyph-name="Eogonek" unicode="&#x118;" horiz-adv-x="361" 
d="M287 -181q-29 0 -46.5 17.5t-17.5 45.5q0 27 16.5 58t47.5 60h-238q-6 0 -9 3t-3 9v694q0 6 3 9t9 3h284q6 0 9 -3t3 -9v-92q0 -6 -3 -9t-9 -3h-152v-176h109q6 0 9 -3t3 -9v-98q0 -6 -3 -9t-9 -3h-109v-188h159q6 0 9 -3t3 -9v-92q0 -8 -2 -10.5t-6 -6.5
q-24 -23 -44 -58.5t-20 -54.5q0 -7 3 -11t7 -4q6 0 8.5 5.5t2.5 12.5q0 3 2 4.5t4 1.5h38q3 0 5 -2.5t2 -7.5q0 -25 -18 -43.5t-47 -18.5z" />
    <glyph glyph-name="eogonek" unicode="&#x119;" horiz-adv-x="361" 
d="M287 -181q-29 0 -46.5 17.5t-17.5 45.5q0 27 16.5 58t47.5 60h-238q-6 0 -9 3t-3 9v694q0 6 3 9t9 3h284q6 0 9 -3t3 -9v-92q0 -6 -3 -9t-9 -3h-152v-176h109q6 0 9 -3t3 -9v-98q0 -6 -3 -9t-9 -3h-109v-188h159q6 0 9 -3t3 -9v-92q0 -8 -2 -10.5t-6 -6.5
q-24 -23 -44 -58.5t-20 -54.5q0 -7 3 -11t7 -4q6 0 8.5 5.5t2.5 12.5q0 3 2 4.5t4 1.5h38q3 0 5 -2.5t2 -7.5q0 -25 -18 -43.5t-47 -18.5z" />
    <glyph glyph-name="Ecaron" unicode="&#x11a;" horiz-adv-x="361" 
d="M155 768l-52 86q-4 7 -1.5 11t9.5 4h39q4 0 8.5 -3t5.5 -6l30 -50l32 50q2 4 6 6.5t8 2.5h39q7 0 9.5 -4t-1.5 -11l-51 -86q-3 -5 -6.5 -6.5t-7.5 -1.5h-53q-4 0 -7.5 1.5t-6.5 6.5zM37 12v694q0 6 3 9t9 3h284q6 0 9 -3t3 -9v-92q0 -6 -3 -9t-9 -3h-152v-176h109
q6 0 9 -3t3 -9v-98q0 -6 -3 -9t-9 -3h-109v-188h159q6 0 9 -3t3 -9v-92q0 -6 -3 -9t-9 -3h-291q-6 0 -9 3t-3 9z" />
    <glyph glyph-name="ecaron" unicode="&#x11b;" horiz-adv-x="361" 
d="M155 768l-52 86q-4 7 -1.5 11t9.5 4h39q4 0 8.5 -3t5.5 -6l30 -50l32 50q2 4 6 6.5t8 2.5h39q7 0 9.5 -4t-1.5 -11l-51 -86q-3 -5 -6.5 -6.5t-7.5 -1.5h-53q-4 0 -7.5 1.5t-6.5 6.5zM37 12v694q0 6 3 9t9 3h284q6 0 9 -3t3 -9v-92q0 -6 -3 -9t-9 -3h-152v-176h109
q6 0 9 -3t3 -9v-98q0 -6 -3 -9t-9 -3h-109v-188h159q6 0 9 -3t3 -9v-92q0 -6 -3 -9t-9 -3h-291q-6 0 -9 3t-3 9z" />
    <glyph glyph-name="Gcircumflex" unicode="&#x11c;" horiz-adv-x="427" 
d="M126 775l52 86q3 5 6.5 6.5t7.5 1.5h53q4 0 7.5 -1.5t6.5 -6.5l51 -86q4 -7 1.5 -11t-9.5 -4h-39q-4 0 -8 2.5t-6 6.5l-32 50l-30 -50q-1 -3 -5.5 -6t-8.5 -3h-39q-7 0 -9.5 4t1.5 11zM263 467q-1 83 -11 116t-32 33q-7 0 -15.5 -6.5t-15.5 -32t-11.5 -77t-4.5 -140.5
q0 -87 4.5 -138.5t11.5 -77.5t17 -34t21 -8q29 0 41.5 34.5t12.5 91.5h-41q-6 0 -9 3t-3 9v86q0 6 3 9t9 3h148q6 0 9 -3t3 -9v-314q0 -6 -3 -9t-9 -3h-46q-5 0 -8.5 2.5t-4.5 6.5l-13 41q-15 -24 -39.5 -44t-70.5 -20q-95 0 -139 99t-44 274q0 203 51.5 288t142.5 85
q53 0 88.5 -23.5t56.5 -61t29.5 -85t8.5 -94.5q0 -6 -3 -9t-9 -3h-113q-6 0 -9 3t-3 8z" />
    <glyph glyph-name="gcircumflex" unicode="&#x11d;" horiz-adv-x="448" 
d="M136 775l52 86q3 5 6.5 6.5t7.5 1.5h53q4 0 7.5 -1.5t6.5 -6.5l51 -86q4 -7 1.5 -11t-9.5 -4h-39q-4 0 -8 2.5t-6 6.5l-32 50l-30 -50q-1 -3 -5.5 -6t-8.5 -3h-39q-7 0 -9.5 4t1.5 11zM418 80q0 -33 -23 -56.5t-56 -23.5h-223q-33 0 -56 23.5t-23 56.5v558q0 33 23 56.5
t56 23.5h223q33 0 56 -23.5t23 -56.5v-173q0 -6 -2.5 -9.5t-8.5 -3.5h-110q-6 0 -9.5 3t-3.5 9v95q0 23 -16.5 40t-40.5 17q-23 0 -39.5 -17t-16.5 -40v-400q0 -23 16.5 -40t39.5 -17q24 0 40.5 17t16.5 40v60h-38q-6 0 -9 3t-3 9v98q0 6 3 9t9 3h160q6 0 9 -3t3 -9v-249z
" />
    <glyph glyph-name="Gbreve" unicode="&#x11e;" horiz-adv-x="427" 
d="M278 862h34q6 0 8.5 -3.5t1.5 -9.5q-11 -37 -39.5 -59t-64.5 -22t-64.5 22t-39.5 59q-1 6 1.5 9.5t8.5 3.5h34q5 0 8.5 -2.5t5.5 -7.5q7 -15 18 -23t28 -8t28 8t18 23q2 5 5.5 7.5t8.5 2.5zM263 467q-1 83 -11 116t-32 33q-7 0 -15.5 -6.5t-15.5 -32t-11.5 -77
t-4.5 -140.5q0 -87 4.5 -138.5t11.5 -77.5t17 -34t21 -8q29 0 41.5 34.5t12.5 91.5h-41q-6 0 -9 3t-3 9v86q0 6 3 9t9 3h148q6 0 9 -3t3 -9v-314q0 -6 -3 -9t-9 -3h-46q-5 0 -8.5 2.5t-4.5 6.5l-13 41q-15 -24 -39.5 -44t-70.5 -20q-95 0 -139 99t-44 274q0 203 51.5 288
t142.5 85q53 0 88.5 -23.5t56.5 -61t29.5 -85t8.5 -94.5q0 -6 -3 -9t-9 -3h-113q-6 0 -9 3t-3 8z" />
    <glyph glyph-name="gbreve" unicode="&#x11f;" horiz-adv-x="448" 
d="M288 862h34q6 0 8.5 -3.5t1.5 -9.5q-11 -37 -39.5 -59t-64.5 -22t-64.5 22t-39.5 59q-1 6 1.5 9.5t8.5 3.5h34q5 0 8.5 -2.5t5.5 -7.5q7 -15 18 -23t28 -8t28 8t18 23q2 5 5.5 7.5t8.5 2.5zM418 80q0 -33 -23 -56.5t-56 -23.5h-223q-33 0 -56 23.5t-23 56.5v558
q0 33 23 56.5t56 23.5h223q33 0 56 -23.5t23 -56.5v-173q0 -6 -2.5 -9.5t-8.5 -3.5h-110q-6 0 -9.5 3t-3.5 9v95q0 23 -16.5 40t-40.5 17q-23 0 -39.5 -17t-16.5 -40v-400q0 -23 16.5 -40t39.5 -17q24 0 40.5 17t16.5 40v60h-38q-6 0 -9 3t-3 9v98q0 6 3 9t9 3h160q6 0 9 -3
t3 -9v-249z" />
    <glyph glyph-name="Gdotaccent" unicode="&#x120;" horiz-adv-x="427" 
d="M176 785v59q0 6 3 9t9 3h60q6 0 9 -3t3 -9v-59q0 -6 -3 -9t-9 -3h-60q-6 0 -9 3t-3 9zM263 467q-1 83 -11 116t-32 33q-7 0 -15.5 -6.5t-15.5 -32t-11.5 -77t-4.5 -140.5q0 -87 4.5 -138.5t11.5 -77.5t17 -34t21 -8q29 0 41.5 34.5t12.5 91.5h-41q-6 0 -9 3t-3 9v86
q0 6 3 9t9 3h148q6 0 9 -3t3 -9v-314q0 -6 -3 -9t-9 -3h-46q-5 0 -8.5 2.5t-4.5 6.5l-13 41q-15 -24 -39.5 -44t-70.5 -20q-95 0 -139 99t-44 274q0 203 51.5 288t142.5 85q53 0 88.5 -23.5t56.5 -61t29.5 -85t8.5 -94.5q0 -6 -3 -9t-9 -3h-113q-6 0 -9 3t-3 8z" />
    <glyph glyph-name="gdotaccent" unicode="&#x121;" horiz-adv-x="448" 
d="M186 785v59q0 6 3 9t9 3h60q6 0 9 -3t3 -9v-59q0 -6 -3 -9t-9 -3h-60q-6 0 -9 3t-3 9zM418 80q0 -33 -23 -56.5t-56 -23.5h-223q-33 0 -56 23.5t-23 56.5v558q0 33 23 56.5t56 23.5h223q33 0 56 -23.5t23 -56.5v-173q0 -6 -2.5 -9.5t-8.5 -3.5h-110q-6 0 -9.5 3t-3.5 9
v95q0 23 -16.5 40t-40.5 17q-23 0 -39.5 -17t-16.5 -40v-400q0 -23 16.5 -40t39.5 -17q24 0 40.5 17t16.5 40v60h-38q-6 0 -9 3t-3 9v98q0 6 3 9t9 3h160q6 0 9 -3t3 -9v-249z" />
    <glyph glyph-name="Gcommaaccent" unicode="&#x122;" horiz-adv-x="427" 
d="M263 467q-1 83 -11 116t-32 33q-7 0 -15.5 -6.5t-15.5 -32t-11.5 -77t-4.5 -140.5q0 -87 4.5 -138.5t11.5 -77.5t17 -34t21 -8q29 0 41.5 34.5t12.5 91.5h-41q-6 0 -9 3t-3 9v86q0 6 3 9t9 3h148q6 0 9 -3t3 -9v-314q0 -6 -3 -9t-9 -3h-46q-5 0 -8.5 2.5t-4.5 6.5l-13 41
q-15 -24 -39.5 -44t-70.5 -20q-95 0 -139 99t-44 274q0 203 51.5 288t142.5 85q53 0 88.5 -23.5t56.5 -61t29.5 -85t8.5 -94.5q0 -6 -3 -9t-9 -3h-113q-6 0 -9 3t-3 8zM171 -181q-5 0 -8 4.5t-2 9.5l20 116q1 6 4.5 7.5t8.5 1.5h56q5 0 8 -4t1 -10l-39 -115q-2 -6 -4.5 -8
t-7.5 -2h-37z" />
    <glyph glyph-name="gcommaaccent" unicode="&#x123;" horiz-adv-x="448" 
d="M288 899q5 0 8 -4.5t2 -9.5l-20 -116q-1 -6 -4.5 -7.5t-8.5 -1.5h-56q-5 0 -8 4t-1 10l39 115q2 6 4.5 8t7.5 2h37zM418 80q0 -33 -23 -56.5t-56 -23.5h-223q-33 0 -56 23.5t-23 56.5v558q0 33 23 56.5t56 23.5h223q33 0 56 -23.5t23 -56.5v-173q0 -6 -2.5 -9.5
t-8.5 -3.5h-110q-6 0 -9.5 3t-3.5 9v95q0 23 -16.5 40t-40.5 17q-23 0 -39.5 -17t-16.5 -40v-400q0 -23 16.5 -40t39.5 -17q24 0 40.5 17t16.5 40v60h-38q-6 0 -9 3t-3 9v98q0 6 3 9t9 3h160q6 0 9 -3t3 -9v-249z" />
    <glyph glyph-name="Hcircumflex" unicode="&#x124;" horiz-adv-x="436" 
d="M125 775l52 86q3 5 6.5 6.5t7.5 1.5h53q4 0 7.5 -1.5t6.5 -6.5l51 -86q4 -7 1.5 -11t-9.5 -4h-39q-4 0 -8 2.5t-6 6.5l-32 50l-30 -50q-1 -3 -5.5 -6t-8.5 -3h-39q-7 0 -9.5 4t1.5 11zM37 12v694q0 6 3 9t9 3h120q6 0 9 -3t3 -9v-277h74v277q0 6 3 9t9 3h120q6 0 9 -3
t3 -9v-694q0 -6 -3 -9t-9 -3h-120q-6 0 -9 3t-3 9v291h-74v-291q0 -6 -3 -9t-9 -3h-120q-6 0 -9 3t-3 9z" />
    <glyph glyph-name="hcircumflex" unicode="&#x125;" horiz-adv-x="436" 
d="M123 775l52 86q3 5 6.5 6.5t7.5 1.5h53q4 0 7.5 -1.5t6.5 -6.5l51 -86q4 -7 1.5 -11t-9.5 -4h-39q-4 0 -8 2.5t-6 6.5l-32 50l-30 -50q-1 -3 -5.5 -6t-8.5 -3h-39q-7 0 -9.5 4t1.5 11zM37 12v694q0 6 3 9t9 3h120q6 0 9 -3t3 -9v-277h74v277q0 6 3 9t9 3h120q6 0 9 -3
t3 -9v-694q0 -6 -3 -9t-9 -3h-120q-6 0 -9 3t-3 9v291h-74v-291q0 -6 -3 -9t-9 -3h-120q-6 0 -9 3t-3 9z" />
    <glyph glyph-name="Hbar" unicode="&#x126;" horiz-adv-x="436" 
d="M181 12q0 -6 -3 -9t-9 -3h-120q-6 0 -9 3t-3 9v520h-25q-6 0 -9 3t-3 9v60q0 6 3 9t9 3h25v90q0 6 3 9t9 3h120q6 0 9 -3t3 -9v-90h74v90q0 6 3 9t9 3h120q6 0 9 -3t3 -9v-90h25q6 0 9 -3t3 -9v-60q0 -6 -3 -9t-9 -3h-25v-520q0 -6 -3 -9t-9 -3h-120q-6 0 -9 3t-3 9v291
h-74v-291zM181 429h74v103h-74v-103z" />
    <glyph glyph-name="hbar" unicode="&#x127;" horiz-adv-x="436" 
d="M181 12q0 -6 -3 -9t-9 -3h-120q-6 0 -9 3t-3 9v520h-25q-6 0 -9 3t-3 9v60q0 6 3 9t9 3h25v90q0 6 3 9t9 3h120q6 0 9 -3t3 -9v-90h74v90q0 6 3 9t9 3h120q6 0 9 -3t3 -9v-90h25q6 0 9 -3t3 -9v-60q0 -6 -3 -9t-9 -3h-25v-520q0 -6 -3 -9t-9 -3h-120q-6 0 -9 3t-3 9v291
h-74v-291zM181 429h74v103h-74v-103z" />
    <glyph glyph-name="Itilde" unicode="&#x128;" horiz-adv-x="218" 
d="M192 858l25 -13q4 -2 5.5 -5.5t0.5 -7.5q-10 -32 -31.5 -46t-40.5 -14q-25 0 -43.5 14.5t-37.5 14.5q-9 0 -16 -4.5t-14 -18.5q-3 -4 -6.5 -5.5t-7.5 -0.5l-25 13q-4 2 -5.5 5.5t-0.5 7.5q10 32 31.5 46t40.5 14q25 0 43 -14.5t38 -14.5q9 0 16 4.5t14 18.5q3 4 6.5 5.5
t7.5 0.5zM37 12v694q0 6 3 9t9 3h120q6 0 9 -3t3 -9v-694q0 -6 -3 -9t-9 -3h-120q-6 0 -9 3t-3 9z" />
    <glyph glyph-name="itilde" unicode="&#x129;" horiz-adv-x="218" 
d="M192 858l25 -13q4 -2 5.5 -5.5t0.5 -7.5q-10 -32 -31.5 -46t-40.5 -14q-25 0 -43.5 14.5t-37.5 14.5q-9 0 -16 -4.5t-14 -18.5q-3 -4 -6.5 -5.5t-7.5 -0.5l-25 13q-4 2 -5.5 5.5t-0.5 7.5q10 32 31.5 46t40.5 14q25 0 43 -14.5t38 -14.5q9 0 16 4.5t14 18.5q3 4 6.5 5.5
t7.5 0.5zM37 12v694q0 6 3 9t9 3h120q6 0 9 -3t3 -9v-694q0 -6 -3 -9t-9 -3h-120q-6 0 -9 3t-3 9z" />
    <glyph glyph-name="Imacron" unicode="&#x12a;" horiz-adv-x="218" 
d="M2 795v39q0 6 3 9t9 3h190q6 0 9 -3t3 -9v-39q0 -6 -3 -9t-9 -3h-190q-6 0 -9 3t-3 9zM37 12v694q0 6 3 9t9 3h120q6 0 9 -3t3 -9v-694q0 -6 -3 -9t-9 -3h-120q-6 0 -9 3t-3 9z" />
    <glyph glyph-name="imacron" unicode="&#x12b;" horiz-adv-x="218" 
d="M2 795v39q0 6 3 9t9 3h190q6 0 9 -3t3 -9v-39q0 -6 -3 -9t-9 -3h-190q-6 0 -9 3t-3 9zM37 12v694q0 6 3 9t9 3h120q6 0 9 -3t3 -9v-694q0 -6 -3 -9t-9 -3h-120q-6 0 -9 3t-3 9z" />
    <glyph glyph-name="Ibreve" unicode="&#x12c;" horiz-adv-x="218" 
d="M169 862h34q6 0 8.5 -3.5t1.5 -9.5q-11 -37 -39.5 -59t-64.5 -22t-64.5 22t-39.5 59q-1 6 1.5 9.5t8.5 3.5h34q5 0 8.5 -2.5t5.5 -7.5q7 -15 18 -23t28 -8t28 8t18 23q2 5 5.5 7.5t8.5 2.5zM37 12v694q0 6 3 9t9 3h120q6 0 9 -3t3 -9v-694q0 -6 -3 -9t-9 -3h-120
q-6 0 -9 3t-3 9z" />
    <glyph glyph-name="ibreve" unicode="&#x12d;" horiz-adv-x="218" 
d="M169 862h34q6 0 8.5 -3.5t1.5 -9.5q-11 -37 -39.5 -59t-64.5 -22t-64.5 22t-39.5 59q-1 6 1.5 9.5t8.5 3.5h34q5 0 8.5 -2.5t5.5 -7.5q7 -15 18 -23t28 -8t28 8t18 23q2 5 5.5 7.5t8.5 2.5zM37 12v694q0 6 3 9t9 3h120q6 0 9 -3t3 -9v-694q0 -6 -3 -9t-9 -3h-120
q-6 0 -9 3t-3 9z" />
    <glyph glyph-name="Iogonek" unicode="&#x12e;" horiz-adv-x="218" 
d="M116 -181q-29 0 -46.5 17.5t-17.5 45.5q0 27 16.5 58t47.5 60h-67q-6 0 -9 3t-3 9v694q0 6 3 9t9 3h120q6 0 9 -3t3 -9v-694q0 -8 -2 -10.5t-6 -6.5q-24 -23 -44 -58.5t-20 -54.5q0 -7 3 -11t7 -4q6 0 8.5 5.5t2.5 12.5q0 3 2 4.5t4 1.5h38q3 0 5 -2.5t2 -7.5
q0 -25 -18 -43.5t-47 -18.5z" />
    <glyph glyph-name="iogonek" unicode="&#x12f;" horiz-adv-x="218" 
d="M116 -181q-29 0 -46.5 17.5t-17.5 45.5q0 27 16.5 58t47.5 60h-67q-6 0 -9 3t-3 9v694q0 6 3 9t9 3h120q6 0 9 -3t3 -9v-694q0 -8 -2 -10.5t-6 -6.5q-24 -23 -44 -58.5t-20 -54.5q0 -7 3 -11t7 -4q6 0 8.5 5.5t2.5 12.5q0 3 2 4.5t4 1.5h38q3 0 5 -2.5t2 -7.5
q0 -25 -18 -43.5t-47 -18.5z" />
    <glyph glyph-name="Idotaccent" unicode="&#x130;" horiz-adv-x="218" 
d="M67 785v59q0 6 3 9t9 3h60q6 0 9 -3t3 -9v-59q0 -6 -3 -9t-9 -3h-60q-6 0 -9 3t-3 9zM37 12v694q0 6 3 9t9 3h120q6 0 9 -3t3 -9v-694q0 -6 -3 -9t-9 -3h-120q-6 0 -9 3t-3 9z" />
    <glyph glyph-name="dotlessi" unicode="&#x131;" horiz-adv-x="218" 
d="M37 12v694q0 6 3 9t9 3h120q6 0 9 -3t3 -9v-694q0 -6 -3 -9t-9 -3h-120q-6 0 -9 3t-3 9z" />
    <glyph glyph-name="IJ" unicode="&#x132;" horiz-adv-x="492" 
d="M462 706v-563q0 -82 -36.5 -115t-116.5 -33q-19 0 -37.5 1.5t-32.5 2.5q-5 1 -8 4.5t-3 8.5v93q0 6 3 8.5t9 2.5h34q27 0 35.5 15t8.5 44v531q0 6 3 9t9 3h120q6 0 9 -3t3 -9zM37 12v694q0 6 3 9t9 3h120q6 0 9 -3t3 -9v-694q0 -6 -3 -9t-9 -3h-120q-6 0 -9 3t-3 9z" />
    <glyph glyph-name="ij" unicode="&#x133;" horiz-adv-x="492" 
d="M462 706v-563q0 -82 -36.5 -115t-116.5 -33q-19 0 -37.5 1.5t-32.5 2.5q-5 1 -8 4.5t-3 8.5v93q0 6 3 8.5t9 2.5h34q27 0 35.5 15t8.5 44v531q0 6 3 9t9 3h120q6 0 9 -3t3 -9zM37 12v694q0 6 3 9t9 3h120q6 0 9 -3t3 -9v-694q0 -6 -3 -9t-9 -3h-120q-6 0 -9 3t-3 9z" />
    <glyph glyph-name="Jcircumflex" unicode="&#x134;" horiz-adv-x="274" 
d="M80 775l52 86q3 5 6.5 6.5t7.5 1.5h53q4 0 7.5 -1.5t6.5 -6.5l51 -86q4 -7 1.5 -11t-9.5 -4h-39q-4 0 -8 2.5t-6 6.5l-32 50l-30 -50q-1 -3 -5.5 -6t-8.5 -3h-39q-7 0 -9.5 4t1.5 11zM244 706v-563q0 -82 -36.5 -115t-116.5 -33q-19 0 -37.5 1.5t-32.5 2.5q-5 1 -8 4.5
t-3 8.5v93q0 6 3 8.5t9 2.5h34q27 0 35.5 15t8.5 44v531q0 6 3 9t9 3h120q6 0 9 -3t3 -9z" />
    <glyph glyph-name="jcircumflex" unicode="&#x135;" horiz-adv-x="274" 
d="M80 775l52 86q3 5 6.5 6.5t7.5 1.5h53q4 0 7.5 -1.5t6.5 -6.5l51 -86q4 -7 1.5 -11t-9.5 -4h-39q-4 0 -8 2.5t-6 6.5l-32 50l-30 -50q-1 -3 -5.5 -6t-8.5 -3h-39q-7 0 -9.5 4t1.5 11zM244 706v-563q0 -82 -36.5 -115t-116.5 -33q-19 0 -37.5 1.5t-32.5 2.5q-5 1 -8 4.5
t-3 8.5v93q0 6 3 8.5t9 2.5h34q27 0 35.5 15t8.5 44v531q0 6 3 9t9 3h120q6 0 9 -3t3 -9z" />
    <glyph glyph-name="Kcommaaccent" unicode="&#x136;" horiz-adv-x="428" 
d="M181 12q0 -6 -3 -9t-9 -3h-120q-6 0 -9 3t-3 9v694q0 6 3 9t9 3h120q6 0 9 -3t3 -9v-249h4l86 251q1 5 4.5 7.5t8.5 2.5h122q7 0 9.5 -4t0.5 -10l-109 -288l115 -403q1 -6 -1 -9.5t-9 -3.5h-123q-5 0 -8.5 2.5t-4.5 8.5l-80 333h-15v-332zM173 -181q-5 0 -8 4.5t-2 9.5
l20 116q1 6 4.5 7.5t8.5 1.5h56q5 0 8 -4t1 -10l-39 -115q-2 -6 -4.5 -8t-7.5 -2h-37z" />
    <glyph glyph-name="kcommaaccent" unicode="&#x137;" horiz-adv-x="428" 
d="M181 12q0 -6 -3 -9t-9 -3h-120q-6 0 -9 3t-3 9v694q0 6 3 9t9 3h120q6 0 9 -3t3 -9v-249h4l86 251q1 5 4.5 7.5t8.5 2.5h122q7 0 9.5 -4t0.5 -10l-109 -288l115 -403q1 -6 -1 -9.5t-9 -3.5h-123q-5 0 -8.5 2.5t-4.5 8.5l-80 333h-15v-332zM173 -181q-5 0 -8 4.5t-2 9.5
l20 116q1 6 4.5 7.5t8.5 1.5h56q5 0 8 -4t1 -10l-39 -115q-2 -6 -4.5 -8t-7.5 -2h-37z" />
    <glyph glyph-name="Lacute" unicode="&#x139;" horiz-adv-x="342" 
d="M198 869q7 0 9 -4.5t-2 -10.5l-67 -87q-3 -4 -6.5 -5.5t-7.5 -1.5h-31q-7 0 -9.5 4t0.5 10l40 86q2 4 6 6.5t8 2.5h60zM37 12v694q0 6 3 9t9 3h120q6 0 9 -3t3 -9v-590h134q6 0 9 -3t3 -9v-92q0 -6 -3 -9t-9 -3h-266q-6 0 -9 3t-3 9z" />
    <glyph glyph-name="lacute" unicode="&#x13a;" horiz-adv-x="342" 
d="M198 869q7 0 9 -4.5t-2 -10.5l-67 -87q-3 -4 -6.5 -5.5t-7.5 -1.5h-31q-7 0 -9.5 4t0.5 10l40 86q2 4 6 6.5t8 2.5h60zM37 12v694q0 6 3 9t9 3h120q6 0 9 -3t3 -9v-590h134q6 0 9 -3t3 -9v-92q0 -6 -3 -9t-9 -3h-266q-6 0 -9 3t-3 9z" />
    <glyph glyph-name="Lcommaaccent" unicode="&#x13b;" horiz-adv-x="342" 
d="M37 12v694q0 6 3 9t9 3h120q6 0 9 -3t3 -9v-590h134q6 0 9 -3t3 -9v-92q0 -6 -3 -9t-9 -3h-266q-6 0 -9 3t-3 9zM134 -181q-5 0 -8 4.5t-2 9.5l20 116q1 6 4.5 7.5t8.5 1.5h56q5 0 8 -4t1 -10l-39 -115q-2 -6 -4.5 -8t-7.5 -2h-37z" />
    <glyph glyph-name="lcommaaccent" unicode="&#x13c;" horiz-adv-x="342" 
d="M37 12v694q0 6 3 9t9 3h120q6 0 9 -3t3 -9v-590h134q6 0 9 -3t3 -9v-92q0 -6 -3 -9t-9 -3h-266q-6 0 -9 3t-3 9zM134 -181q-5 0 -8 4.5t-2 9.5l20 116q1 6 4.5 7.5t8.5 1.5h56q5 0 8 -4t1 -10l-39 -115q-2 -6 -4.5 -8t-7.5 -2h-37z" />
    <glyph glyph-name="Lcaron" unicode="&#x13d;" horiz-adv-x="342" 
d="M37 12v694q0 6 3 9t9 3h120q6 0 9 -3t3 -9v-590h134q6 0 9 -3t3 -9v-92q0 -6 -3 -9t-9 -3h-266q-6 0 -9 3t-3 9zM288 718q6 0 8 -3.5t-1 -11.5l-37 -97q-1 -4 -4.5 -5.5t-7.5 -1.5h-28q-5 0 -7.5 3t-1.5 11l10 94q1 6 4 8.5t10 2.5h55z" />
    <glyph glyph-name="lcaron" unicode="&#x13e;" horiz-adv-x="342" 
d="M37 12v694q0 6 3 9t9 3h120q6 0 9 -3t3 -9v-590h134q6 0 9 -3t3 -9v-92q0 -6 -3 -9t-9 -3h-266q-6 0 -9 3t-3 9zM288 718q6 0 8 -3.5t-1 -11.5l-37 -97q-1 -4 -4.5 -5.5t-7.5 -1.5h-28q-5 0 -7.5 3t-1.5 11l10 94q1 6 4 8.5t10 2.5h55z" />
    <glyph glyph-name="Ldot" unicode="&#x13f;" horiz-adv-x="342" 
d="M37 12v694q0 6 3 9t9 3h120q6 0 9 -3t3 -9v-590h134q6 0 9 -3t3 -9v-92q0 -6 -3 -9t-9 -3h-266q-6 0 -9 3t-3 9zM236 323v59q0 6 3 9t9 3h60q6 0 9 -3t3 -9v-59q0 -6 -3 -9t-9 -3h-60q-6 0 -9 3t-3 9z" />
    <glyph glyph-name="ldot" unicode="&#x140;" horiz-adv-x="342" 
d="M37 12v694q0 6 3 9t9 3h120q6 0 9 -3t3 -9v-590h134q6 0 9 -3t3 -9v-92q0 -6 -3 -9t-9 -3h-266q-6 0 -9 3t-3 9zM236 323v59q0 6 3 9t9 3h60q6 0 9 -3t3 -9v-59q0 -6 -3 -9t-9 -3h-60q-6 0 -9 3t-3 9z" />
    <glyph glyph-name="Lslash" unicode="&#x141;" horiz-adv-x="342" 
d="M315 0h-266q-6 0 -9 3t-3 9v225l-22 -16q-6 -4 -10.5 -2t-4.5 10v72q0 5 1.5 8.5t5.5 6.5l30 22v368q0 6 3 9t9 3h120q6 0 9 -3t3 -9v-261l78 58q6 4 10.5 2t4.5 -10v-72q0 -5 -1.5 -8.5t-5.5 -6.5l-86 -64v-228h134q6 0 9 -3t3 -9v-92q0 -6 -3 -9t-9 -3z" />
    <glyph glyph-name="lslash" unicode="&#x142;" horiz-adv-x="342" 
d="M315 0h-266q-6 0 -9 3t-3 9v225l-22 -16q-6 -4 -10.5 -2t-4.5 10v72q0 5 1.5 8.5t5.5 6.5l30 22v368q0 6 3 9t9 3h120q6 0 9 -3t3 -9v-261l78 58q6 4 10.5 2t4.5 -10v-72q0 -5 -1.5 -8.5t-5.5 -6.5l-86 -64v-228h134q6 0 9 -3t3 -9v-92q0 -6 -3 -9t-9 -3z" />
    <glyph glyph-name="Nacute" unicode="&#x143;" horiz-adv-x="466" 
d="M322 869q7 0 9 -4.5t-2 -10.5l-67 -87q-3 -4 -6.5 -5.5t-7.5 -1.5h-31q-7 0 -9.5 4t0.5 10l40 86q2 4 6 6.5t8 2.5h60zM171 12q0 -6 -3 -9t-9 -3h-110q-6 0 -9 3t-3 9v694q0 6 3 9t9 3h124q5 0 8.5 -2.5t4.5 -7.5l105 -326h4v324q0 6 3 9t9 3h110q6 0 9 -3t3 -9v-694
q0 -6 -3 -9t-9 -3h-104q-5 0 -8.5 2.5t-4.5 7.5l-124 390h-5v-388z" />
    <glyph glyph-name="nacute" unicode="&#x144;" horiz-adv-x="466" 
d="M322 869q7 0 9 -4.5t-2 -10.5l-67 -87q-3 -4 -6.5 -5.5t-7.5 -1.5h-31q-7 0 -9.5 4t0.5 10l40 86q2 4 6 6.5t8 2.5h60zM171 12q0 -6 -3 -9t-9 -3h-110q-6 0 -9 3t-3 9v694q0 6 3 9t9 3h124q5 0 8.5 -2.5t4.5 -7.5l105 -326h4v324q0 6 3 9t9 3h110q6 0 9 -3t3 -9v-694
q0 -6 -3 -9t-9 -3h-104q-5 0 -8.5 2.5t-4.5 7.5l-124 390h-5v-388z" />
    <glyph glyph-name="Ncommaaccent" unicode="&#x145;" horiz-adv-x="466" 
d="M171 12q0 -6 -3 -9t-9 -3h-110q-6 0 -9 3t-3 9v694q0 6 3 9t9 3h124q5 0 8.5 -2.5t4.5 -7.5l105 -326h4v324q0 6 3 9t9 3h110q6 0 9 -3t3 -9v-694q0 -6 -3 -9t-9 -3h-104q-5 0 -8.5 2.5t-4.5 7.5l-124 390h-5v-388zM186 -181q-5 0 -8 4.5t-2 9.5l20 116q1 6 4.5 7.5
t8.5 1.5h56q5 0 8 -4t1 -10l-39 -115q-2 -6 -4.5 -8t-7.5 -2h-37z" />
    <glyph glyph-name="ncommaaccent" unicode="&#x146;" horiz-adv-x="466" 
d="M171 12q0 -6 -3 -9t-9 -3h-110q-6 0 -9 3t-3 9v694q0 6 3 9t9 3h124q5 0 8.5 -2.5t4.5 -7.5l105 -326h4v324q0 6 3 9t9 3h110q6 0 9 -3t3 -9v-694q0 -6 -3 -9t-9 -3h-104q-5 0 -8.5 2.5t-4.5 7.5l-124 390h-5v-388zM186 -181q-5 0 -8 4.5t-2 9.5l20 116q1 6 4.5 7.5
t8.5 1.5h56q5 0 8 -4t1 -10l-39 -115q-2 -6 -4.5 -8t-7.5 -2h-37z" />
    <glyph glyph-name="Ncaron" unicode="&#x147;" horiz-adv-x="466" 
d="M193 768l-52 86q-4 7 -1.5 11t9.5 4h39q4 0 8.5 -3t5.5 -6l30 -50l32 50q2 4 6 6.5t8 2.5h39q7 0 9.5 -4t-1.5 -11l-51 -86q-3 -5 -6.5 -6.5t-7.5 -1.5h-53q-4 0 -7.5 1.5t-6.5 6.5zM171 12q0 -6 -3 -9t-9 -3h-110q-6 0 -9 3t-3 9v694q0 6 3 9t9 3h124q5 0 8.5 -2.5
t4.5 -7.5l105 -326h4v324q0 6 3 9t9 3h110q6 0 9 -3t3 -9v-694q0 -6 -3 -9t-9 -3h-104q-5 0 -8.5 2.5t-4.5 7.5l-124 390h-5v-388z" />
    <glyph glyph-name="ncaron" unicode="&#x148;" horiz-adv-x="466" 
d="M193 768l-52 86q-4 7 -1.5 11t9.5 4h39q4 0 8.5 -3t5.5 -6l30 -50l32 50q2 4 6 6.5t8 2.5h39q7 0 9.5 -4t-1.5 -11l-51 -86q-3 -5 -6.5 -6.5t-7.5 -1.5h-53q-4 0 -7.5 1.5t-6.5 6.5zM171 12q0 -6 -3 -9t-9 -3h-110q-6 0 -9 3t-3 9v694q0 6 3 9t9 3h124q5 0 8.5 -2.5
t4.5 -7.5l105 -326h4v324q0 6 3 9t9 3h110q6 0 9 -3t3 -9v-694q0 -6 -3 -9t-9 -3h-104q-5 0 -8.5 2.5t-4.5 7.5l-124 390h-5v-388z" />
    <glyph glyph-name="Eng" unicode="&#x14a;" horiz-adv-x="466" 
d="M291 -181q-19 0 -32.5 1.5t-27.5 2.5q-5 1 -8 4.5t-3 8.5v93q0 6 3 8.5t9 2.5h24q27 0 35.5 15t8.5 44v11l-124 390h-5v-388q0 -6 -3 -9t-9 -3h-110q-6 0 -9 3t-3 9v694q0 6 3 9t9 3h124q5 0 8.5 -2.5t4.5 -7.5l105 -326h4v324q0 6 3 9t9 3h110q6 0 9 -3t3 -9v-739
q0 -82 -31.5 -115t-106.5 -33z" />
    <glyph glyph-name="eng" unicode="&#x14b;" horiz-adv-x="466" 
d="M291 -181q-19 0 -32.5 1.5t-27.5 2.5q-5 1 -8 4.5t-3 8.5v93q0 6 3 8.5t9 2.5h24q27 0 35.5 15t8.5 44v11l-124 390h-5v-388q0 -6 -3 -9t-9 -3h-110q-6 0 -9 3t-3 9v694q0 6 3 9t9 3h124q5 0 8.5 -2.5t4.5 -7.5l105 -326h4v324q0 6 3 9t9 3h110q6 0 9 -3t3 -9v-739
q0 -82 -31.5 -115t-106.5 -33z" />
    <glyph glyph-name="Omacron" unicode="&#x14c;" horiz-adv-x="440" 
d="M113 795v39q0 6 3 9t9 3h190q6 0 9 -3t3 -9v-39q0 -6 -3 -9t-9 -3h-190q-6 0 -9 3t-3 9zM220 -14q-44 0 -80.5 19t-62.5 62.5t-40 115t-14 176.5t14 176.5t40 115t62.5 62.5t80.5 19t80.5 -19t62.5 -62.5t40 -115t14 -176.5t-14 -176.5t-40 -115t-62.5 -62.5t-80.5 -19z
M179 434v-150q0 -57 3 -92.5t8.5 -55.5t13 -27t16.5 -7t16.5 7t13 27t8.5 55.5t3 92.5v150q0 57 -3 92.5t-8.5 55.5t-13 27t-16.5 7t-16.5 -7t-13 -27t-8.5 -55.5t-3 -92.5z" />
    <glyph glyph-name="omacron" unicode="&#x14d;" horiz-adv-x="455" 
d="M124 795v39q0 6 3 9t9 3h190q6 0 9 -3t3 -9v-39q0 -6 -3 -9t-9 -3h-190q-6 0 -9 3t-3 9zM37 638q0 33 23 56.5t56 23.5h223q33 0 56 -23.5t23 -56.5v-558q0 -33 -23 -56.5t-56 -23.5h-223q-33 0 -56 23.5t-23 56.5v558zM227 107q23 0 40 17t17 39v392q0 22 -17 39t-40 17
q-22 0 -39 -17t-17 -39v-392q0 -22 17 -39t39 -17z" />
    <glyph glyph-name="Obreve" unicode="&#x14e;" horiz-adv-x="440" 
d="M280 862h34q6 0 8.5 -3.5t1.5 -9.5q-11 -37 -39.5 -59t-64.5 -22t-64.5 22t-39.5 59q-1 6 1.5 9.5t8.5 3.5h34q5 0 8.5 -2.5t5.5 -7.5q7 -15 18 -23t28 -8t28 8t18 23q2 5 5.5 7.5t8.5 2.5zM220 -14q-44 0 -80.5 19t-62.5 62.5t-40 115t-14 176.5t14 176.5t40 115
t62.5 62.5t80.5 19t80.5 -19t62.5 -62.5t40 -115t14 -176.5t-14 -176.5t-40 -115t-62.5 -62.5t-80.5 -19zM179 434v-150q0 -57 3 -92.5t8.5 -55.5t13 -27t16.5 -7t16.5 7t13 27t8.5 55.5t3 92.5v150q0 57 -3 92.5t-8.5 55.5t-13 27t-16.5 7t-16.5 -7t-13 -27t-8.5 -55.5
t-3 -92.5z" />
    <glyph glyph-name="obreve" unicode="&#x14f;" horiz-adv-x="455" 
d="M291 862h34q6 0 8.5 -3.5t1.5 -9.5q-11 -37 -39.5 -59t-64.5 -22t-64.5 22t-39.5 59q-1 6 1.5 9.5t8.5 3.5h34q5 0 8.5 -2.5t5.5 -7.5q7 -15 18 -23t28 -8t28 8t18 23q2 5 5.5 7.5t8.5 2.5zM37 638q0 33 23 56.5t56 23.5h223q33 0 56 -23.5t23 -56.5v-558
q0 -33 -23 -56.5t-56 -23.5h-223q-33 0 -56 23.5t-23 56.5v558zM227 107q23 0 40 17t17 39v392q0 22 -17 39t-40 17q-22 0 -39 -17t-17 -39v-392q0 -22 17 -39t39 -17z" />
    <glyph glyph-name="Ohungarumlaut" unicode="&#x150;" horiz-adv-x="440" 
d="M257 869q7 0 9 -4.5t-2 -10.5l-67 -87q-3 -4 -6.5 -5.5t-7.5 -1.5h-31q-7 0 -9.5 4t0.5 10l40 86q2 4 6 6.5t8 2.5h60zM369 869q7 0 9 -4.5t-2 -10.5l-67 -87q-3 -4 -6.5 -5.5t-7.5 -1.5h-31q-7 0 -9.5 4t0.5 10l40 86q2 4 6 6.5t8 2.5h60zM220 -14q-44 0 -80.5 19
t-62.5 62.5t-40 115t-14 176.5t14 176.5t40 115t62.5 62.5t80.5 19t80.5 -19t62.5 -62.5t40 -115t14 -176.5t-14 -176.5t-40 -115t-62.5 -62.5t-80.5 -19zM179 434v-150q0 -57 3 -92.5t8.5 -55.5t13 -27t16.5 -7t16.5 7t13 27t8.5 55.5t3 92.5v150q0 57 -3 92.5t-8.5 55.5
t-13 27t-16.5 7t-16.5 -7t-13 -27t-8.5 -55.5t-3 -92.5z" />
    <glyph glyph-name="ohungarumlaut" unicode="&#x151;" horiz-adv-x="455" 
d="M268 869q7 0 9 -4.5t-2 -10.5l-67 -87q-3 -4 -6.5 -5.5t-7.5 -1.5h-31q-7 0 -9.5 4t0.5 10l40 86q2 4 6 6.5t8 2.5h60zM380 869q7 0 9 -4.5t-2 -10.5l-67 -87q-3 -4 -6.5 -5.5t-7.5 -1.5h-31q-7 0 -9.5 4t0.5 10l40 86q2 4 6 6.5t8 2.5h60zM37 638q0 33 23 56.5t56 23.5
h223q33 0 56 -23.5t23 -56.5v-558q0 -33 -23 -56.5t-56 -23.5h-223q-33 0 -56 23.5t-23 56.5v558zM227 107q23 0 40 17t17 39v392q0 22 -17 39t-40 17q-22 0 -39 -17t-17 -39v-392q0 -22 17 -39t39 -17z" />
    <glyph glyph-name="OE" unicode="&#x152;" horiz-adv-x="597" 
d="M540 414v-98q0 -6 -3 -9t-9 -3h-108v-188h156q6 0 9 -3t3 -9v-92q0 -6 -3 -9t-9 -3h-281q-8 0 -27.5 -7t-47.5 -7q-44 0 -80.5 19t-62.5 62.5t-40 115t-14 176.5t14 176.5t40 115t62.5 62.5t80.5 19q40 0 54 -7t24 -7h274q6 0 9 -3t3 -9v-92q0 -6 -3 -9t-9 -3h-152v-176
h108q6 0 9 -3t3 -9zM220 616q-9 0 -16.5 -8.5t-13 -36t-8.5 -78t-3 -134.5q0 -140 9.5 -198.5t31.5 -58.5q26 0 35 58.5t9 198.5q0 84 -3 134.5t-8.5 78t-14 36t-18.5 8.5z" />
    <glyph glyph-name="oe" unicode="&#x153;" horiz-adv-x="610" 
d="M589 0h-471q-33 0 -56 23.5t-23 56.5v558q0 33 23 56.5t56 23.5h464q6 0 9 -3t3 -9v-92q0 -6 -3 -9t-9 -3h-152v-176h109q6 0 9 -3t3 -9v-98q0 -6 -3 -9t-9 -3h-109v-188h159q6 0 9 -3t3 -9v-92q0 -6 -3 -9t-9 -3zM229 107q23 0 40 17t17 39v392q0 22 -17 39t-40 17
q-22 0 -39 -17t-17 -39v-392q0 -22 17 -39t39 -17z" />
    <glyph glyph-name="Racute" unicode="&#x154;" horiz-adv-x="416" 
d="M292 869q7 0 9 -4.5t-2 -10.5l-67 -87q-3 -4 -6.5 -5.5t-7.5 -1.5h-31q-7 0 -9.5 4t0.5 10l40 86q2 4 6 6.5t8 2.5h60zM181 12q0 -6 -3 -9t-9 -3h-120q-6 0 -9 3t-3 9v694q0 6 3 9t9 3h141q45 0 84 -10t67.5 -33.5t45 -63t16.5 -98.5q0 -45 -15.5 -94t-64.5 -83l85 -323
q1 -6 -1.5 -9.5t-9.5 -3.5h-120q-6 0 -9.5 3t-4.5 8l-66 295h-16v-294zM181 608v-192h19q31 0 45 28t14 68q0 50 -18.5 73t-46.5 23h-13z" />
    <glyph glyph-name="racute" unicode="&#x155;" horiz-adv-x="416" 
d="M292 869q7 0 9 -4.5t-2 -10.5l-67 -87q-3 -4 -6.5 -5.5t-7.5 -1.5h-31q-7 0 -9.5 4t0.5 10l40 86q2 4 6 6.5t8 2.5h60zM181 12q0 -6 -3 -9t-9 -3h-120q-6 0 -9 3t-3 9v694q0 6 3 9t9 3h141q45 0 84 -10t67.5 -33.5t45 -63t16.5 -98.5q0 -45 -15.5 -94t-64.5 -83l85 -323
q1 -6 -1.5 -9.5t-9.5 -3.5h-120q-6 0 -9.5 3t-4.5 8l-66 295h-16v-294zM181 608v-192h19q31 0 45 28t14 68q0 50 -18.5 73t-46.5 23h-13z" />
    <glyph glyph-name="Rcommaaccent" unicode="&#x156;" horiz-adv-x="416" 
d="M181 12q0 -6 -3 -9t-9 -3h-120q-6 0 -9 3t-3 9v694q0 6 3 9t9 3h141q45 0 84 -10t67.5 -33.5t45 -63t16.5 -98.5q0 -45 -15.5 -94t-64.5 -83l85 -323q1 -6 -1.5 -9.5t-9.5 -3.5h-120q-6 0 -9.5 3t-4.5 8l-66 295h-16v-294zM181 608v-192h19q31 0 45 28t14 68
q0 50 -18.5 73t-46.5 23h-13zM166 -181q-5 0 -8 4.5t-2 9.5l20 116q1 6 4.5 7.5t8.5 1.5h56q5 0 8 -4t1 -10l-39 -115q-2 -6 -4.5 -8t-7.5 -2h-37z" />
    <glyph glyph-name="rcommaaccent" unicode="&#x157;" horiz-adv-x="416" 
d="M181 12q0 -6 -3 -9t-9 -3h-120q-6 0 -9 3t-3 9v694q0 6 3 9t9 3h141q45 0 84 -10t67.5 -33.5t45 -63t16.5 -98.5q0 -45 -15.5 -94t-64.5 -83l85 -323q1 -6 -1.5 -9.5t-9.5 -3.5h-120q-6 0 -9.5 3t-4.5 8l-66 295h-16v-294zM181 608v-192h19q31 0 45 28t14 68
q0 50 -18.5 73t-46.5 23h-13zM166 -181q-5 0 -8 4.5t-2 9.5l20 116q1 6 4.5 7.5t8.5 1.5h56q5 0 8 -4t1 -10l-39 -115q-2 -6 -4.5 -8t-7.5 -2h-37z" />
    <glyph glyph-name="Rcaron" unicode="&#x158;" horiz-adv-x="416" 
d="M163 768l-52 86q-4 7 -1.5 11t9.5 4h39q4 0 8.5 -3t5.5 -6l30 -50l32 50q2 4 6 6.5t8 2.5h39q7 0 9.5 -4t-1.5 -11l-51 -86q-3 -5 -6.5 -6.5t-7.5 -1.5h-53q-4 0 -7.5 1.5t-6.5 6.5zM181 12q0 -6 -3 -9t-9 -3h-120q-6 0 -9 3t-3 9v694q0 6 3 9t9 3h141q45 0 84 -10
t67.5 -33.5t45 -63t16.5 -98.5q0 -45 -15.5 -94t-64.5 -83l85 -323q1 -6 -1.5 -9.5t-9.5 -3.5h-120q-6 0 -9.5 3t-4.5 8l-66 295h-16v-294zM181 608v-192h19q31 0 45 28t14 68q0 50 -18.5 73t-46.5 23h-13z" />
    <glyph glyph-name="rcaron" unicode="&#x159;" horiz-adv-x="416" 
d="M163 768l-52 86q-4 7 -1.5 11t9.5 4h39q4 0 8.5 -3t5.5 -6l30 -50l32 50q2 4 6 6.5t8 2.5h39q7 0 9.5 -4t-1.5 -11l-51 -86q-3 -5 -6.5 -6.5t-7.5 -1.5h-53q-4 0 -7.5 1.5t-6.5 6.5zM181 12q0 -6 -3 -9t-9 -3h-120q-6 0 -9 3t-3 9v694q0 6 3 9t9 3h141q45 0 84 -10
t67.5 -33.5t45 -63t16.5 -98.5q0 -45 -15.5 -94t-64.5 -83l85 -323q1 -6 -1.5 -9.5t-9.5 -3.5h-120q-6 0 -9.5 3t-4.5 8l-66 295h-16v-294zM181 608v-192h19q31 0 45 28t14 68q0 50 -18.5 73t-46.5 23h-13z" />
    <glyph glyph-name="Sacute" unicode="&#x15a;" horiz-adv-x="384" 
d="M272 869q7 0 9 -4.5t-2 -10.5l-67 -87q-3 -4 -6.5 -5.5t-7.5 -1.5h-31q-7 0 -9.5 4t0.5 10l40 86q2 4 6 6.5t8 2.5h60zM22 231h108q6 0 9 -3t3 -9q1 -51 13 -84t41 -33q22 0 34 17t12 46q0 27 -10.5 49.5t-26 41t-33 33.5t-30.5 27q-63 58 -94.5 108t-31.5 122
q0 84 46 135t128 51q46 0 79 -17t54.5 -45.5t32 -68t10.5 -84.5q0 -6 -3 -9t-9 -3h-110q-6 0 -9 3t-3 9q-1 39 -8 69t-36 30q-19 0 -28.5 -16.5t-9.5 -41.5q0 -36 20 -66t49 -56q30 -27 58.5 -53.5t50 -56t34.5 -65t13 -79.5q0 -41 -11 -77t-33 -62.5t-56.5 -41.5t-80.5 -15
q-47 0 -82 18.5t-57.5 50t-33.5 74t-11 90.5q0 6 3 9t9 3z" />
    <glyph glyph-name="sacute" unicode="&#x15b;" horiz-adv-x="384" 
d="M272 869q7 0 9 -4.5t-2 -10.5l-67 -87q-3 -4 -6.5 -5.5t-7.5 -1.5h-31q-7 0 -9.5 4t0.5 10l40 86q2 4 6 6.5t8 2.5h60zM22 231h108q6 0 9 -3t3 -9q1 -51 13 -84t41 -33q22 0 34 17t12 46q0 27 -10.5 49.5t-26 41t-33 33.5t-30.5 27q-63 58 -94.5 108t-31.5 122
q0 84 46 135t128 51q46 0 79 -17t54.5 -45.5t32 -68t10.5 -84.5q0 -6 -3 -9t-9 -3h-110q-6 0 -9 3t-3 9q-1 39 -8 69t-36 30q-19 0 -28.5 -16.5t-9.5 -41.5q0 -36 20 -66t49 -56q30 -27 58.5 -53.5t50 -56t34.5 -65t13 -79.5q0 -41 -11 -77t-33 -62.5t-56.5 -41.5t-80.5 -15
q-47 0 -82 18.5t-57.5 50t-33.5 74t-11 90.5q0 6 3 9t9 3z" />
    <glyph glyph-name="Scircumflex" unicode="&#x15c;" horiz-adv-x="384" 
d="M91 775l52 86q3 5 6.5 6.5t7.5 1.5h53q4 0 7.5 -1.5t6.5 -6.5l51 -86q4 -7 1.5 -11t-9.5 -4h-39q-4 0 -8 2.5t-6 6.5l-32 50l-30 -50q-1 -3 -5.5 -6t-8.5 -3h-39q-7 0 -9.5 4t1.5 11zM22 231h108q6 0 9 -3t3 -9q1 -51 13 -84t41 -33q22 0 34 17t12 46q0 27 -10.5 49.5
t-26 41t-33 33.5t-30.5 27q-63 58 -94.5 108t-31.5 122q0 84 46 135t128 51q46 0 79 -17t54.5 -45.5t32 -68t10.5 -84.5q0 -6 -3 -9t-9 -3h-110q-6 0 -9 3t-3 9q-1 39 -8 69t-36 30q-19 0 -28.5 -16.5t-9.5 -41.5q0 -36 20 -66t49 -56q30 -27 58.5 -53.5t50 -56t34.5 -65
t13 -79.5q0 -41 -11 -77t-33 -62.5t-56.5 -41.5t-80.5 -15q-47 0 -82 18.5t-57.5 50t-33.5 74t-11 90.5q0 6 3 9t9 3z" />
    <glyph glyph-name="scircumflex" unicode="&#x15d;" horiz-adv-x="384" 
d="M91 775l52 86q3 5 6.5 6.5t7.5 1.5h53q4 0 7.5 -1.5t6.5 -6.5l51 -86q4 -7 1.5 -11t-9.5 -4h-39q-4 0 -8 2.5t-6 6.5l-32 50l-30 -50q-1 -3 -5.5 -6t-8.5 -3h-39q-7 0 -9.5 4t1.5 11zM22 231h108q6 0 9 -3t3 -9q1 -51 13 -84t41 -33q22 0 34 17t12 46q0 27 -10.5 49.5
t-26 41t-33 33.5t-30.5 27q-63 58 -94.5 108t-31.5 122q0 84 46 135t128 51q46 0 79 -17t54.5 -45.5t32 -68t10.5 -84.5q0 -6 -3 -9t-9 -3h-110q-6 0 -9 3t-3 9q-1 39 -8 69t-36 30q-19 0 -28.5 -16.5t-9.5 -41.5q0 -36 20 -66t49 -56q30 -27 58.5 -53.5t50 -56t34.5 -65
t13 -79.5q0 -41 -11 -77t-33 -62.5t-56.5 -41.5t-80.5 -15q-47 0 -82 18.5t-57.5 50t-33.5 74t-11 90.5q0 6 3 9t9 3z" />
    <glyph glyph-name="Scedilla" unicode="&#x15e;" horiz-adv-x="384" 
d="M276 -101q0 -33 -23 -56.5t-54 -23.5q-24 0 -44 13t-28 39q-1 5 1 8t8 3h31q4 0 5.5 -1t3.5 -5q3 -5 9 -9t13 -4q14 0 20.5 10.5t6.5 25.5q0 16 -6.5 26t-19.5 10q-7 0 -10.5 -1.5t-6.5 -4.5q-4 -4 -7.5 -4.5t-6.5 1.5l-15 10q-6 4 -7 7t1 7l25 37q-41 4 -72 24t-50.5 51
t-29.5 71.5t-10 85.5q0 6 3 9t9 3h108q6 0 9 -3t3 -9q1 -51 13 -84t41 -33q22 0 34 17t12 46q0 27 -10.5 49.5t-26 41t-33 33.5t-30.5 27q-63 58 -94.5 108t-31.5 122q0 84 46 135t128 51q46 0 79 -17t54.5 -45.5t32 -68t10.5 -84.5q0 -6 -3 -9t-9 -3h-110q-6 0 -9 3t-3 9
q-1 39 -8 69t-36 30q-19 0 -28.5 -16.5t-9.5 -41.5q0 -36 20 -66t49 -56q30 -27 58.5 -53.5t50 -56t34.5 -65t13 -79.5q0 -78 -39.5 -133t-120.5 -62l-17 -19q4 1 7.5 1.5t7.5 0.5q27 0 45 -19.5t18 -51.5z" />
    <glyph glyph-name="scedilla" unicode="&#x15f;" horiz-adv-x="384" 
d="M276 -101q0 -33 -23 -56.5t-54 -23.5q-24 0 -44 13t-28 39q-1 5 1 8t8 3h31q4 0 5.5 -1t3.5 -5q3 -5 9 -9t13 -4q14 0 20.5 10.5t6.5 25.5q0 16 -6.5 26t-19.5 10q-7 0 -10.5 -1.5t-6.5 -4.5q-4 -4 -7.5 -4.5t-6.5 1.5l-15 10q-6 4 -7 7t1 7l25 37q-41 4 -72 24t-50.5 51
t-29.5 71.5t-10 85.5q0 6 3 9t9 3h108q6 0 9 -3t3 -9q1 -51 13 -84t41 -33q22 0 34 17t12 46q0 27 -10.5 49.5t-26 41t-33 33.5t-30.5 27q-63 58 -94.5 108t-31.5 122q0 84 46 135t128 51q46 0 79 -17t54.5 -45.5t32 -68t10.5 -84.5q0 -6 -3 -9t-9 -3h-110q-6 0 -9 3t-3 9
q-1 39 -8 69t-36 30q-19 0 -28.5 -16.5t-9.5 -41.5q0 -36 20 -66t49 -56q30 -27 58.5 -53.5t50 -56t34.5 -65t13 -79.5q0 -78 -39.5 -133t-120.5 -62l-17 -18q32 7 55 -13.5t23 -56.5z" />
    <glyph glyph-name="Scaron" unicode="&#x160;" horiz-adv-x="384" 
d="M143 768l-52 86q-4 7 -1.5 11t9.5 4h39q4 0 8.5 -3t5.5 -6l30 -50l32 50q2 4 6 6.5t8 2.5h39q7 0 9.5 -4t-1.5 -11l-51 -86q-3 -5 -6.5 -6.5t-7.5 -1.5h-53q-4 0 -7.5 1.5t-6.5 6.5zM22 231h108q6 0 9 -3t3 -9q1 -51 13 -84t41 -33q22 0 34 17t12 46q0 27 -10.5 49.5
t-26 41t-33 33.5t-30.5 27q-63 58 -94.5 108t-31.5 122q0 84 46 135t128 51q46 0 79 -17t54.5 -45.5t32 -68t10.5 -84.5q0 -6 -3 -9t-9 -3h-110q-6 0 -9 3t-3 9q-1 39 -8 69t-36 30q-19 0 -28.5 -16.5t-9.5 -41.5q0 -36 20 -66t49 -56q30 -27 58.5 -53.5t50 -56t34.5 -65
t13 -79.5q0 -41 -11 -77t-33 -62.5t-56.5 -41.5t-80.5 -15q-47 0 -82 18.5t-57.5 50t-33.5 74t-11 90.5q0 6 3 9t9 3z" />
    <glyph glyph-name="scaron" unicode="&#x161;" horiz-adv-x="384" 
d="M143 768l-52 86q-4 7 -1.5 11t9.5 4h39q4 0 8.5 -3t5.5 -6l30 -50l32 50q2 4 6 6.5t8 2.5h39q7 0 9.5 -4t-1.5 -11l-51 -86q-3 -5 -6.5 -6.5t-7.5 -1.5h-53q-4 0 -7.5 1.5t-6.5 6.5zM22 231h108q6 0 9 -3t3 -9q1 -51 13 -84t41 -33q22 0 34 17t12 46q0 27 -10.5 49.5
t-26 41t-33 33.5t-30.5 27q-63 58 -94.5 108t-31.5 122q0 84 46 135t128 51q46 0 79 -17t54.5 -45.5t32 -68t10.5 -84.5q0 -6 -3 -9t-9 -3h-110q-6 0 -9 3t-3 9q-1 39 -8 69t-36 30q-19 0 -28.5 -16.5t-9.5 -41.5q0 -36 20 -66t49 -56q30 -27 58.5 -53.5t50 -56t34.5 -65
t13 -79.5q0 -41 -11 -77t-33 -62.5t-56.5 -41.5t-80.5 -15q-47 0 -82 18.5t-57.5 50t-33.5 74t-11 90.5q0 6 3 9t9 3z" />
    <glyph glyph-name="Tcommaaccent" unicode="&#x162;" horiz-adv-x="372" 
d="M114 12v590h-100q-6 0 -9 3t-3 9v92q0 6 3 9t9 3h344q6 0 9 -3t3 -9v-92q0 -6 -3 -9t-9 -3h-100v-590q0 -6 -3 -9t-9 -3h-120q-6 0 -9 3t-3 9zM139 -181q-5 0 -8 4.5t-2 9.5l20 116q1 6 4.5 7.5t8.5 1.5h56q5 0 8 -4t1 -10l-39 -115q-2 -6 -4.5 -8t-7.5 -2h-37z" />
    <glyph glyph-name="tcommaaccent" unicode="&#x163;" horiz-adv-x="372" 
d="M114 12v590h-100q-6 0 -9 3t-3 9v92q0 6 3 9t9 3h344q6 0 9 -3t3 -9v-92q0 -6 -3 -9t-9 -3h-100v-590q0 -6 -3 -9t-9 -3h-120q-6 0 -9 3t-3 9zM139 -181q-5 0 -8 4.5t-2 9.5l20 116q1 6 4.5 7.5t8.5 1.5h56q5 0 8 -4t1 -10l-39 -115q-2 -6 -4.5 -8t-7.5 -2h-37z" />
    <glyph glyph-name="Tcaron" unicode="&#x164;" horiz-adv-x="372" 
d="M146 768l-52 86q-4 7 -1.5 11t9.5 4h39q4 0 8.5 -3t5.5 -6l30 -50l32 50q2 4 6 6.5t8 2.5h39q7 0 9.5 -4t-1.5 -11l-51 -86q-3 -5 -6.5 -6.5t-7.5 -1.5h-53q-4 0 -7.5 1.5t-6.5 6.5zM114 12v590h-100q-6 0 -9 3t-3 9v92q0 6 3 9t9 3h344q6 0 9 -3t3 -9v-92q0 -6 -3 -9
t-9 -3h-100v-590q0 -6 -3 -9t-9 -3h-120q-6 0 -9 3t-3 9z" />
    <glyph glyph-name="tcaron" unicode="&#x165;" horiz-adv-x="372" 
d="M146 768l-52 86q-4 7 -1.5 11t9.5 4h39q4 0 8.5 -3t5.5 -6l30 -50l32 50q2 4 6 6.5t8 2.5h39q7 0 9.5 -4t-1.5 -11l-51 -86q-3 -5 -6.5 -6.5t-7.5 -1.5h-53q-4 0 -7.5 1.5t-6.5 6.5zM114 12v590h-100q-6 0 -9 3t-3 9v92q0 6 3 9t9 3h344q6 0 9 -3t3 -9v-92q0 -6 -3 -9
t-9 -3h-100v-590q0 -6 -3 -9t-9 -3h-120q-6 0 -9 3t-3 9z" />
    <glyph glyph-name="Tbar" unicode="&#x166;" horiz-adv-x="372" 
d="M258 12q0 -6 -3 -9t-9 -3h-120q-6 0 -9 3t-3 9v320h-60q-6 0 -9 3t-3 9v60q0 6 3 9t9 3h60v186h-100q-6 0 -9 3t-3 9v92q0 6 3 9t9 3h344q6 0 9 -3t3 -9v-92q0 -6 -3 -9t-9 -3h-100v-186h60q6 0 9 -3t3 -9v-60q0 -6 -3 -9t-9 -3h-60v-320z" />
    <glyph glyph-name="tbar" unicode="&#x167;" horiz-adv-x="372" 
d="M258 12q0 -6 -3 -9t-9 -3h-120q-6 0 -9 3t-3 9v320h-60q-6 0 -9 3t-3 9v60q0 6 3 9t9 3h60v186h-100q-6 0 -9 3t-3 9v92q0 6 3 9t9 3h344q6 0 9 -3t3 -9v-92q0 -6 -3 -9t-9 -3h-100v-186h60q6 0 9 -3t3 -9v-60q0 -6 -3 -9t-9 -3h-60v-320z" />
    <glyph glyph-name="Utilde" unicode="&#x168;" horiz-adv-x="424" 
d="M295 858l25 -13q4 -2 5.5 -5.5t0.5 -7.5q-10 -32 -31.5 -46t-40.5 -14q-25 0 -43.5 14.5t-37.5 14.5q-9 0 -16 -4.5t-14 -18.5q-3 -4 -6.5 -5.5t-7.5 -0.5l-25 13q-4 2 -5.5 5.5t-0.5 7.5q10 32 31.5 46t40.5 14q25 0 43 -14.5t38 -14.5q9 0 16 4.5t14 18.5q3 4 6.5 5.5
t7.5 0.5zM262 718h120q6 0 9 -3t3 -9v-525q0 -104 -52.5 -149.5t-129.5 -45.5t-129.5 45.5t-52.5 149.5v525q0 6 3 9t9 3h120q6 0 9 -3t3 -9v-516q0 -37 7 -62.5t31 -25.5t31 25.5t7 62.5v516q0 6 3 9t9 3z" />
    <glyph glyph-name="utilde" unicode="&#x169;" horiz-adv-x="455" 
d="M311 858l25 -13q4 -2 5.5 -5.5t0.5 -7.5q-10 -32 -31.5 -46t-40.5 -14q-25 0 -43.5 14.5t-37.5 14.5q-9 0 -16 -4.5t-14 -18.5q-3 -4 -6.5 -5.5t-7.5 -0.5l-25 13q-4 2 -5.5 5.5t-0.5 7.5q10 32 31.5 46t40.5 14q25 0 43 -14.5t38 -14.5q9 0 16 4.5t14 18.5q3 4 6.5 5.5
t7.5 0.5zM406 718q6 0 9 -3t3 -9v-626q0 -33 -23 -56.5t-56 -23.5h-223q-33 0 -56 23.5t-23 56.5v625q0 6 2.5 9.5t8.5 3.5h110q6 0 9.5 -3t3.5 -9v-547q0 -23 16.5 -40t40.5 -17q23 0 39.5 17t16.5 40v546q0 6 3 9.5t9 3.5h110z" />
    <glyph glyph-name="Umacron" unicode="&#x16a;" horiz-adv-x="424" 
d="M105 795v39q0 6 3 9t9 3h190q6 0 9 -3t3 -9v-39q0 -6 -3 -9t-9 -3h-190q-6 0 -9 3t-3 9zM262 718h120q6 0 9 -3t3 -9v-525q0 -104 -52.5 -149.5t-129.5 -45.5t-129.5 45.5t-52.5 149.5v525q0 6 3 9t9 3h120q6 0 9 -3t3 -9v-516q0 -37 7 -62.5t31 -25.5t31 25.5t7 62.5
v516q0 6 3 9t9 3z" />
    <glyph glyph-name="umacron" unicode="&#x16b;" horiz-adv-x="455" 
d="M121 795v39q0 6 3 9t9 3h190q6 0 9 -3t3 -9v-39q0 -6 -3 -9t-9 -3h-190q-6 0 -9 3t-3 9zM406 718q6 0 9 -3t3 -9v-626q0 -33 -23 -56.5t-56 -23.5h-223q-33 0 -56 23.5t-23 56.5v625q0 6 2.5 9.5t8.5 3.5h110q6 0 9.5 -3t3.5 -9v-547q0 -23 16.5 -40t40.5 -17
q23 0 39.5 17t16.5 40v546q0 6 3 9.5t9 3.5h110z" />
    <glyph glyph-name="Ubreve" unicode="&#x16c;" horiz-adv-x="424" 
d="M272 862h34q6 0 8.5 -3.5t1.5 -9.5q-11 -37 -39.5 -59t-64.5 -22t-64.5 22t-39.5 59q-1 6 1.5 9.5t8.5 3.5h34q5 0 8.5 -2.5t5.5 -7.5q7 -15 18 -23t28 -8t28 8t18 23q2 5 5.5 7.5t8.5 2.5zM262 718h120q6 0 9 -3t3 -9v-525q0 -104 -52.5 -149.5t-129.5 -45.5
t-129.5 45.5t-52.5 149.5v525q0 6 3 9t9 3h120q6 0 9 -3t3 -9v-516q0 -37 7 -62.5t31 -25.5t31 25.5t7 62.5v516q0 6 3 9t9 3z" />
    <glyph glyph-name="ubreve" unicode="&#x16d;" horiz-adv-x="455" 
d="M288 862h34q6 0 8.5 -3.5t1.5 -9.5q-11 -37 -39.5 -59t-64.5 -22t-64.5 22t-39.5 59q-1 6 1.5 9.5t8.5 3.5h34q5 0 8.5 -2.5t5.5 -7.5q7 -15 18 -23t28 -8t28 8t18 23q2 5 5.5 7.5t8.5 2.5zM406 718q6 0 9 -3t3 -9v-626q0 -33 -23 -56.5t-56 -23.5h-223q-33 0 -56 23.5
t-23 56.5v625q0 6 2.5 9.5t8.5 3.5h110q6 0 9.5 -3t3.5 -9v-547q0 -23 16.5 -40t40.5 -17q23 0 39.5 17t16.5 40v546q0 6 3 9.5t9 3.5h110z" />
    <glyph glyph-name="Uring" unicode="&#x16e;" horiz-adv-x="424" 
d="M269 815q0 -25 -16.5 -42.5t-40.5 -17.5t-40.5 17.5t-16.5 42.5q0 24 16.5 41.5t40.5 17.5t40.5 -17.5t16.5 -41.5zM186 815q0 -11 7.5 -19t18.5 -8q10 0 18 8t8 19q0 10 -8 18t-18 8q-11 0 -18.5 -8t-7.5 -18zM262 718h120q6 0 9 -3t3 -9v-525q0 -104 -52.5 -149.5
t-129.5 -45.5t-129.5 45.5t-52.5 149.5v525q0 6 3 9t9 3h120q6 0 9 -3t3 -9v-516q0 -37 7 -62.5t31 -25.5t31 25.5t7 62.5v516q0 6 3 9t9 3z" />
    <glyph glyph-name="uring" unicode="&#x16f;" horiz-adv-x="455" 
d="M285 815q0 -25 -16.5 -42.5t-40.5 -17.5t-40.5 17.5t-16.5 42.5q0 24 16.5 41.5t40.5 17.5t40.5 -17.5t16.5 -41.5zM202 815q0 -11 7.5 -19t18.5 -8q10 0 18 8t8 19q0 10 -8 18t-18 8q-11 0 -18.5 -8t-7.5 -18zM406 718q6 0 9 -3t3 -9v-626q0 -33 -23 -56.5t-56 -23.5
h-223q-33 0 -56 23.5t-23 56.5v625q0 6 2.5 9.5t8.5 3.5h110q6 0 9.5 -3t3.5 -9v-547q0 -23 16.5 -40t40.5 -17q23 0 39.5 17t16.5 40v546q0 6 3 9.5t9 3.5h110z" />
    <glyph glyph-name="Uhungarumlaut" unicode="&#x170;" horiz-adv-x="424" 
d="M249 869q7 0 9 -4.5t-2 -10.5l-67 -87q-3 -4 -6.5 -5.5t-7.5 -1.5h-31q-7 0 -9.5 4t0.5 10l40 86q2 4 6 6.5t8 2.5h60zM361 869q7 0 9 -4.5t-2 -10.5l-67 -87q-3 -4 -6.5 -5.5t-7.5 -1.5h-31q-7 0 -9.5 4t0.5 10l40 86q2 4 6 6.5t8 2.5h60zM262 718h120q6 0 9 -3t3 -9
v-525q0 -104 -52.5 -149.5t-129.5 -45.5t-129.5 45.5t-52.5 149.5v525q0 6 3 9t9 3h120q6 0 9 -3t3 -9v-516q0 -37 7 -62.5t31 -25.5t31 25.5t7 62.5v516q0 6 3 9t9 3z" />
    <glyph glyph-name="uhungarumlaut" unicode="&#x171;" horiz-adv-x="455" 
d="M265 869q7 0 9 -4.5t-2 -10.5l-67 -87q-3 -4 -6.5 -5.5t-7.5 -1.5h-31q-7 0 -9.5 4t0.5 10l40 86q2 4 6 6.5t8 2.5h60zM377 869q7 0 9 -4.5t-2 -10.5l-67 -87q-3 -4 -6.5 -5.5t-7.5 -1.5h-31q-7 0 -9.5 4t0.5 10l40 86q2 4 6 6.5t8 2.5h60zM406 718q6 0 9 -3t3 -9v-626
q0 -33 -23 -56.5t-56 -23.5h-223q-33 0 -56 23.5t-23 56.5v625q0 6 2.5 9.5t8.5 3.5h110q6 0 9.5 -3t3.5 -9v-547q0 -23 16.5 -40t40.5 -17q23 0 39.5 17t16.5 40v546q0 6 3 9.5t9 3.5h110z" />
    <glyph glyph-name="Uogonek" unicode="&#x172;" horiz-adv-x="424" 
d="M204 -181q-29 0 -46.5 17.5t-17.5 45.5q0 24 13 51.5t38 53.5q-69 5 -115 51t-46 143v525q0 6 3 9t9 3h120q6 0 9 -3t3 -9v-516q0 -37 7 -62.5t31 -25.5t31 25.5t7 62.5v516q0 6 3 9t9 3h120q6 0 9 -3t3 -9v-525q0 -89 -39 -135t-99 -56q-22 -24 -40.5 -57t-18.5 -51
q0 -7 3 -11t7 -4q6 0 8.5 5.5t2.5 12.5q0 3 2 4.5t4 1.5h38q3 0 5 -2.5t2 -7.5q0 -25 -18 -43.5t-47 -18.5z" />
    <glyph glyph-name="uogonek" unicode="&#x173;" horiz-adv-x="455" 
d="M276 -119q0 -25 -18 -43.5t-47 -18.5t-46.5 17.5t-17.5 45.5q0 27 16.5 58t47.5 60h-95q-33 0 -56 23.5t-23 56.5v625q0 6 2.5 9.5t8.5 3.5h110q6 0 9.5 -3t3.5 -9v-547q0 -23 16.5 -40t40.5 -17q23 0 39.5 17t16.5 40v546q0 6 3 9.5t9 3.5h110q6 0 9 -3t3 -9v-626
q0 -33 -23 -56.5t-56 -23.5h-66l-2.5 -2.5l-2.5 -2.5q-24 -23 -44 -58.5t-20 -54.5q0 -7 3 -11t7 -4q6 0 8.5 5.5t2.5 12.5q0 3 2 4.5t4 1.5h38q3 0 5 -2.5t2 -7.5z" />
    <glyph glyph-name="Wcircumflex" unicode="&#x174;" horiz-adv-x="611" 
d="M215 774l52 86q3 5 6.5 6.5t7.5 1.5h53q4 0 7.5 -1.5t6.5 -6.5l51 -86q4 -7 1.5 -11t-9.5 -4h-39q-4 0 -8 2.5t-6 6.5l-32 50l-30 -50q-1 -3 -5.5 -6t-8.5 -3h-39q-7 0 -9.5 4t1.5 11zM480 718h116q6 0 9 -3.5t2 -9.5l-101 -694q-1 -5 -4 -8t-9 -3h-109q-6 0 -9 3t-4 8
l-63 380l-65 -380q-1 -5 -4 -8t-9 -3h-108q-6 0 -9 3t-4 8l-103 694q-1 6 2 9.5t9 3.5h116q6 0 9 -3t4 -8l39 -417h8l55 417q1 5 4 8t9 3h98q6 0 8.5 -3t3.5 -8l50 -417h8l38 417q1 5 4 8t9 3z" />
    <glyph glyph-name="wcircumflex" unicode="&#x175;" horiz-adv-x="611" 
d="M215 774l52 86q3 5 6.5 6.5t7.5 1.5h53q4 0 7.5 -1.5t6.5 -6.5l51 -86q4 -7 1.5 -11t-9.5 -4h-39q-4 0 -8 2.5t-6 6.5l-32 50l-30 -50q-1 -3 -5.5 -6t-8.5 -3h-39q-7 0 -9.5 4t1.5 11zM480 718h116q6 0 9 -3.5t2 -9.5l-101 -694q-1 -5 -4 -8t-9 -3h-109q-6 0 -9 3t-4 8
l-63 380l-65 -380q-1 -5 -4 -8t-9 -3h-108q-6 0 -9 3t-4 8l-103 694q-1 6 2 9.5t9 3.5h116q6 0 9 -3t4 -8l39 -417h8l55 417q1 5 4 8t9 3h98q6 0 8.5 -3t3.5 -8l50 -417h8l38 417q1 5 4 8t9 3z" />
    <glyph glyph-name="Ycircumflex" unicode="&#x176;" horiz-adv-x="424" 
d="M120 775l52 86q3 5 6.5 6.5t7.5 1.5h53q4 0 7.5 -1.5t6.5 -6.5l51 -86q4 -7 1.5 -11t-9.5 -4h-39q-4 0 -8 2.5t-6 6.5l-32 50l-30 -50q-1 -3 -5.5 -6t-8.5 -3h-39q-7 0 -9.5 4t1.5 11zM272 0h-120q-6 0 -9 3t-3 9v278l-134 415q-2 6 1 9.5t9 3.5h116q6 0 9.5 -2.5
t4.5 -8.5l66 -276l66 277q1 5 4.5 7.5t8.5 2.5h117q6 0 9 -3.5t1 -9.5l-134 -415v-278q0 -6 -3 -9t-9 -3z" />
    <glyph glyph-name="ycircumflex" unicode="&#x177;" horiz-adv-x="424" 
d="M120 775l52 86q3 5 6.5 6.5t7.5 1.5h53q4 0 7.5 -1.5t6.5 -6.5l51 -86q4 -7 1.5 -11t-9.5 -4h-39q-4 0 -8 2.5t-6 6.5l-32 50l-30 -50q-1 -3 -5.5 -6t-8.5 -3h-39q-7 0 -9.5 4t1.5 11zM272 0h-120q-6 0 -9 3t-3 9v278l-134 415q-2 6 1 9.5t9 3.5h116q6 0 9.5 -2.5
t4.5 -8.5l66 -276l66 277q1 5 4.5 7.5t8.5 2.5h117q6 0 9 -3.5t1 -9.5l-134 -415v-278q0 -6 -3 -9t-9 -3z" />
    <glyph glyph-name="Ydieresis" unicode="&#x178;" horiz-adv-x="424" 
d="M116 790v49q0 6 3 9t9 3h50q6 0 9 -3t3 -9v-49q0 -6 -3 -9t-9 -3h-50q-6 0 -9 3t-3 9zM234 790v49q0 6 3 9t9 3h50q6 0 9 -3t3 -9v-49q0 -6 -3 -9t-9 -3h-50q-6 0 -9 3t-3 9zM272 0h-120q-6 0 -9 3t-3 9v278l-134 415q-2 6 1 9.5t9 3.5h116q6 0 9.5 -2.5t4.5 -8.5
l66 -276l66 277q1 5 4.5 7.5t8.5 2.5h117q6 0 9 -3.5t1 -9.5l-134 -415v-278q0 -6 -3 -9t-9 -3z" />
    <glyph glyph-name="Zacute" unicode="&#x179;" horiz-adv-x="345" 
d="M262 869q7 0 9 -4.5t-2 -10.5l-67 -87q-3 -4 -6.5 -5.5t-7.5 -1.5h-31q-7 0 -9.5 4t0.5 10l40 86q2 4 6 6.5t8 2.5h60zM10 12v56q0 4 0.5 7.5t1.5 7.5l161 519h-137q-6 0 -9 3t-3 9v92q0 6 3 9t9 3h287q6 0 9 -3t3 -9v-49q0 -4 -0.5 -7.5t-1.5 -7.5l-166 -526h151
q6 0 9 -3t3 -9v-92q0 -6 -3 -9t-9 -3h-296q-6 0 -9 3t-3 9z" />
    <glyph glyph-name="zacute" unicode="&#x17a;" horiz-adv-x="345" 
d="M262 869q7 0 9 -4.5t-2 -10.5l-67 -87q-3 -4 -6.5 -5.5t-7.5 -1.5h-31q-7 0 -9.5 4t0.5 10l40 86q2 4 6 6.5t8 2.5h60zM10 12v56q0 4 0.5 7.5t1.5 7.5l161 519h-137q-6 0 -9 3t-3 9v92q0 6 3 9t9 3h287q6 0 9 -3t3 -9v-49q0 -4 -0.5 -7.5t-1.5 -7.5l-166 -526h151
q6 0 9 -3t3 -9v-92q0 -6 -3 -9t-9 -3h-296q-6 0 -9 3t-3 9z" />
    <glyph glyph-name="Zdotaccent" unicode="&#x17b;" horiz-adv-x="345" 
d="M131 785v59q0 6 3 9t9 3h60q6 0 9 -3t3 -9v-59q0 -6 -3 -9t-9 -3h-60q-6 0 -9 3t-3 9zM10 12v56q0 4 0.5 7.5t1.5 7.5l161 519h-137q-6 0 -9 3t-3 9v92q0 6 3 9t9 3h287q6 0 9 -3t3 -9v-49q0 -4 -0.5 -7.5t-1.5 -7.5l-166 -526h151q6 0 9 -3t3 -9v-92q0 -6 -3 -9t-9 -3
h-296q-6 0 -9 3t-3 9z" />
    <glyph glyph-name="zdotaccent" unicode="&#x17c;" horiz-adv-x="345" 
d="M131 785v59q0 6 3 9t9 3h60q6 0 9 -3t3 -9v-59q0 -6 -3 -9t-9 -3h-60q-6 0 -9 3t-3 9zM10 12v56q0 4 0.5 7.5t1.5 7.5l161 519h-137q-6 0 -9 3t-3 9v92q0 6 3 9t9 3h287q6 0 9 -3t3 -9v-49q0 -4 -0.5 -7.5t-1.5 -7.5l-166 -526h151q6 0 9 -3t3 -9v-92q0 -6 -3 -9t-9 -3
h-296q-6 0 -9 3t-3 9z" />
    <glyph glyph-name="Zcaron" unicode="&#x17d;" horiz-adv-x="345" 
d="M133 768l-52 86q-4 7 -1.5 11t9.5 4h39q4 0 8.5 -3t5.5 -6l30 -50l32 50q2 4 6 6.5t8 2.5h39q7 0 9.5 -4t-1.5 -11l-51 -86q-3 -5 -6.5 -6.5t-7.5 -1.5h-53q-4 0 -7.5 1.5t-6.5 6.5zM10 12v56q0 4 0.5 7.5t1.5 7.5l161 519h-137q-6 0 -9 3t-3 9v92q0 6 3 9t9 3h287
q6 0 9 -3t3 -9v-49q0 -4 -0.5 -7.5t-1.5 -7.5l-166 -526h151q6 0 9 -3t3 -9v-92q0 -6 -3 -9t-9 -3h-296q-6 0 -9 3t-3 9z" />
    <glyph glyph-name="zcaron" unicode="&#x17e;" horiz-adv-x="345" 
d="M133 768l-52 86q-4 7 -1.5 11t9.5 4h39q4 0 8.5 -3t5.5 -6l30 -50l32 50q2 4 6 6.5t8 2.5h39q7 0 9.5 -4t-1.5 -11l-51 -86q-3 -5 -6.5 -6.5t-7.5 -1.5h-53q-4 0 -7.5 1.5t-6.5 6.5zM10 12v56q0 4 0.5 7.5t1.5 7.5l161 519h-137q-6 0 -9 3t-3 9v92q0 6 3 9t9 3h287
q6 0 9 -3t3 -9v-49q0 -4 -0.5 -7.5t-1.5 -7.5l-166 -526h151q6 0 9 -3t3 -9v-92q0 -6 -3 -9t-9 -3h-296q-6 0 -9 3t-3 9z" />
    <glyph glyph-name="florin" unicode="&#x192;" horiz-adv-x="352" 
d="M219 67q-2 -31 -11 -62t-27 -55t-46 -39t-69 -15q-14 0 -27.5 2.5t-20.5 4.5t-8.5 6t-1.5 9v59q0 6 3 9t9 3h33q30 0 37.5 19t10.5 56l20 266h-75q-6 0 -9 3t-3 9v46q0 6 3 9t9 3h80l11 151q3 37 10 70t24 58t46 39.5t75 14.5q14 0 26.5 -2.5t19.5 -4.5t8.5 -6t1.5 -9
v-59q0 -6 -3 -9t-9 -3h-31q-31 0 -38.5 -25t-11.5 -74l-11 -141h82q6 0 9 -3t3 -9v-46q0 -6 -3 -9t-9 -3h-87z" />
    <glyph glyph-name="Aringacute" unicode="&#x1fa;" horiz-adv-x="424" 
d="M304 1028q7 0 9 -4.5t-2 -10.5l-67 -87q-3 -4 -6.5 -5.5t-7.5 -1.5h-31q-7 0 -9.5 4t0.5 10l40 86q2 4 6 6.5t8 2.5h60zM270 816q0 -25 -16.5 -42.5t-40.5 -17.5t-40.5 17.5t-16.5 42.5q0 24 16.5 41.5t40.5 17.5t40.5 -17.5t16.5 -41.5zM187 816q0 -11 7.5 -19t18.5 -8
q10 0 18 8t8 19q0 10 -8 18t-18 8q-11 0 -18.5 -8t-7.5 -18zM320 707l100 -694q1 -6 -2 -9.5t-10 -3.5h-118q-6 0 -9 3t-4 8l-23 208h-82l-23 -208q-1 -5 -4 -8t-9 -3h-118q-7 0 -10 3.5t-2 9.5l100 694q1 5 4 8t9 3h188q6 0 9 -3t4 -8zM175 327h76l-32 256h-12z" />
    <glyph glyph-name="aringacute" unicode="&#x1fb;" horiz-adv-x="424" 
d="M304 1028q7 0 9 -4.5t-2 -10.5l-67 -87q-3 -4 -6.5 -5.5t-7.5 -1.5h-31q-7 0 -9.5 4t0.5 10l40 86q2 4 6 6.5t8 2.5h60zM270 816q0 -25 -16.5 -42.5t-40.5 -17.5t-40.5 17.5t-16.5 42.5q0 24 16.5 41.5t40.5 17.5t40.5 -17.5t16.5 -41.5zM187 816q0 -11 7.5 -19t18.5 -8
q10 0 18 8t8 19q0 10 -8 18t-18 8q-11 0 -18.5 -8t-7.5 -18zM320 707l100 -694q1 -6 -2 -9.5t-10 -3.5h-118q-6 0 -9 3t-4 8l-23 208h-82l-23 -208q-1 -5 -4 -8t-9 -3h-118q-7 0 -10 3.5t-2 9.5l100 694q1 5 4 8t9 3h188q6 0 9 -3t4 -8zM175 327h76l-32 256h-12z" />
    <glyph glyph-name="AEacute" unicode="&#x1fc;" horiz-adv-x="541" 
d="M403 870q7 0 9 -4.5t-2 -10.5l-67 -87q-3 -4 -6.5 -5.5t-7.5 -1.5h-31q-7 0 -9.5 4t0.5 10l40 86q2 4 6 6.5t8 2.5h60zM520 602h-141v-176h97q6 0 9 -3t3 -9v-98q0 -6 -3 -9t-9 -3h-97v-188h141q6 0 9 -3t3 -9v-92q0 -6 -3 -9t-9 -3h-273q-6 0 -9 3t-3 9v193h-81
l-35 -194q-1 -5 -4.5 -8t-9.5 -3h-93q-7 0 -9.5 3.5t-1.5 9.5l153 694q1 6 4.5 8.5t9.5 2.5h352q6 0 9 -3t3 -9v-92q0 -6 -3 -9t-9 -3zM177 313h58v270h-8z" />
    <glyph glyph-name="aeacute" unicode="&#x1fd;" horiz-adv-x="541" 
d="M403 870q7 0 9 -4.5t-2 -10.5l-67 -87q-3 -4 -6.5 -5.5t-7.5 -1.5h-31q-7 0 -9.5 4t0.5 10l40 86q2 4 6 6.5t8 2.5h60zM520 602h-141v-176h97q6 0 9 -3t3 -9v-98q0 -6 -3 -9t-9 -3h-97v-188h141q6 0 9 -3t3 -9v-92q0 -6 -3 -9t-9 -3h-273q-6 0 -9 3t-3 9v193h-81
l-35 -194q-1 -5 -4.5 -8t-9.5 -3h-93q-7 0 -9.5 3.5t-1.5 9.5l153 694q1 6 4.5 8.5t9.5 2.5h352q6 0 9 -3t3 -9v-92q0 -6 -3 -9t-9 -3zM177 313h58v270h-8z" />
    <glyph glyph-name="Oslashacute" unicode="&#x1fe;" horiz-adv-x="440" 
d="M309 869q7 0 9 -4.5t-2 -10.5l-67 -87q-3 -4 -6.5 -5.5t-7.5 -1.5h-31q-7 0 -9.5 4t0.5 10l40 86q2 4 6 6.5t8 2.5h60zM220 -14q-36 0 -67 12t-55 40l-22 -45q-2 -5 -7 -5.5t-9 1.5l-31 15q-5 2 -5.5 7t1.5 10l37 76q-19 44 -29 109t-10 153q0 105 14 176.5t40 115
t62.5 62.5t80.5 19q36 0 66.5 -12t55.5 -39l22 46q2 5 7 5.5t9 -1.5l31 -15q5 -2 5.5 -7t-1.5 -10l-37 -77q19 -44 29 -109t10 -154q0 -105 -14 -176.5t-40 -115t-62.5 -62.5t-80.5 -19zM179 434v-92l80 167q-4 65 -14.5 86t-24.5 21q-9 0 -16.5 -7t-13 -27t-8.5 -55.5
t-3 -92.5zM220 102q9 0 16.5 7t13 27t8.5 55.5t3 92.5v94l-80 -167q4 -66 14.5 -87.5t24.5 -21.5z" />
    <glyph glyph-name="oslashacute" unicode="&#x1ff;" horiz-adv-x="455" 
d="M319 869q7 0 9 -4.5t-2 -10.5l-67 -87q-3 -4 -6.5 -5.5t-7.5 -1.5h-31q-7 0 -9.5 4t0.5 10l40 86q2 4 6 6.5t8 2.5h60zM37 638q0 33 23 56.5t56 23.5h223q33 0 56 -23.5t23 -56.5v-558q0 -33 -23 -56.5t-56 -23.5h-223q-33 0 -56 23.5t-23 56.5v558zM171 555v-245
l113 232v13q0 22 -17 39t-40 17q-22 0 -39 -17t-17 -39zM227 107q23 0 40 17t17 39v245l-113 -233v-12q0 -22 17 -39t39 -17z" />
    <glyph glyph-name="Scommaaccent" unicode="&#x218;" horiz-adv-x="384" 
d="M22 231h108q6 0 9 -3t3 -9q1 -51 13 -84t41 -33q22 0 34 17t12 46q0 27 -10.5 49.5t-26 41t-33 33.5t-30.5 27q-63 58 -94.5 108t-31.5 122q0 84 46 135t128 51q46 0 79 -17t54.5 -45.5t32 -68t10.5 -84.5q0 -6 -3 -9t-9 -3h-110q-6 0 -9 3t-3 9q-1 39 -8 69t-36 30
q-19 0 -28.5 -16.5t-9.5 -41.5q0 -36 20 -66t49 -56q30 -27 58.5 -53.5t50 -56t34.5 -65t13 -79.5q0 -41 -11 -77t-33 -62.5t-56.5 -41.5t-80.5 -15q-47 0 -82 18.5t-57.5 50t-33.5 74t-11 90.5q0 6 3 9t9 3zM145 -181q-5 0 -8 4.5t-2 9.5l20 116q1 6 4.5 7.5t8.5 1.5h56
q5 0 8 -4t1 -10l-39 -115q-2 -6 -4.5 -8t-7.5 -2h-37z" />
    <glyph glyph-name="scommaaccent" unicode="&#x219;" horiz-adv-x="384" 
d="M22 231h108q6 0 9 -3t3 -9q1 -51 13 -84t41 -33q22 0 34 17t12 46q0 27 -10.5 49.5t-26 41t-33 33.5t-30.5 27q-63 58 -94.5 108t-31.5 122q0 84 46 135t128 51q46 0 79 -17t54.5 -45.5t32 -68t10.5 -84.5q0 -6 -3 -9t-9 -3h-110q-6 0 -9 3t-3 9q-1 39 -8 69t-36 30
q-19 0 -28.5 -16.5t-9.5 -41.5q0 -36 20 -66t49 -56q30 -27 58.5 -53.5t50 -56t34.5 -65t13 -79.5q0 -41 -11 -77t-33 -62.5t-56.5 -41.5t-80.5 -15q-47 0 -82 18.5t-57.5 50t-33.5 74t-11 90.5q0 6 3 9t9 3zM145 -181q-5 0 -8 4.5t-2 9.5l20 116q1 6 4.5 7.5t8.5 1.5h56
q5 0 8 -4t1 -10l-39 -115q-2 -6 -4.5 -8t-7.5 -2h-37z" />
    <glyph glyph-name="circumflex" unicode="&#x2c6;" horiz-adv-x="500" 
d="M159 775l52 86q3 5 6.5 6.5t7.5 1.5h53q4 0 7.5 -1.5t6.5 -6.5l51 -86q4 -7 1.5 -11t-9.5 -4h-39q-4 0 -8 2.5t-6 6.5l-32 50l-30 -50q-1 -3 -5.5 -6t-8.5 -3h-39q-7 0 -9.5 4t1.5 11z" />
    <glyph glyph-name="caron" unicode="&#x2c7;" horiz-adv-x="500" 
d="M211 768l-52 86q-4 7 -1.5 11t9.5 4h39q4 0 8.5 -3t5.5 -6l30 -50l32 50q2 4 6 6.5t8 2.5h39q7 0 9.5 -4t-1.5 -11l-51 -86q-3 -5 -6.5 -6.5t-7.5 -1.5h-53q-4 0 -7.5 1.5t-6.5 6.5z" />
    <glyph glyph-name="breve" unicode="&#x2d8;" horiz-adv-x="500" 
d="M310 862h34q6 0 8.5 -3.5t1.5 -9.5q-11 -37 -39.5 -59t-64.5 -22t-64.5 22t-39.5 59q-1 6 1.5 9.5t8.5 3.5h34q5 0 8.5 -2.5t5.5 -7.5q7 -15 18 -23t28 -8t28 8t18 23q2 5 5.5 7.5t8.5 2.5z" />
    <glyph glyph-name="dotaccent" unicode="&#x2d9;" horiz-adv-x="500" 
d="M208 785v59q0 6 3 9t9 3h60q6 0 9 -3t3 -9v-59q0 -6 -3 -9t-9 -3h-60q-6 0 -9 3t-3 9z" />
    <glyph glyph-name="ring" unicode="&#x2da;" horiz-adv-x="500" 
d="M307 815q0 -25 -16.5 -42.5t-40.5 -17.5t-40.5 17.5t-16.5 42.5q0 24 16.5 41.5t40.5 17.5t40.5 -17.5t16.5 -41.5zM224 815q0 -11 7.5 -19t18.5 -8q10 0 18 8t8 19q0 10 -8 18t-18 8q-11 0 -18.5 -8t-7.5 -18z" />
    <glyph glyph-name="ogonek" unicode="&#x2db;" horiz-adv-x="501" 
d="M229 -118q0 -7 3 -11t7 -4q6 0 8.5 5.5t2.5 12.5q0 3 2 4.5t4 1.5h38q3 0 5 -2.5t2 -7.5q0 -25 -18 -43.5t-47 -18.5t-46.5 17.5t-17.5 45.5t18.5 61t52.5 63l58 6q0 -8 -2 -10.5t-6 -6.5q-24 -23 -44 -58.5t-20 -54.5z" />
    <glyph glyph-name="tilde" unicode="&#x2dc;" horiz-adv-x="500" 
d="M334 858l25 -13q4 -2 5.5 -5.5t0.5 -7.5q-10 -32 -31.5 -46t-40.5 -14q-25 0 -43.5 14.5t-37.5 14.5q-9 0 -16 -4.5t-14 -18.5q-3 -4 -6.5 -5.5t-7.5 -0.5l-25 13q-4 2 -5.5 5.5t-0.5 7.5q10 32 31.5 46t40.5 14q25 0 43 -14.5t38 -14.5q9 0 16 4.5t14 18.5q3 4 6.5 5.5
t7.5 0.5z" />
    <glyph glyph-name="hungarumlaut" unicode="&#x2dd;" horiz-adv-x="501" 
d="M247 869q7 0 9 -4.5t-2 -10.5l-67 -87q-3 -4 -6.5 -5.5t-7.5 -1.5h-31q-7 0 -9.5 4t0.5 10l40 86q2 4 6 6.5t8 2.5h60zM359 869q7 0 9 -4.5t-2 -10.5l-67 -87q-3 -4 -6.5 -5.5t-7.5 -1.5h-31q-7 0 -9.5 4t0.5 10l40 86q2 4 6 6.5t8 2.5h60z" />
    <glyph glyph-name="Delta" unicode="&#x394;" horiz-adv-x="459" 
d="M10 12v53q0 4 0.5 7t1.5 7l152 629q1 5 4.5 7.5t8.5 2.5h115q5 0 8.5 -2.5t4.5 -8.5l142 -625q1 -4 1.5 -7t0.5 -7v-56q0 -6 -3 -9t-9 -3h-415q-6 0 -9 3t-3 9zM129 100h200l-64 275q-7 34 -17 74.5t-16 73.5q-7 -32 -16.5 -71.5t-18.5 -76.5z" />
    <glyph glyph-name="Omega" unicode="&#x3a9;" horiz-adv-x="460" 
d="M205 12q0 -6 -3 -9t-9 -3h-171q-6 0 -9 3t-3 9v78q0 6 3 9t9 3h78q-32 51 -55.5 126.5t-23.5 166.5q0 67 15 126t43 102.5t67.5 69t88.5 25.5q54 0 92.5 -29t63.5 -74t36.5 -100.5t11.5 -108.5q0 -94 -25 -175.5t-54 -128.5h78q6 0 9 -3t3 -9v-78q0 -6 -3 -9t-9 -3h-171
q-6 0 -9 3t-3 9v52q0 4 1.5 7.5t3.5 6.5q21 30 39.5 106t18.5 192q0 45 -5 87.5t-15.5 75t-27 52t-38.5 19.5q-21 0 -37.5 -17.5t-28.5 -49t-18 -75.5t-6 -96q0 -106 18.5 -184.5t39.5 -109.5q2 -3 3.5 -6.5t1.5 -7.5v-52z" />
    <glyph glyph-name="mu" unicode="&#x3bc;" horiz-adv-x="415" 
d="M380 92h23q6 0 9 -3t3 -9v-69q0 -5 -1.5 -8.5t-8.5 -6.5q-7 -4 -15.5 -5.5t-22.5 -1.5q-31 0 -55 8.5t-40 23.5q-13 -10 -31 -17.5t-37.5 -9t-38.5 3t-34 17.5v-153q0 -6 -3 -9t-9 -3h-85q-6 0 -9 3t-3 9v658q0 6 3 9t9 3h97q6 0 9 -3t3 -9v-356q0 -41 13.5 -55.5
t26.5 -14.5t25.5 13.5t12.5 56.5v356q0 6 3 9t9 3h97q6 0 9 -3t3 -9v-372q0 -28 6 -42t32 -14z" />
    <glyph glyph-name="pi" unicode="&#x3c0;" horiz-adv-x="466" 
d="M421 82h33q6 0 9 -3t3 -9v-59q0 -5 -1.5 -9t-8.5 -6t-20.5 -4.5t-27.5 -2.5q-41 0 -70 15t-47 39t-26.5 55t-8.5 62v256h-50l-21 -404q0 -6 -3 -9t-9 -3h-97q-6 0 -9 3t-3 9l25 404h-75q-6 0 -9 3t-3 9v92q0 6 2.5 9t8.5 3h435q6 0 8.5 -3t2.5 -9v-92q0 -6 -3 -9t-9 -3
h-73v-259q0 -37 9 -56t38 -19z" />
    <glyph glyph-name="Wgrave" unicode="&#x1e80;" horiz-adv-x="611" 
d="M208 853q-4 6 -2 10.5t9 4.5h60q4 0 8 -2.5t6 -6.5l40 -86q3 -6 0.5 -10t-9.5 -4h-31q-4 0 -7.5 1.5t-6.5 5.5zM480 718h116q6 0 9 -3.5t2 -9.5l-101 -694q-1 -5 -4 -8t-9 -3h-109q-6 0 -9 3t-4 8l-63 380l-65 -380q-1 -5 -4 -8t-9 -3h-108q-6 0 -9 3t-4 8l-103 694
q-1 6 2 9.5t9 3.5h116q6 0 9 -3t4 -8l39 -417h8l55 417q1 5 4 8t9 3h98q6 0 8.5 -3t3.5 -8l50 -417h8l38 417q1 5 4 8t9 3z" />
    <glyph glyph-name="wgrave" unicode="&#x1e81;" horiz-adv-x="611" 
d="M208 853q-4 6 -2 10.5t9 4.5h60q4 0 8 -2.5t6 -6.5l40 -86q3 -6 0.5 -10t-9.5 -4h-31q-4 0 -7.5 1.5t-6.5 5.5zM480 718h116q6 0 9 -3.5t2 -9.5l-101 -694q-1 -5 -4 -8t-9 -3h-109q-6 0 -9 3t-4 8l-63 380l-65 -380q-1 -5 -4 -8t-9 -3h-108q-6 0 -9 3t-4 8l-103 694
q-1 6 2 9.5t9 3.5h116q6 0 9 -3t4 -8l39 -417h8l55 417q1 5 4 8t9 3h98q6 0 8.5 -3t3.5 -8l50 -417h8l38 417q1 5 4 8t9 3z" />
    <glyph glyph-name="Wacute" unicode="&#x1e82;" horiz-adv-x="611" 
d="M396 868q7 0 9 -4.5t-2 -10.5l-67 -87q-3 -4 -6.5 -5.5t-7.5 -1.5h-31q-7 0 -9.5 4t0.5 10l40 86q2 4 6 6.5t8 2.5h60zM480 718h116q6 0 9 -3.5t2 -9.5l-101 -694q-1 -5 -4 -8t-9 -3h-109q-6 0 -9 3t-4 8l-63 380l-65 -380q-1 -5 -4 -8t-9 -3h-108q-6 0 -9 3t-4 8
l-103 694q-1 6 2 9.5t9 3.5h116q6 0 9 -3t4 -8l39 -417h8l55 417q1 5 4 8t9 3h98q6 0 8.5 -3t3.5 -8l50 -417h8l38 417q1 5 4 8t9 3z" />
    <glyph glyph-name="wacute" unicode="&#x1e83;" horiz-adv-x="611" 
d="M396 868q7 0 9 -4.5t-2 -10.5l-67 -87q-3 -4 -6.5 -5.5t-7.5 -1.5h-31q-7 0 -9.5 4t0.5 10l40 86q2 4 6 6.5t8 2.5h60zM480 718h116q6 0 9 -3.5t2 -9.5l-101 -694q-1 -5 -4 -8t-9 -3h-109q-6 0 -9 3t-4 8l-63 380l-65 -380q-1 -5 -4 -8t-9 -3h-108q-6 0 -9 3t-4 8
l-103 694q-1 6 2 9.5t9 3.5h116q6 0 9 -3t4 -8l39 -417h8l55 417q1 5 4 8t9 3h98q6 0 8.5 -3t3.5 -8l50 -417h8l38 417q1 5 4 8t9 3z" />
    <glyph glyph-name="Wdieresis" unicode="&#x1e84;" horiz-adv-x="611" 
d="M211 789v49q0 6 3 9t9 3h50q6 0 9 -3t3 -9v-49q0 -6 -3 -9t-9 -3h-50q-6 0 -9 3t-3 9zM329 789v49q0 6 3 9t9 3h50q6 0 9 -3t3 -9v-49q0 -6 -3 -9t-9 -3h-50q-6 0 -9 3t-3 9zM480 718h116q6 0 9 -3.5t2 -9.5l-101 -694q-1 -5 -4 -8t-9 -3h-109q-6 0 -9 3t-4 8l-63 380
l-65 -380q-1 -5 -4 -8t-9 -3h-108q-6 0 -9 3t-4 8l-103 694q-1 6 2 9.5t9 3.5h116q6 0 9 -3t4 -8l39 -417h8l55 417q1 5 4 8t9 3h98q6 0 8.5 -3t3.5 -8l50 -417h8l38 417q1 5 4 8t9 3z" />
    <glyph glyph-name="wdieresis" unicode="&#x1e85;" horiz-adv-x="611" 
d="M211 789v49q0 6 3 9t9 3h50q6 0 9 -3t3 -9v-49q0 -6 -3 -9t-9 -3h-50q-6 0 -9 3t-3 9zM329 789v49q0 6 3 9t9 3h50q6 0 9 -3t3 -9v-49q0 -6 -3 -9t-9 -3h-50q-6 0 -9 3t-3 9zM480 718h116q6 0 9 -3.5t2 -9.5l-101 -694q-1 -5 -4 -8t-9 -3h-109q-6 0 -9 3t-4 8l-63 380
l-65 -380q-1 -5 -4 -8t-9 -3h-108q-6 0 -9 3t-4 8l-103 694q-1 6 2 9.5t9 3.5h116q6 0 9 -3t4 -8l39 -417h8l55 417q1 5 4 8t9 3h98q6 0 8.5 -3t3.5 -8l50 -417h8l38 417q1 5 4 8t9 3z" />
    <glyph glyph-name="Ygrave" unicode="&#x1ef2;" horiz-adv-x="424" 
d="M113 854q-4 6 -2 10.5t9 4.5h60q4 0 8 -2.5t6 -6.5l40 -86q3 -6 0.5 -10t-9.5 -4h-31q-4 0 -7.5 1.5t-6.5 5.5zM272 0h-120q-6 0 -9 3t-3 9v278l-134 415q-2 6 1 9.5t9 3.5h116q6 0 9.5 -2.5t4.5 -8.5l66 -276l66 277q1 5 4.5 7.5t8.5 2.5h117q6 0 9 -3.5t1 -9.5
l-134 -415v-278q0 -6 -3 -9t-9 -3z" />
    <glyph glyph-name="ygrave" unicode="&#x1ef3;" horiz-adv-x="424" 
d="M113 854q-4 6 -2 10.5t9 4.5h60q4 0 8 -2.5t6 -6.5l40 -86q3 -6 0.5 -10t-9.5 -4h-31q-4 0 -7.5 1.5t-6.5 5.5zM272 0h-120q-6 0 -9 3t-3 9v278l-134 415q-2 6 1 9.5t9 3.5h116q6 0 9.5 -2.5t4.5 -8.5l66 -276l66 277q1 5 4.5 7.5t8.5 2.5h117q6 0 9 -3.5t1 -9.5
l-134 -415v-278q0 -6 -3 -9t-9 -3z" />
    <glyph glyph-name="endash" unicode="&#x2013;" horiz-adv-x="550" 
d="M10 343v46q0 6 3 9t9 3h506q6 0 9 -3t3 -9v-46q0 -6 -3 -9t-9 -3h-506q-6 0 -9 3t-3 9z" />
    <glyph glyph-name="emdash" unicode="&#x2014;" horiz-adv-x="750" 
d="M10 343v46q0 6 3 9t9 3h706q6 0 9 -3t3 -9v-46q0 -6 -3 -9t-9 -3h-706q-6 0 -9 3t-3 9z" />
    <glyph glyph-name="quoteleft" unicode="&#x2018;" horiz-adv-x="180" 
d="M106 832h63q6 0 9 -4.5t2 -9.5l-46 -258q-1 -6 -4.5 -7.5t-9.5 -1.5h-90q-6 0 -8.5 4t-1.5 10l72 257q1 6 4.5 8t9.5 2z" />
    <glyph glyph-name="quoteright" unicode="&#x2019;" horiz-adv-x="180" 
d="M94 551h-63q-6 0 -9 4.5t-2 9.5l46 258q1 6 4.5 7.5t9.5 1.5h90q6 0 8.5 -4t1.5 -10l-72 -257q-1 -6 -4.5 -8t-9.5 -2z" />
    <glyph glyph-name="quotesinglbase" unicode="&#x201a;" horiz-adv-x="180" 
d="M94 -114h-63q-6 0 -9 4.5t-2 9.5l46 258q1 6 4.5 7.5t9.5 1.5h90q6 0 8.5 -4t1.5 -10l-72 -257q-1 -6 -4.5 -8t-9.5 -2z" />
    <glyph glyph-name="quotedblleft" unicode="&#x201c;" horiz-adv-x="328" 
d="M106 832h63q6 0 9 -4.5t2 -9.5l-46 -258q-1 -6 -4.5 -7.5t-9.5 -1.5h-90q-6 0 -8.5 4t-1.5 10l72 257q1 6 4.5 8t9.5 2zM253 832h63q6 0 9 -4.5t2 -9.5l-46 -258q-1 -6 -4.5 -7.5t-9.5 -1.5h-90q-6 0 -8.5 4t-1.5 10l72 257q1 6 4.5 8t9.5 2z" />
    <glyph glyph-name="quotedblright" unicode="&#x201d;" horiz-adv-x="328" 
d="M94 551h-63q-6 0 -9 4.5t-2 9.5l46 258q1 6 4.5 7.5t9.5 1.5h90q6 0 8.5 -4t1.5 -10l-72 -257q-1 -6 -4.5 -8t-9.5 -2zM242 551h-63q-6 0 -9 4.5t-2 9.5l46 258q1 6 4.5 7.5t9.5 1.5h90q6 0 8.5 -4t1.5 -10l-72 -257q-1 -6 -4.5 -8t-9.5 -2z" />
    <glyph glyph-name="quotedblbase" unicode="&#x201e;" horiz-adv-x="328" 
d="M94 -114h-63q-6 0 -9 4.5t-2 9.5l46 258q1 6 4.5 7.5t9.5 1.5h90q6 0 8.5 -4t1.5 -10l-72 -257q-1 -6 -4.5 -8t-9.5 -2zM242 -114h-63q-6 0 -9 4.5t-2 9.5l46 258q1 6 4.5 7.5t9.5 1.5h90q6 0 8.5 -4t1.5 -10l-72 -257q-1 -6 -4.5 -8t-9.5 -2z" />
    <glyph glyph-name="dagger" unicode="&#x2020;" horiz-adv-x="454" 
d="M247 -116q-1 -7 -3.5 -10.5t-6.5 -3.5h-21q-5 0 -7 3.5t-3 10.5q-3 14 -6.5 32t-6.5 35.5t-4.5 33t-1.5 24.5v487l-164 -16q-6 -1 -9.5 1.5t-3.5 9.5v54q0 7 3.5 9t9.5 2h164v173q0 6 2 9.5t9 3.5h59q7 0 8.5 -3.5t1.5 -9.5v-173h164q6 0 9.5 -2t3.5 -9v-54
q0 -7 -3.5 -9.5t-9.5 -1.5l-164 16v-487q0 -9 -2 -24.5t-5 -33t-6.5 -35.5t-6.5 -32z" />
    <glyph glyph-name="daggerdbl" unicode="&#x2021;" horiz-adv-x="454" 
d="M247 -116q-1 -7 -3.5 -10.5t-6.5 -3.5h-21q-5 0 -7 3.5t-3 10.5q-3 14 -6.5 32t-6.5 35.5t-4.5 33t-1.5 24.5v168l-164 -16q-6 -1 -9.5 1.5t-3.5 9.5v54q0 7 3.5 9t9.5 2h164v259l-164 -16q-6 -1 -9.5 1.5t-3.5 9.5v54q0 7 3.5 9t9.5 2h164v173q0 6 2 9.5t9 3.5h59
q7 0 8.5 -3.5t1.5 -9.5v-173h164q6 0 9.5 -2t3.5 -9v-54q0 -7 -3.5 -9.5t-9.5 -1.5l-164 16v-259h164q6 0 9.5 -2t3.5 -9v-54q0 -7 -3.5 -9.5t-9.5 -1.5l-164 16v-168q0 -9 -2 -24.5t-5 -33t-6.5 -35.5t-6.5 -32z" />
    <glyph glyph-name="bullet" unicode="&#x2022;" horiz-adv-x="268" 
d="M238 367q0 -42 -31 -72.5t-74 -30.5q-42 0 -72.5 30.5t-30.5 72.5q0 43 30.5 73t72.5 30q43 0 74 -30t31 -73z" />
    <glyph glyph-name="ellipsis" unicode="&#x2026;" horiz-adv-x="568" 
d="M160 55q0 -28 -19 -48.5t-47 -20.5t-47 20.5t-19 48.5t19 48t47 20t47 -20t19 -48zM350 55q0 -28 -19 -48.5t-47 -20.5t-47 20.5t-19 48.5t19 48t47 20t47 -20t19 -48zM539 55q0 -28 -19 -48.5t-47 -20.5t-47 20.5t-19 48.5t19 48t47 20t47 -20t19 -48z" />
    <glyph glyph-name="perthousand" unicode="&#x2030;" horiz-adv-x="600" 
d="M343 732h31q4 0 4.5 -2.5t-0.5 -5.5l-311 -732q-1 -3 -3 -4.5t-5 -1.5h-33q-4 0 -4.5 2t0.5 5l312 733q1 4 3.5 5t5.5 1zM100 732q47 0 69 -39t22 -121t-22 -121.5t-69 -39.5t-69 39.5t-22 121.5t22 121t69 39zM100 678q-12 0 -17 -23.5t-5 -82.5q0 -60 5 -83.5t17 -23.5
t17 23.5t5 83.5q0 59 -5 82.5t-17 23.5zM300 307q47 0 69 -39t22 -121t-22 -121.5t-69 -39.5t-69 39.5t-22 121.5t22 121t69 39zM500 307q47 0 69 -39t22 -121t-22 -121.5t-69 -39.5t-69 39.5t-22 121.5t22 121t69 39zM300 253q-12 0 -17 -23.5t-5 -82.5q0 -60 5 -83.5
t17 -23.5t17 23.5t5 83.5q0 59 -5 82.5t-17 23.5zM500 253q-12 0 -17 -23.5t-5 -82.5q0 -60 5 -83.5t17 -23.5t17 23.5t5 83.5q0 59 -5 82.5t-17 23.5z" />
    <glyph glyph-name="guilsinglleft" unicode="&#x2039;" horiz-adv-x="180" 
d="M81 120l-49 141q-1 4 -1 8t1 8l49 149q1 5 4.5 7.5t8.5 2.5h46q7 0 9.5 -3.5t1.5 -9.5l-37 -154l36 -146q1 -6 -1 -9.5t-9 -3.5h-46q-5 0 -8.5 2.5t-4.5 7.5z" />
    <glyph glyph-name="guilsinglright" unicode="&#x203a;" horiz-adv-x="180" 
d="M101 120q-1 -5 -4.5 -7.5t-8.5 -2.5h-46q-7 0 -9 3.5t-1 9.5l36 146l-37 154q-1 6 1.5 9.5t9.5 3.5h46q5 0 8.5 -2.5t4.5 -7.5l49 -149q1 -4 1 -8t-1 -8z" />
    <glyph glyph-name="fraction" unicode="&#x2044;" horiz-adv-x="0" 
d="M141 732h31q4 0 4.5 -2.5t-0.5 -5.5l-311 -732q-1 -3 -3 -4.5t-5 -1.5h-33q-4 0 -4.5 2t0.5 5l312 733q1 4 3.5 5t5.5 1z" />
    <glyph glyph-name="zerosuperior" unicode="&#x2070;" 
d="M100 782q47 0 69 -39t22 -121t-22 -121.5t-69 -39.5t-69 39.5t-22 121.5t22 121t69 39zM100 728q-12 0 -17 -23.5t-5 -82.5q0 -60 5 -83.5t17 -23.5t17 23.5t5 83.5q0 59 -5 82.5t-17 23.5z" />
    <glyph glyph-name="foursuperior" unicode="&#x2074;" 
d="M0 525v38v3t1 3l81 209q1 2 2.5 3t3.5 1h68q2 0 3.5 -1.5t1.5 -3.5v-203h29q3 0 4 -1t1 -4v-44q0 -2 -1 -3.5t-4 -1.5h-29v-54q0 -2 -1.5 -3.5t-3.5 -1.5h-46q-3 0 -4 1.5t-1 3.5v54h-99q-3 0 -4.5 1.5t-1.5 3.5zM61 575h44v118z" />
    <glyph glyph-name="fivesuperior" unicode="&#x2075;" 
d="M20 556h56q2 0 3.5 -1.5t1.5 -4.5q1 -20 5 -27.5t11 -7.5q9 0 13 11.5t4 38.5q0 24 -4.5 36.5t-16.5 12.5q-7 0 -12 -4.5t-9 -12.5q-1 -2 -3 -3t-4 0l-43 11q-2 1 -3 2.5t-1 3.5l16 166q0 2 1.5 3.5t3.5 1.5h132q3 0 4 -1.5t1 -3.5v-50q0 -2 -1.5 -3.5t-4.5 -1.5h-85
l-5 -58q6 3 13 5t17 2q31 0 53.5 -24t22.5 -80t-25.5 -81t-63.5 -25q-40 0 -60.5 25.5t-21.5 64.5q0 2 1.5 3.5t3.5 1.5z" />
    <glyph glyph-name="sixsuperior" unicode="&#x2076;" 
d="M186 573q0 -53 -22.5 -82.5t-62.5 -29.5q-15 0 -30.5 6t-28 22t-20.5 45t-8 75q0 94 25.5 133.5t67.5 39.5q40 0 58 -28.5t18 -54.5q0 -3 -1.5 -4.5t-3.5 -1.5h-53q-3 0 -4.5 1.5t-1.5 4.5q0 14 -3.5 21.5t-11.5 7.5q-12 0 -15.5 -18.5t-4.5 -63.5q7 7 15 10.5t19 3.5
q31 0 49.5 -22t18.5 -65zM101 606q-8 0 -12 -9.5t-4 -28.5q0 -23 3 -38t13 -15t13 15t3 38q0 20 -4.5 29t-11.5 9z" />
    <glyph glyph-name="sevensuperior" unicode="&#x2077;" 
d="M19 727v50q0 2 1.5 3.5t3.5 1.5h152q2 0 3.5 -1.5t1.5 -3.5v-26v-6t-1 -5q-23 -69 -37 -134t-16 -140q0 -2 -1.5 -3.5t-3.5 -1.5h-66q-3 0 -4 1.5t-1 3.5q4 72 20.5 132.5t40.5 123.5h-88q-2 0 -3.5 1t-1.5 4z" />
    <glyph glyph-name="eightsuperior" unicode="&#x2078;" 
d="M100 461q-37 0 -65.5 24t-28.5 62q0 31 14.5 48.5t34.5 33.5q-16 13 -27 30.5t-11 42.5q0 36 23 58t60 22t60 -22t23 -58q0 -25 -10.5 -42.5t-26.5 -30.5q19 -15 33.5 -33t14.5 -49q0 -38 -27 -62t-67 -24zM100 661q10 7 15 20t5 27q0 12 -5 21t-15 9t-15 -9t-5 -21
q0 -14 5 -27t15 -20zM100 505q9 0 18 8.5t9 27.5q0 17 -7 31t-20 23q-12 -9 -19 -23t-7 -31q0 -19 9 -27.5t17 -8.5z" />
    <glyph glyph-name="ninesuperior" unicode="&#x2079;" 
d="M93 461q-40 0 -58 28.5t-18 54.5q0 3 1.5 4.5t3.5 1.5h53q3 0 4.5 -1.5t1.5 -4.5q0 -14 3.5 -21.5t11.5 -7.5q12 0 15.5 18.5t4.5 63.5q-7 -7 -15 -10.5t-19 -3.5q-31 0 -49.5 22t-18.5 65q0 53 22.5 82.5t62.5 29.5q15 0 30.5 -6t28 -22t20.5 -45t8 -75
q0 -94 -25.5 -133.5t-67.5 -39.5zM99 637q8 0 12 9.5t4 28.5q0 23 -3 38t-13 15t-13 -15t-3 -38q0 -20 4.5 -29t11.5 -9z" />
    <glyph glyph-name="parenleftsuperior" unicode="&#x207d;" horiz-adv-x="129" 
d="M101 820l17 -13q1 -1 2 -3t0 -4q-25 -42 -39.5 -90.5t-14.5 -88.5t14.5 -88.5t39.5 -90.5q1 -2 0 -4t-2 -3l-17 -13q-2 -1 -4.5 -0.5t-3.5 2.5q-29 42 -45.5 94t-16.5 103t16.5 103t45.5 94q1 2 3.5 2.5t4.5 -0.5z" />
    <glyph glyph-name="parenrightsuperior" unicode="&#x207e;" horiz-adv-x="129" 
d="M29 820q2 1 4.5 0.5t3.5 -2.5q29 -42 45.5 -94t16.5 -103t-16.5 -103t-45.5 -94q-1 -2 -3.5 -2.5t-4.5 0.5l-17 13q-1 1 -2 3t0 4q25 42 39.5 90.5t14.5 88.5t-14.5 88.5t-39.5 90.5q-1 2 0 4t2 3z" />
    <glyph glyph-name="zeroinferior" unicode="&#x2080;" 
d="M100 257q47 0 69 -39t22 -121t-22 -121.5t-69 -39.5t-69 39.5t-22 121.5t22 121t69 39zM100 203q-12 0 -17 -23.5t-5 -82.5q0 -60 5 -83.5t17 -23.5t17 23.5t5 83.5q0 59 -5 82.5t-17 23.5z" />
    <glyph glyph-name="oneinferior" unicode="&#x2081;" 
d="M62 -59v284q0 2 1.5 3.5l2.5 2.5q7 4 12 9.5t12 14.5q1 1 3 1.5t3 0.5h37q2 0 3.5 -1.5t1.5 -3.5v-311q0 -2 -1.5 -3.5t-3.5 -1.5h-66q-2 0 -3.5 1.5t-1.5 3.5z" />
    <glyph glyph-name="twoinferior" unicode="&#x2082;" 
d="M14 -59v33v3t1 3q15 26 32.5 50t32 47.5t24 46.5t9.5 47q0 9 -2.5 20.5t-12.5 11.5q-7 0 -11.5 -9t-5.5 -32q0 -3 -1 -4.5t-4 -1.5h-56q-2 0 -3 2t-1 4q1 39 22 67t65 28q40 0 59.5 -24.5t19.5 -58.5q0 -44 -25.5 -94t-55.5 -86h74q2 0 3.5 -1.5t1.5 -3.5v-48
q0 -2 -1.5 -3.5t-3.5 -1.5h-156q-3 0 -4 1.5t-1 3.5z" />
    <glyph glyph-name="threeinferior" unicode="&#x2083;" 
d="M100 -64q-43 0 -64.5 29.5t-21.5 58.5q0 3 1.5 4.5t3.5 1.5h54q3 0 4 -1.5t1 -4.5q0 -16 5.5 -25t13.5 -9t13.5 9t5.5 30t-11 32t-42 11q-2 0 -3.5 1.5t-1.5 3.5v44q0 2 1.5 3.5t4.5 1.5q30 0 40 13t10 35q0 15 -4.5 22t-12.5 7q-7 0 -11.5 -9t-4.5 -25q0 -2 -1.5 -3.5
t-3.5 -1.5h-54q-2 0 -3.5 1.5t-0.5 4.5q5 36 24 61.5t58 25.5q40 0 60 -24.5t20 -55.5q0 -18 -8.5 -39.5t-31.5 -34.5q26 -10 36 -31.5t10 -45.5q0 -43 -24.5 -66.5t-61.5 -23.5z" />
    <glyph glyph-name="fourinferior" unicode="&#x2084;" 
d="M0 0v38v3t1 3l81 209q1 2 2.5 3t3.5 1h68q2 0 3.5 -1.5t1.5 -3.5v-203h29q3 0 4 -1t1 -4v-44q0 -2 -1 -3.5t-4 -1.5h-29v-54q0 -2 -1.5 -3.5t-3.5 -1.5h-46q-3 0 -4 1.5t-1 3.5v54h-99q-3 0 -4.5 1.5t-1.5 3.5zM61 50h44v118z" />
    <glyph glyph-name="fiveinferior" unicode="&#x2085;" 
d="M20 31h56q2 0 3.5 -1.5t1.5 -4.5q1 -20 5 -27.5t11 -7.5q9 0 13 11.5t4 38.5q0 24 -4.5 36.5t-16.5 12.5q-7 0 -12 -4.5t-9 -12.5q-1 -2 -3 -3t-4 0l-43 11q-2 1 -3 2.5t-1 3.5l16 166q0 2 1.5 3.5t3.5 1.5h132q3 0 4 -1.5t1 -3.5v-50q0 -2 -1.5 -3.5t-4.5 -1.5h-85
l-5 -58q6 3 13 5t17 2q31 0 53.5 -24t22.5 -80t-25.5 -81t-63.5 -25q-40 0 -60.5 25.5t-21.5 64.5q0 2 1.5 3.5t3.5 1.5z" />
    <glyph glyph-name="sixinferior" unicode="&#x2086;" 
d="M186 48q0 -53 -22.5 -82.5t-62.5 -29.5q-15 0 -30.5 6t-28 22t-20.5 45t-8 75q0 94 25.5 133.5t67.5 39.5q40 0 58 -28.5t18 -54.5q0 -3 -1.5 -4.5t-3.5 -1.5h-53q-3 0 -4.5 1.5t-1.5 4.5q0 14 -3.5 21.5t-11.5 7.5q-12 0 -15.5 -18.5t-4.5 -63.5q7 7 15 10.5t19 3.5
q31 0 49.5 -22t18.5 -65zM101 81q-8 0 -12 -9.5t-4 -28.5q0 -23 3 -38t13 -15t13 15t3 38q0 20 -4.5 29t-11.5 9z" />
    <glyph glyph-name="seveninferior" unicode="&#x2087;" 
d="M19 202v50q0 2 1.5 3.5t3.5 1.5h152q2 0 3.5 -1.5t1.5 -3.5v-26v-6t-1 -5q-23 -69 -37 -134t-16 -140q0 -2 -1.5 -3.5t-3.5 -1.5h-66q-3 0 -4 1.5t-1 3.5q4 72 20.5 132.5t40.5 123.5h-88q-2 0 -3.5 1t-1.5 4z" />
    <glyph glyph-name="eightinferior" unicode="&#x2088;" 
d="M100 -64q-37 0 -65.5 24t-28.5 62q0 31 14.5 48.5t34.5 33.5q-16 13 -27 30.5t-11 42.5q0 36 23 58t60 22t60 -22t23 -58q0 -25 -10.5 -42.5t-26.5 -30.5q19 -15 33.5 -33t14.5 -49q0 -38 -27 -62t-67 -24zM100 136q10 7 15 20t5 27q0 12 -5 21t-15 9t-15 -9t-5 -21
q0 -14 5 -27t15 -20zM100 -20q9 0 18 8.5t9 27.5q0 17 -7 31t-20 23q-12 -9 -19 -23t-7 -31q0 -19 9 -27.5t17 -8.5z" />
    <glyph glyph-name="nineinferior" unicode="&#x2089;" 
d="M93 -64q-40 0 -58 28.5t-18 54.5q0 3 1.5 4.5t3.5 1.5h53q3 0 4.5 -1.5t1.5 -4.5q0 -14 3.5 -21.5t11.5 -7.5q12 0 15.5 18.5t4.5 63.5q-7 -7 -15 -10.5t-19 -3.5q-31 0 -49.5 22t-18.5 65q0 53 22.5 82.5t62.5 29.5q15 0 30.5 -6t28 -22t20.5 -45t8 -75
q0 -94 -25.5 -133.5t-67.5 -39.5zM99 112q8 0 12 9.5t4 28.5q0 23 -3 38t-13 15t-13 -15t-3 -38q0 -20 4.5 -29t11.5 -9z" />
    <glyph glyph-name="parenleftinferior" unicode="&#x208d;" horiz-adv-x="129" 
d="M101 295l17 -13q1 -1 2 -3t0 -4q-25 -42 -39.5 -90.5t-14.5 -88.5t14.5 -88.5t39.5 -90.5q1 -2 0 -4t-2 -3l-17 -13q-2 -1 -4.5 -0.5t-3.5 2.5q-29 42 -45.5 94t-16.5 103t16.5 103t45.5 94q1 2 3.5 2.5t4.5 -0.5z" />
    <glyph glyph-name="parenrightinferior" unicode="&#x208e;" horiz-adv-x="129" 
d="M29 295q2 1 4.5 0.5t3.5 -2.5q29 -42 45.5 -94t16.5 -103t-16.5 -103t-45.5 -94q-1 -2 -3.5 -2.5t-4.5 0.5l-17 13q-1 1 -2 3t0 4q25 42 39.5 90.5t14.5 88.5t-14.5 88.5t-39.5 90.5q-1 2 0 4t2 3z" />
    <glyph glyph-name="uni20A9" unicode="&#x20a9;" horiz-adv-x="605" 
d="M245 11q-1 -5 -3 -8t-7 -3h-119q-5 0 -7.5 3t-3.5 8l-30 318h-53q-6 0 -9 3t-3 9v48q0 6 3 9t9 3h46l-28 304q-1 6 1.5 9.5t6.5 3.5h91q4 0 7 -3t3 -8l20 -306h37l36 306q1 5 3.5 8t6.5 3h101q5 0 7.5 -3t3.5 -8l34 -306h37l23 306q1 5 3 8t7 3h90q4 0 6.5 -3.5t1.5 -9.5
l-28 -304h45q6 0 9 -3t3 -9v-48q0 -6 -3 -9t-9 -3h-51l-29 -318q-1 -5 -3.5 -8t-6.5 -3h-121q-4 0 -6.5 3t-3.5 8l-38 318h-40zM302 470l-9 -69h22l-8 69h-5zM181 225h4l12 104h-23zM418 224h3l8 105h-23z" />
    <glyph glyph-name="uni20AA" unicode="&#x20aa;" horiz-adv-x="624" 
d="M153 618v-606q0 -6 -2 -9t-7 -3h-98q-4 0 -6.5 3t-2.5 8v695q0 6 2.5 9t6.5 3h135q84 0 135 -20.5t78 -62.5t35.5 -108t8.5 -157v-159q0 -6 -2.5 -9t-6.5 -3h-84q-4 0 -6.5 3t-2.5 8v190q0 90 -10.5 135.5t-33 64t-57 18.5h-82.5zM293 506v-406q47 0 81.5 5t56.5 26
t32.5 65t10.5 122v389q0 5 2 8t7 3h95q4 0 6.5 -3t2.5 -9v-358q0 -91 -10 -157t-38.5 -108t-80.5 -62.5t-135 -20.5h-123q-4 0 -6.5 3t-2.5 9v495q0 5 2.5 8t6.5 3h85q4 0 6 -3t2 -9z" />
    <glyph glyph-name="Euro" unicode="&#x20ac;" horiz-adv-x="429" 
d="M421 179q-4 -83 -44 -138t-118 -55q-76 0 -126 65t-61 218h-50q-6 0 -9 3t-3 9v46q0 6 3 9t9 3h47v54h-47q-6 0 -9 3t-3 9v46q0 6 3 9t9 3h51q13 145 62 207t124 62q78 0 118 -55t44 -138q1 -7 -2.5 -10.5t-9.5 -3.5h-102q-5 0 -8 2.5t-4 8.5q-5 42 -12.5 66t-29.5 24
q-23 0 -35.5 -41t-16.5 -122h139q6 0 9 -3t3 -9v-46q0 -6 -3 -9t-9 -3h-141v-54h141q6 0 9 -3t3 -9v-46q0 -6 -3 -9t-9 -3h-139q3 -89 15 -133t37 -44q22 0 29.5 24t12.5 66q1 6 4 8.5t8 2.5h102q6 0 9.5 -3.5t2.5 -10.5z" />
    <glyph glyph-name="uni20B9" unicode="&#x20b9;" horiz-adv-x="429" 
d="M238 296l83 -283q1 -6 -1.5 -9.5t-9.5 -3.5h-120q-6 0 -9.5 3t-4.5 8l-87 347q-2 9 -0.5 13.5t10.5 4.5h14q36 0 55.5 25t23.5 62h-169q-6 0 -9 3t-3 9v46q0 6 3 9t9 3h167q-7 39 -29.5 57t-53.5 18h-85q-6 0 -9 3t-3 9v86q0 6 3 9t9 3h385q6 0 9 -3t3 -9v-86q0 -6 -3 -9
t-9 -3h-90q7 -16 12 -34.5t7 -40.5h71q6 0 9 -3t3 -9v-46q0 -6 -3 -9t-9 -3h-70q-5 -55 -29 -96.5t-70 -70.5z" />
    <glyph glyph-name="uni20BA" unicode="&#x20ba;" horiz-adv-x="423" 
d="M214 0h-119q-6 0 -9 3t-3 9v328l-61 -33q-6 -3 -9 -0.5t-3 8.5v41q0 9 1.5 12t8.5 7l63 34v56l-61 -33q-6 -3 -9 -0.5t-3 8.5v41q0 9 1.5 12t8.5 7l63 34v172q0 6 3 9t9 3h110q6 0 9 -3t3 -9v-99l81 44q6 3 9 0.5t3 -8.5v-41q0 -9 -1.5 -12t-8.5 -7l-83 -45v-56l81 44
q6 3 9 0.5t3 -8.5v-41q0 -9 -1.5 -12t-8.5 -7l-83 -45v-297q26 0 40.5 7.5t21.5 32.5t8.5 73.5t1.5 130.5q0 6 3 9t9 3h100q6 0 9 -3t3 -9q0 -81 -4.5 -148t-24 -114t-59.5 -72.5t-111 -25.5z" />
    <glyph glyph-name="uni20BD" unicode="&#x20bd;" horiz-adv-x="456" 
d="M222 158v-146q0 -6 -3 -9t-9 -3h-120q-6 0 -9 3t-3 9v146h-46q-6 0 -9 3t-3 9v46q0 6 3 9t9 3h46v57h-46q-6 0 -9 3t-3 9v67q0 6 3 9t9 3h46v330q0 6 3 9t9 3h125q113 0 167 -53t54 -163q0 -106 -46 -161.5t-133 -55.5h-35v-57h98q6 0 9 -3t3 -9v-46q0 -6 -3 -9t-9 -3
h-98zM223 602v-207q40 0 59.5 20t19.5 84q0 36 -6 57t-16 31t-24.5 12.5t-32.5 2.5z" />
    <glyph glyph-name="uni20BE" unicode="&#x20be;" horiz-adv-x="440" 
d="M425 12q0 -6 -3 -9t-9 -3h-384q-6 0 -9 3t-3 9v82q0 6 3 9t9 3h52q-32 36 -45 104t-13 149q0 165 43.5 251.5t106.5 110.5v85q0 6 3 9t9 3h26q6 0 9 -3t3 -9v-74h23v74q0 6 3 9t9 3h26q6 0 9 -3t3 -9v-86q34 -13 59.5 -39t43 -59.5t26.5 -73t9 -78.5q0 -6 -3 -9t-9 -3
h-76q-6 0 -9 3t-3 8q-1 42 -10.5 75.5t-27.5 54.5v-175q0 -6 -3 -9t-9 -3h-26q-6 0 -9 3t-3 9v204q-3 1 -6 1h-6h-5.5t-5.5 -1v-204q0 -6 -3 -9t-9 -3h-26q-6 0 -9 3t-3 9v172q-19 -28 -29.5 -85.5t-10.5 -151.5q0 -67 9.5 -116t33 -80.5t64 -46.5t101.5 -15h72q6 0 9 -3
t3 -9v-77z" />
    <glyph glyph-name="uni2117" unicode="&#x2117;" horiz-adv-x="766" 
d="M743 359q0 -84 -30.5 -153t-80.5 -117.5t-115 -75.5t-134 -27t-134 27t-115 75.5t-80.5 117.5t-30.5 153t30.5 153t80.5 117.5t115 75.5t134 27t134 -27t115 -75.5t80.5 -117.5t30.5 -153zM103 359q0 -66 23 -121.5t61.5 -94.5t89.5 -61t106 -22t106 22t89.5 61
t61.5 94.5t23 121.5t-23 121t-61.5 94t-89.5 60.5t-106 21.5t-106 -21.5t-89.5 -60.5t-61.5 -94t-23 -121zM306 206v309q0 3 1.5 4.5t2.5 1.5h61q52 0 82 -24t30 -73q0 -47 -21 -72t-62 -25h-30v-121q0 -3 -1.5 -4.5t-4.5 -1.5h-54q-1 0 -2.5 1.5t-1.5 4.5zM370 469v-92
q18 0 33.5 8.5t15.5 37.5q0 32 -16.5 39t-32.5 7z" />
    <glyph glyph-name="trademark" unicode="&#x2122;" horiz-adv-x="676" 
d="M385 351q0 -6 -2.5 -8.5t-6.5 -2.5h-66q-4 0 -6.5 2.5t-2.5 8.5v356q0 5 2.5 8t6.5 3h99q4 0 6.5 -2.5t3.5 -6.5l58 -221l57 221q1 4 4 6.5t7 2.5h97q5 0 8 -3t3 -8v-356q0 -6 -3 -8.5t-8 -2.5h-64q-5 0 -8 2.5t-3 8.5v227l-60 -229q-1 -5 -4 -7t-7 -2h-39q-4 0 -7 2
t-4 7l-61 227v-225zM86 351v291h-71q-5 0 -7.5 2.5t-2.5 8.5v54q0 5 2.5 8t7.5 3h241q5 0 8 -3t3 -8v-54q0 -6 -3 -8.5t-8 -2.5h-71v-291q0 -6 -2.5 -8.5t-7.5 -2.5h-78q-5 0 -8 2.5t-3 8.5z" />
    <glyph glyph-name="estimated" unicode="&#x212e;" horiz-adv-x="869" 
d="M186 120q0 -7 1.5 -12.5t5.5 -9.5q45 -45 108.5 -65.5t133.5 -20.5q74 0 138 33.5t113 87.5q3 4 6.5 5.5t7.5 1.5h44q7 0 9.5 -4.5t-2.5 -10.5q-56 -60 -139 -99.5t-178 -39.5q-85 0 -160 29.5t-130.5 80t-88 119t-32.5 144.5t32.5 144t88 119t130.5 80.5t160 29.5
t160.5 -29.5t131 -80.5t88 -119.5t32.5 -144.5q0 -6 -3 -9t-9 -3h-648v-226zM684 596q0 7 -1.5 12.5t-5.5 9.5q-45 45 -108.5 65.5t-133.5 20.5t-133.5 -20.5t-108.5 -65.5q-4 -4 -5.5 -9.5t-1.5 -12.5v-221h498v221z" />
    <glyph glyph-name="uni2150" unicode="&#x2150;" horiz-adv-x="400" 
d="M62 416v284q0 2 1.5 3.5l2.5 2.5q7 4 12 9.5t12 14.5q1 1 3 1.5t3 0.5h37q2 0 3.5 -1.5t1.5 -3.5v-311q0 -2 -1.5 -3.5t-3.5 -1.5h-66q-2 0 -3.5 1.5t-1.5 3.5zM333 732h31q4 0 4.5 -2.5t-0.5 -5.5l-311 -732q-1 -3 -3 -4.5t-5 -1.5h-33q-4 0 -4.5 2t0.5 5l312 733
q1 4 3.5 5t5.5 1zM229 252v50q0 2 1.5 3.5t3.5 1.5h152q2 0 3.5 -1.5t1.5 -3.5v-26v-6t-1 -5q-23 -69 -37 -134t-16 -140q0 -2 -1.5 -3.5t-3.5 -1.5h-66q-3 0 -4 1.5t-1 3.5q4 72 20.5 132.5t40.5 123.5h-88q-2 0 -3.5 1t-1.5 4z" />
    <glyph glyph-name="uni2151" unicode="&#x2151;" horiz-adv-x="400" 
d="M62 416v284q0 2 1.5 3.5l2.5 2.5q7 4 12 9.5t12 14.5q1 1 3 1.5t3 0.5h37q2 0 3.5 -1.5t1.5 -3.5v-311q0 -2 -1.5 -3.5t-3.5 -1.5h-66q-2 0 -3.5 1.5t-1.5 3.5zM343 732h31q4 0 4.5 -2.5t-0.5 -5.5l-311 -732q-1 -3 -3 -4.5t-5 -1.5h-33q-4 0 -4.5 2t0.5 5l312 733
q1 4 3.5 5t5.5 1zM293 -14q-40 0 -58 28.5t-18 54.5q0 3 1.5 4.5t3.5 1.5h53q3 0 4.5 -1.5t1.5 -4.5q0 -14 3.5 -21.5t11.5 -7.5q12 0 15.5 18.5t4.5 63.5q-7 -7 -15 -10.5t-19 -3.5q-31 0 -49.5 22t-18.5 65q0 53 22.5 82.5t62.5 29.5q15 0 30.5 -6t28 -22t20.5 -45t8 -75
q0 -94 -25.5 -133.5t-67.5 -39.5zM299 162q8 0 12 9.5t4 28.5q0 23 -3 38t-13 15t-13 -15t-3 -38q0 -20 4.5 -29t11.5 -9z" />
    <glyph glyph-name="uni2152" unicode="&#x2152;" horiz-adv-x="600" 
d="M62 416v284q0 2 1.5 3.5l2.5 2.5q7 4 12 9.5t12 14.5q1 1 3 1.5t3 0.5h37q2 0 3.5 -1.5t1.5 -3.5v-311q0 -2 -1.5 -3.5t-3.5 -1.5h-66q-2 0 -3.5 1.5t-1.5 3.5zM343 732h31q4 0 4.5 -2.5t-0.5 -5.5l-311 -732q-1 -3 -3 -4.5t-5 -1.5h-33q-4 0 -4.5 2t0.5 5l312 733
q1 4 3.5 5t5.5 1zM262 -9v284q0 2 1.5 3.5l2.5 2.5q7 4 12 9.5t12 14.5q1 1 3 1.5t3 0.5h37q2 0 3.5 -1.5t1.5 -3.5v-311q0 -2 -1.5 -3.5t-3.5 -1.5h-66q-2 0 -3.5 1.5t-1.5 3.5zM500 307q47 0 69 -39t22 -121t-22 -121.5t-69 -39.5t-69 39.5t-22 121.5t22 121t69 39z
M500 253q-12 0 -17 -23.5t-5 -82.5q0 -60 5 -83.5t17 -23.5t17 23.5t5 83.5q0 59 -5 82.5t-17 23.5z" />
    <glyph glyph-name="onethird" unicode="&#x2153;" horiz-adv-x="400" 
d="M62 416v284q0 2 1.5 3.5l2.5 2.5q7 4 12 9.5t12 14.5q1 1 3 1.5t3 0.5h37q2 0 3.5 -1.5t1.5 -3.5v-311q0 -2 -1.5 -3.5t-3.5 -1.5h-66q-2 0 -3.5 1.5t-1.5 3.5zM343 732h31q4 0 4.5 -2.5t-0.5 -5.5l-311 -732q-1 -3 -3 -4.5t-5 -1.5h-33q-4 0 -4.5 2t0.5 5l312 733
q1 4 3.5 5t5.5 1zM300 -14q-43 0 -64.5 29.5t-21.5 58.5q0 3 1.5 4.5t3.5 1.5h54q3 0 4 -1.5t1 -4.5q0 -16 5.5 -25t13.5 -9t13.5 9t5.5 30t-11 32t-42 11q-2 0 -3.5 1.5t-1.5 3.5v44q0 2 1.5 3.5t4.5 1.5q30 0 40 13t10 35q0 15 -4.5 22t-12.5 7q-7 0 -11.5 -9t-4.5 -25
q0 -2 -1.5 -3.5t-3.5 -1.5h-54q-2 0 -3.5 1.5t-0.5 4.5q5 36 24 61.5t58 25.5q40 0 60 -24.5t20 -55.5q0 -18 -8.5 -39.5t-31.5 -34.5q26 -10 36 -31.5t10 -45.5q0 -43 -24.5 -66.5t-61.5 -23.5z" />
    <glyph glyph-name="twothirds" unicode="&#x2154;" horiz-adv-x="400" 
d="M-6 416v33v3t1 3q15 26 32.5 50t32 47.5t24 46.5t9.5 47q0 9 -2.5 20.5t-12.5 11.5q-7 0 -11.5 -9t-5.5 -32q0 -3 -1 -4.5t-4 -1.5h-56q-2 0 -3 2t-1 4q1 39 22 67t65 28q40 0 59.5 -24.5t19.5 -58.5q0 -44 -25.5 -94t-55.5 -86h74q2 0 3.5 -1.5t1.5 -3.5v-48
q0 -2 -1.5 -3.5t-3.5 -1.5h-156q-3 0 -4 1.5t-1 3.5zM353 732h31q4 0 4.5 -2.5t-0.5 -5.5l-311 -732q-1 -3 -3 -4.5t-5 -1.5h-33q-4 0 -4.5 2t0.5 5l312 733q1 4 3.5 5t5.5 1zM300 -14q-43 0 -64.5 29.5t-21.5 58.5q0 3 1.5 4.5t3.5 1.5h54q3 0 4 -1.5t1 -4.5q0 -16 5.5 -25
t13.5 -9t13.5 9t5.5 30t-11 32t-42 11q-2 0 -3.5 1.5t-1.5 3.5v44q0 2 1.5 3.5t4.5 1.5q30 0 40 13t10 35q0 15 -4.5 22t-12.5 7q-7 0 -11.5 -9t-4.5 -25q0 -2 -1.5 -3.5t-3.5 -1.5h-54q-2 0 -3.5 1.5t-0.5 4.5q5 36 24 61.5t58 25.5q40 0 60 -24.5t20 -55.5
q0 -18 -8.5 -39.5t-31.5 -34.5q26 -10 36 -31.5t10 -45.5q0 -43 -24.5 -66.5t-61.5 -23.5z" />
    <glyph glyph-name="uni2155" unicode="&#x2155;" horiz-adv-x="400" 
d="M62 416v284q0 2 1.5 3.5l2.5 2.5q7 4 12 9.5t12 14.5q1 1 3 1.5t3 0.5h37q2 0 3.5 -1.5t1.5 -3.5v-311q0 -2 -1.5 -3.5t-3.5 -1.5h-66q-2 0 -3.5 1.5t-1.5 3.5zM333 732h31q4 0 4.5 -2.5t-0.5 -5.5l-311 -732q-1 -3 -3 -4.5t-5 -1.5h-33q-4 0 -4.5 2t0.5 5l312 733
q1 4 3.5 5t5.5 1zM220 81h56q2 0 3.5 -1.5t1.5 -4.5q1 -20 5 -27.5t11 -7.5q9 0 13 11.5t4 38.5q0 24 -4.5 36.5t-16.5 12.5q-7 0 -12 -4.5t-9 -12.5q-1 -2 -3 -3t-4 0l-43 11q-2 1 -3 2.5t-1 3.5l16 166q0 2 1.5 3.5t3.5 1.5h132q3 0 4 -1.5t1 -3.5v-50q0 -2 -1.5 -3.5
t-4.5 -1.5h-85l-5 -58q6 3 13 5t17 2q31 0 53.5 -24t22.5 -80t-25.5 -81t-63.5 -25q-40 0 -60.5 25.5t-21.5 64.5q0 2 1.5 3.5t3.5 1.5z" />
    <glyph glyph-name="uni2156" unicode="&#x2156;" horiz-adv-x="400" 
d="M4 416v33v3t1 3q15 26 32.5 50t32 47.5t24 46.5t9.5 47q0 9 -2.5 20.5t-12.5 11.5q-7 0 -11.5 -9t-5.5 -32q0 -3 -1 -4.5t-4 -1.5h-56q-2 0 -3 2t-1 4q1 39 22 67t65 28q40 0 59.5 -24.5t19.5 -58.5q0 -44 -25.5 -94t-55.5 -86h74q2 0 3.5 -1.5t1.5 -3.5v-48
q0 -2 -1.5 -3.5t-3.5 -1.5h-156q-3 0 -4 1.5t-1 3.5zM353 732h31q4 0 4.5 -2.5t-0.5 -5.5l-311 -732q-1 -3 -3 -4.5t-5 -1.5h-33q-4 0 -4.5 2t0.5 5l312 733q1 4 3.5 5t5.5 1zM220 81h56q2 0 3.5 -1.5t1.5 -4.5q1 -20 5 -27.5t11 -7.5q9 0 13 11.5t4 38.5q0 24 -4.5 36.5
t-16.5 12.5q-7 0 -12 -4.5t-9 -12.5q-1 -2 -3 -3t-4 0l-43 11q-2 1 -3 2.5t-1 3.5l16 166q0 2 1.5 3.5t3.5 1.5h132q3 0 4 -1.5t1 -3.5v-50q0 -2 -1.5 -3.5t-4.5 -1.5h-85l-5 -58q6 3 13 5t17 2q31 0 53.5 -24t22.5 -80t-25.5 -81t-63.5 -25q-40 0 -60.5 25.5t-21.5 64.5
q0 2 1.5 3.5t3.5 1.5z" />
    <glyph glyph-name="uni2157" unicode="&#x2157;" horiz-adv-x="400" 
d="M100 411q-43 0 -64.5 29.5t-21.5 58.5q0 3 1.5 4.5t3.5 1.5h54q3 0 4 -1.5t1 -4.5q0 -16 5.5 -25t13.5 -9t13.5 9t5.5 30t-11 32t-42 11q-2 0 -3.5 1.5t-1.5 3.5v44q0 2 1.5 3.5t4.5 1.5q30 0 40 13t10 35q0 15 -4.5 22t-12.5 7q-7 0 -11.5 -9t-4.5 -25q0 -2 -1.5 -3.5
t-3.5 -1.5h-54q-2 0 -3.5 1.5t-0.5 4.5q5 36 24 61.5t58 25.5q40 0 60 -24.5t20 -55.5q0 -18 -8.5 -39.5t-31.5 -34.5q26 -10 36 -31.5t10 -45.5q0 -43 -24.5 -66.5t-61.5 -23.5zM343 732h31q4 0 4.5 -2.5t-0.5 -5.5l-311 -732q-1 -3 -3 -4.5t-5 -1.5h-33q-4 0 -4.5 2t0.5 5
l312 733q1 4 3.5 5t5.5 1zM220 81h56q2 0 3.5 -1.5t1.5 -4.5q1 -20 5 -27.5t11 -7.5q9 0 13 11.5t4 38.5q0 24 -4.5 36.5t-16.5 12.5q-7 0 -12 -4.5t-9 -12.5q-1 -2 -3 -3t-4 0l-43 11q-2 1 -3 2.5t-1 3.5l16 166q0 2 1.5 3.5t3.5 1.5h132q3 0 4 -1.5t1 -3.5v-50
q0 -2 -1.5 -3.5t-4.5 -1.5h-85l-5 -58q6 3 13 5t17 2q31 0 53.5 -24t22.5 -80t-25.5 -81t-63.5 -25q-40 0 -60.5 25.5t-21.5 64.5q0 2 1.5 3.5t3.5 1.5z" />
    <glyph glyph-name="uni2158" unicode="&#x2158;" horiz-adv-x="400" 
d="M0 475v38v3t1 3l81 209q1 2 2.5 3t3.5 1h68q2 0 3.5 -1.5t1.5 -3.5v-203h29q3 0 4 -1t1 -4v-44q0 -2 -1 -3.5t-4 -1.5h-29v-54q0 -2 -1.5 -3.5t-3.5 -1.5h-46q-3 0 -4 1.5t-1 3.5v54h-99q-3 0 -4.5 1.5t-1.5 3.5zM353 732h31q4 0 4.5 -2.5t-0.5 -5.5l-311 -732
q-1 -3 -3 -4.5t-5 -1.5h-33q-4 0 -4.5 2t0.5 5l312 733q1 4 3.5 5t5.5 1zM61 525h44v118zM220 81h56q2 0 3.5 -1.5t1.5 -4.5q1 -20 5 -27.5t11 -7.5q9 0 13 11.5t4 38.5q0 24 -4.5 36.5t-16.5 12.5q-7 0 -12 -4.5t-9 -12.5q-1 -2 -3 -3t-4 0l-43 11q-2 1 -3 2.5t-1 3.5
l16 166q0 2 1.5 3.5t3.5 1.5h132q3 0 4 -1.5t1 -3.5v-50q0 -2 -1.5 -3.5t-4.5 -1.5h-85l-5 -58q6 3 13 5t17 2q31 0 53.5 -24t22.5 -80t-25.5 -81t-63.5 -25q-40 0 -60.5 25.5t-21.5 64.5q0 2 1.5 3.5t3.5 1.5z" />
    <glyph glyph-name="uni2159" unicode="&#x2159;" horiz-adv-x="400" 
d="M62 416v284q0 2 1.5 3.5l2.5 2.5q7 4 12 9.5t12 14.5q1 1 3 1.5t3 0.5h37q2 0 3.5 -1.5t1.5 -3.5v-311q0 -2 -1.5 -3.5t-3.5 -1.5h-66q-2 0 -3.5 1.5t-1.5 3.5zM343 732h31q4 0 4.5 -2.5t-0.5 -5.5l-311 -732q-1 -3 -3 -4.5t-5 -1.5h-33q-4 0 -4.5 2t0.5 5l312 733
q1 4 3.5 5t5.5 1zM386 98q0 -53 -22.5 -82.5t-62.5 -29.5q-15 0 -30.5 6t-28 22t-20.5 45t-8 75q0 94 25.5 133.5t67.5 39.5q40 0 58 -28.5t18 -54.5q0 -3 -1.5 -4.5t-3.5 -1.5h-53q-3 0 -4.5 1.5t-1.5 4.5q0 14 -3.5 21.5t-11.5 7.5q-12 0 -15.5 -18.5t-4.5 -63.5
q7 7 15 10.5t19 3.5q31 0 49.5 -22t18.5 -65zM301 131q-8 0 -12 -9.5t-4 -28.5q0 -23 3 -38t13 -15t13 15t3 38q0 20 -4.5 29t-11.5 9z" />
    <glyph glyph-name="uni215A" unicode="&#x215a;" horiz-adv-x="400" 
d="M20 506h56q2 0 3.5 -1.5t1.5 -4.5q1 -20 5 -27.5t11 -7.5q9 0 13 11.5t4 38.5q0 24 -4.5 36.5t-16.5 12.5q-7 0 -12 -4.5t-9 -12.5q-1 -2 -3 -3t-4 0l-43 11q-2 1 -3 2.5t-1 3.5l16 166q0 2 1.5 3.5t3.5 1.5h132q3 0 4 -1.5t1 -3.5v-50q0 -2 -1.5 -3.5t-4.5 -1.5h-85
l-5 -58q6 3 13 5t17 2q31 0 53.5 -24t22.5 -80t-25.5 -81t-63.5 -25q-40 0 -60.5 25.5t-21.5 64.5q0 2 1.5 3.5t3.5 1.5zM343 732h31q4 0 4.5 -2.5t-0.5 -5.5l-311 -732q-1 -3 -3 -4.5t-5 -1.5h-33q-4 0 -4.5 2t0.5 5l312 733q1 4 3.5 5t5.5 1zM386 98q0 -53 -22.5 -82.5
t-62.5 -29.5q-15 0 -30.5 6t-28 22t-20.5 45t-8 75q0 94 25.5 133.5t67.5 39.5q40 0 58 -28.5t18 -54.5q0 -3 -1.5 -4.5t-3.5 -1.5h-53q-3 0 -4.5 1.5t-1.5 4.5q0 14 -3.5 21.5t-11.5 7.5q-12 0 -15.5 -18.5t-4.5 -63.5q7 7 15 10.5t19 3.5q31 0 49.5 -22t18.5 -65zM301 131
q-8 0 -12 -9.5t-4 -28.5q0 -23 3 -38t13 -15t13 15t3 38q0 20 -4.5 29t-11.5 9z" />
    <glyph glyph-name="oneeighth" unicode="&#x215b;" horiz-adv-x="400" 
d="M62 416v284q0 2 1.5 3.5l2.5 2.5q7 4 12 9.5t12 14.5q1 1 3 1.5t3 0.5h37q2 0 3.5 -1.5t1.5 -3.5v-311q0 -2 -1.5 -3.5t-3.5 -1.5h-66q-2 0 -3.5 1.5t-1.5 3.5zM343 732h31q4 0 4.5 -2.5t-0.5 -5.5l-311 -732q-1 -3 -3 -4.5t-5 -1.5h-33q-4 0 -4.5 2t0.5 5l312 733
q1 4 3.5 5t5.5 1zM300 -14q-37 0 -65.5 24t-28.5 62q0 31 14.5 48.5t34.5 33.5q-16 13 -27 30.5t-11 42.5q0 36 23 58t60 22t60 -22t23 -58q0 -25 -10.5 -42.5t-26.5 -30.5q19 -15 33.5 -33t14.5 -49q0 -38 -27 -62t-67 -24zM300 186q10 7 15 20t5 27q0 12 -5 21t-15 9
t-15 -9t-5 -21q0 -14 5 -27t15 -20zM300 30q9 0 18 8.5t9 27.5q0 17 -7 31t-20 23q-12 -9 -19 -23t-7 -31q0 -19 9 -27.5t17 -8.5z" />
    <glyph glyph-name="threeeighths" unicode="&#x215c;" horiz-adv-x="400" 
d="M100 411q-43 0 -64.5 29.5t-21.5 58.5q0 3 1.5 4.5t3.5 1.5h54q3 0 4 -1.5t1 -4.5q0 -16 5.5 -25t13.5 -9t13.5 9t5.5 30t-11 32t-42 11q-2 0 -3.5 1.5t-1.5 3.5v44q0 2 1.5 3.5t4.5 1.5q30 0 40 13t10 35q0 15 -4.5 22t-12.5 7q-7 0 -11.5 -9t-4.5 -25q0 -2 -1.5 -3.5
t-3.5 -1.5h-54q-2 0 -3.5 1.5t-0.5 4.5q5 36 24 61.5t58 25.5q40 0 60 -24.5t20 -55.5q0 -18 -8.5 -39.5t-31.5 -34.5q26 -10 36 -31.5t10 -45.5q0 -43 -24.5 -66.5t-61.5 -23.5zM343 732h31q4 0 4.5 -2.5t-0.5 -5.5l-311 -732q-1 -3 -3 -4.5t-5 -1.5h-33q-4 0 -4.5 2t0.5 5
l312 733q1 4 3.5 5t5.5 1zM300 -14q-37 0 -65.5 24t-28.5 62q0 31 14.5 48.5t34.5 33.5q-16 13 -27 30.5t-11 42.5q0 36 23 58t60 22t60 -22t23 -58q0 -25 -10.5 -42.5t-26.5 -30.5q19 -15 33.5 -33t14.5 -49q0 -38 -27 -62t-67 -24zM300 186q10 7 15 20t5 27q0 12 -5 21
t-15 9t-15 -9t-5 -21q0 -14 5 -27t15 -20zM300 30q9 0 18 8.5t9 27.5q0 17 -7 31t-20 23q-12 -9 -19 -23t-7 -31q0 -19 9 -27.5t17 -8.5z" />
    <glyph glyph-name="fiveeighths" unicode="&#x215d;" horiz-adv-x="400" 
d="M20 506h56q2 0 3.5 -1.5t1.5 -4.5q1 -20 5 -27.5t11 -7.5q9 0 13 11.5t4 38.5q0 24 -4.5 36.5t-16.5 12.5q-7 0 -12 -4.5t-9 -12.5q-1 -2 -3 -3t-4 0l-43 11q-2 1 -3 2.5t-1 3.5l16 166q0 2 1.5 3.5t3.5 1.5h132q3 0 4 -1.5t1 -3.5v-50q0 -2 -1.5 -3.5t-4.5 -1.5h-85
l-5 -58q6 3 13 5t17 2q31 0 53.5 -24t22.5 -80t-25.5 -81t-63.5 -25q-40 0 -60.5 25.5t-21.5 64.5q0 2 1.5 3.5t3.5 1.5zM343 732h31q4 0 4.5 -2.5t-0.5 -5.5l-311 -732q-1 -3 -3 -4.5t-5 -1.5h-33q-4 0 -4.5 2t0.5 5l312 733q1 4 3.5 5t5.5 1zM300 -14q-37 0 -65.5 24
t-28.5 62q0 31 14.5 48.5t34.5 33.5q-16 13 -27 30.5t-11 42.5q0 36 23 58t60 22t60 -22t23 -58q0 -25 -10.5 -42.5t-26.5 -30.5q19 -15 33.5 -33t14.5 -49q0 -38 -27 -62t-67 -24zM300 186q10 7 15 20t5 27q0 12 -5 21t-15 9t-15 -9t-5 -21q0 -14 5 -27t15 -20zM300 30
q9 0 18 8.5t9 27.5q0 17 -7 31t-20 23q-12 -9 -19 -23t-7 -31q0 -19 9 -27.5t17 -8.5z" />
    <glyph glyph-name="seveneighths" unicode="&#x215e;" horiz-adv-x="400" 
d="M29 677v50q0 2 1.5 3.5t3.5 1.5h152q2 0 3.5 -1.5t1.5 -3.5v-26v-6t-1 -5q-23 -69 -37 -134t-16 -140q0 -2 -1.5 -3.5t-3.5 -1.5h-66q-3 0 -4 1.5t-1 3.5q4 72 20.5 132.5t40.5 123.5h-88q-2 0 -3.5 1t-1.5 4zM343 732h31q4 0 4.5 -2.5t-0.5 -5.5l-311 -732
q-1 -3 -3 -4.5t-5 -1.5h-33q-4 0 -4.5 2t0.5 5l312 733q1 4 3.5 5t5.5 1zM300 -14q-37 0 -65.5 24t-28.5 62q0 31 14.5 48.5t34.5 33.5q-16 13 -27 30.5t-11 42.5q0 36 23 58t60 22t60 -22t23 -58q0 -25 -10.5 -42.5t-26.5 -30.5q19 -15 33.5 -33t14.5 -49q0 -38 -27 -62
t-67 -24zM300 186q10 7 15 20t5 27q0 12 -5 21t-15 9t-15 -9t-5 -21q0 -14 5 -27t15 -20zM300 30q9 0 18 8.5t9 27.5q0 17 -7 31t-20 23q-12 -9 -19 -23t-7 -31q0 -19 9 -27.5t17 -8.5z" />
    <glyph glyph-name="uni215F" unicode="&#x215f;" horiz-adv-x="400" 
d="M62 416v284q0 2 1.5 3.5l2.5 2.5q7 4 12 9.5t12 14.5q1 1 3 1.5t3 0.5h37q2 0 3.5 -1.5t1.5 -3.5v-311q0 -2 -1.5 -3.5t-3.5 -1.5h-66q-2 0 -3.5 1.5t-1.5 3.5zM343 732h31q4 0 4.5 -2.5t-0.5 -5.5l-311 -732q-1 -3 -3 -4.5t-5 -1.5h-33q-4 0 -4.5 2t0.5 5l312 733
q1 4 3.5 5t5.5 1z" />
    <glyph glyph-name="arrowleft" unicode="&#x2190;" horiz-adv-x="590" 
d="M363 401h204q6 0 9 -3t3 -9v-46q0 -6 -3 -9t-9 -3h-204v-167q0 -8 -6 -11.5t-13 0.5l-326 203q-7 4 -7 10t7 10l326 202q7 4 13 0.5t6 -11.5v-166z" />
    <glyph glyph-name="arrowup" unicode="&#x2191;" horiz-adv-x="590" 
d="M332 290v-204q0 -6 -3 -9t-9 -3h-46q-6 0 -9 3t-3 9v204h-167q-9 0 -12.5 6t0.5 13l204 326q4 7 10 7t10 -7l202 -326q4 -7 0.5 -13t-11.5 -6h-166z" />
    <glyph glyph-name="arrowright" unicode="&#x2192;" horiz-adv-x="590" 
d="M11 389q0 6 3 9t9 3h204v166q0 8 6 11.5t13 -0.5l326 -202q7 -4 7 -10t-7 -10l-326 -203q-7 -4 -13 -0.5t-6 11.5v167h-204q-6 0 -9 3t-3 9v46z" />
    <glyph glyph-name="arrowdown" unicode="&#x2193;" horiz-adv-x="590" 
d="M320 658q6 0 9 -3t3 -9v-204h166q8 0 11.5 -6t-0.5 -13l-202 -326q-4 -7 -10 -7t-10 7l-204 326q-4 7 -0.5 13t12.5 6h167v204q0 6 3 9t9 3h46z" />
    <glyph glyph-name="partialdiff" unicode="&#x2202;" horiz-adv-x="400" 
d="M172 0q-38 0 -67.5 19.5t-49 52t-30 75t-10.5 88.5q0 64 14 115t38 85.5t54.5 53t63.5 18.5q30 0 51.5 -12.5t31.5 -25.5v10q0 41 -8 81.5t-21.5 72t-33.5 51.5t-44 20q-25 0 -45.5 -13t-36.5 -31q-5 -5 -10 -4t-6 8l-23 80q-1 4 -0.5 8t4.5 8q19 16 51 32t81 16
q39 0 76.5 -21t67 -66.5t47.5 -117.5t18 -173q0 -210 -55.5 -320t-157.5 -110zM133 227q0 -53 14 -86.5t36 -33.5q16 0 29.5 21.5t23.5 55t16.5 75.5t8.5 83q-5 23 -20 42.5t-38 19.5q-15 0 -28 -15t-22 -40t-14.5 -57t-5.5 -65z" />
    <glyph glyph-name="product" unicode="&#x220f;" horiz-adv-x="522" 
d="M500 602h-54v-590q0 -6 -3 -9t-9 -3h-97q-6 0 -9 3t-3 9v590h-128v-590q0 -6 -3 -9t-9 -3h-97q-6 0 -9 3t-3 9v590h-54q-6 0 -9 3t-3 9v92q0 6 3 9t9 3h478q6 0 9 -3t3 -9v-92q0 -6 -3 -9t-9 -3z" />
    <glyph glyph-name="summation" unicode="&#x2211;" horiz-adv-x="400" 
d="M379 0h-358q-6 0 -9 3t-3 9v72q0 4 1 7.5t3 7.5l162 264l-159 237q-2 4 -3 7.5t-1 7.5v91q0 6 3 9t9 3h343q6 0 9 -3t3 -9v-92q0 -6 -3 -9t-9 -3h-206l144 -222q3 -4 3 -12t-3 -12l-151 -240h225q6 0 9 -3t3 -9v-92q0 -6 -3 -9t-9 -3z" />
    <glyph glyph-name="minus" unicode="&#x2212;" horiz-adv-x="400" 
d="M337 331h-274q-6 0 -9 3t-3 9v46q0 6 3 9t9 3h274q6 0 9 -3t3 -9v-46q0 -6 -3 -9t-9 -3z" />
    <glyph glyph-name="radical" unicode="&#x221a;" horiz-adv-x="454" 
d="M331 718h75q7 0 9.5 -3.5t1.5 -9.5l-133 -694q-1 -5 -4 -8t-9 -3h-85q-5 0 -8.5 2.5t-4.5 7.5l-88 307h-62q-6 0 -9 3t-3 9v78q0 6 3 9t9 3h122q7 0 11.5 -2.5t5.5 -8.5l57 -211h8l91 510q1 5 4 8t9 3z" />
    <glyph glyph-name="infinity" unicode="&#x221e;" horiz-adv-x="400" 
d="M295 408q38 0 64.5 -32.5t26.5 -84.5q0 -56 -29 -89t-65 -33q-23 0 -44 15t-46 57q-19 -30 -41 -51t-53 -21q-37 0 -65.5 33.5t-28.5 85.5t28 86t71 34q28 0 49 -20t40 -51q16 22 37 46.5t56 24.5zM82 287q0 -21 10 -34t24 -13q13 0 23 13.5t22 31.5q-13 22 -22.5 37.5
t-25.5 15.5q-14 0 -22.5 -14.5t-8.5 -36.5zM319 287q0 22 -8.5 36.5t-22.5 14.5t-24.5 -17.5t-20.5 -30.5q16 -28 25.5 -39t22.5 -11t20.5 16t7.5 31z" />
    <glyph glyph-name="integral" unicode="&#x222b;" horiz-adv-x="312" 
d="M247 818q14 0 26.5 -2.5t19.5 -4.5t8.5 -6t1.5 -9v-59q0 -6 -3 -9t-9 -3h-31q-31 0 -40.5 -25t-9.5 -74v-555q0 -31 -8.5 -62t-27 -55t-47.5 -39t-70 -15q-14 0 -27.5 2.5t-20.5 4.5t-8.5 6t-1.5 9v59q0 6 3 9t9 3h33q30 0 39 19t9 56v568q0 37 7 70t24.5 58t47.5 39.5
t76 14.5z" />
    <glyph glyph-name="approxequal" unicode="&#x2248;" horiz-adv-x="400" 
d="M330 505l31 -15q10 -4 12.5 -9t-0.5 -13q-16 -49 -46.5 -69.5t-60.5 -20.5q-20 0 -37 7t-32.5 15t-29.5 15t-27 7t-26 -6.5t-23 -29.5q-4 -8 -9 -10.5t-12 1.5l-31 15q-10 4 -12.5 9t0.5 13q16 49 46.5 69.5t60.5 20.5q20 0 37 -7t32 -15t29 -15t28 -7q13 0 26 6.5
t23 29.5q4 8 9 10.5t12 -1.5zM330 361l31 -15q10 -4 12.5 -9t-0.5 -13q-16 -49 -46.5 -69.5t-60.5 -20.5q-20 0 -37 7t-32.5 15t-29.5 15t-27 7t-26 -6.5t-23 -29.5q-4 -8 -9 -10.5t-12 1.5l-31 15q-10 4 -12.5 9t0.5 13q16 49 46.5 69.5t60.5 20.5q20 0 37 -7t32 -15
t29 -15t28 -7q13 0 26 6.5t23 29.5q4 8 9 10.5t12 -1.5z" />
    <glyph glyph-name="notequal" unicode="&#x2260;" horiz-adv-x="400" 
d="M141 210q-4 -7 -8 -8.5t-11 -1.5h-44q-5 0 -6.5 4t2.5 10l27 45h-38q-6 0 -9 3t-3 9v46q0 6 3 9t9 3h80l44 74h-124q-6 0 -9 3t-3 9v46q0 6 3 9t9 3h166l29 49q4 7 8 8.5t11 1.5h45q6 0 7 -4t-3 -10l-27 -45h38q6 0 9 -3t3 -9v-46q0 -6 -3 -9t-9 -3h-80l-45 -74h125
q6 0 9 -3t3 -9v-46q0 -6 -3 -9t-9 -3h-167z" />
    <glyph glyph-name="lessequal" unicode="&#x2264;" horiz-adv-x="400" 
d="M340 454l-190 -86v-4l190 -86q4 -2 6.5 -5.5t2.5 -8.5v-57q0 -7 -4.5 -9t-9.5 0l-275 123q-4 1 -6.5 5t-2.5 9v62q0 5 2.5 9t6.5 5l275 123q5 2 9.5 0t4.5 -9v-57q0 -5 -2.5 -8.5t-6.5 -5.5zM337 100h-274q-6 0 -9 3t-3 9v46q0 6 3 9t9 3h274q6 0 9 -3t3 -9v-46
q0 -6 -3 -9t-9 -3z" />
    <glyph glyph-name="greaterequal" unicode="&#x2265;" horiz-adv-x="400" 
d="M60 454q-4 2 -6.5 5.5t-2.5 8.5v57q0 7 4.5 9t9.5 0l275 -123q4 -1 6.5 -5t2.5 -9v-62q0 -5 -2.5 -9t-6.5 -5l-275 -123q-5 -2 -9.5 0t-4.5 9v57q0 5 2.5 8.5t6.5 5.5l190 86v4zM337 100h-274q-6 0 -9 3t-3 9v46q0 6 3 9t9 3h274q6 0 9 -3t3 -9v-46q0 -6 -3 -9t-9 -3z
" />
    <glyph glyph-name="uni25B4" unicode="&#x25b4;" horiz-adv-x="460" 
d="M29 178q-8 0 -11.5 6t0.5 13l203 326q4 7 10 7t10 -7l203 -326q4 -7 0.5 -13t-11.5 -6h-404z" />
    <glyph glyph-name="uni25B5" unicode="&#x25b5;" horiz-adv-x="460" 
d="M29 178q-8 0 -11.5 6t0.5 13l203 326q4 7 10 7t10 -7l203 -326q4 -7 0.5 -13t-11.5 -6h-404zM231 405l-97 -157h194z" />
    <glyph glyph-name="uni25B8" unicode="&#x25b8;" horiz-adv-x="460" 
d="M54 164v403q0 8 6 11.5t13 -0.5l326 -202q7 -4 7 -10t-7 -10l-326 -203q-7 -4 -13 -0.5t-6 11.5z" />
    <glyph glyph-name="uni25B9" unicode="&#x25b9;" horiz-adv-x="460" 
d="M54 567q0 8 6 11.5t13 -0.5l326 -202q7 -4 7 -10t-7 -10l-326 -203q-7 -4 -13 -0.5t-6 11.5v403zM281 366l-157 97v-194z" />
    <glyph glyph-name="uni25BE" unicode="&#x25be;" horiz-adv-x="460" 
d="M221 196l-203 326q-4 7 -0.5 13t11.5 6h404q8 0 11.5 -6t-0.5 -13l-203 -326q-4 -7 -10 -7t-10 7z" />
    <glyph glyph-name="uni25BF" unicode="&#x25bf;" horiz-adv-x="460" 
d="M18 522q-4 7 -0.5 13t11.5 6h404q8 0 11.5 -6t-0.5 -13l-203 -326q-4 -7 -10 -7t-10 7zM231 314l97 157h-194z" />
    <glyph glyph-name="uni25C2" unicode="&#x25c2;" horiz-adv-x="460" 
d="M61 376l326 202q7 4 13 0.5t6 -11.5v-403q0 -8 -6 -11.5t-13 0.5l-326 203q-7 4 -7 10t7 10z" />
    <glyph glyph-name="uni25C3" unicode="&#x25c3;" horiz-adv-x="460" 
d="M387 578q7 4 13 0.5t6 -11.5v-403q0 -8 -6 -11.5t-13 0.5l-326 203q-7 4 -7 10t7 10zM179 366l157 -97v194z" />
    <glyph glyph-name="lozenge" unicode="&#x25ca;" horiz-adv-x="400" 
d="M391 346l-141 -336q-2 -5 -5 -7.5t-8 -2.5h-82q-5 0 -8 2.5t-5 7.5l-132 336q-1 4 -1 8t1 8l141 346q2 5 5 7.5t8 2.5h82q5 0 8 -2.5t5 -7.5l132 -346q1 -4 1 -8t-1 -8zM190 171q3 -7 5 -14.5t3 -14.5q1 7 3.5 14.5t5.5 14.5l77 181l-71 186l-6 16t-4 15q-2 -7 -4.5 -15
t-6.5 -16l-75 -181z" />
    <glyph glyph-name="heart" unicode="&#x2665;" horiz-adv-x="859" 
d="M430 595q36 81 91.5 109t115.5 28q37 0 74.5 -14t67.5 -41.5t48.5 -68t18.5 -92.5q0 -93 -51.5 -153.5t-118 -110.5t-131 -101.5t-89.5 -126.5q-4 -11 -9 -17.5t-17 -6.5q-13 0 -18 6.5t-9 17.5q-25 75 -89.5 126.5t-131 101.5t-118 110.5t-51.5 153.5q0 52 18.5 92.5
t48.5 68t67.5 41.5t74.5 14q62 0 117 -28t91 -109z" />
    <glyph glyph-name="uni2780" unicode="&#x2780;" horiz-adv-x="766" 
d="M383 -14q-69 0 -134 27t-115 75.5t-80.5 117.5t-30.5 153t30.5 153t80.5 117.5t115 75.5t134 27t134 -27t115 -75.5t80.5 -117.5t30.5 -153t-30.5 -153t-80.5 -117.5t-115 -75.5t-134 -27zM383 60q55 0 106 22t89.5 61t61.5 94.5t23 121.5t-23 121t-61.5 94t-89.5 60.5
t-106 21.5t-106 -21.5t-89.5 -60.5t-61.5 -94t-23 -121t23 -121.5t61.5 -94.5t89.5 -61t106 -22zM345 204v284q0 2 1.5 3.5l2.5 2.5q7 4 12 9.5t12 14.5q1 1 3 1.5t3 0.5h34q2 0 3.5 -1.5t1.5 -3.5v-311q0 -2 -1.5 -3.5t-3.5 -1.5h-63q-2 0 -3.5 1.5t-1.5 3.5z" />
    <glyph glyph-name="uni2781" unicode="&#x2781;" horiz-adv-x="766" 
d="M383 -14q-69 0 -134 27t-115 75.5t-80.5 117.5t-30.5 153t30.5 153t80.5 117.5t115 75.5t134 27t134 -27t115 -75.5t80.5 -117.5t30.5 -153t-30.5 -153t-80.5 -117.5t-115 -75.5t-134 -27zM383 60q55 0 106 22t89.5 61t61.5 94.5t23 121.5t-23 121t-61.5 94t-89.5 60.5
t-106 21.5t-106 -21.5t-89.5 -60.5t-61.5 -94t-23 -121t23 -121.5t61.5 -94.5t89.5 -61t106 -22zM295 204v33v3t1 3q15 26 32.5 50t32 47.5t24 46.5t9.5 47q0 9 -2.5 20.5t-12.5 11.5q-7 0 -11.5 -9t-5.5 -32q0 -3 -1 -4.5t-4 -1.5h-56q-2 0 -3 2t-1 4q1 39 22 67t65 28
q40 0 61 -24.5t21 -58.5q0 -44 -27 -94t-57 -86h80q2 0 3.5 -1.5t1.5 -3.5v-48q0 -2 -1.5 -3.5t-3.5 -1.5h-162q-3 0 -4 1.5t-1 3.5z" />
    <glyph glyph-name="uni2782" unicode="&#x2782;" horiz-adv-x="766" 
d="M383 -14q-69 0 -134 27t-115 75.5t-80.5 117.5t-30.5 153t30.5 153t80.5 117.5t115 75.5t134 27t134 -27t115 -75.5t80.5 -117.5t30.5 -153t-30.5 -153t-80.5 -117.5t-115 -75.5t-134 -27zM383 60q55 0 106 22t89.5 61t61.5 94.5t23 121.5t-23 121t-61.5 94t-89.5 60.5
t-106 21.5t-106 -21.5t-89.5 -60.5t-61.5 -94t-23 -121t23 -121.5t61.5 -94.5t89.5 -61t106 -22zM380 199q-43 0 -64.5 29.5t-21.5 58.5q0 3 1.5 4.5t3.5 1.5h54q3 0 4 -1.5t1 -4.5q0 -16 5.5 -25t13.5 -9t13.5 9t5.5 30t-11 32t-42 11q-2 0 -3.5 1.5t-1.5 3.5v44
q0 2 1.5 3.5t4.5 1.5q30 0 40 13t10 35q0 15 -4.5 22t-12.5 7q-7 0 -11.5 -9t-4.5 -25q0 -2 -1.5 -3.5t-3.5 -1.5h-54q-2 0 -3.5 1.5t-0.5 4.5q5 36 24 61.5t58 25.5q40 0 60 -24.5t20 -55.5q0 -18 -8.5 -39.5t-31.5 -34.5q26 -10 36 -31.5t10 -45.5q0 -43 -24.5 -66.5
t-61.5 -23.5z" />
    <glyph glyph-name="uni2783" unicode="&#x2783;" horiz-adv-x="766" 
d="M383 -14q-69 0 -134 27t-115 75.5t-80.5 117.5t-30.5 153t30.5 153t80.5 117.5t115 75.5t134 27t134 -27t115 -75.5t80.5 -117.5t30.5 -153t-30.5 -153t-80.5 -117.5t-115 -75.5t-134 -27zM383 60q55 0 106 22t89.5 61t61.5 94.5t23 121.5t-23 121t-61.5 94t-89.5 60.5
t-106 21.5t-106 -21.5t-89.5 -60.5t-61.5 -94t-23 -121t23 -121.5t61.5 -94.5t89.5 -61t106 -22zM270 263v38v3t1 3l81 209q1 2 2.5 3t3.5 1h68q2 0 3.5 -1.5t1.5 -3.5v-203h29q3 0 4 -1t1 -4v-44q0 -2 -1 -3.5t-4 -1.5h-29v-54q0 -2 -1.5 -3.5t-3.5 -1.5h-46q-3 0 -4 1.5
t-1 3.5v54h-99q-3 0 -4.5 1.5t-1.5 3.5zM331 313h44v118z" />
    <glyph glyph-name="uni2784" unicode="&#x2784;" horiz-adv-x="766" 
d="M383 -14q-69 0 -134 27t-115 75.5t-80.5 117.5t-30.5 153t30.5 153t80.5 117.5t115 75.5t134 27t134 -27t115 -75.5t80.5 -117.5t30.5 -153t-30.5 -153t-80.5 -117.5t-115 -75.5t-134 -27zM383 60q55 0 106 22t89.5 61t61.5 94.5t23 121.5t-23 121t-61.5 94t-89.5 60.5
t-106 21.5t-106 -21.5t-89.5 -60.5t-61.5 -94t-23 -121t23 -121.5t61.5 -94.5t89.5 -61t106 -22zM303 294h56q2 0 3.5 -1.5t1.5 -4.5q1 -20 5 -27.5t11 -7.5q9 0 13 11.5t4 38.5q0 24 -4.5 36.5t-16.5 12.5q-7 0 -12 -4.5t-9 -12.5q-1 -2 -3 -3t-4 0l-43 11q-2 1 -3 2.5
t-1 3.5l16 166q0 2 1.5 3.5t3.5 1.5h132q3 0 4 -1.5t1 -3.5v-50q0 -2 -1.5 -3.5t-4.5 -1.5h-85l-5 -58q6 3 13 5t17 2q31 0 53.5 -24t22.5 -80t-25.5 -81t-63.5 -25q-40 0 -60.5 25.5t-21.5 64.5q0 2 1.5 3.5t3.5 1.5z" />
    <glyph glyph-name="uni2785" unicode="&#x2785;" horiz-adv-x="766" 
d="M383 -14q-69 0 -134 27t-115 75.5t-80.5 117.5t-30.5 153t30.5 153t80.5 117.5t115 75.5t134 27t134 -27t115 -75.5t80.5 -117.5t30.5 -153t-30.5 -153t-80.5 -117.5t-115 -75.5t-134 -27zM383 60q55 0 106 22t89.5 61t61.5 94.5t23 121.5t-23 121t-61.5 94t-89.5 60.5
t-106 21.5t-106 -21.5t-89.5 -60.5t-61.5 -94t-23 -121t23 -121.5t61.5 -94.5t89.5 -61t106 -22zM469 311q0 -53 -22.5 -82.5t-62.5 -29.5q-15 0 -30.5 6t-28 22t-20.5 45t-8 75q0 94 25.5 133.5t67.5 39.5q40 0 58 -28.5t18 -54.5q0 -3 -1.5 -4.5t-3.5 -1.5h-53
q-3 0 -4.5 1.5t-1.5 4.5q0 14 -3.5 21.5t-11.5 7.5q-12 0 -15.5 -18.5t-4.5 -63.5q7 7 15 10.5t19 3.5q31 0 49.5 -22t18.5 -65zM384 344q-8 0 -12 -9.5t-4 -28.5q0 -23 3 -38t13 -15t13 15t3 38q0 20 -4.5 29t-11.5 9z" />
    <glyph glyph-name="uni2786" unicode="&#x2786;" horiz-adv-x="766" 
d="M383 -14q-69 0 -134 27t-115 75.5t-80.5 117.5t-30.5 153t30.5 153t80.5 117.5t115 75.5t134 27t134 -27t115 -75.5t80.5 -117.5t30.5 -153t-30.5 -153t-80.5 -117.5t-115 -75.5t-134 -27zM383 60q55 0 106 22t89.5 61t61.5 94.5t23 121.5t-23 121t-61.5 94t-89.5 60.5
t-106 21.5t-106 -21.5t-89.5 -60.5t-61.5 -94t-23 -121t23 -121.5t61.5 -94.5t89.5 -61t106 -22zM302 465v50q0 2 1.5 3.5t3.5 1.5h152q2 0 3.5 -1.5t1.5 -3.5v-26v-6t-1 -5q-23 -69 -37 -134t-16 -140q0 -2 -1.5 -3.5t-3.5 -1.5h-66q-3 0 -4 1.5t-1 3.5q4 72 20.5 132.5
t40.5 123.5h-88q-2 0 -3.5 1t-1.5 4z" />
    <glyph glyph-name="uni2787" unicode="&#x2787;" horiz-adv-x="766" 
d="M383 -14q-69 0 -134 27t-115 75.5t-80.5 117.5t-30.5 153t30.5 153t80.5 117.5t115 75.5t134 27t134 -27t115 -75.5t80.5 -117.5t30.5 -153t-30.5 -153t-80.5 -117.5t-115 -75.5t-134 -27zM383 60q55 0 106 22t89.5 61t61.5 94.5t23 121.5t-23 121t-61.5 94t-89.5 60.5
t-106 21.5t-106 -21.5t-89.5 -60.5t-61.5 -94t-23 -121t23 -121.5t61.5 -94.5t89.5 -61t106 -22zM477 285q0 -38 -27 -62t-67 -24q-37 0 -65.5 24t-28.5 62q0 31 14.5 48.5t34.5 33.5q-16 13 -27 30.5t-11 42.5q0 36 23 58t60 22t60 -22t23 -58q0 -25 -10.5 -42.5
t-26.5 -30.5q19 -15 33.5 -33t14.5 -49zM363 446q0 -14 5 -27t15 -20q10 7 15 20t5 27q0 12 -5 21t-15 9t-15 -9t-5 -21zM357 279q0 -19 9 -27.5t17 -8.5q9 0 18 8.5t9 27.5q0 17 -7 31t-20 23q-12 -9 -19 -23t-7 -31z" />
    <glyph glyph-name="uni2788" unicode="&#x2788;" horiz-adv-x="766" 
d="M383 -14q-69 0 -134 27t-115 75.5t-80.5 117.5t-30.5 153t30.5 153t80.5 117.5t115 75.5t134 27t134 -27t115 -75.5t80.5 -117.5t30.5 -153t-30.5 -153t-80.5 -117.5t-115 -75.5t-134 -27zM383 60q55 0 106 22t89.5 61t61.5 94.5t23 121.5t-23 121t-61.5 94t-89.5 60.5
t-106 21.5t-106 -21.5t-89.5 -60.5t-61.5 -94t-23 -121t23 -121.5t61.5 -94.5t89.5 -61t106 -22zM376 199q-40 0 -58 28.5t-18 54.5q0 3 1.5 4.5t3.5 1.5h53q3 0 4.5 -1.5t1.5 -4.5q0 -14 3.5 -21.5t11.5 -7.5q12 0 15.5 18.5t4.5 63.5q-7 -7 -15 -10.5t-19 -3.5
q-31 0 -49.5 22t-18.5 65q0 53 22.5 82.5t62.5 29.5q15 0 30.5 -6t28 -22t20.5 -45t8 -75q0 -94 -25.5 -133.5t-67.5 -39.5zM382 375q8 0 12 9.5t4 28.5q0 23 -3 38t-13 15t-13 -15t-3 -38q0 -20 4.5 -29t11.5 -9z" />
    <glyph glyph-name="uni2789" unicode="&#x2789;" horiz-adv-x="766" 
d="M383 -14q-69 0 -134 27t-115 75.5t-80.5 117.5t-30.5 153t30.5 153t80.5 117.5t115 75.5t134 27t134 -27t115 -75.5t80.5 -117.5t30.5 -153t-30.5 -153t-80.5 -117.5t-115 -75.5t-134 -27zM383 60q55 0 106 22t89.5 61t61.5 94.5t23 121.5t-23 121t-61.5 94t-89.5 60.5
t-106 21.5t-106 -21.5t-89.5 -60.5t-61.5 -94t-23 -121t23 -121.5t61.5 -94.5t89.5 -61t106 -22zM243 204v284q0 2 1.5 3.5l2.5 2.5q7 4 12 9.5t12 14.5q1 1 3 1.5t3 0.5h34q2 0 3.5 -1.5t1.5 -3.5v-311q0 -2 -1.5 -3.5t-3.5 -1.5h-63q-2 0 -3.5 1.5t-1.5 3.5zM364 360
q0 82 22 121t69 39t69 -39t22 -121t-22 -121.5t-69 -39.5t-69 39.5t-22 121.5zM477 360q0 59 -5 82.5t-17 23.5t-17 -23.5t-5 -82.5q0 -60 5 -83.5t17 -23.5t17 23.5t5 83.5z" />
    <glyph glyph-name="uni278A" unicode="&#x278a;" horiz-adv-x="766" 
d="M383 -14q-69 0 -134 27t-115 75.5t-80.5 117.5t-30.5 153t30.5 153t80.5 117.5t115 75.5t134 27t134 -27t115 -75.5t80.5 -117.5t30.5 -153t-30.5 -153t-80.5 -117.5t-115 -75.5t-134 -27zM345 488v-284q0 -2 1.5 -3.5t3.5 -1.5h63q2 0 3.5 1.5t1.5 3.5v311q0 2 -1.5 3.5
t-3.5 1.5h-34q-1 0 -3 -0.5t-3 -1.5q-7 -9 -12 -14.5t-12 -9.5l-2.5 -2.5t-1.5 -3.5z" />
    <glyph glyph-name="uni278B" unicode="&#x278b;" horiz-adv-x="766" 
d="M383 -14q-69 0 -134 27t-115 75.5t-80.5 117.5t-30.5 153t30.5 153t80.5 117.5t115 75.5t134 27t134 -27t115 -75.5t80.5 -117.5t30.5 -153t-30.5 -153t-80.5 -117.5t-115 -75.5t-134 -27zM292 237v-33q0 -2 1 -3.5t4 -1.5h162q2 0 3.5 1.5t1.5 3.5v48q0 2 -1.5 3.5
t-3.5 1.5h-80q30 36 57 86t27 94q0 34 -21 58.5t-61 24.5q-44 0 -65 -28t-22 -67q0 -2 1 -4t3 -2h56q3 0 4 1.5t1 4.5q1 23 5.5 32t11.5 9q10 0 12.5 -11.5t2.5 -20.5q0 -24 -9.5 -47t-24 -46.5t-32 -47.5t-32.5 -50q-1 -1 -1 -3v-3z" />
    <glyph glyph-name="uni278C" unicode="&#x278c;" horiz-adv-x="766" 
d="M383 -14q-69 0 -134 27t-115 75.5t-80.5 117.5t-30.5 153t30.5 153t80.5 117.5t115 75.5t134 27t134 -27t115 -75.5t80.5 -117.5t30.5 -153t-30.5 -153t-80.5 -117.5t-115 -75.5t-134 -27zM380 199q37 0 61.5 23.5t24.5 66.5q0 24 -10 45.5t-36 31.5q23 13 31.5 34.5
t8.5 39.5q0 31 -20 55.5t-60 24.5q-39 0 -58 -25.5t-24 -61.5q-1 -3 0.5 -4.5t3.5 -1.5h54q2 0 3.5 1.5t1.5 3.5q0 16 4.5 25t11.5 9q8 0 12.5 -7t4.5 -22q0 -22 -10 -35t-40 -13q-3 0 -4.5 -1.5t-1.5 -3.5v-44q0 -2 1.5 -3.5t3.5 -1.5q31 0 42 -11t11 -32t-5.5 -30
t-13.5 -9t-13.5 9t-5.5 25q0 3 -1 4.5t-4 1.5h-54q-2 0 -3.5 -1.5t-1.5 -4.5q0 -29 21.5 -58.5t64.5 -29.5z" />
    <glyph glyph-name="uni278D" unicode="&#x278d;" horiz-adv-x="766" 
d="M383 -14q-69 0 -134 27t-115 75.5t-80.5 117.5t-30.5 153t30.5 153t80.5 117.5t115 75.5t134 27t134 -27t115 -75.5t80.5 -117.5t30.5 -153t-30.5 -153t-80.5 -117.5t-115 -75.5t-134 -27zM270 263q0 -2 1.5 -3.5t4.5 -1.5h99v-54q0 -2 1 -3.5t4 -1.5h46q2 0 3.5 1.5
t1.5 3.5v54h29q3 0 4 1.5t1 3.5v44q0 3 -1 4t-4 1h-29v203q0 2 -1.5 3.5t-3.5 1.5h-68q-2 0 -3.5 -1t-2.5 -3l-81 -209q-1 -1 -1 -3v-3v-38zM375 431v-118h-44z" />
    <glyph glyph-name="uni278E" unicode="&#x278e;" horiz-adv-x="766" 
d="M383 -14q-69 0 -134 27t-115 75.5t-80.5 117.5t-30.5 153t30.5 153t80.5 117.5t115 75.5t134 27t134 -27t115 -75.5t80.5 -117.5t30.5 -153t-30.5 -153t-80.5 -117.5t-115 -75.5t-134 -27zM303 294q-2 0 -3.5 -1.5t-1.5 -3.5q1 -39 21.5 -64.5t60.5 -25.5q38 0 63.5 25
t25.5 81t-22.5 80t-53.5 24q-10 0 -17 -2t-13 -5l5 58h85q3 0 4.5 1.5t1.5 3.5v50q0 2 -1 3.5t-4 1.5h-132q-2 0 -3.5 -1.5t-1.5 -3.5l-16 -166q0 -2 1 -3.5t3 -2.5l43 -11q2 -1 4 0t3 3q4 8 9 12.5t12 4.5q12 0 16.5 -12.5t4.5 -36.5q0 -27 -4 -38.5t-13 -11.5
q-7 0 -11 7.5t-5 27.5q0 3 -1.5 4.5t-3.5 1.5h-56z" />
    <glyph glyph-name="uni278F" unicode="&#x278f;" horiz-adv-x="766" 
d="M383 -14q-69 0 -134 27t-115 75.5t-80.5 117.5t-30.5 153t30.5 153t80.5 117.5t115 75.5t134 27t134 -27t115 -75.5t80.5 -117.5t30.5 -153t-30.5 -153t-80.5 -117.5t-115 -75.5t-134 -27zM471 311q0 43 -18.5 65t-49.5 22q-11 0 -19 -3.5t-15 -10.5q1 45 4.5 63.5
t15.5 18.5q8 0 11.5 -7.5t3.5 -21.5q0 -3 1.5 -4.5t4.5 -1.5h53q2 0 3.5 1.5t1.5 4.5q0 26 -18 54.5t-58 28.5q-42 0 -67.5 -39.5t-25.5 -133.5q0 -46 8 -75t20.5 -45t28 -22t30.5 -6q40 0 62.5 29.5t22.5 82.5zM370 306q0 19 4 28.5t12 9.5q7 0 11.5 -9t4.5 -29
q0 -23 -3 -38t-13 -15t-13 15t-3 38z" />
    <glyph glyph-name="uni2790" unicode="&#x2790;" horiz-adv-x="766" 
d="M383 -14q-69 0 -134 27t-115 75.5t-80.5 117.5t-30.5 153t30.5 153t80.5 117.5t115 75.5t134 27t134 -27t115 -75.5t80.5 -117.5t30.5 -153t-30.5 -153t-80.5 -117.5t-115 -75.5t-134 -27zM302 465q0 -3 1.5 -4t3.5 -1h88q-24 -63 -40.5 -123.5t-20.5 -132.5q0 -2 1 -3.5
t4 -1.5h66q2 0 3.5 1.5t1.5 3.5q2 75 16 140t37 134q1 2 1 5v6v26q0 2 -1.5 3.5t-3.5 1.5h-152q-2 0 -3.5 -1.5t-1.5 -3.5v-50z" />
    <glyph glyph-name="uni2791" unicode="&#x2791;" horiz-adv-x="766" 
d="M383 -14q-69 0 -134 27t-115 75.5t-80.5 117.5t-30.5 153t30.5 153t80.5 117.5t115 75.5t134 27t134 -27t115 -75.5t80.5 -117.5t30.5 -153t-30.5 -153t-80.5 -117.5t-115 -75.5t-134 -27zM289 285q0 -38 28.5 -62t65.5 -24q40 0 67 24t27 62q0 31 -14.5 49t-33.5 33
q16 13 26.5 30.5t10.5 42.5q0 36 -23 58t-60 22t-60 -22t-23 -58q0 -25 11 -42.5t27 -30.5q-20 -16 -34.5 -33.5t-14.5 -48.5zM383 476q10 0 15 -9t5 -21q0 -14 -5 -27t-15 -20q-10 7 -15 20t-5 27q0 12 5 21t15 9zM383 333q13 -9 20 -23t7 -31q0 -19 -9 -27.5t-18 -8.5
q-8 0 -17 8.5t-9 27.5q0 17 7 31t19 23z" />
    <glyph glyph-name="uni2792" unicode="&#x2792;" horiz-adv-x="766" 
d="M383 -14q-69 0 -134 27t-115 75.5t-80.5 117.5t-30.5 153t30.5 153t80.5 117.5t115 75.5t134 27t134 -27t115 -75.5t80.5 -117.5t30.5 -153t-30.5 -153t-80.5 -117.5t-115 -75.5t-134 -27zM295 408q0 -43 18.5 -65t49.5 -22q11 0 19 3.5t15 10.5q-1 -45 -4.5 -63.5
t-15.5 -18.5q-8 0 -11.5 7.5t-3.5 21.5q0 3 -1.5 4.5t-4.5 1.5h-53q-2 0 -3.5 -1.5t-1.5 -4.5q0 -26 18 -54.5t58 -28.5q42 0 67.5 39.5t25.5 133.5q0 46 -8 75t-20.5 45t-28 22t-30.5 6q-40 0 -62.5 -29.5t-22.5 -82.5zM396 413q0 -19 -4 -28.5t-12 -9.5q-7 0 -11.5 9
t-4.5 29q0 23 3 38t13 15t13 -15t3 -38z" />
    <glyph glyph-name="uni2793" unicode="&#x2793;" horiz-adv-x="766" 
d="M383 -14q-69 0 -134 27t-115 75.5t-80.5 117.5t-30.5 153t30.5 153t80.5 117.5t115 75.5t134 27t134 -27t115 -75.5t80.5 -117.5t30.5 -153t-30.5 -153t-80.5 -117.5t-115 -75.5t-134 -27zM243 488v-284q0 -2 1.5 -3.5t3.5 -1.5h63q2 0 3.5 1.5t1.5 3.5v311q0 2 -1.5 3.5
t-3.5 1.5h-34q-1 0 -3 -0.5t-3 -1.5q-7 -9 -12 -14.5t-12 -9.5l-2.5 -2.5t-1.5 -3.5zM546 360q0 82 -22 121t-69 39t-69 -39t-22 -121t22 -121.5t69 -39.5t69 39.5t22 121.5zM455 253q-12 0 -17 23.5t-5 83.5q0 59 5 82.5t17 23.5t17 -23.5t5 -82.5q0 -60 -5 -83.5
t-17 -23.5z" />
    <glyph glyph-name="uni27F7" unicode="&#x27f7;" horiz-adv-x="1010" 
d="M647 578l326 -202q7 -4 7 -10t-7 -10l-326 -203q-7 -4 -13 -0.5t-6 11.5v167h-245v-167q0 -8 -6 -11.5t-13 0.5l-327 203q-7 4 -7 10t7 10l327 202q7 4 13 0.5t6 -11.5v-166h245v166q0 8 6 11.5t13 -0.5z" />
    <glyph glyph-name="dotlessj" unicode="&#xf6be;" horiz-adv-x="274" 
d="M244 706v-563q0 -82 -36.5 -115t-116.5 -33q-19 0 -37.5 1.5t-32.5 2.5q-5 1 -8 4.5t-3 8.5v93q0 6 3 8.5t9 2.5h34q27 0 35.5 15t8.5 44v531q0 6 3 9t9 3h120q6 0 9 -3t3 -9z" />
    <glyph glyph-name="commaaccent" unicode="&#xf6c3;" horiz-adv-x="501" 
d="M209 -181q-5 0 -8 4.5t-2 9.5l20 116q1 6 4.5 7.5t8.5 1.5h56q5 0 8 -4t1 -10l-39 -115q-2 -6 -4.5 -8t-7.5 -2h-37z" />
    <glyph glyph-name="centinferior" unicode="&#xf6df;" 
d="M118 -59q0 -2 -1 -3.5t-2 -1.5h-18q-1 0 -2.5 1.5t-1.5 3.5v31q-34 6 -49 41t-15 84q0 47 15 82.5t49 41.5v31q0 1 1.5 3t2.5 2h18q1 0 2 -2t1 -3v-31q32 -4 45 -31t14 -61q0 -3 -2 -5t-6 -2h-15q-4 0 -6 2t-2 5q-1 36 -11 52t-29 16t-31 -21.5t-12 -78.5t12 -78.5
t31 -21.5q22 0 31.5 17.5t9.5 50.5q0 4 2 5.5t6 1.5h16q3 0 5 -1.5t2 -5.5q0 -36 -13.5 -62.5t-46.5 -30.5v-31z" />
    <glyph glyph-name="centsuperior" unicode="&#xf6e0;" 
d="M118 466q0 -2 -1 -3.5t-2 -1.5h-18q-1 0 -2.5 1.5t-1.5 3.5v31q-34 6 -49 41t-15 84q0 47 15 82.5t49 41.5v31q0 1 1.5 3t2.5 2h18q1 0 2 -2t1 -3v-31q32 -4 45 -31t14 -61q0 -3 -2 -5t-6 -2h-15q-4 0 -6 2t-2 5q-1 36 -11 52t-29 16t-31 -21.5t-12 -78.5t12 -78.5
t31 -21.5q22 0 31.5 17.5t9.5 50.5q0 4 2 5.5t6 1.5h16q3 0 5 -1.5t2 -5.5q0 -36 -13.5 -62.5t-46.5 -30.5v-31z" />
    <glyph glyph-name="commainferior" unicode="&#xf6e1;" horiz-adv-x="81" 
d="M10 -134q-2 0 -3.5 1.5t-0.5 4.5l19 109q1 4 2 5t4 1h35q3 0 4 -2t0 -4l-31 -111q-1 -2 -2 -3t-4 -1h-23z" />
    <glyph glyph-name="commasuperior" unicode="&#xf6e2;" horiz-adv-x="81" 
d="M10 391q-2 0 -3.5 1.5t-0.5 4.5l19 109q1 4 2 5t4 1h35q3 0 4 -2t0 -4l-31 -111q-1 -2 -2 -3t-4 -1h-23z" />
    <glyph glyph-name="dollarinferior" unicode="&#xf6e3;" 
d="M112 -96q0 -2 -1.5 -3.5t-2.5 -1.5h-18q-1 0 -2.5 1.5t-1.5 3.5v34q-24 4 -37.5 24t-13.5 45q0 4 1.5 5.5t4.5 1.5h19q2 0 4 -1.5t2 -3.5q4 -26 12 -35.5t22 -9.5t23 12.5t9 40.5q0 31 -15 48.5t-32.5 33.5t-32.5 35.5t-15 53.5q0 17 10.5 39.5t38.5 27.5v34q0 1 1.5 3
t2.5 2h18q1 0 2.5 -2t1.5 -3v-34q26 -4 38.5 -24.5t12.5 -45.5q0 -3 -1.5 -4.5t-4.5 -1.5h-19q-2 0 -3.5 1t-2.5 4q-4 27 -11.5 36t-22.5 9t-22.5 -12t-7.5 -28q0 -28 15 -44t32.5 -31.5t32.5 -37t15 -58.5q0 -31 -12.5 -53t-38.5 -27v-34z" />
    <glyph glyph-name="dollarsuperior" unicode="&#xf6e4;" 
d="M112 429q0 -2 -1.5 -3.5t-2.5 -1.5h-18q-1 0 -2.5 1.5t-1.5 3.5v34q-24 4 -37.5 24t-13.5 45q0 4 1.5 5.5t4.5 1.5h19q2 0 4 -1.5t2 -3.5q4 -26 12 -35.5t22 -9.5t23 12.5t9 40.5q0 31 -15 48.5t-32.5 33.5t-32.5 35.5t-15 53.5q0 17 10.5 39.5t38.5 27.5v34q0 1 1.5 3
t2.5 2h18q1 0 2.5 -2t1.5 -3v-34q26 -4 38.5 -24.5t12.5 -45.5q0 -3 -1.5 -4.5t-4.5 -1.5h-19q-2 0 -3.5 1t-2.5 4q-4 27 -11.5 36t-22.5 9t-22.5 -12t-7.5 -28q0 -28 15 -44t32.5 -31.5t32.5 -37t15 -58.5q0 -31 -12.5 -53t-38.5 -27v-34z" />
    <glyph glyph-name="periodinferior" unicode="&#xf6e7;" horiz-adv-x="81" 
d="M69 -34q0 -12 -8 -21t-20 -9t-20 9t-8 21t8 20.5t20 8.5t20 -8.5t8 -20.5z" />
    <glyph glyph-name="periodsuperior" unicode="&#xf6e8;" horiz-adv-x="81" 
d="M69 491q0 -12 -8 -21t-20 -9t-20 9t-8 21t8 20.5t20 8.5t20 -8.5t8 -20.5z" />
    <glyph glyph-name="apple" unicode="&#xf8ff;" horiz-adv-x="375" 
d="M50 203v275h275v-275h-275zM271 432h-54v-75h55v14h-40v18h33v14h-33v15h39v14zM120 418h39v14h-55v-75h16v32h33v14h-33v15zM104 249h55v14h-39v18h32v15h-32v14h38v14h-54v-75zM215 249h26q18 0 25.5 8.5t7.5 29.5t-7.5 29t-23.5 8h-28v-75zM230 310h12q9 0 13 -5
t4 -18q0 -14 -4 -19t-14 -5h-11v47z" />
    <glyph glyph-name="fi" unicode="&#xfb01;" horiz-adv-x="565" 
d="M37 12v694q0 6 3 9t9 3h281q6 0 9 -3t3 -9v-92q0 -6 -3 -9t-9 -3h-149v-184h107q6 0 9 -3t3 -9v-98q0 -6 -3 -9t-9 -3h-107v-284q0 -6 -3 -9t-9 -3h-120q-6 0 -9 3t-3 9zM384 12v694q0 6 3 9t9 3h120q6 0 9 -3t3 -9v-694q0 -6 -3 -9t-9 -3h-120q-6 0 -9 3t-3 9z" />
    <glyph glyph-name="fl" unicode="&#xfb02;" horiz-adv-x="689" 
d="M37 12v694q0 6 3 9t9 3h281q6 0 9 -3t3 -9v-92q0 -6 -3 -9t-9 -3h-149v-184h107q6 0 9 -3t3 -9v-98q0 -6 -3 -9t-9 -3h-107v-284q0 -6 -3 -9t-9 -3h-120q-6 0 -9 3t-3 9zM384 12v694q0 6 3 9t9 3h120q6 0 9 -3t3 -9v-590h134q6 0 9 -3t3 -9v-92q0 -6 -3 -9t-9 -3h-266
q-6 0 -9 3t-3 9z" />
    <glyph glyph-name="null" horiz-adv-x="0" 
 />
    <glyph glyph-name="CR" horiz-adv-x="250" 
 />
    <glyph glyph-name="thinspace" horiz-adv-x="50" 
 />
    <glyph glyph-name="fi.cap" horiz-adv-x="560" 
d="M37 12v694q0 6 3 9t9 3h281q6 0 9 -3t3 -9v-92q0 -6 -3 -9t-9 -3h-149v-184h107q6 0 9 -3t3 -9v-98q0 -6 -3 -9t-9 -3h-107v-284q0 -6 -3 -9t-9 -3h-120q-6 0 -9 3t-3 9zM379 12v694q0 6 3 9t9 3h120q6 0 9 -3t3 -9v-694q0 -6 -3 -9t-9 -3h-120q-6 0 -9 3t-3 9z" />
    <glyph glyph-name="fl.cap" horiz-adv-x="684" 
d="M37 12v694q0 6 3 9t9 3h281q6 0 9 -3t3 -9v-92q0 -6 -3 -9t-9 -3h-149v-184h107q6 0 9 -3t3 -9v-98q0 -6 -3 -9t-9 -3h-107v-284q0 -6 -3 -9t-9 -3h-120q-6 0 -9 3t-3 9zM379 12v694q0 6 3 9t9 3h120q6 0 9 -3t3 -9v-590h134q6 0 9 -3t3 -9v-92q0 -6 -3 -9t-9 -3h-266
q-6 0 -9 3t-3 9z" />
    <glyph glyph-name="germandbls.cap" horiz-adv-x="768" 
d="M22 231h108q6 0 9 -3t3 -9q1 -51 13 -84t41 -33q22 0 34 17t12 46q0 27 -10.5 49.5t-26 41t-33 33.5t-30.5 27q-63 58 -94.5 108t-31.5 122q0 84 46 135t128 51q46 0 79 -17t54.5 -45.5t32 -68t10.5 -84.5q0 -6 -3 -9t-9 -3h-110q-6 0 -9 3t-3 9q-1 39 -8 69t-36 30
q-19 0 -28.5 -16.5t-9.5 -41.5q0 -36 20 -66t49 -56q30 -27 58.5 -53.5t50 -56t34.5 -65t13 -79.5q0 -41 -11 -77t-33 -62.5t-56.5 -41.5t-80.5 -15q-47 0 -82 18.5t-57.5 50t-33.5 74t-11 90.5q0 6 3 9t9 3zM406 231h108q6 0 9 -3t3 -9q1 -51 13 -84t41 -33q22 0 34 17
t12 46q0 27 -10.5 49.5t-26 41t-33 33.5t-30.5 27q-63 58 -94.5 108t-31.5 122q0 84 46 135t128 51q46 0 79 -17t54.5 -45.5t32 -68t10.5 -84.5q0 -6 -3 -9t-9 -3h-110q-6 0 -9 3t-3 9q-1 39 -8 69t-36 30q-19 0 -28.5 -16.5t-9.5 -41.5q0 -36 20 -66t49 -56
q30 -27 58.5 -53.5t50 -56t34.5 -65t13 -79.5q0 -41 -11 -77t-33 -62.5t-56.5 -41.5t-80.5 -15q-47 0 -82 18.5t-57.5 50t-33.5 74t-11 90.5q0 6 3 9t9 3z" />
    <glyph glyph-name="Schwa" horiz-adv-x="412" 
d="M200 -14q-52 0 -86 23t-53.5 60t-27.5 84.5t-8 94.5v97q0 7 3 10t9 3h205v1q0 87 -4.5 138t-11.5 77.5t-15.5 34t-15.5 7.5q-22 0 -34 -40t-14 -112q0 -6 -3 -9t-9 -3h-100q-6 0 -9 3t-3 9q0 46 6.5 93.5t25 86t53.5 63.5t92 25q110 0 151 -99t41 -274q0 -203 -51 -288
t-141 -85zM195 102q6 0 12.5 4t12.5 19t11 44t8 79h-84q1 -82 10.5 -114t29.5 -32z" />
    <glyph glyph-name="idotaccent" horiz-adv-x="218" 
d="M67 785v59q0 6 3 9t9 3h60q6 0 9 -3t3 -9v-59q0 -6 -3 -9t-9 -3h-60q-6 0 -9 3t-3 9zM37 12v694q0 6 3 9t9 3h120q6 0 9 -3t3 -9v-694q0 -6 -3 -9t-9 -3h-120q-6 0 -9 3t-3 9z" />
    <glyph glyph-name="schwa" horiz-adv-x="449" 
d="M340 0h-223q-33 0 -56.5 23.5t-23.5 56.5v265q0 7 3 10t9 3h236v201q0 23 -16.5 40t-40.5 17q-23 0 -39.5 -17t-16.5 -40v-93q0 -6 -3.5 -9t-9.5 -3h-110q-6 1 -9 3.5t-3 9.5v171q0 33 23.5 56.5t56.5 23.5h223q33 0 56 -23.5t23 -56.5v-558q0 -33 -23 -56.5t-56 -23.5z
M228 102q24 0 40.5 17t16.5 40v89h-113v-89q0 -23 16.5 -40t39.5 -17z" />
    <glyph glyph-name="caronSlovak" horiz-adv-x="501" 
d="M289 718q6 0 8 -3.5t-1 -11.5l-37 -97q-1 -4 -4.5 -5.5t-7.5 -1.5h-28q-5 0 -7.5 3t-1.5 11l10 94q1 6 4 8.5t10 2.5h55z" />
    <glyph glyph-name="commaaccent.alt" horiz-adv-x="501" 
d="M288 899q5 0 8 -4.5t2 -9.5l-20 -116q-1 -6 -4.5 -7.5t-8.5 -1.5h-56q-5 0 -8 4t-1 10l39 115q2 6 4.5 8t7.5 2h37z" />
    <glyph glyph-name="servicemark" horiz-adv-x="676" 
d="M28 460h72q4 0 5.5 -1t2.5 -5q3 -28 12 -41t25 -13q15 0 22.5 8.5t7.5 23.5q0 25 -24.5 40.5t-53.5 32t-53.5 42.5t-24.5 72q0 44 31.5 76t88.5 32q60 0 88.5 -34t28.5 -87q0 -3 -2.5 -4.5t-6.5 -1.5h-72q-4 0 -5 1.5t-1 4.5q0 16 -6 34t-25 18q-13 0 -21 -8t-8 -24
q0 -26 24.5 -41t53.5 -31t53.5 -41t24.5 -71q0 -49 -34.5 -80t-89.5 -31q-53 0 -86 33.5t-34 89.5q0 3 2 4.5t5 1.5zM385 351q0 -6 -2.5 -8.5t-6.5 -2.5h-66q-4 0 -6.5 2.5t-2.5 8.5v356q0 5 2.5 8t6.5 3h99q4 0 6.5 -2.5t3.5 -6.5l58 -221l57 221q1 4 4 6.5t7 2.5h97
q5 0 8 -3t3 -8v-356q0 -6 -3 -8.5t-8 -2.5h-64q-5 0 -8 2.5t-3 8.5v227l-60 -229q-1 -5 -4 -7t-7 -2h-39q-4 0 -7 2t-4 7l-61 227v-225z" />
    <glyph glyph-name="numero" horiz-adv-x="695" 
d="M476 574q0 74 26 116t75 42t75 -42t26 -116q0 -75 -26 -117t-75 -42t-75 42t-26 117zM171 12q0 -6 -3 -9t-9 -3h-110q-6 0 -9 3t-3 9v694q0 6 3 9t9 3h124q5 0 8.5 -2.5t4.5 -7.5l105 -326h4v324q0 6 3 9t9 3h110q6 0 9 -3t3 -9v-694q0 -6 -3 -9t-9 -3h-104
q-5 0 -8.5 2.5t-4.5 7.5l-124 390h-5v-388zM606 574q0 49 -8 76.5t-21 27.5t-21 -27.5t-8 -76.5t8 -77t21 -28t21 28t8 77zM476 343v32q0 6 3 9t9 3h178q6 0 9 -3t3 -9v-32q0 -6 -3 -9t-9 -3h-178q-6 0 -9 3t-3 9z" />
    <glyph glyph-name="numero.alt" horiz-adv-x="695" 
d="M171 12q0 -6 -3 -9t-9 -3h-110q-6 0 -9 3t-3 9v694q0 6 3 9t9 3h124q5 0 8.5 -2.5t4.5 -7.5l105 -326h4v324q0 6 3 9t9 3h110q6 0 9 -3t3 -9v-694q0 -6 -3 -9t-9 -3h-104q-5 0 -8.5 2.5t-4.5 7.5l-124 390h-5v-388zM510 718h133q14 0 23.5 -10.5t9.5 -23.5v-235
q0 -13 -9.5 -23.5t-23.5 -10.5h-133q-14 0 -23 10.5t-9 23.5v235q0 13 9 23.5t23 10.5zM608 497v139q0 16 -8.5 26t-22.5 10q-15 0 -23.5 -10t-8.5 -26v-139q0 -16 8.5 -26t23.5 -10q14 0 22.5 10t8.5 26zM577 374q13 0 22.5 -9.5t9.5 -22.5t-9.5 -22.5t-22.5 -9.5
t-22.5 9.5t-9.5 22.5t9.5 22.5t22.5 9.5z" />
    <glyph glyph-name="uniOE3F" horiz-adv-x="416" 
d="M224 -100h-56q-6 0 -9 3t-3 9v88h-107q-6 0 -9 3t-3 9v694q0 6 3 9t9 3h107v88q0 6 3 9t9 3h56q6 0 9 -3t3 -9v-91q72 -10 111.5 -59t39.5 -127q0 -54 -25 -94.5t-71 -60.5q52 -21 81 -65.5t29 -107.5q0 -87 -43.5 -140t-121.5 -60v-89q0 -6 -3 -9t-9 -3zM181 608v-182
q40 1 54 20.5t14 70.5q0 49 -13.5 70t-54.5 21zM181 310v-200q49 1 62.5 30t13.5 72q0 51 -15 74t-61 24z" />
    <glyph glyph-name="zero.slash" horiz-adv-x="400" 
d="M200 732q90 0 133.5 -91t43.5 -282t-43.5 -282t-133.5 -91t-133.5 91t-43.5 282t43.5 282t133.5 91zM161 359v-13l75 156q-3 69 -11.5 98.5t-24.5 29.5q-22 0 -30.5 -60.5t-8.5 -210.5zM200 88q22 0 30.5 60.5t8.5 210.5v15l-75 -157q3 -69 11.5 -99t24.5 -30z" />
    <glyph glyph-name="numbersign.LT" horiz-adv-x="400" 
d="M212 705l-94 -694q-1 -5 -4 -8t-9 -3h-55q-6 0 -9 3.5t-2 9.5l29 209h-62q-6 0 -9 3t-3 9v46q0 6 3 9t9 3h71l18 135h-60q-6 0 -9 3t-3 9v46q0 6 3 9t9 3h70l28 210q1 5 4 8t9 3h55q6 0 9 -3.5t2 -9.5zM188 13l94 694q1 5 4 8t9 3h55q6 0 9 -3.5t2 -9.5l-29 -209h62
q6 0 9 -3t3 -9v-46q0 -6 -3 -9t-9 -3h-71l-18 -135h60q6 0 9 -3t3 -9v-46q0 -6 -3 -9t-9 -3h-70l-28 -210q-1 -5 -4 -8t-9 -3h-55q-6 0 -9 3.5t-2 9.5z" />
    <glyph glyph-name="Euro.LT" horiz-adv-x="400" 
d="M376 153q-2 -32 -10.5 -61t-24.5 -51t-40.5 -35t-57.5 -13q-30 0 -57 13t-47.5 44t-34.5 84.5t-19 132.5h-55q-4 0 -8 2.5t-4 5.5v38q0 3 4 5.5t8 2.5h53q-1 11 -1 22.5v23.5v20v20h-52q-4 0 -8 2.5t-4 5.5v38q0 3 4 5.5t8 2.5h55q10 149 52 207.5t106 58.5q34 0 58 -13
t40 -34.5t24.5 -51t10.5 -61.5q1 -7 -2.5 -10.5t-9.5 -3.5h-44q-5 0 -8 2.5t-4 8.5q-9 63 -25.5 84t-45.5 21q-15 0 -28.5 -8t-24 -30.5t-18 -63.5t-10.5 -106h117q4 0 8 -2.5t4 -5.5v-38q0 -3 -4 -5.5t-8 -2.5h-118q-1 -10 -1 -20.5v-21.5v-23v-21h119q4 0 8 -2.5t4 -5.5
v-38q0 -3 -4 -5.5t-8 -2.5h-117q3 -69 12 -111.5t20.5 -65.5t26 -31t28.5 -8q25 0 40.5 21t24.5 84q1 6 4 8.5t8 2.5h44q6 0 9.5 -3.5t2.5 -10.5z" />
    <glyph glyph-name="dollar.LT" horiz-adv-x="400" 
d="M236 -87q0 -4 -2.5 -8t-5.5 -4h-38q-3 0 -5.5 4t-2.5 8v83q-56 8 -86.5 53.5t-34.5 104.5q-1 7 2.5 10.5t9.5 3.5h44q5 0 8 -2.5t4 -8.5q8 -60 28 -82.5t54 -22.5t56.5 28.5t22.5 94.5q0 71 -35.5 113t-77.5 78.5t-77.5 82t-35.5 124.5q0 20 6 44.5t20 46.5t36.5 38.5
t55.5 22.5v81q0 4 2.5 8t5.5 4h38q3 0 5.5 -4t2.5 -8v-81q61 -8 89 -54t32 -104q1 -7 -2.5 -10.5t-9.5 -3.5h-44q-5 0 -8 2.5t-4 8.5q-9 63 -27.5 84t-54.5 21q-37 0 -56 -27.5t-19 -66.5q0 -64 35.5 -101.5t77.5 -74t77.5 -85.5t35.5 -136q0 -70 -29.5 -120.5t-92.5 -60.5
v-84z" />
    <glyph glyph-name="cent.LT" horiz-adv-x="400" 
d="M227 -3q0 -4 -2.5 -8t-5.5 -4h-38q-3 0 -5.5 4t-2.5 8v77q-40 8 -68 32.5t-45.5 62t-26 86.5t-8.5 104t8 104.5t26 87t46 62.5t68 31v76q0 4 2.5 8t5.5 4h38q3 0 5.5 -4t2.5 -8v-76q38 -5 64 -24.5t42.5 -47.5t24 -64t7.5 -74q0 -7 -4.5 -11t-12.5 -4h-33q-10 0 -14.5 4
t-4.5 12q-2 82 -25.5 119.5t-69.5 37.5t-73 -49.5t-27 -181.5q0 -134 30 -183.5t84 -49.5q41 0 60 40.5t23 116.5q0 9 5 13t15 4h33q8 0 12 -4t4 -12q0 -42 -8 -79.5t-24.5 -66t-43 -46.5t-64.5 -22v-75z" />
    <glyph glyph-name="sterling.LT" horiz-adv-x="400" 
d="M352 12q0 -6 -3 -9t-9 -3h-276q-6 0 -9 3t-3 9v17q0 9 2 12.5t7 7.5q43 37 66.5 89t23.5 113q0 25 -3.5 46t-10.5 40h-77q-4 0 -8 2.5t-4 5.5v38q0 3 4 5.5t8 2.5h55q-16 35 -31 71.5t-15 87.5q0 85 40 131t100 46q37 0 64 -13t45 -34.5t27 -51t11 -61.5v-2
q0 -7 -3.5 -9.5t-8.5 -2.5h-44q-5 0 -8 2.5t-4 8.5q-9 63 -29 84t-51 21q-37 0 -54.5 -30.5t-17.5 -74.5q0 -46 15 -89.5t31 -83.5h121q4 0 8 -2.5t4 -5.5v-38q0 -3 -4 -5.5t-8 -2.5h-101q7 -19 11 -39t4 -39q0 -63 -16 -114t-50 -89h189q6 0 9 -3t3 -9v-32z" />
    <glyph glyph-name="florin.LT" horiz-adv-x="400" 
d="M217 67q-3 -34 -10 -65t-20.5 -54.5t-35 -37.5t-53.5 -14q-14 0 -27.5 2.5t-20.5 4.5t-8.5 6t-1.5 9v19q0 6 3 9t9 3h33q43 0 53.5 31.5t17.5 118.5l20 238h-86q-4 0 -8 2.5t-4 5.5v38q0 3 4 5.5t8 2.5h91l14 169q3 35 8.5 66.5t17.5 55t33 37.5t55 14q14 0 26.5 -2.5
t19.5 -4.5t8.5 -6t1.5 -9v-19q0 -6 -3 -9t-9 -3h-31q-41 0 -51 -25t-14 -74l-15 -190h91q4 0 8 -2.5t4 -5.5v-38q0 -3 -4 -5.5t-8 -2.5h-95z" />
    <glyph glyph-name="yen.LT" horiz-adv-x="400" 
d="M236 12q0 -6 -3 -9t-9 -3h-45q-6 0 -9 3t-3 9v255h-93q-4 0 -8 2.5t-4 5.5v38q0 3 4 5.5t8 2.5h93v86h-93q-4 0 -8 2.5t-4 5.5v38q0 3 4 5.5t8 2.5h69l-110 244q-3 5 0.5 9t9.5 4h50q6 0 9 -3t5 -8l93 -244l103 245q2 5 5 7.5t8 2.5h44q6 0 9 -4t1 -9l-110 -244h57
q4 0 8 -2.5t4 -5.5v-38q0 -3 -4 -5.5t-8 -2.5h-81v-86h81q4 0 8 -2.5t4 -5.5v-38q0 -3 -4 -5.5t-8 -2.5h-81v-255z" />
    <glyph glyph-name="uni20BA.LT" horiz-adv-x="400" 
d="M356 306q0 -67 -4.5 -123.5t-20 -97t-46.5 -63t-84 -22.5h-101q-3 0 -5.5 4t-2.5 8v343l-62 -38q-6 -3 -9 -0.5t-3 8.5v31q0 9 1.5 12t8.5 7l64 40v60l-62 -38q-6 -3 -9 -0.5t-3 8.5v31q0 9 1.5 12t8.5 7l64 40v171q0 4 2.5 8t5.5 4h47q3 0 5.5 -4t2.5 -8v-132l101 62
q6 3 9 0.5t3 -8.5v-31q0 -9 -1.5 -12t-8.5 -7l-103 -64v-60l101 62q6 3 9 0.5t3 -8.5v-31q0 -9 -1.5 -12t-8.5 -7l-103 -64v-334q0 -4 1.5 -7t4.5 -3h13q35 0 59.5 6.5t39.5 27t22 60.5t7 106v87q0 4 2.5 8t5.5 4h38q3 0 5.5 -4t2.5 -8v-31z" />
    <glyph glyph-name="uni20B9.LT" horiz-adv-x="400" 
d="M276 9q0 -4 -3.5 -6.5t-8.5 -2.5h-40q-6 0 -9.5 3t-4.5 8l-102 347q-1 3 -1 5.5v3.5q0 4 2.5 6.5t8.5 2.5h6q31 0 58 25.5t35 69.5h-157q-4 0 -8 2.5t-4 5.5v38q0 3 4 5.5t8 2.5h159q-4 65 -34.5 101t-88.5 36h-59q-6 0 -9 3t-3 9v32q0 6 3 9t9 3h325q6 0 9 -3t3 -9v-32
q0 -6 -3 -9t-9 -3h-143q28 -16 48.5 -51t23.5 -86h62q4 0 8 -2.5t4 -5.5v-38q0 -3 -4 -5.5t-8 -2.5h-64q-10 -49 -41 -83t-68 -50l95 -325q0 -1 0.5 -2t0.5 -2z" />
    <glyph glyph-name="uni20BD.LT" horiz-adv-x="400" 
d="M164 12q0 -6 -3 -9t-9 -3h-45q-6 0 -9 3t-3 9v156h-66q-6 1 -9 3.5t-3 8.5v36q0 6 3 9t9 3h66v87h-66q-6 0 -9 3t-3 9v37q0 6 3 9t9 3h66v330q0 6 3 9t9 3h50q107 0 158 -48t51 -149t-43 -153.5t-149 -52.5h-10v-87h123q6 0 9 -3t3 -9v-36q0 -6 -3 -8.5t-9 -3.5h-123
v-156zM165 652v-277q68 0 100.5 26.5t32.5 110.5q0 49 -9.5 77.5t-27 42t-42.5 17t-54 3.5z" />
    </font>
</defs>
</svg>
