<svg width="173" height="54" viewBox="0 0 173 54" fill="none" xmlns="http://www.w3.org/2000/svg">
<path d="M53 0H5C2.23858 0 0 2.08419 0 4.65517V49.3448C0 51.9158 2.23858 54 5 54H53C55.7614 54 58 51.9158 58 49.3448V4.65517C58 2.08419 55.7614 0 53 0Z" fill="#FF4630"/>
<path d="M10.888 22.0439C11.978 22.0439 12.668 22.0489 12.958 22.0589C14.928 22.1289 16.403 22.6489 17.383 23.6189C18.373 24.5789 18.868 25.8989 18.868 27.5789C18.868 28.6989 18.643 29.679 18.193 30.519C17.753 31.359 17.088 32.014 16.198 32.484C15.308 32.944 14.218 33.174 12.928 33.174H9.313C9.173 33.174 9.073 33.144 9.013 33.084C8.953 33.024 8.923 32.919 8.923 32.769V22.3889C8.923 22.2589 8.948 22.1689 8.998 22.1189C9.048 22.0689 9.143 22.0439 9.283 22.0439H10.888ZM12.088 24.159C11.998 24.159 11.953 24.229 11.953 24.369V30.849C11.953 30.929 11.963 30.984 11.983 31.014C12.013 31.044 12.068 31.059 12.148 31.059H12.343C13.463 31.059 14.298 30.789 14.848 30.249C15.408 29.699 15.688 28.799 15.688 27.5489C15.688 26.4289 15.463 25.6089 15.013 25.0889C14.573 24.5689 13.903 24.2739 13.003 24.2039L12.088 24.159ZM20.3488 22.3589C20.3488 22.1489 20.4338 22.0439 20.6038 22.0439H28.4488C28.6088 22.0439 28.6888 22.1389 28.6888 22.3289V23.8889C28.6888 23.9989 28.6588 24.0889 28.5988 24.159C28.5388 24.2189 28.4488 24.2489 28.3288 24.2489H23.6938C23.4838 24.2489 23.3788 24.3389 23.3788 24.5189V26.2139C23.3788 26.3039 23.3988 26.3739 23.4388 26.4239C23.4888 26.4739 23.5488 26.4989 23.6188 26.4989H26.5438C26.7338 26.4989 26.8288 26.5889 26.8288 26.7689V28.4339C26.8288 28.5839 26.7488 28.6589 26.5888 28.6589H23.6038C23.4538 28.6589 23.3788 28.7289 23.3788 28.869V30.774C23.3788 30.844 23.3888 30.894 23.4088 30.924C23.4388 30.954 23.4838 30.969 23.5438 30.969H28.5388C28.6388 30.969 28.7138 30.989 28.7638 31.029C28.8138 31.069 28.8388 31.134 28.8388 31.224V32.874C28.8388 33.074 28.7338 33.174 28.5238 33.174H20.7088C20.5788 33.174 20.4838 33.149 20.4238 33.099C20.3738 33.039 20.3488 32.949 20.3488 32.829V22.3589ZM30.5951 33.174C30.5051 33.174 30.4301 33.144 30.3701 33.084C30.3201 33.024 30.2951 32.954 30.2951 32.874V22.4039C30.2951 22.2939 30.3251 22.2089 30.3851 22.1489C30.4451 22.0789 30.5251 22.0439 30.6251 22.0439H34.9151C36.4251 22.0439 37.5751 22.2939 38.3651 22.7939C39.1551 23.2839 39.5501 24.0089 39.5501 24.9689C39.5501 25.5089 39.4001 25.9689 39.1001 26.3489C38.8101 26.7289 38.3051 27.0789 37.5851 27.3989C37.5651 27.409 37.5551 27.429 37.5551 27.459C37.5551 27.479 37.5651 27.494 37.5851 27.5039C38.3851 27.7839 38.9551 28.1339 39.2951 28.5539C39.6451 28.9639 39.8201 29.4989 39.8201 30.159C39.8201 31.179 39.4301 31.939 38.6501 32.439C37.8801 32.929 36.7051 33.174 35.1251 33.174H30.5951ZM35.1401 26.5139C35.5501 26.5139 35.8851 26.4089 36.1451 26.1989C36.4151 25.9789 36.5501 25.6839 36.5501 25.3139C36.5501 24.9339 36.4051 24.6339 36.1151 24.4139C35.8351 24.1839 35.4701 24.0689 35.0201 24.0689H33.6401C33.5201 24.0689 33.4351 24.0889 33.3851 24.1289C33.3451 24.1689 33.3251 24.2389 33.3251 24.3389V26.1989C33.3251 26.3089 33.3401 26.3889 33.3701 26.4389C33.4001 26.4889 33.4601 26.5139 33.5501 26.5139H35.1401ZM35.0501 31.149C35.5701 31.149 35.9701 31.029 36.2501 30.789C36.5301 30.5389 36.6701 30.2239 36.6701 29.8439C36.6701 29.454 36.5301 29.149 36.2501 28.9289C35.9701 28.6989 35.6001 28.5839 35.1401 28.5839H33.6401C33.5201 28.5839 33.4351 28.6089 33.3851 28.6589C33.3451 28.6989 33.3251 28.7739 33.3251 28.8839V30.849C33.3251 30.959 33.3401 31.039 33.3701 31.0889C33.4001 31.129 33.4601 31.149 33.5501 31.149H35.0501ZM40.4945 22.3589C40.4945 22.2689 40.5195 22.1939 40.5695 22.1339C40.6295 22.0739 40.7145 22.0439 40.8245 22.0439H49.6295C49.7395 22.0439 49.8195 22.0739 49.8695 22.1339C49.9295 22.1939 49.9595 22.2689 49.9595 22.3589V23.949C49.9595 24.1189 49.8595 24.2039 49.6595 24.2039H46.9295C46.8195 24.2039 46.7645 24.2539 46.7645 24.354V32.874C46.7645 33.074 46.6745 33.174 46.4945 33.174H43.9745C43.8045 33.174 43.7195 33.079 43.7195 32.889V24.4139C43.7195 24.3339 43.7095 24.2789 43.6895 24.2489C43.6695 24.2189 43.6295 24.2039 43.5695 24.2039H40.8095C40.5995 24.2039 40.4945 24.1189 40.4945 23.949V22.3589Z" fill="white"/>
<path d="M55.921 27.3701H3.59497V28.6311H55.921V27.3701Z" fill="white"/>
<path d="M73.587 20.968C74.4297 20.968 75.203 21.1227 75.907 21.432C76.611 21.7413 77.187 22.1733 77.635 22.728C78.083 23.272 78.371 23.8853 78.499 24.568L78.531 24.84C78.531 24.9253 78.515 24.984 78.483 25.016C78.451 25.0373 78.3923 25.0533 78.307 25.064L75.811 25.24C75.715 25.24 75.651 25.224 75.619 25.192C75.5977 25.1493 75.571 25.0693 75.539 24.952C75.2937 23.7787 74.6697 23.192 73.667 23.192C72.163 23.192 71.411 24.456 71.411 26.984C71.411 28.328 71.5977 29.304 71.971 29.912C72.3443 30.5093 72.9097 30.808 73.667 30.808C74.2643 30.808 74.771 30.6587 75.187 30.36C75.6137 30.0507 75.9657 29.5493 76.243 28.856C76.275 28.7707 76.355 28.728 76.483 28.728C76.547 28.728 76.6003 28.7333 76.643 28.744L78.451 29.096C78.515 29.1173 78.563 29.1493 78.595 29.192C78.6377 29.2347 78.659 29.3093 78.659 29.416C78.659 29.48 78.6537 29.5333 78.643 29.576C78.5577 30.0027 78.3177 30.4933 77.923 31.048C77.539 31.6027 76.979 32.0933 76.243 32.52C75.5177 32.9467 74.627 33.16 73.571 33.16C72.4617 33.16 71.4857 32.8987 70.643 32.376C69.811 31.8427 69.1657 31.1067 68.707 30.168C68.259 29.2293 68.035 28.152 68.035 26.936C68.035 25.7307 68.259 24.68 68.707 23.784C69.1657 22.8773 69.811 22.184 70.643 21.704C71.475 21.2133 72.4563 20.968 73.587 20.968ZM85.3701 33.16C84.2288 33.16 83.2315 32.9147 82.3781 32.424C81.5355 31.9333 80.8848 31.2347 80.4261 30.328C79.9675 29.4107 79.7381 28.3333 79.7381 27.096C79.7381 25.8587 79.9675 24.7813 80.4261 23.864C80.8955 22.936 81.5515 22.2213 82.3941 21.72C83.2475 21.2187 84.2395 20.968 85.3701 20.968C86.4901 20.968 87.4715 21.2187 88.3141 21.72C89.1675 22.2213 89.8235 22.936 90.2821 23.864C90.7515 24.7813 90.9861 25.8587 90.9861 27.096C90.9861 28.3227 90.7568 29.3947 90.2981 30.312C89.8395 31.2187 89.1835 31.9227 88.3301 32.424C87.4875 32.9147 86.5008 33.16 85.3701 33.16ZM85.3861 30.92C86.1648 30.92 86.7248 30.6267 87.0661 30.04C87.4181 29.4533 87.5941 28.488 87.5941 27.144C87.5941 25.7573 87.4128 24.7547 87.0501 24.136C86.6981 23.5067 86.1381 23.192 85.3701 23.192C84.5915 23.192 84.0208 23.5067 83.6581 24.136C83.3061 24.7547 83.1301 25.7573 83.1301 27.144C83.1301 28.488 83.3061 29.4533 83.6581 30.04C84.0101 30.6267 84.5861 30.92 85.3861 30.92ZM92.5596 21.464C92.5596 21.3573 92.581 21.2773 92.6236 21.224C92.677 21.16 92.7463 21.128 92.8316 21.128H95.5196C95.701 21.128 95.7916 21.2293 95.7916 21.432V30.44C95.7916 30.5147 95.8023 30.568 95.8236 30.6C95.8556 30.632 95.9036 30.648 95.9676 30.648H100.928C101.152 30.648 101.264 30.7387 101.264 30.92V32.68C101.264 32.776 101.232 32.856 101.168 32.92C101.104 32.9733 101.013 33 100.896 33H92.9436C92.7943 33 92.693 32.9733 92.6396 32.92C92.5863 32.856 92.5596 32.76 92.5596 32.632V21.464ZM102.716 21.464C102.716 21.3573 102.737 21.2773 102.78 21.224C102.833 21.16 102.903 21.128 102.988 21.128H105.676C105.857 21.128 105.948 21.2293 105.948 21.432V30.44C105.948 30.5147 105.959 30.568 105.98 30.6C106.012 30.632 106.06 30.648 106.124 30.648H111.084C111.308 30.648 111.42 30.7387 111.42 30.92V32.68C111.42 32.776 111.388 32.856 111.324 32.92C111.26 32.9733 111.169 33 111.052 33H103.1C102.951 33 102.849 32.9733 102.796 32.92C102.743 32.856 102.716 32.76 102.716 32.632V21.464ZM112.872 21.464C112.872 21.24 112.963 21.128 113.144 21.128H121.512C121.683 21.128 121.768 21.2293 121.768 21.432V23.096C121.768 23.2133 121.736 23.3093 121.672 23.384C121.608 23.448 121.512 23.48 121.384 23.48H116.44C116.216 23.48 116.104 23.576 116.104 23.768V25.576C116.104 25.672 116.125 25.7467 116.168 25.8C116.221 25.8533 116.285 25.88 116.36 25.88H119.48C119.683 25.88 119.784 25.976 119.784 26.168V27.944C119.784 28.104 119.699 28.184 119.528 28.184H116.344C116.184 28.184 116.104 28.2587 116.104 28.408V30.44C116.104 30.5147 116.115 30.568 116.136 30.6C116.168 30.632 116.216 30.648 116.28 30.648H121.608C121.715 30.648 121.795 30.6693 121.848 30.712C121.901 30.7547 121.928 30.824 121.928 30.92V32.68C121.928 32.8933 121.816 33 121.592 33H113.256C113.117 33 113.016 32.9733 112.952 32.92C112.899 32.856 112.872 32.76 112.872 32.632V21.464ZM127.743 20.968C128.586 20.968 129.359 21.1227 130.063 21.432C130.767 21.7413 131.343 22.1733 131.791 22.728C132.239 23.272 132.527 23.8853 132.655 24.568L132.687 24.84C132.687 24.9253 132.671 24.984 132.639 25.016C132.607 25.0373 132.549 25.0533 132.463 25.064L129.967 25.24C129.871 25.24 129.807 25.224 129.775 25.192C129.754 25.1493 129.727 25.0693 129.695 24.952C129.45 23.7787 128.826 23.192 127.823 23.192C126.319 23.192 125.567 24.456 125.567 26.984C125.567 28.328 125.754 29.304 126.127 29.912C126.501 30.5093 127.066 30.808 127.823 30.808C128.421 30.808 128.927 30.6587 129.343 30.36C129.77 30.0507 130.122 29.5493 130.399 28.856C130.431 28.7707 130.511 28.728 130.639 28.728C130.703 28.728 130.757 28.7333 130.799 28.744L132.607 29.096C132.671 29.1173 132.719 29.1493 132.751 29.192C132.794 29.2347 132.815 29.3093 132.815 29.416C132.815 29.48 132.81 29.5333 132.799 29.576C132.714 30.0027 132.474 30.4933 132.079 31.048C131.695 31.6027 131.135 32.0933 130.399 32.52C129.674 32.9467 128.783 33.16 127.727 33.16C126.618 33.16 125.642 32.8987 124.799 32.376C123.967 31.8427 123.322 31.1067 122.863 30.168C122.415 29.2293 122.191 28.152 122.191 26.936C122.191 25.7307 122.415 24.68 122.863 23.784C123.322 22.8773 123.967 22.184 124.799 21.704C125.631 21.2133 126.613 20.968 127.743 20.968ZM133.798 21.464C133.798 21.368 133.825 21.288 133.878 21.224C133.942 21.16 134.033 21.128 134.15 21.128H143.542C143.66 21.128 143.745 21.16 143.798 21.224C143.862 21.288 143.894 21.368 143.894 21.464V23.16C143.894 23.3413 143.788 23.432 143.574 23.432H140.662C140.545 23.432 140.486 23.4853 140.486 23.592V32.68C140.486 32.8933 140.39 33 140.198 33H137.51C137.329 33 137.238 32.8987 137.238 32.696V23.656C137.238 23.5707 137.228 23.512 137.206 23.48C137.185 23.448 137.142 23.432 137.078 23.432H134.134C133.91 23.432 133.798 23.3413 133.798 23.16V21.464ZM148.332 21.128C148.513 21.128 148.604 21.2293 148.604 21.432V32.568C148.604 32.728 148.567 32.84 148.492 32.904C148.417 32.968 148.295 33 148.124 33H145.756C145.607 33 145.505 32.9733 145.452 32.92C145.399 32.856 145.372 32.76 145.372 32.632V21.464C145.372 21.3573 145.393 21.2773 145.436 21.224C145.489 21.16 145.559 21.128 145.644 21.128H148.332ZM160.704 21.128C160.821 21.128 160.907 21.1707 160.96 21.256C161.013 21.3413 161.024 21.4373 160.992 21.544L157.216 32.632C157.141 32.8773 156.96 33 156.672 33H154.352C154.053 33 153.872 32.8773 153.808 32.632L150.048 21.544C150.027 21.48 150.016 21.432 150.016 21.4C150.016 21.3253 150.043 21.2613 150.096 21.208C150.149 21.1547 150.224 21.128 150.32 21.128H153.04C153.221 21.128 153.344 21.2293 153.408 21.432L155.776 28.968C155.808 29.0427 155.84 29.08 155.872 29.08C155.893 29.08 155.92 29.0373 155.952 28.952L158.224 21.432C158.235 21.336 158.272 21.2613 158.336 21.208C158.411 21.1547 158.496 21.128 158.592 21.128H160.704ZM162.435 21.464C162.435 21.24 162.525 21.128 162.707 21.128H171.075C171.245 21.128 171.331 21.2293 171.331 21.432V23.096C171.331 23.2133 171.299 23.3093 171.235 23.384C171.171 23.448 171.075 23.48 170.947 23.48H166.003C165.779 23.48 165.667 23.576 165.667 23.768V25.576C165.667 25.672 165.688 25.7467 165.731 25.8C165.784 25.8533 165.848 25.88 165.923 25.88H169.043C169.245 25.88 169.347 25.976 169.347 26.168V27.944C169.347 28.104 169.261 28.184 169.091 28.184H165.907C165.747 28.184 165.667 28.2587 165.667 28.408V30.44C165.667 30.5147 165.677 30.568 165.699 30.6C165.731 30.632 165.779 30.648 165.843 30.648H171.171C171.277 30.648 171.357 30.6693 171.411 30.712C171.464 30.7547 171.491 30.824 171.491 30.92V32.68C171.491 32.8933 171.379 33 171.155 33H162.819C162.68 33 162.579 32.9733 162.515 32.92C162.461 32.856 162.435 32.76 162.435 32.632V21.464Z" fill="white"/>
</svg>
